<svg xmlns="http://www.w3.org/2000/svg" xmlns:xlink="http://www.w3.org/1999/xlink" width="800" zoomAndPan="magnify" viewBox="0 0 600 374.999991" height="500" preserveAspectRatio="xMidYMid meet" version="1.0"><defs><clipPath id="c7e424641d"><path d="M 264.058594 113 L 336 113 L 336 262.5 L 264.058594 262.5 Z M 264.058594 113 " clip-rule="nonzero"/></clipPath></defs><rect x="-60" width="720" fill="#ffffff" y="-37.499999" height="449.999989" fill-opacity="1"/><rect x="-60" width="720" fill="#ff66c4" y="-37.499999" height="449.999989" fill-opacity="1"/><g clip-path="url(#c7e424641d)"><path fill="#0f0e0c" d="M 310.953125 237.398438 C 311.273438 233.695312 312.949219 229.945312 314.132812 226.449219 C 314.484375 225.417969 314.851562 224.382812 315.222656 223.347656 C 316.441406 226.320312 317.664062 229.296875 318.871094 232.277344 C 319.683594 234.285156 320.941406 236.476562 321.230469 238.632812 C 321.535156 240.886719 320.601562 243.160156 319.734375 245.1875 C 319.265625 246.277344 318.785156 247.367188 318.304688 248.453125 C 317.730469 247.90625 317.160156 247.351562 316.59375 246.804688 C 313.816406 244.121094 310.582031 241.65625 310.953125 237.398438 Z M 335.898438 238.441406 C 335.832031 237.277344 335.363281 236.246094 334.902344 235.230469 C 330.785156 226.214844 327.117188 216.859375 324.011719 207.40625 C 328.566406 204.546875 331.953125 199.871094 333.121094 194.78125 C 334.738281 187.777344 332.195312 179.871094 326.792969 175.113281 C 326.554688 174.90625 326.304688 174.695312 326.058594 174.488281 C 325.121094 173.695312 324.230469 172.949219 323.703125 171.972656 C 322.5625 169.863281 323.328125 167.203125 324.207031 164.65625 L 324.34375 164.269531 C 326.484375 158.070312 328.703125 151.664062 329.386719 145.019531 C 330.179688 137.351562 328.652344 130.3125 325.082031 125.203125 C 322.242188 121.132812 317.917969 118.328125 313.433594 117.371094 C 312.9375 117.265625 312.433594 117.179688 311.9375 117.125 C 310.457031 116.945312 308.976562 116.976562 307.539062 117.234375 C 305.0625 115.324219 301.816406 114.089844 297.640625 113.46875 C 291.167969 112.5 284.5 113.171875 278.355469 115.402344 C 273.375 117.210938 269.960938 119.804688 268.207031 123.105469 C 267.203125 124.996094 266.875 127.246094 267.199219 129.324219 C 267.277344 129.847656 267.398438 130.367188 267.5625 130.859375 C 267.816406 131.632812 268.171875 132.355469 268.621094 132.992188 L 268.136719 135.808594 C 267.992188 136.648438 267.828125 137.597656 268.03125 138.5625 C 268.316406 139.925781 269.230469 140.976562 270.113281 141.996094 C 271.089844 143.117188 271.933594 144.085938 271.75 145.21875 C 271.519531 146.65625 269.664062 147.46875 268.175781 148.121094 C 265.515625 149.28125 264.144531 151.074219 264.507812 152.910156 C 264.734375 154.039062 265.542969 154.808594 266.257812 155.484375 C 266.554688 155.769531 266.832031 156.03125 267.0625 156.304688 C 268.441406 157.953125 268.378906 160.25 268.308594 162.679688 C 268.277344 163.898438 268.242188 165.152344 268.394531 166.363281 C 268.5625 167.6875 268.96875 168.660156 269.640625 169.335938 C 270.460938 170.171875 271.605469 170.496094 272.71875 170.714844 C 275.304688 171.234375 277.949219 171.464844 280.578125 171.398438 L 280.683594 171.394531 C 281.390625 171.378906 282.050781 171.359375 282.578125 171.609375 C 283.648438 172.109375 283.984375 173.65625 284.15625 174.953125 C 284.375 176.558594 284.550781 178.203125 284.679688 179.832031 C 284.699219 180.113281 284.722656 180.398438 284.738281 180.679688 L 284.558594 180.652344 C 284.238281 183.132812 282.542969 185.4375 279.382812 187.691406 C 279.152344 187.855469 278.914062 188.019531 278.667969 188.183594 C 278.582031 188.238281 278.496094 188.296875 278.410156 188.351562 C 277.886719 188.695312 277.347656 189.035156 276.824219 189.367188 C 275.707031 190.074219 274.554688 190.800781 273.484375 191.609375 C 273.382812 191.679688 273.285156 191.757812 273.1875 191.832031 C 273.074219 191.917969 272.964844 192.007812 272.859375 192.089844 C 271.789062 192.953125 270.929688 193.824219 270.234375 194.761719 C 267.097656 198.988281 267.140625 204.472656 267.480469 210.191406 L 270.167969 256.0625 L 270.167969 256.09375 C 270.171875 256.140625 270.175781 256.191406 270.175781 256.238281 L 270.210938 256.234375 C 270.253906 256.394531 270.347656 256.535156 270.492188 256.640625 C 272.496094 258.074219 275.285156 259.601562 279.046875 260.742188 C 279.582031 260.902344 280.140625 261.058594 280.71875 261.203125 C 283.875 261.996094 287.636719 262.507812 292.085938 262.507812 C 293.148438 262.507812 294.253906 262.480469 295.398438 262.417969 C 301.515625 262.089844 307.589844 261.015625 313.464844 259.242188 C 314.300781 258.992188 315.125 258.726562 315.949219 258.445312 C 318.417969 257.613281 320.84375 256.65625 323.226562 255.574219 C 323.691406 255.363281 324.160156 255.144531 324.625 254.921875 C 324.671875 254.910156 324.71875 254.902344 324.765625 254.890625 C 324.757812 254.882812 324.757812 254.871094 324.75 254.859375 C 327.234375 253.671875 329.660156 252.34375 332.015625 250.890625 C 332.023438 250.886719 332.023438 250.882812 332.027344 250.882812 C 332.046875 250.871094 332.070312 250.855469 332.085938 250.835938 C 332.125 250.8125 332.15625 250.78125 332.183594 250.746094 C 332.203125 250.730469 332.214844 250.710938 332.226562 250.691406 C 332.265625 250.640625 332.296875 250.585938 332.316406 250.523438 L 332.328125 250.507812 C 333.386719 247.582031 334.402344 244.574219 335.34375 241.5625 C 335.636719 240.628906 335.964844 239.566406 335.898438 238.441406 " fill-opacity="1" fill-rule="nonzero"/><path fill="#0f0e0c" d="M 284.285156 161.515625 C 284.050781 162.492188 283.226562 163.1875 282.292969 163.503906 C 281.53125 163.765625 280.203125 163.921875 279.652344 163.175781 C 279.566406 163.066406 279.644531 162.933594 279.769531 162.902344 C 280.371094 162.742188 281 162.773438 281.585938 162.53125 C 282.277344 162.238281 282.824219 161.765625 283.34375 161.238281 C 283.59375 160.984375 284.414062 160.988281 284.285156 161.515625 Z M 285.613281 154.167969 C 285.027344 159.082031 278.644531 163.132812 274.132812 160.128906 C 273.78125 159.894531 274.136719 159.488281 274.464844 159.539062 C 276.839844 159.890625 279.078125 160.011719 281.105469 158.511719 C 282.601562 157.410156 283.539062 155.75 284.082031 154.007812 C 284.292969 153.34375 285.707031 153.359375 285.613281 154.167969 Z M 278.042969 141.339844 C 277.898438 138.890625 280.488281 136.933594 282.722656 136.648438 C 285.1875 136.335938 287.980469 137.792969 288.332031 140.402344 C 288.398438 140.898438 287.570312 141.21875 287.265625 140.828125 C 286.132812 139.375 284.546875 137.90625 282.542969 138.214844 C 280.71875 138.496094 279.894531 139.929688 279.09375 141.402344 C 278.910156 141.742188 278.078125 141.855469 278.042969 141.339844 Z M 280.003906 148.484375 C 279.652344 148.351562 279.316406 148.195312 279.003906 148.003906 C 278.359375 147.621094 277.804688 147.113281 277.394531 146.484375 C 277.179688 146.152344 277.785156 146.042969 277.980469 146.136719 C 278.566406 146.433594 279.148438 146.71875 279.734375 146.960938 C 280.164062 146.152344 280.359375 145.242188 280.269531 144.28125 C 280.242188 143.9375 280.832031 143.84375 280.960938 144.136719 C 281.4375 145.203125 281.378906 146.382812 280.875 147.363281 C 281.800781 147.621094 282.757812 147.710938 283.800781 147.480469 C 285.675781 147.070312 286.902344 145.832031 288.285156 144.617188 C 288.675781 144.269531 289.398438 144.597656 289.21875 145.128906 C 288.089844 148.488281 283.332031 149.730469 280.003906 148.484375 Z M 299.132812 150.289062 C 298.851562 149.117188 299.585938 147.417969 300.132812 146.40625 C 300.785156 145.191406 301.636719 144.265625 302.785156 143.515625 C 303.101562 143.304688 303.699219 143.617188 303.359375 143.988281 C 302.558594 144.859375 301.792969 145.847656 301.300781 146.925781 C 301.078125 147.402344 300.316406 149.035156 300.601562 149.582031 C 300.875 150.101562 301.554688 149.398438 301.960938 149.28125 C 302.402344 149.15625 302.867188 149.171875 303.292969 149.320312 C 304.394531 149.703125 304.933594 150.828125 304.71875 151.933594 C 304.4375 153.386719 303.191406 154.269531 302.019531 155.003906 C 301.308594 155.449219 300.148438 154.664062 301.007812 154.121094 C 302.015625 153.488281 303.128906 152.851562 303.078125 151.527344 C 303.015625 149.9375 301.761719 150.996094 300.976562 151.242188 C 300.148438 151.496094 299.34375 151.152344 299.132812 150.289062 Z M 333.914062 241.113281 C 333.007812 244.023438 332.027344 246.925781 331.003906 249.75 C 328.648438 251.199219 326.214844 252.515625 323.722656 253.695312 C 323.136719 253.972656 322.542969 254.242188 321.953125 254.5 C 320.242188 255.261719 318.507812 255.957031 316.75 256.585938 C 316.894531 256.1875 317.03125 255.804688 317.179688 255.46875 C 317.714844 254.234375 318.25 253.003906 318.785156 251.773438 L 318.910156 251.484375 C 319.15625 250.914062 319.410156 250.34375 319.664062 249.773438 C 320.433594 248.035156 321.210938 246.296875 321.914062 244.53125 C 322.710938 242.53125 323.375 240.324219 323.042969 238.148438 C 322.660156 235.625 321.1875 233.0625 320.222656 230.710938 C 318.875 227.417969 317.503906 224.128906 316.101562 220.855469 L 315.265625 218.917969 C 314.835938 217.929688 314.402344 216.9375 313.96875 215.949219 C 313.84375 215.671875 313.710938 215.347656 313.570312 214.988281 C 313.367188 214.476562 313.144531 213.886719 312.890625 213.277344 C 311.496094 209.859375 309.308594 205.535156 305.664062 207.371094 C 305.355469 207.527344 305.660156 207.863281 305.925781 207.777344 C 308.839844 206.820312 310.015625 210.5625 310.832031 212.550781 C 311.082031 213.15625 311.328125 213.757812 311.574219 214.363281 C 310.609375 215.039062 309.535156 215.511719 308.300781 215.636719 C 306.796875 215.785156 305.214844 215.34375 304.035156 214.398438 C 302.519531 213.191406 302.253906 211.375 302.433594 209.539062 C 302.820312 205.609375 303.691406 201.679688 304.324219 197.789062 C 304.867188 194.46875 305.429688 191.152344 305.863281 187.816406 C 307.875 188.375 309.84375 189.105469 311.726562 190 C 313.867188 191.011719 315.320312 191.972656 316.441406 193.121094 C 318.742188 195.480469 319.765625 198.847656 320.761719 202.101562 L 320.820312 202.292969 C 321.3125 203.921875 321.847656 205.605469 322.402344 207.308594 C 325.570312 217.003906 329.316406 226.609375 333.546875 235.871094 C 333.960938 236.78125 334.351562 237.640625 334.402344 238.527344 C 334.457031 239.386719 334.167969 240.304688 333.914062 241.113281 Z M 271.640625 255.617188 L 269.628906 221.242188 C 269.996094 221.789062 270.40625 222.304688 270.820312 222.800781 C 272.054688 224.269531 273.390625 225.640625 274.363281 227.308594 C 275.46875 229.195312 276.152344 231.289062 276.609375 233.417969 C 277.570312 237.890625 277.683594 242.546875 278.027344 247.097656 C 278.234375 249.886719 278.453125 252.671875 278.675781 255.460938 C 278.773438 256.667969 278.828125 257.902344 278.914062 259.140625 C 276.367188 258.324219 273.890625 257.183594 271.640625 255.617188 Z M 269.160156 213.253906 L 268.972656 210.105469 C 268.652344 204.667969 268.601562 199.476562 271.4375 195.652344 C 271.964844 194.941406 272.609375 194.261719 273.390625 193.59375 C 273.863281 195.148438 274.097656 196.777344 274.058594 198.40625 C 274.050781 198.683594 274.035156 198.957031 274.011719 199.230469 L 273.558594 202.046875 C 273.558594 202.050781 273.558594 202.054688 273.558594 202.058594 C 273.441406 202.605469 273.320312 203.148438 273.207031 203.699219 C 272.386719 206.769531 270.765625 209.667969 269.476562 212.53125 C 269.367188 212.773438 269.261719 213.011719 269.160156 213.253906 Z M 279.53125 200.914062 C 280.050781 197.097656 280.09375 193.183594 279.621094 189.347656 C 282.105469 187.675781 283.859375 185.949219 284.910156 184.125 C 284.988281 186.703125 284.953125 189.289062 284.808594 191.84375 C 284.804688 191.914062 284.8125 191.980469 284.824219 192.046875 C 284.578125 194.175781 284.105469 196.496094 282.484375 196.261719 C 282.039062 196.199219 281.722656 196.78125 282.21875 196.96875 C 285.925781 198.335938 286.925781 192.273438 286.410156 189.566406 C 286.507812 186.292969 286.429688 182.988281 286.171875 179.714844 C 286.042969 178.058594 285.863281 176.390625 285.644531 174.753906 C 285.417969 173.082031 284.9375 171.0625 283.214844 170.253906 C 282.371094 169.851562 281.453125 169.878906 280.644531 169.898438 L 280.542969 169.902344 C 278.023438 169.964844 275.492188 169.746094 273.015625 169.25 C 272.195312 169.085938 271.273438 168.863281 270.707031 168.289062 C 270.273438 167.851562 270.003906 167.160156 269.878906 166.175781 C 269.742188 165.082031 269.777344 163.882812 269.808594 162.722656 C 269.878906 160.117188 269.953125 157.425781 268.210938 155.347656 C 267.925781 155.003906 267.601562 154.699219 267.292969 154.402344 C 266.683594 153.824219 266.113281 153.28125 265.980469 152.621094 C 265.722656 151.328125 267.257812 150.152344 268.78125 149.488281 C 270.503906 148.734375 272.867188 147.699219 273.230469 145.460938 C 273.523438 143.632812 272.3125 142.238281 271.246094 141.011719 C 270.453125 140.101562 269.703125 139.234375 269.496094 138.257812 C 269.351562 137.574219 269.484375 136.804688 269.613281 136.0625 L 270.144531 132.984375 L 270.152344 132.933594 C 270.160156 132.890625 270.164062 132.847656 270.164062 132.804688 C 270.164062 132.773438 270.160156 132.734375 270.15625 132.703125 C 270.148438 132.65625 270.140625 132.609375 270.125 132.570312 C 270.109375 132.53125 270.09375 132.492188 270.074219 132.457031 C 270.0625 132.429688 270.042969 132.40625 270.027344 132.378906 C 270.015625 132.359375 270.003906 132.34375 269.988281 132.328125 C 269.878906 132.183594 269.773438 132.03125 269.675781 131.878906 C 272.894531 133.113281 276.492188 133.140625 279.800781 131.90625 C 282.480469 130.90625 284.851562 129.054688 287.699219 128.492188 C 287.855469 128.457031 288.015625 128.429688 288.167969 128.414062 C 288.175781 128.417969 288.179688 128.425781 288.1875 128.429688 C 290.328125 130.234375 291.328125 132.226562 291.648438 135.019531 C 291.972656 137.785156 291.789062 140.636719 292.992188 143.222656 C 293.78125 144.914062 295.402344 146.621094 297.457031 145.957031 C 299.191406 145.394531 299.59375 143.839844 300.09375 142.34375 C 301.09375 141.183594 302.195312 140.207031 304.0625 140.242188 C 306.664062 140.28125 307.976562 142.886719 308.375 145.121094 C 309.304688 150.28125 306.40625 155.148438 301.816406 157.429688 C 301.300781 157.683594 301.324219 158.089844 301.589844 158.328125 C 300.585938 159.832031 300.03125 161.929688 300.613281 163.644531 C 299.886719 164.253906 299.152344 164.855469 298.375 165.402344 C 296.8125 166.507812 295.105469 167.332031 293.363281 168.117188 C 292.859375 168.339844 293.191406 168.847656 293.65625 168.726562 C 296.296875 168.050781 299.078125 166.671875 301.179688 164.742188 C 301.242188 164.832031 301.308594 164.917969 301.386719 165 L 299.40625 177.980469 C 299.015625 180.523438 298.863281 183.109375 300.214844 184.992188 C 299.25 189.308594 297.867188 193.527344 295.976562 197.53125 C 294.925781 199.769531 293.71875 201.933594 292.355469 204.003906 C 291.75 204.929688 291.140625 205.898438 290.390625 206.722656 C 289.359375 207.851562 288.113281 208.015625 286.65625 208.148438 C 285.429688 208.261719 284.199219 208.371094 282.972656 208.480469 C 281.722656 208.59375 279.972656 209.035156 279.128906 207.824219 C 277.953125 206.148438 279.285156 202.722656 279.53125 200.914062 Z M 269.53125 123.804688 C 271.105469 120.839844 274.246094 118.492188 278.867188 116.808594 C 284.777344 114.660156 291.191406 114.015625 297.417969 114.949219 C 301.117188 115.5 304.015625 116.542969 306.238281 118.136719 C 306.457031 118.285156 306.667969 118.449219 306.871094 118.613281 C 306.882812 118.621094 306.890625 118.628906 306.898438 118.632812 C 306.917969 118.648438 306.933594 118.664062 306.953125 118.679688 L 307 118.714844 C 307.050781 118.757812 307.101562 118.796875 307.148438 118.839844 C 308.117188 119.664062 308.980469 120.652344 309.753906 121.816406 C 309.972656 122.140625 310.179688 122.476562 310.382812 122.828125 C 311.378906 124.5625 312.207031 126.628906 312.871094 129.058594 C 314.871094 136.351562 314.78125 143.566406 312.613281 149.933594 C 310.671875 155.613281 307.058594 160.445312 302.394531 163.605469 L 302.351562 163.523438 C 302.234375 163.304688 302.140625 163.074219 302.078125 162.839844 C 302.042969 162.722656 302.019531 162.609375 302.003906 162.492188 C 301.761719 161.0625 302.492188 159.757812 302.710938 158.363281 C 308.605469 156.046875 312.09375 149.003906 309.679688 142.953125 C 308.667969 140.417969 306.460938 138.640625 303.628906 138.953125 C 302.8125 139.042969 301.894531 139.363281 301.027344 139.859375 C 300.007812 140.433594 299.066406 141.246094 298.449219 142.1875 C 298.152344 142.636719 297.933594 143.117188 297.816406 143.613281 C 297.226562 144.550781 296.34375 145.035156 295.277344 143.714844 C 293.859375 141.96875 293.679688 139.421875 293.476562 137.277344 C 293.1875 134.316406 292.707031 129.898438 289.742188 128.378906 C 291.796875 128.605469 293.238281 129.960938 294.140625 132.128906 C 294.191406 132.242188 294.386719 132.234375 294.425781 132.121094 C 295.015625 130.296875 293.449219 128.570312 291.902344 127.824219 C 289.738281 126.78125 287.230469 127.234375 285.082031 128.070312 C 282.039062 129.257812 279.421875 131.25 276.074219 131.558594 C 273.609375 131.78125 271.140625 131.300781 268.929688 130.242188 C 268.292969 128.210938 268.480469 125.78125 269.53125 123.804688 Z M 316.59375 246.804688 C 313.816406 244.121094 310.582031 241.65625 310.953125 237.398438 C 311.273438 233.695312 312.949219 229.945312 314.132812 226.449219 C 314.484375 225.417969 314.851562 224.382812 315.222656 223.347656 C 316.441406 226.320312 317.664062 229.296875 318.871094 232.277344 C 319.6875 234.285156 320.941406 236.476562 321.230469 238.632812 C 321.535156 240.886719 320.601562 243.160156 319.734375 245.1875 C 319.265625 246.277344 318.785156 247.367188 318.304688 248.453125 C 317.730469 247.90625 317.164062 247.351562 316.59375 246.804688 Z M 313.167969 118.835938 C 317.265625 119.71875 321.238281 122.308594 323.855469 126.054688 C 327.21875 130.875 328.652344 137.554688 327.898438 144.867188 C 327.230469 151.335938 325.042969 157.664062 322.925781 163.785156 L 322.789062 164.171875 C 321.847656 166.90625 320.953125 170.042969 322.382812 172.6875 C 323.046875 173.914062 324.089844 174.785156 325.09375 175.632812 C 325.332031 175.832031 325.570312 176.035156 325.804688 176.238281 C 330.800781 180.640625 333.15625 187.960938 331.664062 194.449219 C 330.757812 198.378906 328.417969 202.046875 325.210938 204.695312 C 325.777344 199.9375 325.660156 194.769531 323.871094 190.3125 C 323.042969 188.238281 321.824219 186.308594 320.171875 184.789062 C 318.34375 183.109375 315.839844 182.183594 314.324219 180.160156 C 311.4375 176.3125 312.746094 170.882812 314.296875 166.785156 C 316.28125 161.539062 319.171875 156.675781 321.007812 151.371094 C 322.832031 146.09375 323.523438 140.359375 321.375 135.078125 C 321.242188 134.757812 320.613281 134.925781 320.734375 135.285156 C 324.480469 146.4375 316.511719 156.8125 312.707031 166.71875 C 311.246094 170.515625 310.21875 175.042969 311.820312 178.960938 C 313.582031 183.269531 318.625 184.449219 321.109375 188.238281 C 324.535156 193.46875 323.957031 199.558594 324.175781 205.492188 C 323.964844 205.644531 323.75 205.792969 323.535156 205.9375 C 323.085938 204.554688 322.660156 203.1875 322.253906 201.859375 L 322.195312 201.667969 C 321.148438 198.238281 320.070312 194.695312 317.515625 192.078125 C 315.914062 190.4375 313.921875 189.382812 312.367188 188.648438 C 310.339844 187.6875 308.214844 186.90625 306.050781 186.316406 C 305.960938 186.289062 305.871094 186.265625 305.777344 186.242188 L 305.40625 186.144531 C 305.257812 186.105469 305.109375 186.066406 304.953125 186.027344 C 303.808594 185.722656 302.671875 185.367188 301.882812 184.632812 C 301.839844 184.589844 301.792969 184.546875 301.75 184.503906 C 301.347656 184.085938 301.078125 183.589844 300.898438 183.042969 C 300.441406 181.613281 300.640625 179.835938 300.886719 178.207031 L 302.761719 165.949219 L 302.894531 165.066406 C 303.074219 164.953125 303.253906 164.832031 303.433594 164.710938 C 308.269531 161.367188 312.015625 156.328125 314.035156 150.414062 C 316.300781 143.765625 316.394531 136.246094 314.316406 128.664062 C 313.578125 125.972656 312.644531 123.6875 311.5 121.777344 C 312.257812 120.925781 312.847656 119.914062 313.167969 118.839844 Z M 335.898438 238.441406 C 335.832031 237.277344 335.363281 236.246094 334.902344 235.230469 C 330.785156 226.214844 327.117188 216.859375 324.011719 207.40625 C 328.566406 204.546875 331.953125 199.871094 333.121094 194.78125 C 334.738281 187.777344 332.195312 179.871094 326.796875 175.113281 C 326.554688 174.90625 326.304688 174.695312 326.0625 174.488281 C 325.121094 173.695312 324.230469 172.949219 323.703125 171.972656 C 322.5625 169.863281 323.328125 167.203125 324.207031 164.65625 L 324.34375 164.269531 C 326.484375 158.070312 328.703125 151.664062 329.386719 145.019531 C 330.183594 137.351562 328.652344 130.3125 325.082031 125.203125 C 322.242188 121.132812 317.917969 118.328125 313.433594 117.371094 C 312.9375 117.265625 312.4375 117.179688 311.9375 117.125 C 310.457031 116.945312 308.976562 116.976562 307.539062 117.234375 C 305.0625 115.324219 301.816406 114.089844 297.640625 113.46875 C 291.167969 112.5 284.5 113.171875 278.355469 115.402344 C 273.375 117.210938 269.960938 119.804688 268.207031 123.105469 C 267.203125 124.996094 266.875 127.246094 267.199219 129.324219 C 267.277344 129.847656 267.398438 130.367188 267.5625 130.859375 C 267.816406 131.632812 268.171875 132.355469 268.621094 132.992188 L 268.136719 135.808594 C 267.992188 136.648438 267.828125 137.597656 268.03125 138.5625 C 268.316406 139.925781 269.230469 140.976562 270.113281 141.996094 C 271.089844 143.117188 271.933594 144.085938 271.75 145.21875 C 271.519531 146.65625 269.664062 147.46875 268.175781 148.121094 C 265.515625 149.28125 264.148438 151.074219 264.507812 152.910156 C 264.734375 154.039062 265.542969 154.808594 266.261719 155.484375 C 266.554688 155.769531 266.832031 156.03125 267.0625 156.304688 C 268.441406 157.953125 268.378906 160.25 268.308594 162.679688 C 268.277344 163.898438 268.246094 165.152344 268.394531 166.363281 C 268.5625 167.6875 268.96875 168.660156 269.640625 169.335938 C 270.460938 170.171875 271.605469 170.496094 272.71875 170.714844 C 275.304688 171.234375 277.949219 171.464844 280.582031 171.398438 L 280.683594 171.394531 C 281.390625 171.378906 282.050781 171.359375 282.578125 171.609375 C 283.648438 172.109375 283.984375 173.65625 284.160156 174.953125 C 284.378906 176.558594 284.550781 178.203125 284.679688 179.832031 C 284.703125 180.113281 284.722656 180.398438 284.738281 180.679688 L 284.558594 180.652344 C 284.238281 183.132812 282.542969 185.4375 279.382812 187.691406 C 279.152344 187.855469 278.914062 188.019531 278.667969 188.183594 C 278.585938 188.238281 278.496094 188.296875 278.410156 188.351562 C 277.890625 188.695312 277.347656 189.035156 276.824219 189.367188 C 275.707031 190.074219 274.554688 190.800781 273.484375 191.609375 C 273.382812 191.679688 273.285156 191.757812 273.1875 191.832031 C 273.074219 191.917969 272.964844 192.007812 272.859375 192.089844 C 271.789062 192.953125 270.929688 193.824219 270.234375 194.761719 C 267.097656 198.988281 267.140625 204.472656 267.480469 210.191406 L 270.167969 256.0625 L 270.167969 256.09375 C 270.171875 256.140625 270.175781 256.191406 270.175781 256.238281 L 270.210938 256.234375 C 270.253906 256.394531 270.347656 256.535156 270.496094 256.640625 C 272.496094 258.074219 275.289062 259.601562 279.046875 260.742188 C 279.582031 260.902344 280.144531 261.058594 280.722656 261.203125 C 283.878906 261.996094 287.636719 262.507812 292.085938 262.507812 C 293.148438 262.507812 294.253906 262.480469 295.398438 262.417969 C 301.515625 262.089844 307.589844 261.015625 313.46875 259.242188 C 314.300781 258.992188 315.128906 258.726562 315.953125 258.445312 C 318.417969 257.613281 320.84375 256.65625 323.226562 255.574219 C 323.691406 255.363281 324.160156 255.144531 324.625 254.921875 C 324.671875 254.910156 324.71875 254.902344 324.765625 254.890625 C 324.761719 254.882812 324.757812 254.871094 324.75 254.859375 C 327.234375 253.671875 329.660156 252.34375 332.015625 250.890625 C 332.023438 250.886719 332.023438 250.882812 332.027344 250.882812 C 332.050781 250.871094 332.070312 250.855469 332.085938 250.835938 C 332.125 250.8125 332.15625 250.78125 332.183594 250.746094 C 332.203125 250.730469 332.214844 250.710938 332.230469 250.691406 C 332.269531 250.640625 332.296875 250.585938 332.320312 250.523438 L 332.328125 250.507812 C 333.386719 247.582031 334.40625 244.574219 335.34375 241.558594 C 335.636719 240.628906 335.964844 239.566406 335.898438 238.441406 " fill-opacity="1" fill-rule="nonzero"/></g><path fill="#ffffff" d="M 273.558594 202.058594 C 273.558594 202.054688 273.558594 202.050781 273.558594 202.046875 L 274.011719 199.230469 C 274.035156 198.957031 274.050781 198.683594 274.058594 198.40625 C 274.097656 196.777344 273.863281 195.148438 273.394531 193.59375 C 272.609375 194.261719 271.964844 194.941406 271.4375 195.652344 C 268.605469 199.476562 268.65625 204.667969 268.972656 210.105469 L 269.160156 213.253906 C 269.261719 213.011719 269.367188 212.773438 269.476562 212.53125 C 270.765625 209.667969 272.386719 206.769531 273.207031 203.699219 C 273.320312 203.148438 273.441406 202.605469 273.558594 202.058594 Z M 278.027344 247.097656 C 277.683594 242.546875 277.570312 237.890625 276.609375 233.417969 C 276.152344 231.289062 275.46875 229.195312 274.363281 227.308594 C 273.390625 225.640625 272.054688 224.269531 270.820312 222.800781 C 270.40625 222.304688 269.996094 221.789062 269.628906 221.242188 L 271.644531 255.617188 C 273.894531 257.183594 276.367188 258.324219 278.917969 259.140625 C 278.828125 257.902344 278.773438 256.667969 278.675781 255.460938 C 278.457031 252.671875 278.234375 249.886719 278.027344 247.097656 Z M 288.285156 144.617188 C 286.902344 145.832031 285.675781 147.070312 283.800781 147.480469 C 282.757812 147.710938 281.800781 147.621094 280.875 147.363281 C 281.378906 146.382812 281.4375 145.203125 280.960938 144.136719 C 280.832031 143.84375 280.242188 143.9375 280.269531 144.28125 C 280.359375 145.242188 280.164062 146.152344 279.734375 146.960938 C 279.148438 146.71875 278.566406 146.433594 277.980469 146.136719 C 277.785156 146.042969 277.179688 146.152344 277.394531 146.484375 C 277.804688 147.113281 278.359375 147.621094 279.003906 148.003906 C 279.316406 148.195312 279.652344 148.351562 280.003906 148.484375 C 283.332031 149.730469 288.089844 148.488281 289.21875 145.128906 C 289.398438 144.597656 288.675781 144.269531 288.285156 144.617188 Z M 284.082031 154.007812 C 283.539062 155.75 282.601562 157.410156 281.105469 158.511719 C 279.078125 160.011719 276.839844 159.890625 274.464844 159.539062 C 274.136719 159.488281 273.78125 159.894531 274.132812 160.128906 C 278.644531 163.132812 285.027344 159.082031 285.613281 154.167969 C 285.707031 153.359375 284.292969 153.34375 284.082031 154.007812 Z M 283.34375 161.238281 C 282.824219 161.765625 282.277344 162.238281 281.585938 162.53125 C 281 162.773438 280.371094 162.742188 279.769531 162.902344 C 279.644531 162.933594 279.566406 163.066406 279.652344 163.175781 C 280.203125 163.921875 281.53125 163.765625 282.292969 163.503906 C 283.226562 163.1875 284.050781 162.492188 284.285156 161.515625 C 284.414062 160.988281 283.59375 160.984375 283.34375 161.238281 Z M 278.042969 141.339844 C 278.078125 141.855469 278.910156 141.742188 279.09375 141.402344 C 279.894531 139.929688 280.71875 138.496094 282.542969 138.214844 C 284.546875 137.90625 286.132812 139.375 287.265625 140.828125 C 287.570312 141.21875 288.398438 140.898438 288.332031 140.402344 C 287.980469 137.792969 285.1875 136.335938 282.722656 136.648438 C 280.488281 136.933594 277.898438 138.890625 278.042969 141.339844 Z M 299.132812 150.289062 C 299.34375 151.152344 300.148438 151.496094 300.976562 151.242188 C 301.761719 150.996094 303.015625 149.9375 303.078125 151.527344 C 303.128906 152.851562 302.015625 153.488281 301.007812 154.121094 C 300.148438 154.664062 301.308594 155.449219 302.019531 155.003906 C 303.191406 154.269531 304.4375 153.386719 304.71875 151.933594 C 304.933594 150.828125 304.394531 149.703125 303.292969 149.324219 C 302.867188 149.171875 302.402344 149.15625 301.960938 149.28125 C 301.554688 149.398438 300.875 150.101562 300.601562 149.582031 C 300.316406 149.035156 301.078125 147.402344 301.300781 146.925781 C 301.792969 145.847656 302.558594 144.859375 303.359375 143.988281 C 303.699219 143.617188 303.101562 143.304688 302.785156 143.515625 C 301.636719 144.265625 300.785156 145.191406 300.132812 146.40625 C 299.585938 147.417969 298.851562 149.117188 299.132812 150.289062 Z M 300.214844 184.992188 C 299.25 189.308594 297.867188 193.53125 295.976562 197.53125 C 294.925781 199.769531 293.71875 201.933594 292.359375 204.003906 C 291.75 204.929688 291.140625 205.898438 290.390625 206.722656 C 289.359375 207.851562 288.113281 208.015625 286.65625 208.148438 C 285.429688 208.261719 284.199219 208.371094 282.972656 208.480469 C 281.726562 208.59375 279.976562 209.035156 279.128906 207.824219 C 277.953125 206.148438 279.285156 202.722656 279.53125 200.914062 C 280.050781 197.097656 280.09375 193.183594 279.621094 189.347656 C 282.105469 187.675781 283.859375 185.949219 284.910156 184.125 C 284.988281 186.703125 284.957031 189.289062 284.808594 191.84375 C 284.804688 191.914062 284.8125 191.980469 284.828125 192.046875 C 284.578125 194.175781 284.109375 196.496094 282.484375 196.261719 C 282.039062 196.199219 281.722656 196.78125 282.21875 196.96875 C 285.925781 198.335938 286.929688 192.273438 286.410156 189.566406 C 286.507812 186.292969 286.429688 182.988281 286.171875 179.714844 C 286.042969 178.058594 285.863281 176.390625 285.644531 174.753906 C 285.421875 173.082031 284.941406 171.0625 283.214844 170.253906 C 282.371094 169.851562 281.453125 169.878906 280.644531 169.898438 L 280.542969 169.902344 C 278.023438 169.964844 275.492188 169.746094 273.015625 169.25 C 272.195312 169.085938 271.273438 168.863281 270.707031 168.289062 C 270.273438 167.851562 270.007812 167.160156 269.878906 166.175781 C 269.742188 165.082031 269.777344 163.882812 269.808594 162.722656 C 269.878906 160.117188 269.953125 157.425781 268.210938 155.347656 C 267.925781 155.003906 267.601562 154.699219 267.292969 154.402344 C 266.6875 153.824219 266.113281 153.28125 265.980469 152.621094 C 265.722656 151.328125 267.257812 150.152344 268.78125 149.488281 C 270.503906 148.734375 272.867188 147.699219 273.230469 145.460938 C 273.523438 143.632812 272.3125 142.238281 271.246094 141.011719 C 270.453125 140.101562 269.703125 139.234375 269.496094 138.257812 C 269.351562 137.574219 269.484375 136.804688 269.613281 136.0625 L 270.144531 132.984375 L 270.152344 132.933594 C 270.160156 132.890625 270.164062 132.847656 270.164062 132.804688 C 270.164062 132.773438 270.160156 132.734375 270.15625 132.703125 C 270.148438 132.65625 270.140625 132.609375 270.125 132.570312 C 270.113281 132.53125 270.097656 132.492188 270.074219 132.457031 C 270.0625 132.429688 270.042969 132.40625 270.027344 132.378906 C 270.015625 132.359375 270.003906 132.34375 269.988281 132.328125 C 269.878906 132.183594 269.777344 132.03125 269.675781 131.878906 C 272.894531 133.113281 276.496094 133.140625 279.800781 131.90625 C 282.480469 130.90625 284.851562 129.054688 287.699219 128.492188 C 287.855469 128.457031 288.015625 128.429688 288.167969 128.414062 C 288.175781 128.417969 288.179688 128.425781 288.1875 128.429688 C 290.328125 130.234375 291.328125 132.226562 291.652344 135.019531 C 291.972656 137.785156 291.789062 140.636719 292.992188 143.222656 C 293.78125 144.914062 295.402344 146.621094 297.457031 145.957031 C 299.191406 145.394531 299.59375 143.839844 300.09375 142.34375 C 301.09375 141.183594 302.199219 140.207031 304.066406 140.242188 C 306.667969 140.28125 307.976562 142.886719 308.378906 145.121094 C 309.304688 150.28125 306.40625 155.148438 301.816406 157.429688 C 301.300781 157.683594 301.324219 158.089844 301.59375 158.328125 C 300.589844 159.832031 300.035156 161.929688 300.613281 163.644531 C 299.886719 164.253906 299.152344 164.855469 298.375 165.402344 C 296.8125 166.507812 295.105469 167.332031 293.363281 168.117188 C 292.859375 168.339844 293.191406 168.847656 293.65625 168.726562 C 296.300781 168.050781 299.078125 166.671875 301.179688 164.742188 C 301.242188 164.832031 301.308594 164.917969 301.386719 165 L 299.40625 177.980469 C 299.015625 180.523438 298.863281 183.109375 300.214844 184.992188 Z M 276.074219 131.558594 C 279.421875 131.25 282.039062 129.253906 285.085938 128.070312 C 287.230469 127.234375 289.738281 126.78125 291.902344 127.824219 C 293.449219 128.570312 295.015625 130.296875 294.425781 132.121094 C 294.386719 132.234375 294.191406 132.242188 294.140625 132.128906 C 293.238281 129.960938 291.796875 128.605469 289.742188 128.378906 C 292.707031 129.898438 293.1875 134.316406 293.476562 137.273438 C 293.679688 139.421875 293.859375 141.96875 295.277344 143.714844 C 296.34375 145.035156 297.226562 144.550781 297.820312 143.613281 C 297.9375 143.117188 298.15625 142.636719 298.449219 142.1875 C 299.070312 141.246094 300.007812 140.433594 301.027344 139.855469 C 301.894531 139.363281 302.8125 139.042969 303.628906 138.953125 C 306.460938 138.640625 308.667969 140.417969 309.679688 142.953125 C 312.09375 149 308.605469 156.046875 302.710938 158.363281 C 302.492188 159.757812 301.761719 161.058594 302.003906 162.492188 C 302.019531 162.605469 302.042969 162.722656 302.078125 162.839844 C 302.140625 163.074219 302.234375 163.304688 302.351562 163.523438 L 302.394531 163.605469 C 307.058594 160.445312 310.671875 155.613281 312.617188 149.933594 C 314.78125 143.566406 314.871094 136.351562 312.875 129.058594 C 312.207031 126.628906 311.378906 124.5625 310.382812 122.824219 C 310.183594 122.476562 309.976562 122.140625 309.757812 121.816406 C 308.984375 120.652344 308.117188 119.664062 307.148438 118.839844 C 307.101562 118.796875 307.050781 118.757812 307 118.714844 L 306.953125 118.679688 C 306.9375 118.664062 306.917969 118.644531 306.898438 118.632812 C 306.890625 118.628906 306.882812 118.621094 306.871094 118.613281 C 306.667969 118.449219 306.457031 118.285156 306.242188 118.136719 C 304.015625 116.542969 301.117188 115.5 297.417969 114.949219 C 291.191406 114.015625 284.777344 114.660156 278.867188 116.808594 C 274.246094 118.492188 271.105469 120.839844 269.53125 123.804688 C 268.480469 125.78125 268.292969 128.210938 268.929688 130.242188 C 271.140625 131.300781 273.613281 131.78125 276.074219 131.558594 Z M 305.40625 186.144531 L 305.777344 186.242188 C 305.867188 186.265625 305.957031 186.289062 306.046875 186.316406 C 308.214844 186.90625 310.339844 187.683594 312.367188 188.644531 C 313.921875 189.382812 315.914062 190.433594 317.515625 192.078125 C 320.070312 194.695312 321.148438 198.238281 322.195312 201.667969 L 322.253906 201.859375 C 322.660156 203.183594 323.085938 204.550781 323.535156 205.933594 C 323.75 205.792969 323.964844 205.644531 324.175781 205.492188 C 323.957031 199.558594 324.535156 193.46875 321.109375 188.238281 C 318.625 184.449219 313.582031 183.269531 311.820312 178.960938 C 310.21875 175.042969 311.246094 170.515625 312.707031 166.71875 C 316.511719 156.8125 324.480469 146.4375 320.734375 135.285156 C 320.613281 134.925781 321.242188 134.757812 321.371094 135.078125 C 323.523438 140.359375 322.832031 146.09375 321.007812 151.367188 C 319.171875 156.675781 316.28125 161.539062 314.296875 166.785156 C 312.746094 170.882812 311.4375 176.3125 314.324219 180.160156 C 315.839844 182.183594 318.34375 183.105469 320.171875 184.789062 C 321.824219 186.308594 323.042969 188.234375 323.871094 190.3125 C 325.660156 194.769531 325.777344 199.9375 325.210938 204.695312 C 328.417969 202.046875 330.757812 198.378906 331.660156 194.449219 C 333.15625 187.960938 330.800781 180.640625 325.800781 176.238281 C 325.570312 176.035156 325.332031 175.832031 325.09375 175.632812 C 324.089844 174.785156 323.046875 173.914062 322.382812 172.683594 C 320.953125 170.042969 321.847656 166.90625 322.789062 164.167969 L 322.925781 163.785156 C 325.042969 157.664062 327.230469 151.335938 327.898438 144.867188 C 328.652344 137.554688 327.21875 130.871094 323.855469 126.054688 C 321.238281 122.304688 317.265625 119.71875 313.167969 118.835938 C 312.847656 119.914062 312.253906 120.921875 311.5 121.777344 C 312.644531 123.6875 313.578125 125.972656 314.316406 128.664062 C 316.394531 136.246094 316.296875 143.765625 314.03125 150.414062 C 312.015625 156.328125 308.269531 161.367188 303.433594 164.707031 C 303.253906 164.832031 303.074219 164.953125 302.894531 165.066406 L 302.761719 165.945312 L 300.886719 178.207031 C 300.640625 179.835938 300.441406 181.609375 300.898438 183.042969 C 301.078125 183.589844 301.347656 184.085938 301.75 184.5 C 301.792969 184.546875 301.835938 184.589844 301.882812 184.628906 C 302.671875 185.367188 303.808594 185.722656 304.953125 186.023438 C 305.109375 186.066406 305.257812 186.105469 305.40625 186.144531 Z M 333.914062 241.113281 C 333.007812 244.023438 332.027344 246.925781 331.003906 249.75 C 328.648438 251.199219 326.214844 252.515625 323.722656 253.695312 C 323.136719 253.972656 322.542969 254.242188 321.953125 254.5 C 320.242188 255.261719 318.507812 255.957031 316.75 256.585938 C 316.894531 256.1875 317.03125 255.804688 317.179688 255.46875 C 317.714844 254.234375 318.25 253.003906 318.785156 251.773438 L 318.910156 251.484375 C 319.15625 250.914062 319.410156 250.34375 319.664062 249.773438 C 320.433594 248.035156 321.210938 246.296875 321.914062 244.53125 C 322.710938 242.53125 323.375 240.324219 323.042969 238.148438 C 322.660156 235.625 321.1875 233.0625 320.222656 230.710938 C 318.875 227.417969 317.503906 224.128906 316.101562 220.855469 L 315.265625 218.917969 C 314.835938 217.929688 314.402344 216.9375 313.96875 215.949219 C 313.84375 215.671875 313.710938 215.347656 313.570312 214.988281 C 313.367188 214.476562 313.144531 213.886719 312.890625 213.277344 C 311.496094 209.859375 309.308594 205.535156 305.664062 207.371094 C 305.355469 207.527344 305.660156 207.863281 305.925781 207.777344 C 308.839844 206.820312 310.015625 210.5625 310.832031 212.550781 C 311.082031 213.15625 311.328125 213.757812 311.574219 214.363281 C 310.609375 215.039062 309.535156 215.511719 308.300781 215.636719 C 306.796875 215.785156 305.214844 215.34375 304.035156 214.398438 C 302.519531 213.191406 302.253906 211.375 302.433594 209.539062 C 302.820312 205.609375 303.691406 201.679688 304.324219 197.789062 C 304.867188 194.46875 305.429688 191.152344 305.863281 187.816406 C 307.875 188.375 309.84375 189.105469 311.726562 190 C 313.867188 191.011719 315.320312 191.972656 316.441406 193.121094 C 318.742188 195.480469 319.765625 198.847656 320.761719 202.101562 L 320.820312 202.292969 C 321.3125 203.921875 321.847656 205.605469 322.402344 207.308594 C 325.570312 217.003906 329.316406 226.609375 333.546875 235.871094 C 333.960938 236.78125 334.351562 237.640625 334.402344 238.527344 C 334.457031 239.386719 334.167969 240.304688 333.914062 241.113281 " fill-opacity="1" fill-rule="nonzero"/></svg>