<svg xmlns="http://www.w3.org/2000/svg" xmlns:xlink="http://www.w3.org/1999/xlink" width="800" zoomAndPan="magnify" viewBox="0 0 600 374.999991" height="500" preserveAspectRatio="xMidYMid meet" version="1.0"><defs><clipPath id="ed14ba8f0a"><path d="M 257.160156 112.625 L 342.652344 112.625 L 342.652344 262.386719 L 257.160156 262.386719 Z M 257.160156 112.625 " clip-rule="nonzero"/></clipPath><clipPath id="653cd717d0"><path d="M 257.160156 112.625 L 342.652344 112.625 L 342.652344 262.386719 L 257.160156 262.386719 Z M 257.160156 112.625 " clip-rule="nonzero"/></clipPath></defs><rect x="-60" width="720" fill="#ffffff" y="-37.499999" height="449.999989" fill-opacity="1"/><rect x="-60" width="720" fill="#cda6ff" y="-37.499999" height="449.999989" fill-opacity="1"/><g clip-path="url(#ed14ba8f0a)"><path fill="#0f0e0c" d="M 341.03125 230.144531 C 340.300781 228.058594 339.304688 226.070312 338.335938 224.144531 C 337.503906 222.492188 336.648438 220.785156 335.980469 219.054688 C 334.914062 216.277344 334.273438 213.292969 333.664062 210.40625 C 333.3125 208.765625 332.957031 207.074219 332.515625 205.421875 C 332.257812 204.445312 331.957031 203.421875 331.316406 202.527344 C 330.503906 201.410156 329.304688 200.71875 328.242188 200.113281 C 325.507812 198.546875 322.683594 196.925781 319.722656 195.640625 C 319.117188 195.378906 318.5 195.121094 317.875 194.859375 C 316.699219 194.371094 315.503906 193.875 314.375 193.324219 C 313.867188 193.082031 313.375 192.828125 312.898438 192.558594 C 312.140625 192.132812 311.429688 191.667969 310.789062 191.144531 C 310.40625 190.839844 310.046875 190.511719 309.722656 190.164062 C 309.457031 189.878906 309.203125 189.582031 308.980469 189.265625 L 308.960938 189.113281 C 308.882812 188.511719 308.804688 187.910156 308.730469 187.3125 L 308.722656 187.261719 C 308.464844 185.25 308.191406 183.175781 308.164062 181.140625 C 308.125 178.230469 308.550781 175.371094 309.445312 172.613281 C 310.257812 173.222656 311.207031 173.523438 312.117188 173.429688 C 313.601562 173.28125 314.824219 171.984375 314.789062 170.59375 C 314.78125 170.460938 314.769531 170.328125 314.75 170.195312 C 314.734375 170.054688 314.707031 169.84375 314.734375 169.785156 C 314.75 169.753906 314.988281 169.644531 315.476562 169.710938 L 315.5625 169.722656 C 316.191406 169.8125 317.058594 169.9375 317.730469 169.347656 C 318.222656 168.914062 318.65625 168.058594 317.949219 166.414062 C 317.441406 165.222656 316.882812 164.007812 316.277344 162.792969 C 320.558594 160.300781 323.710938 155.925781 324.578125 151.214844 C 324.832031 149.839844 324.835938 148.414062 324.59375 147.144531 C 326.882812 144.808594 328.308594 141.421875 328.433594 137.992188 C 328.589844 133.753906 326.960938 129.332031 323.859375 125.554688 C 321.386719 122.535156 317.976562 119.882812 313.4375 117.449219 C 305.949219 113.429688 298.9375 111.910156 292.597656 112.933594 C 289.25 113.46875 285.867188 114.742188 282.246094 116.816406 C 275.472656 120.699219 269.785156 126.300781 265.789062 133.019531 C 264.488281 135.210938 263.050781 138.121094 263.472656 141.175781 C 263.882812 144.128906 265.90625 146.445312 267.625 148.132812 C 268.488281 148.984375 269.398438 149.800781 270.351562 150.582031 C 270.539062 150.734375 270.726562 150.886719 270.917969 151.035156 C 271.054688 151.148438 271.199219 151.257812 271.339844 151.367188 C 271.789062 159.582031 273.875 167.828125 277.386719 175.226562 C 277.863281 176.238281 278.40625 177.285156 279.296875 178.058594 C 280.796875 179.371094 282.863281 179.554688 284.519531 179.554688 L 284.6875 179.554688 C 284.914062 180.453125 285.003906 181.441406 285.058594 182.394531 C 285.21875 185.109375 285.335938 187.808594 285.402344 190.421875 C 285.171875 190.757812 284.902344 191.078125 284.613281 191.386719 C 283.25 192.832031 281.46875 193.878906 279.734375 194.878906 C 279.703125 194.894531 279.671875 194.914062 279.644531 194.933594 C 279.425781 195.054688 279.210938 195.179688 278.996094 195.304688 C 276.425781 196.789062 273.855469 198.28125 271.285156 199.765625 C 268.421875 201.421875 264.5 203.6875 262.875 207.46875 C 261.675781 210.253906 261.921875 213.28125 262.15625 216.203125 C 262.257812 217.488281 262.363281 218.820312 262.34375 220.089844 C 262.269531 223.835938 261.09375 227.363281 259.847656 231.09375 C 259.070312 233.421875 258.261719 235.835938 257.761719 238.289062 C 256.539062 244.304688 257.191406 250.757812 259.597656 256.457031 C 259.664062 256.613281 259.777344 256.738281 259.925781 256.820312 C 262.628906 258.328125 265.5 259.453125 268.425781 260.277344 C 268.589844 260.324219 268.75 260.371094 268.914062 260.414062 C 269.238281 260.5 269.558594 260.585938 269.882812 260.664062 C 269.941406 260.679688 270.003906 260.695312 270.0625 260.707031 C 275.316406 261.992188 280.691406 262.386719 285.585938 262.386719 C 288.515625 262.386719 291.265625 262.246094 293.722656 262.070312 C 301.28125 261.53125 308.804688 260.523438 316.246094 259.054688 C 316.8125 258.941406 317.378906 258.828125 317.941406 258.710938 C 325.601562 257.121094 333.175781 255.046875 340.601562 252.492188 C 340.839844 252.414062 341.023438 252.210938 341.085938 251.964844 C 343.1875 243.355469 343.171875 236.21875 341.03125 230.144531 " fill-opacity="1" fill-rule="nonzero"/></g><path fill="#ffffff" d="M 339.730469 251.210938 C 332.511719 253.675781 325.160156 255.679688 317.722656 257.226562 C 317.554688 256.222656 317.351562 255.226562 317.207031 254.265625 C 316.871094 251.914062 316.527344 249.558594 316.1875 247.203125 C 315.503906 242.507812 314.78125 237.816406 314.054688 233.125 C 313.695312 230.789062 313.316406 228.449219 312.941406 226.109375 C 312.574219 223.796875 311.882812 221.308594 312.167969 218.960938 C 312.695312 214.558594 315.386719 210.582031 316.292969 206.253906 C 316.335938 206.03125 315.980469 205.972656 315.878906 206.144531 C 314.660156 208.25 313.832031 210.625 312.910156 212.875 C 312.140625 214.761719 311.226562 216.65625 310.84375 218.671875 C 310.421875 220.867188 310.863281 223.125 311.179688 225.308594 C 311.519531 227.660156 311.855469 230.015625 312.199219 232.367188 C 312.886719 237.0625 313.59375 241.757812 314.339844 246.441406 C 314.707031 248.78125 315.082031 251.117188 315.457031 253.457031 C 315.664062 254.765625 315.789062 256.183594 315.992188 257.578125 C 308.59375 259.039062 301.121094 260.042969 293.609375 260.574219 C 286.992188 261.050781 278.136719 261.269531 269.730469 259.078125 C 269.121094 255.539062 269.273438 252.023438 269.652344 248.390625 C 270.140625 243.691406 270.570312 238.996094 270.984375 234.289062 C 271.414062 229.402344 271.640625 224.488281 272.234375 219.621094 C 272.449219 217.898438 272.664062 215.980469 272 214.324219 C 271.320312 212.648438 269.652344 211.769531 268.265625 210.765625 C 268.023438 210.59375 267.539062 210.84375 267.765625 211.144531 C 269 212.761719 270.726562 213.722656 270.972656 215.910156 C 271.207031 217.9375 270.703125 219.984375 270.488281 221.992188 C 269.941406 227.050781 269.667969 232.164062 269.234375 237.234375 C 268.867188 241.519531 268.378906 245.785156 268.007812 250.066406 C 267.773438 252.773438 267.539062 255.804688 268.027344 258.597656 C 265.5625 257.855469 263.160156 256.886719 260.878906 255.636719 C 258.667969 250.269531 258.082031 244.230469 259.226562 238.589844 C 259.707031 236.222656 260.5 233.859375 261.265625 231.570312 C 262.492188 227.894531 263.757812 224.09375 263.835938 220.117188 C 263.859375 218.773438 263.75 217.410156 263.644531 216.085938 C 263.414062 213.214844 263.199219 210.507812 264.246094 208.0625 C 265.570312 204.988281 268.558594 203.074219 272.035156 201.0625 C 274.257812 199.777344 276.484375 198.488281 278.707031 197.203125 C 278 204.203125 280.929688 213.109375 289.152344 212.742188 C 292.824219 212.578125 295.964844 210.367188 298.605469 207.992188 C 302.035156 204.902344 305.257812 201.578125 308.660156 198.453125 C 310.144531 197.085938 311.644531 195.730469 313.152344 194.394531 C 314.488281 195.074219 315.902344 195.664062 317.304688 196.246094 C 317.921875 196.5 318.53125 196.753906 319.125 197.015625 C 322.011719 198.265625 324.804688 199.867188 327.5 201.410156 C 328.476562 201.96875 329.480469 202.546875 330.105469 203.40625 C 330.59375 204.089844 330.851562 204.964844 331.070312 205.804688 C 331.496094 207.421875 331.855469 209.09375 332.203125 210.71875 C 332.828125 213.664062 333.472656 216.707031 334.582031 219.59375 C 335.277344 221.394531 336.152344 223.136719 337 224.820312 C 337.945312 226.699219 338.921875 228.644531 339.621094 230.640625 C 341.628906 236.339844 341.667969 243.074219 339.730469 251.210938 Z M 278.507812 148.929688 C 278.507812 148.257812 279.058594 147.707031 279.726562 147.707031 L 279.777344 147.707031 C 280.449219 147.707031 281 148.257812 281 148.929688 L 281 153.101562 C 281 153.773438 280.449219 154.324219 279.777344 154.324219 L 279.726562 154.324219 C 279.058594 154.324219 278.507812 153.773438 278.507812 153.101562 Z M 284.398438 161.214844 C 285.492188 161.378906 286.574219 161.507812 287.632812 161.84375 C 288.207031 162.03125 288.078125 162.804688 287.480469 162.847656 C 285.410156 163 282.855469 162.570312 281.046875 161.511719 C 280.59375 161.246094 281.074219 160.816406 281.417969 160.824219 C 282.417969 160.839844 283.410156 161.066406 284.398438 161.214844 Z M 290.714844 167.101562 C 292.398438 166.371094 293.875 165.378906 295.28125 164.207031 C 296.011719 163.597656 297.25 164.378906 296.421875 165.164062 C 293.820312 167.628906 289.199219 169.964844 285.511719 169.058594 C 285.253906 168.996094 285.183594 168.691406 285.472656 168.601562 C 287.222656 168.058594 289.019531 167.839844 290.714844 167.101562 Z M 296.546875 148.929688 C 296.546875 148.257812 297.09375 147.707031 297.769531 147.707031 L 297.816406 147.707031 C 298.484375 147.707031 299.03125 148.257812 299.03125 148.929688 L 299.03125 153.101562 C 299.03125 153.773438 298.484375 154.324219 297.816406 154.324219 L 297.769531 154.324219 C 297.09375 154.324219 296.546875 153.773438 296.546875 153.101562 Z M 314.171875 149.351562 C 314.726562 147.4375 317.605469 145.3125 319.546875 146.53125 C 319.652344 146.597656 319.578125 146.730469 319.484375 146.753906 C 318.246094 147.082031 315.671875 147.527344 315.523438 149.226562 C 315.691406 149.6875 315.855469 150.148438 316.019531 150.609375 C 316.140625 150.625 316.261719 150.644531 316.378906 150.664062 C 316.597656 150.773438 316.90625 150.769531 317.144531 150.882812 C 317.453125 151.027344 317.695312 151.238281 317.902344 151.507812 C 319.367188 153.492188 316.816406 156.554688 315.578125 157.996094 C 315.09375 158.554688 313.898438 158.171875 314.40625 157.398438 C 315.058594 156.398438 315.867188 155.460938 316.410156 154.398438 C 316.710938 153.808594 317.160156 152.898438 316.71875 152.246094 C 316.445312 151.847656 315.753906 151.792969 315.351562 151.640625 C 314.253906 151.226562 313.832031 150.527344 314.171875 149.351562 Z M 280.273438 176.929688 C 281.300781 177.824219 282.808594 178.023438 284.128906 178.050781 C 287.507812 177.847656 290.785156 177.5 293.988281 176.144531 C 297.652344 174.59375 300.789062 172.253906 303.480469 169.332031 C 303.738281 169.042969 304.5625 169.253906 304.261719 169.683594 C 301.855469 173.214844 298.332031 175.929688 294.398438 177.5625 C 291.890625 178.609375 289.027344 179.417969 286.210938 179.515625 C 286.410156 180.433594 286.496094 181.390625 286.550781 182.304688 C 286.714844 185.121094 286.835938 187.917969 286.902344 190.628906 C 286.902344 190.667969 286.898438 190.707031 286.894531 190.746094 L 286.894531 190.75 C 287.128906 193.136719 286.386719 195.679688 285.199219 197.683594 C 285.035156 197.960938 284.316406 197.925781 284.449219 197.519531 C 285.003906 195.886719 285.265625 194.316406 285.40625 192.714844 C 284.601562 193.511719 283.703125 194.183594 282.773438 194.792969 C 282.972656 198.390625 283.21875 202.875 286.078125 205.53125 C 287.902344 207.226562 290.160156 206.101562 291.980469 205.023438 C 293.636719 204.035156 295.238281 202.941406 296.789062 201.796875 C 301.082031 198.636719 304.910156 194.976562 308.65625 191.222656 C 308.289062 190.835938 307.945312 190.417969 307.644531 189.96875 C 307.578125 189.871094 307.535156 189.757812 307.519531 189.640625 L 307.476562 189.304688 C 307.402344 188.707031 307.320312 188.105469 307.242188 187.507812 L 307.238281 187.453125 C 306.96875 185.398438 306.695312 183.28125 306.667969 181.160156 C 306.621094 177.816406 307.164062 174.527344 308.285156 171.382812 C 308.324219 171.253906 308.375 171.128906 308.421875 171 C 308.46875 170.875 308.542969 170.765625 308.644531 170.683594 C 308.71875 170.246094 308.808594 169.8125 308.902344 169.375 C 309.515625 166.574219 310.519531 163.75 312 161.472656 C 311.902344 161.226562 311.859375 160.96875 311.878906 160.703125 C 311.914062 160.277344 312.539062 160.28125 312.785156 160.476562 C 313.128906 160.75 313.386719 161.125 313.746094 161.390625 C 314.074219 161.632812 314.453125 161.773438 314.847656 161.878906 C 314.875 161.855469 314.910156 161.839844 314.941406 161.820312 C 319.148438 159.613281 322.273438 155.445312 323.109375 150.945312 C 323.347656 149.617188 323.328125 148.246094 323.050781 147.078125 C 322.796875 146.042969 322.214844 144.652344 320.867188 143.910156 C 319.242188 143.015625 317.214844 143.480469 315.855469 144.214844 C 315.019531 144.664062 314.269531 145.257812 313.558594 145.914062 C 313.269531 147.34375 312.773438 148.734375 312.132812 150.0625 C 311.261719 151.867188 310.078125 154.210938 307.855469 154.453125 C 305.765625 154.6875 304.8125 152.863281 305.027344 151.011719 C 305.203125 149.519531 305.566406 148.109375 305.539062 146.589844 C 305.527344 145.441406 305.359375 144.320312 305.132812 143.203125 C 303.496094 143.847656 302.109375 145.097656 300.371094 145.542969 C 299.636719 145.730469 298.835938 145.816406 298.082031 145.675781 C 297 145.484375 296.136719 144.554688 295.007812 144.878906 C 293.304688 145.378906 292.507812 147.503906 290.789062 148.09375 C 286.980469 149.410156 286.398438 143.195312 286.3125 140.882812 C 286.230469 138.621094 286.726562 136.503906 287.007812 134.28125 C 287.242188 132.414062 287.042969 130.265625 285.671875 128.960938 C 283.796875 130.660156 281.976562 132.3125 280.484375 134.410156 C 279.0625 136.417969 277.945312 138.65625 277.207031 141.011719 C 277.382812 140.964844 277.558594 140.925781 277.734375 140.894531 C 279.019531 140.675781 282.542969 140.6875 282.703125 142.488281 C 282.714844 142.582031 282.625 142.675781 282.535156 142.695312 C 281.25 142.949219 279.953125 142.144531 278.601562 142.246094 C 277.925781 142.296875 277.308594 142.480469 276.734375 142.753906 C 276.457031 143.964844 276.273438 145.199219 276.195312 146.433594 C 276.117188 147.667969 276.34375 149.050781 275.875 150.222656 C 275.546875 151.035156 274.855469 151.746094 273.984375 151.945312 C 273.5625 152.039062 273.199219 151.984375 272.863281 151.855469 C 273.367188 159.691406 275.386719 167.527344 278.734375 174.585938 C 279.160156 175.484375 279.597656 176.339844 280.273438 176.929688 " fill-opacity="1" fill-rule="nonzero"/><g clip-path="url(#653cd717d0)"><path fill="#0f0e0c" d="M 281 148.929688 C 281 148.257812 280.449219 147.707031 279.777344 147.707031 L 279.730469 147.707031 C 279.058594 147.707031 278.507812 148.257812 278.507812 148.929688 L 278.507812 153.101562 C 278.507812 153.773438 279.058594 154.324219 279.730469 154.324219 L 279.777344 154.324219 C 280.449219 154.324219 281 153.773438 281 153.101562 Z M 287.484375 162.847656 C 288.082031 162.804688 288.210938 162.03125 287.632812 161.84375 C 286.574219 161.507812 285.492188 161.378906 284.398438 161.214844 C 283.414062 161.066406 282.421875 160.839844 281.417969 160.824219 C 281.078125 160.816406 280.59375 161.246094 281.046875 161.511719 C 282.855469 162.570312 285.410156 163 287.484375 162.847656 Z M 295.28125 164.207031 C 293.878906 165.378906 292.398438 166.371094 290.71875 167.101562 C 289.019531 167.839844 287.226562 168.058594 285.476562 168.601562 C 285.183594 168.691406 285.257812 168.996094 285.515625 169.058594 C 289.203125 169.964844 293.824219 167.628906 296.425781 165.164062 C 297.253906 164.378906 296.011719 163.597656 295.28125 164.207031 Z M 297.816406 147.707031 L 297.769531 147.707031 C 297.097656 147.707031 296.546875 148.257812 296.546875 148.929688 L 296.546875 153.101562 C 296.546875 153.773438 297.097656 154.324219 297.769531 154.324219 L 297.816406 154.324219 C 298.484375 154.324219 299.035156 153.773438 299.035156 153.101562 L 299.035156 148.929688 C 299.035156 148.257812 298.484375 147.707031 297.816406 147.707031 Z M 339.621094 230.640625 C 338.921875 228.644531 337.945312 226.699219 337 224.820312 C 336.152344 223.136719 335.277344 221.394531 334.582031 219.59375 C 333.472656 216.707031 332.828125 213.664062 332.203125 210.71875 C 331.855469 209.09375 331.496094 207.421875 331.070312 205.804688 C 330.851562 204.964844 330.59375 204.089844 330.105469 203.40625 C 329.480469 202.546875 328.476562 201.96875 327.5 201.410156 C 324.804688 199.867188 322.011719 198.265625 319.125 197.015625 C 318.53125 196.753906 317.921875 196.5 317.304688 196.246094 C 315.902344 195.664062 314.488281 195.074219 313.152344 194.394531 C 311.644531 195.730469 310.144531 197.085938 308.660156 198.453125 C 305.257812 201.578125 302.035156 204.902344 298.605469 207.992188 C 295.964844 210.367188 292.824219 212.578125 289.152344 212.742188 C 280.929688 213.109375 278 204.203125 278.707031 197.203125 C 276.484375 198.488281 274.257812 199.777344 272.035156 201.0625 C 268.558594 203.074219 265.570312 204.988281 264.246094 208.0625 C 263.199219 210.507812 263.414062 213.214844 263.644531 216.085938 C 263.75 217.410156 263.859375 218.773438 263.835938 220.117188 C 263.757812 224.09375 262.492188 227.894531 261.265625 231.570312 C 260.5 233.859375 259.707031 236.222656 259.226562 238.589844 C 258.082031 244.230469 258.667969 250.269531 260.878906 255.636719 C 263.160156 256.886719 265.5625 257.855469 268.027344 258.597656 C 267.539062 255.804688 267.773438 252.773438 268.007812 250.066406 C 268.378906 245.785156 268.867188 241.519531 269.234375 237.234375 C 269.667969 232.164062 269.941406 227.050781 270.488281 221.992188 C 270.703125 219.984375 271.207031 217.9375 270.972656 215.910156 C 270.726562 213.722656 269 212.761719 267.765625 211.144531 C 267.539062 210.84375 268.023438 210.59375 268.265625 210.765625 C 269.652344 211.769531 271.320312 212.648438 272 214.324219 C 272.664062 215.980469 272.449219 217.898438 272.234375 219.621094 C 271.640625 224.488281 271.414062 229.402344 270.984375 234.289062 C 270.570312 238.996094 270.140625 243.691406 269.652344 248.390625 C 269.273438 252.023438 269.121094 255.539062 269.730469 259.078125 C 278.136719 261.269531 286.992188 261.050781 293.609375 260.574219 C 301.121094 260.042969 308.59375 259.039062 315.992188 257.578125 C 315.789062 256.183594 315.664062 254.765625 315.457031 253.457031 C 315.082031 251.117188 314.707031 248.78125 314.339844 246.441406 C 313.59375 241.757812 312.886719 237.0625 312.199219 232.367188 C 311.855469 230.015625 311.519531 227.660156 311.179688 225.308594 C 310.863281 223.125 310.421875 220.867188 310.84375 218.671875 C 311.226562 216.65625 312.140625 214.761719 312.910156 212.875 C 313.832031 210.625 314.660156 208.25 315.878906 206.144531 C 315.980469 205.972656 316.335938 206.03125 316.292969 206.253906 C 315.386719 210.582031 312.695312 214.558594 312.167969 218.960938 C 311.882812 221.308594 312.574219 223.796875 312.941406 226.109375 C 313.316406 228.449219 313.695312 230.789062 314.054688 233.125 C 314.78125 237.816406 315.503906 242.507812 316.1875 247.203125 C 316.527344 249.558594 316.871094 251.914062 317.207031 254.265625 C 317.351562 255.226562 317.554688 256.222656 317.722656 257.226562 C 325.160156 255.679688 332.511719 253.675781 339.730469 251.210938 C 341.667969 243.074219 341.628906 236.339844 339.621094 230.640625 Z M 282.773438 194.792969 C 282.976562 198.390625 283.21875 202.875 286.078125 205.53125 C 287.902344 207.226562 290.160156 206.101562 291.980469 205.023438 C 293.636719 204.035156 295.238281 202.941406 296.789062 201.796875 C 301.082031 198.636719 304.910156 194.976562 308.660156 191.222656 C 308.292969 190.835938 307.949219 190.417969 307.644531 189.96875 C 307.578125 189.871094 307.539062 189.757812 307.519531 189.640625 L 307.476562 189.304688 C 307.402344 188.707031 307.324219 188.105469 307.246094 187.507812 L 307.238281 187.453125 C 306.96875 185.398438 306.699219 183.28125 306.667969 181.160156 C 306.625 177.816406 307.164062 174.527344 308.285156 171.382812 C 308.328125 171.253906 308.375 171.128906 308.421875 171 C 308.472656 170.875 308.546875 170.765625 308.648438 170.683594 C 308.722656 170.246094 308.808594 169.8125 308.902344 169.375 C 309.515625 166.574219 310.523438 163.75 312 161.472656 C 311.902344 161.226562 311.859375 160.96875 311.882812 160.703125 C 311.914062 160.277344 312.539062 160.28125 312.785156 160.476562 C 313.132812 160.75 313.386719 161.125 313.746094 161.390625 C 314.074219 161.632812 314.457031 161.773438 314.851562 161.878906 C 314.878906 161.855469 314.910156 161.839844 314.941406 161.820312 C 319.148438 159.613281 322.277344 155.445312 323.109375 150.945312 C 323.347656 149.617188 323.328125 148.246094 323.050781 147.078125 C 322.800781 146.042969 322.214844 144.652344 320.867188 143.910156 C 319.246094 143.015625 317.214844 143.480469 315.855469 144.214844 C 315.019531 144.664062 314.269531 145.257812 313.558594 145.914062 C 313.273438 147.34375 312.777344 148.734375 312.132812 150.0625 C 311.261719 151.867188 310.078125 154.210938 307.859375 154.453125 C 305.765625 154.6875 304.816406 152.863281 305.027344 151.011719 C 305.203125 149.519531 305.566406 148.109375 305.542969 146.589844 C 305.527344 145.441406 305.359375 144.320312 305.132812 143.203125 C 303.496094 143.847656 302.109375 145.097656 300.371094 145.542969 C 299.636719 145.730469 298.835938 145.816406 298.082031 145.675781 C 297 145.484375 296.140625 144.554688 295.007812 144.878906 C 293.304688 145.378906 292.507812 147.503906 290.789062 148.09375 C 286.980469 149.410156 286.398438 143.195312 286.3125 140.882812 C 286.230469 138.621094 286.730469 136.503906 287.011719 134.28125 C 287.246094 132.414062 287.042969 130.265625 285.675781 128.960938 C 283.800781 130.660156 281.976562 132.3125 280.488281 134.410156 C 279.0625 136.417969 277.945312 138.65625 277.207031 141.011719 C 277.382812 140.964844 277.5625 140.925781 277.738281 140.894531 C 279.019531 140.675781 282.542969 140.6875 282.707031 142.488281 C 282.714844 142.582031 282.625 142.675781 282.539062 142.695312 C 281.25 142.949219 279.953125 142.144531 278.605469 142.246094 C 277.925781 142.296875 277.308594 142.480469 276.734375 142.753906 C 276.457031 143.964844 276.273438 145.199219 276.195312 146.433594 C 276.121094 147.667969 276.347656 149.050781 275.875 150.222656 C 275.550781 151.035156 274.855469 151.746094 273.984375 151.945312 C 273.5625 152.039062 273.203125 151.984375 272.863281 151.855469 C 273.367188 159.691406 275.386719 167.527344 278.734375 174.585938 C 279.160156 175.484375 279.601562 176.339844 280.273438 176.929688 C 281.304688 177.824219 282.808594 178.023438 284.128906 178.050781 C 287.507812 177.847656 290.785156 177.5 293.988281 176.144531 C 297.65625 174.59375 300.789062 172.253906 303.480469 169.332031 C 303.742188 169.042969 304.5625 169.253906 304.265625 169.683594 C 301.859375 173.214844 298.332031 175.929688 294.398438 177.5625 C 291.890625 178.609375 289.03125 179.417969 286.210938 179.515625 C 286.414062 180.433594 286.496094 181.390625 286.550781 182.304688 C 286.71875 185.121094 286.835938 187.917969 286.902344 190.628906 C 286.902344 190.667969 286.898438 190.707031 286.894531 190.746094 L 286.894531 190.75 C 287.128906 193.136719 286.386719 195.679688 285.203125 197.683594 C 285.039062 197.960938 284.316406 197.925781 284.449219 197.519531 C 285.003906 195.886719 285.265625 194.316406 285.410156 192.714844 C 284.605469 193.511719 283.703125 194.183594 282.773438 194.792969 Z M 341.085938 251.964844 C 341.023438 252.210938 340.839844 252.414062 340.601562 252.492188 C 333.175781 255.046875 325.601562 257.121094 317.941406 258.710938 C 317.378906 258.828125 316.8125 258.941406 316.246094 259.054688 C 308.804688 260.523438 301.28125 261.53125 293.722656 262.070312 C 291.265625 262.246094 288.515625 262.386719 285.585938 262.386719 C 280.691406 262.386719 275.316406 261.992188 270.0625 260.707031 C 270.003906 260.695312 269.941406 260.679688 269.882812 260.664062 C 269.558594 260.585938 269.238281 260.5 268.914062 260.414062 C 268.75 260.371094 268.589844 260.324219 268.425781 260.277344 C 265.5 259.453125 262.628906 258.328125 259.925781 256.820312 C 259.777344 256.738281 259.664062 256.613281 259.597656 256.457031 C 257.191406 250.757812 256.539062 244.304688 257.761719 238.289062 C 258.261719 235.835938 259.070312 233.421875 259.847656 231.09375 C 261.09375 227.363281 262.269531 223.835938 262.34375 220.089844 C 262.363281 218.820312 262.257812 217.488281 262.15625 216.203125 C 261.921875 213.28125 261.675781 210.253906 262.875 207.46875 C 264.5 203.6875 268.421875 201.421875 271.285156 199.765625 C 273.855469 198.28125 276.425781 196.789062 278.996094 195.304688 C 279.210938 195.179688 279.425781 195.054688 279.644531 194.933594 C 279.671875 194.914062 279.703125 194.894531 279.734375 194.878906 C 281.46875 193.878906 283.25 192.832031 284.613281 191.386719 C 284.902344 191.078125 285.171875 190.757812 285.402344 190.421875 C 285.335938 187.808594 285.21875 185.109375 285.058594 182.394531 C 285.003906 181.441406 284.914062 180.453125 284.6875 179.554688 L 284.519531 179.554688 C 282.863281 179.554688 280.796875 179.371094 279.296875 178.058594 C 278.40625 177.285156 277.863281 176.238281 277.386719 175.226562 C 273.875 167.828125 271.789062 159.582031 271.339844 151.367188 C 271.199219 151.257812 271.054688 151.148438 270.917969 151.035156 C 270.726562 150.886719 270.539062 150.734375 270.351562 150.582031 C 269.398438 149.800781 268.488281 148.984375 267.625 148.132812 C 265.90625 146.445312 263.882812 144.128906 263.472656 141.175781 C 263.050781 138.121094 264.488281 135.210938 265.789062 133.019531 C 269.785156 126.300781 275.472656 120.699219 282.246094 116.816406 C 285.867188 114.742188 289.25 113.46875 292.597656 112.933594 C 298.9375 111.910156 305.949219 113.429688 313.4375 117.449219 C 317.976562 119.882812 321.386719 122.535156 323.859375 125.554688 C 326.960938 129.332031 328.589844 133.753906 328.433594 137.992188 C 328.308594 141.421875 326.882812 144.808594 324.59375 147.144531 C 324.835938 148.414062 324.832031 149.839844 324.578125 151.214844 C 323.710938 155.925781 320.558594 160.300781 316.277344 162.792969 C 316.882812 164.007812 317.441406 165.222656 317.949219 166.414062 C 318.65625 168.058594 318.222656 168.914062 317.730469 169.347656 C 317.058594 169.9375 316.191406 169.8125 315.5625 169.722656 L 315.476562 169.710938 C 314.988281 169.644531 314.75 169.753906 314.734375 169.785156 C 314.707031 169.84375 314.734375 170.054688 314.75 170.195312 C 314.769531 170.328125 314.78125 170.460938 314.789062 170.59375 C 314.824219 171.984375 313.601562 173.28125 312.121094 173.429688 C 311.207031 173.523438 310.257812 173.222656 309.445312 172.613281 C 308.550781 175.371094 308.125 178.230469 308.164062 181.140625 C 308.191406 183.175781 308.464844 185.25 308.722656 187.261719 L 308.730469 187.3125 C 308.804688 187.910156 308.882812 188.511719 308.960938 189.113281 L 308.980469 189.265625 C 309.203125 189.582031 309.457031 189.878906 309.722656 190.164062 C 310.046875 190.511719 310.40625 190.839844 310.789062 191.144531 C 311.429688 191.667969 312.140625 192.132812 312.898438 192.558594 C 313.375 192.828125 313.867188 193.082031 314.375 193.324219 C 315.503906 193.875 316.699219 194.371094 317.875 194.859375 C 318.5 195.121094 319.117188 195.378906 319.722656 195.640625 C 322.683594 196.925781 325.507812 198.546875 328.242188 200.113281 C 329.304688 200.71875 330.503906 201.410156 331.316406 202.527344 C 331.957031 203.421875 332.257812 204.445312 332.515625 205.421875 C 332.957031 207.074219 333.3125 208.765625 333.664062 210.40625 C 334.273438 213.292969 334.914062 216.277344 335.980469 219.054688 C 336.648438 220.785156 337.503906 222.492188 338.335938 224.144531 C 339.304688 226.070312 340.300781 228.058594 341.03125 230.144531 C 343.171875 236.21875 343.1875 243.355469 341.085938 251.964844 Z M 314.171875 149.351562 C 314.730469 147.4375 317.605469 145.3125 319.546875 146.53125 C 319.652344 146.597656 319.582031 146.730469 319.484375 146.753906 C 318.246094 147.082031 315.671875 147.527344 315.523438 149.226562 C 315.691406 149.6875 315.855469 150.148438 316.019531 150.609375 C 316.144531 150.625 316.261719 150.644531 316.378906 150.664062 C 316.597656 150.773438 316.910156 150.769531 317.148438 150.882812 C 317.453125 151.027344 317.699219 151.238281 317.902344 151.507812 C 319.367188 153.492188 316.816406 156.554688 315.578125 157.996094 C 315.09375 158.554688 313.902344 158.171875 314.410156 157.398438 C 315.0625 156.398438 315.867188 155.460938 316.410156 154.398438 C 316.710938 153.808594 317.164062 152.898438 316.71875 152.246094 C 316.449219 151.847656 315.753906 151.792969 315.355469 151.640625 C 314.253906 151.226562 313.832031 150.527344 314.171875 149.351562 " fill-opacity="1" fill-rule="nonzero"/></g></svg>