<svg xmlns="http://www.w3.org/2000/svg" xmlns:xlink="http://www.w3.org/1999/xlink" width="800" zoomAndPan="magnify" viewBox="0 0 600 374.999991" height="500" preserveAspectRatio="xMidYMid meet" version="1.0"><defs><clipPath id="b2f422aeb3"><path d="M 261.003906 113 L 339 113 L 339 262.5 L 261.003906 262.5 Z M 261.003906 113 " clip-rule="nonzero"/></clipPath><clipPath id="db8f612496"><path d="M 261.003906 113 L 339 113 L 339 262.5 L 261.003906 262.5 Z M 261.003906 113 " clip-rule="nonzero"/></clipPath></defs><rect x="-60" width="720" fill="#ffffff" y="-37.499999" height="449.999989" fill-opacity="1"/><rect x="-60" width="720" fill="#ff66c4" y="-37.499999" height="449.999989" fill-opacity="1"/><g clip-path="url(#b2f422aeb3)"><path fill="#0f0e0c" d="M 314.4375 233.40625 C 314.554688 232.960938 314.679688 232.492188 314.789062 232.035156 C 314.878906 231.65625 314.960938 231.273438 315.027344 230.890625 C 315.9375 230.957031 316.859375 230.914062 317.765625 230.769531 C 319.453125 234.257812 320.796875 237.917969 321.777344 241.683594 C 321.261719 244.148438 320.769531 246.417969 320.195312 248.640625 C 318.578125 246.832031 317.113281 244.890625 315.828125 242.859375 C 314.871094 241.351562 313.875 239.554688 313.753906 237.667969 C 313.664062 236.265625 314.035156 234.878906 314.4375 233.40625 Z M 335.410156 204.59375 C 333.042969 201.296875 329.679688 198.96875 326.421875 196.714844 C 324.445312 195.34375 322.394531 193.925781 320.621094 192.316406 C 320.027344 191.777344 319.515625 191.265625 319.050781 190.757812 L 318.714844 189.925781 C 318.054688 188.28125 317.308594 186.414062 315.972656 184.949219 C 314.746094 183.605469 312.632812 182.371094 310.371094 182.929688 C 309.511719 183.144531 308.792969 183.585938 308.09375 184.011719 C 307.761719 184.214844 307.449219 184.402344 307.132812 184.566406 C 306.347656 184.964844 305.289062 185.207031 304.652344 184.703125 C 304.082031 184.25 303.957031 183.296875 303.890625 182.4375 C 303.589844 178.703125 303.445312 174.925781 303.46875 171.207031 C 304.003906 170.957031 304.507812 170.574219 304.921875 170.105469 C 305.5 169.460938 305.898438 168.707031 306.226562 167.96875 C 306.464844 168.074219 306.726562 168.144531 307.007812 168.175781 C 307.882812 168.273438 308.839844 167.960938 309.492188 167.363281 C 310.015625 166.882812 310.371094 166.304688 310.632812 165.683594 C 310.828125 165.800781 311.042969 165.882812 311.265625 165.925781 C 312.136719 166.082031 313.097656 165.660156 313.703125 164.851562 C 314.199219 164.195312 314.410156 163.425781 314.570312 162.75 C 314.699219 162.214844 314.808594 161.679688 314.898438 161.164062 C 320.386719 152.574219 321.335938 141.453125 317.367188 132.097656 C 313.28125 122.472656 303.972656 115.160156 293.648438 113.46875 C 287.699219 112.496094 282.085938 113.457031 277.84375 116.167969 C 276.785156 116.847656 275.796875 117.664062 274.910156 118.589844 C 273.367188 119.800781 271.792969 121.078125 270.292969 122.46875 C 268.773438 123.875 267.324219 125.390625 266.050781 127.070312 C 262.539062 131.699219 261 136.828125 261.726562 141.507812 C 262.359375 145.605469 265.054688 149.285156 268.515625 150.988281 C 268.410156 151.035156 268.300781 151.078125 268.1875 151.125 C 267.996094 151.207031 267.796875 151.285156 267.605469 151.371094 C 265.859375 152.136719 264.882812 153.285156 264.855469 154.597656 C 264.816406 156.058594 265.890625 157 266.835938 157.832031 C 267.164062 158.117188 267.476562 158.394531 267.734375 158.675781 C 268.742188 159.78125 269.109375 161.40625 269.46875 162.972656 L 269.527344 163.246094 C 270.078125 165.648438 270.855469 168.421875 272.453125 170.804688 C 274.183594 173.394531 276.671875 175.085938 279.28125 175.453125 C 281.355469 175.742188 283.292969 175.222656 285.09375 174.550781 C 286.480469 176.976562 287.054688 180.265625 286.808594 184.351562 C 284.664062 187.597656 281.175781 189.84375 278.066406 191.691406 L 277.945312 191.761719 C 276.410156 192.675781 274.816406 193.617188 273.683594 195.101562 C 271.9375 197.390625 271.773438 200.375 271.800781 202.417969 C 271.84375 205.382812 272.300781 208.320312 273.164062 211.144531 C 273.214844 211.316406 273.265625 211.476562 273.316406 211.636719 C 273.359375 211.761719 273.394531 211.882812 273.433594 212 C 273.28125 212.351562 273.117188 212.710938 272.9375 213.082031 C 272.933594 213.085938 272.929688 213.089844 272.925781 213.097656 C 272.808594 213.339844 272.691406 213.589844 272.566406 213.835938 C 271.320312 216.402344 270.027344 219.054688 270.179688 221.976562 C 270.332031 224.96875 271.953125 227.488281 273.519531 229.929688 C 274.0625 230.777344 274.625 231.652344 275.101562 232.519531 C 279.453125 240.394531 278.367188 249.972656 277.007812 258.339844 C 276.949219 258.695312 277.160156 259.046875 277.503906 259.164062 C 283.890625 261.371094 290.84375 262.484375 298.019531 262.484375 C 301.773438 262.484375 305.589844 262.179688 309.417969 261.566406 C 312.023438 261.148438 314.699219 260.578125 317.355469 259.871094 C 317.355469 259.871094 317.363281 259.867188 317.363281 259.867188 C 322.125 258.605469 326.96875 256.867188 331.761719 254.703125 C 331.921875 254.632812 332.050781 254.507812 332.125 254.351562 L 336.160156 246.1875 C 336.933594 244.636719 337.800781 242.878906 338.039062 240.976562 C 338.308594 238.855469 337.789062 236.769531 337.1875 234.636719 C 336.398438 231.851562 335.554688 229.082031 334.671875 226.398438 C 337.046875 223.507812 338.488281 219.882812 338.726562 216.152344 C 338.984375 212.042969 337.8125 207.941406 335.410156 204.59375 " fill-opacity="1" fill-rule="nonzero"/></g><path fill="#ffffff" d="M 284.453125 160.460938 C 283.042969 157.257812 280.324219 160.339844 278.582031 161.320312 C 277.363281 162.003906 276.046875 162.472656 274.664062 162.605469 C 275.476562 163.128906 276.320312 163.660156 277.203125 164.085938 C 279.75 163.121094 282.097656 161.828125 284.453125 160.460938 Z M 292.183594 124.183594 C 297.230469 125.292969 301.8125 126.640625 305.804688 130.082031 C 313.8125 136.988281 316.078125 148.40625 311.710938 157.988281 C 311.339844 158.796875 312.773438 158.980469 313.097656 158.308594 C 316.585938 151.09375 316.351562 142.355469 312.292969 135.410156 C 308.3125 128.59375 301.652344 124.769531 294.066406 123.304688 C 291.585938 122.824219 289.046875 122.390625 286.726562 121.347656 C 284.542969 120.371094 283.03125 118.878906 281.53125 117.074219 C 281.398438 116.917969 281.074219 117.015625 281.132812 117.234375 C 282.320312 121.726562 288.296875 123.328125 292.183594 124.183594 Z M 273.820312 163.25 C 274.488281 163.734375 275.195312 164.207031 275.929688 164.617188 C 276.203125 164.769531 276.484375 164.914062 276.765625 165.046875 C 278.214844 165.726562 279.777344 166.117188 281.414062 165.890625 C 283.65625 165.582031 285.851562 163.878906 285.882812 161.464844 C 285.886719 161.203125 285.859375 160.941406 285.8125 160.695312 C 285.757812 160.429688 285.679688 160.175781 285.574219 159.9375 C 285.046875 158.730469 283.875 157.882812 282.445312 157.898438 C 281.210938 157.917969 280.324219 158.644531 279.449219 159.421875 C 277.828125 160.859375 276.015625 161.753906 273.960938 162.417969 C 273.890625 162.4375 273.863281 162.484375 273.863281 162.523438 C 273.605469 162.6875 273.488281 163.007812 273.820312 163.25 Z M 277.148438 147.191406 L 277.917969 151.898438 C 278.007812 152.421875 278.503906 152.777344 279.027344 152.691406 C 279.550781 152.605469 279.90625 152.109375 279.824219 151.585938 L 279.050781 146.878906 C 278.960938 146.355469 278.464844 146 277.941406 146.085938 C 277.421875 146.171875 277.0625 146.667969 277.148438 147.191406 Z M 301.085938 149.058594 C 301.171875 149.492188 301.371094 149.871094 301.757812 150.089844 C 301.980469 150.214844 302.164062 150.167969 302.390625 150.242188 C 302.511719 150.253906 302.632812 150.25 302.757812 150.238281 C 303.921875 150.890625 304.039062 151.496094 303.089844 152.054688 C 302.835938 152.261719 303.15625 152.511719 303.375 152.5 C 304.691406 152.421875 305.390625 150.917969 304.496094 149.886719 C 303.925781 149.238281 303.382812 149.523438 302.75 149.238281 C 301.5625 148.707031 302.800781 146.445312 302.925781 145.621094 C 302.960938 145.382812 302.632812 145.25 302.453125 145.382812 C 301.398438 146.15625 300.839844 147.769531 301.085938 149.058594 Z M 300.746094 199.378906 C 300.792969 199.503906 301.066406 199.488281 301.050781 199.332031 C 300.636719 195.515625 301.703125 192.039062 304.347656 189.222656 C 304.679688 188.867188 304.09375 188.527344 303.78125 188.753906 C 300.554688 191.125 299.144531 195.652344 300.746094 199.378906 Z M 273.695312 169.976562 C 272.230469 167.792969 271.503906 165.179688 270.984375 162.910156 L 270.921875 162.644531 C 270.542969 160.96875 270.109375 159.070312 268.839844 157.671875 C 268.527344 157.328125 268.167969 157.011719 267.824219 156.707031 C 267.023438 156.003906 266.328125 155.398438 266.351562 154.636719 C 266.371094 153.648438 267.65625 152.980469 268.207031 152.738281 C 268.390625 152.65625 268.570312 152.582031 268.757812 152.503906 C 269.433594 152.226562 270.128906 151.941406 270.730469 151.496094 C 271.070312 151.25 271.359375 150.964844 271.59375 150.640625 C 272.847656 148.902344 272.152344 146.671875 271.597656 144.882812 L 271.527344 144.660156 C 270.167969 140.273438 270.144531 135.550781 271.421875 131.140625 C 272.609375 134.226562 274.160156 137.292969 276.800781 139.273438 C 276.925781 139.371094 277.054688 139.457031 277.191406 139.546875 C 276.277344 139.785156 275.664062 140.226562 275.664062 140.730469 C 275.664062 141.488281 276.777344 141.082031 278.484375 141.082031 C 280.195312 141.082031 281.851562 141.488281 281.851562 140.730469 C 281.851562 140.472656 281.691406 140.230469 281.40625 140.019531 C 281.976562 139.6875 282.382812 139.179688 282.664062 138.582031 C 282.988281 137.886719 282.902344 136.386719 283.4375 135.988281 C 283.894531 135.644531 284.5625 137.125 284.84375 137.539062 C 285.171875 138.023438 285.496094 138.503906 285.820312 138.980469 C 286.574219 140.101562 287.332031 141.222656 288.09375 142.34375 C 289.308594 144.144531 290.441406 146.128906 292.074219 147.59375 C 293.777344 149.121094 296.375 149.945312 298.449219 149.175781 C 298.445312 149.328125 298.445312 149.472656 298.4375 149.617188 C 298.4375 149.949219 299.109375 149.9375 299.136719 149.625 C 299.15625 149.355469 299.183594 149.085938 299.214844 148.804688 C 299.238281 148.597656 299.273438 148.386719 299.304688 148.175781 C 299.359375 147.828125 299.429688 147.472656 299.511719 147.128906 C 299.824219 145.867188 300.371094 144.679688 301.382812 143.871094 C 303.546875 142.148438 306.203125 143.753906 307.230469 145.914062 C 308.039062 147.625 308.175781 149.820312 307.449219 151.582031 C 306.917969 152.855469 305.894531 153.855469 304.667969 154.269531 C 304.066406 154.476562 303.414062 154.539062 302.75 154.417969 C 302.457031 154.367188 302.160156 154.277344 301.859375 154.144531 C 301.285156 153.894531 300.378906 154.589844 301.097656 155.019531 C 301.386719 155.191406 301.679688 155.332031 301.984375 155.433594 C 301.003906 156.769531 300.039062 158.265625 299.304688 159.894531 C 298.160156 162.472656 297.75 165.070312 298.132812 167.410156 C 298.414062 169.152344 299.410156 171.148438 301.359375 171.515625 C 301.546875 171.546875 301.738281 171.566406 301.933594 171.566406 L 301.976562 171.566406 C 301.960938 175.207031 302.105469 178.898438 302.398438 182.558594 C 302.46875 183.402344 302.601562 184.980469 303.722656 185.871094 C 304.730469 186.675781 306.261719 186.683594 307.808594 185.894531 C 308.175781 185.707031 308.527344 185.492188 308.867188 185.285156 C 309.5 184.902344 310.097656 184.539062 310.734375 184.378906 C 312.066406 184.050781 313.6875 184.667969 314.871094 185.957031 C 316.019531 187.222656 316.6875 188.878906 317.328125 190.480469 L 317.710938 191.433594 C 317.742188 191.515625 317.792969 191.589844 317.851562 191.652344 C 318.199219 192.039062 318.566406 192.425781 318.972656 192.816406 C 318.949219 192.832031 318.933594 192.847656 318.914062 192.863281 L 318.886719 192.886719 C 313.527344 197.035156 308.488281 200.335938 303.472656 202.976562 C 295.347656 207.253906 287.234375 209.785156 279.367188 210.5 C 278.160156 210.609375 276.898438 210.683594 275.660156 210.539062 C 276.195312 209.453125 276.519531 208.234375 276.671875 207.167969 C 276.988281 204.957031 276.621094 202.75 275.582031 200.777344 C 275.375 200.378906 274.578125 200.601562 274.757812 201.070312 C 275.496094 203 275.710938 205.097656 275.320312 207.132812 C 275.144531 208.066406 274.851562 208.972656 274.441406 209.828125 C 274.417969 209.875 274.398438 209.921875 274.371094 209.964844 C 273.691406 207.5 273.328125 204.960938 273.292969 202.398438 C 273.257812 199.5 273.757812 197.46875 274.871094 196.003906 C 275.824219 194.753906 277.292969 193.882812 278.707031 193.042969 L 278.828125 192.976562 C 281.542969 191.359375 284.539062 189.453125 286.804688 186.828125 C 286.472656 190.355469 286.09375 193.871094 285.367188 197.382812 C 285.25 197.933594 286.207031 197.933594 286.34375 197.457031 C 287.816406 192.167969 288.886719 186.375 288.300781 180.855469 C 288.121094 178.058594 287.476562 175.695312 286.371094 173.78125 C 288.898438 172.894531 291.300781 171.5625 293.40625 170.113281 C 294.003906 169.699219 293.238281 169.117188 292.730469 169.445312 C 289.039062 171.820312 285.132812 172.929688 280.980469 174.019531 C 280.484375 174.054688 279.992188 174.042969 279.488281 173.972656 C 277.300781 173.667969 275.1875 172.210938 273.695312 169.976562 Z M 333.125 226.472656 C 333.097656 226.398438 333.078125 226.332031 333.050781 226.257812 C 332.847656 226.320312 332.617188 226.324219 332.402344 226.230469 C 328.027344 224.355469 324.265625 228.683594 320.417969 230.085938 C 320.039062 230.222656 319.65625 230.347656 319.265625 230.449219 C 320.683594 233.429688 321.867188 236.527344 322.78125 239.703125 C 323.433594 238.632812 324.320312 237.714844 325.414062 237.058594 C 325.742188 236.859375 326.363281 237.152344 326.011719 237.546875 C 324.859375 238.839844 323.925781 240.167969 323.292969 241.632812 L 323.292969 241.636719 C 323.292969 241.671875 323.292969 241.707031 323.289062 241.738281 C 323.289062 241.765625 323.285156 241.792969 323.277344 241.820312 C 323.277344 241.828125 323.273438 241.832031 323.273438 241.839844 C 322.984375 243.210938 322.707031 244.523438 322.414062 245.800781 L 322.414062 245.84375 C 322.414062 245.910156 322.398438 245.96875 322.371094 246.019531 L 322.371094 246.023438 C 322.035156 247.492188 321.683594 248.917969 321.289062 250.34375 C 321.289062 250.347656 321.28125 250.351562 321.28125 250.351562 C 321.28125 250.363281 321.277344 250.375 321.277344 250.382812 C 320.480469 253.261719 319.585938 255.765625 318.5625 257.988281 C 322.65625 256.816406 326.796875 255.292969 330.902344 253.449219 L 334.824219 245.527344 C 335.578125 244.011719 336.351562 242.441406 336.5625 240.792969 C 336.789062 238.945312 336.332031 237.097656 335.746094 235.042969 C 334.933594 232.140625 334.042969 229.257812 333.125 226.472656 Z M 337.234375 216.058594 C 337.042969 219.105469 335.972656 222.078125 334.195312 224.5625 C 335.910156 219.273438 332.480469 213.386719 327.890625 210.792969 C 327.484375 210.5625 326.824219 211.058594 327.3125 211.394531 C 329.363281 212.804688 330.988281 214.753906 331.992188 217.035156 C 333.027344 219.40625 333.023438 221.761719 332.929688 224.246094 C 332.710938 223.972656 332.433594 223.730469 332.125 223.523438 C 331.347656 222.996094 330.375 222.648438 329.59375 222.417969 C 327.808594 221.882812 325.878906 221.851562 324.085938 222.371094 C 321.308594 223.183594 318.980469 225.308594 318.042969 228.015625 C 317.914062 228.378906 317.824219 228.746094 317.75 229.128906 C 314.667969 226.167969 313.804688 221.90625 315.679688 218.019531 C 315.992188 217.375 314.890625 217.222656 314.597656 217.71875 C 312.234375 221.742188 313.269531 226.800781 317.03125 229.511719 C 316.433594 229.597656 315.832031 229.636719 315.234375 229.609375 C 314.738281 229.585938 314.242188 229.523438 313.753906 229.410156 C 312.582031 229.144531 311.457031 228.601562 310.429688 227.707031 C 306.460938 224.21875 309.070312 219.578125 309.765625 215.3125 C 310.226562 212.4375 309.269531 208.410156 305.777344 208.128906 C 305.554688 208.109375 305.324219 208.394531 305.613281 208.507812 C 310.804688 210.523438 307.898438 216.769531 307.097656 220.542969 C 306.347656 224.039062 307.347656 227.296875 310.378906 229.339844 C 311.359375 230.003906 312.4375 230.4375 313.554688 230.679688 C 313.492188 231.019531 313.417969 231.351562 313.339844 231.6875 C 313.238281 232.125 313.109375 232.582031 312.992188 233.019531 C 312.582031 234.539062 312.15625 236.113281 312.265625 237.765625 C 312.410156 239.988281 313.515625 241.992188 314.574219 243.660156 C 316.070312 246.027344 317.804688 248.28125 319.734375 250.355469 C 318.84375 253.5 317.832031 256.179688 316.652344 258.511719 C 314.144531 259.167969 311.636719 259.699219 309.183594 260.09375 C 298.5 261.804688 287.933594 261.0625 278.582031 257.953125 C 280.019531 248.902344 280.675781 239.515625 276.410156 231.796875 C 275.910156 230.886719 275.332031 229.992188 274.777344 229.125 C 273.25 226.742188 271.808594 224.496094 271.671875 221.902344 C 271.542969 219.359375 272.746094 216.882812 273.914062 214.492188 C 274.035156 214.234375 274.164062 213.980469 274.285156 213.730469 C 274.289062 213.722656 274.289062 213.722656 274.292969 213.714844 C 274.367188 213.730469 274.441406 213.746094 274.515625 213.757812 C 283.019531 215.398438 292.503906 214.222656 299.988281 209.765625 C 300.558594 209.425781 299.925781 208.824219 299.4375 209.023438 C 295.355469 210.683594 291.234375 212.089844 286.863281 212.742188 C 282.832031 213.347656 278.726562 213.351562 274.675781 212.882812 C 274.761719 212.691406 274.847656 212.503906 274.925781 212.320312 C 274.976562 212.195312 275.027344 212.078125 275.074219 211.96875 C 275.097656 211.96875 275.121094 211.972656 275.144531 211.976562 C 275.410156 212.019531 275.679688 212.046875 275.945312 212.066406 C 276.019531 212.070312 276.085938 212.078125 276.160156 212.082031 L 276.167969 212.082031 C 276.320312 212.09375 276.476562 212.101562 276.628906 212.105469 C 276.796875 212.109375 276.964844 212.113281 277.136719 212.113281 C 277.9375 212.113281 278.734375 212.058594 279.5 211.988281 C 287.574219 211.257812 295.871094 208.667969 304.164062 204.300781 C 308.941406 201.785156 313.738281 198.6875 318.785156 194.847656 C 319.121094 194.59375 319.457031 194.332031 319.800781 194.070312 L 319.832031 194.046875 C 319.917969 193.976562 320.007812 193.910156 320.09375 193.84375 C 320.472656 194.171875 320.863281 194.492188 321.257812 194.804688 C 316.71875 198.589844 312.335938 202.363281 307.210938 205.363281 C 306.707031 205.660156 307.316406 206.144531 307.730469 205.917969 C 312.855469 203.09375 318.042969 199.738281 322.023438 195.394531 C 323.191406 196.28125 324.390625 197.121094 325.574219 197.941406 C 328.871094 200.222656 331.980469 202.378906 334.199219 205.464844 C 336.367188 208.488281 337.472656 212.351562 337.234375 216.058594 " fill-opacity="1" fill-rule="nonzero"/><g clip-path="url(#db8f612496)"><path fill="#0f0e0c" d="M 277.148438 147.191406 C 277.0625 146.667969 277.421875 146.171875 277.941406 146.085938 C 278.464844 146 278.960938 146.355469 279.050781 146.878906 L 279.824219 151.585938 C 279.90625 152.109375 279.550781 152.605469 279.027344 152.691406 C 278.503906 152.777344 278.007812 152.421875 277.917969 151.898438 Z M 277.203125 164.085938 C 276.320312 163.660156 275.476562 163.128906 274.664062 162.605469 C 276.046875 162.472656 277.363281 162.003906 278.582031 161.320312 C 280.324219 160.339844 283.042969 157.257812 284.453125 160.460938 C 282.097656 161.828125 279.75 163.121094 277.203125 164.085938 Z M 285.574219 159.9375 C 285.046875 158.730469 283.875 157.882812 282.445312 157.898438 C 281.210938 157.917969 280.324219 158.644531 279.449219 159.421875 C 277.828125 160.859375 276.015625 161.753906 273.960938 162.417969 C 273.890625 162.4375 273.863281 162.484375 273.863281 162.523438 C 273.605469 162.6875 273.488281 163.007812 273.820312 163.25 C 274.488281 163.734375 275.195312 164.207031 275.929688 164.617188 C 276.203125 164.769531 276.484375 164.914062 276.765625 165.046875 C 278.214844 165.726562 279.777344 166.117188 281.414062 165.890625 C 283.65625 165.582031 285.851562 163.878906 285.882812 161.464844 C 285.886719 161.203125 285.859375 160.941406 285.8125 160.695312 C 285.757812 160.429688 285.679688 160.175781 285.574219 159.9375 Z M 300.746094 199.378906 C 299.144531 195.652344 300.554688 191.125 303.78125 188.753906 C 304.09375 188.527344 304.679688 188.867188 304.347656 189.222656 C 301.703125 192.039062 300.636719 195.515625 301.050781 199.332031 C 301.066406 199.488281 300.792969 199.503906 300.746094 199.378906 Z M 301.085938 149.058594 C 300.839844 147.769531 301.398438 146.15625 302.453125 145.382812 C 302.632812 145.25 302.960938 145.382812 302.925781 145.621094 C 302.800781 146.445312 301.5625 148.707031 302.75 149.238281 C 303.382812 149.523438 303.925781 149.238281 304.496094 149.886719 C 305.390625 150.917969 304.691406 152.421875 303.375 152.5 C 303.15625 152.511719 302.835938 152.261719 303.089844 152.054688 C 304.039062 151.496094 303.921875 150.890625 302.757812 150.238281 C 302.632812 150.25 302.511719 150.253906 302.390625 150.242188 C 302.164062 150.167969 301.980469 150.214844 301.757812 150.089844 C 301.371094 149.871094 301.171875 149.492188 301.085938 149.058594 Z M 337.234375 216.058594 C 337.042969 219.105469 335.96875 222.078125 334.191406 224.5625 C 335.90625 219.273438 332.476562 213.386719 327.886719 210.792969 C 327.480469 210.5625 326.820312 211.058594 327.3125 211.394531 C 329.359375 212.804688 330.984375 214.753906 331.992188 217.035156 C 333.023438 219.40625 333.019531 221.761719 332.929688 224.246094 C 332.710938 223.972656 332.433594 223.730469 332.125 223.523438 C 331.34375 222.996094 330.375 222.648438 329.59375 222.417969 C 327.808594 221.882812 325.878906 221.851562 324.085938 222.371094 C 321.308594 223.183594 318.976562 225.308594 318.039062 228.015625 C 317.914062 228.378906 317.824219 228.746094 317.75 229.128906 C 314.667969 226.167969 313.804688 221.90625 315.679688 218.019531 C 315.988281 217.375 314.890625 217.222656 314.597656 217.71875 C 312.230469 221.742188 313.269531 226.800781 317.03125 229.511719 C 316.433594 229.597656 315.828125 229.636719 315.230469 229.609375 C 314.734375 229.585938 314.238281 229.523438 313.753906 229.410156 C 312.582031 229.144531 311.453125 228.601562 310.429688 227.707031 C 306.457031 224.21875 309.070312 219.578125 309.761719 215.3125 C 310.226562 212.4375 309.265625 208.410156 305.777344 208.128906 C 305.554688 208.109375 305.324219 208.394531 305.609375 208.507812 C 310.804688 210.523438 307.894531 216.769531 307.09375 220.542969 C 306.347656 224.039062 307.347656 227.296875 310.375 229.339844 C 311.359375 230.003906 312.433594 230.4375 313.550781 230.679688 C 313.492188 231.019531 313.417969 231.351562 313.335938 231.6875 C 313.234375 232.125 313.109375 232.582031 312.988281 233.019531 C 312.582031 234.539062 312.152344 236.113281 312.265625 237.765625 C 312.40625 239.988281 313.511719 241.992188 314.570312 243.660156 C 316.066406 246.027344 317.804688 248.28125 319.734375 250.355469 C 318.84375 253.5 317.832031 256.179688 316.648438 258.511719 C 314.144531 259.167969 311.632812 259.699219 309.179688 260.09375 C 298.5 261.804688 287.929688 261.0625 278.582031 257.953125 C 280.015625 248.902344 280.675781 239.515625 276.410156 231.796875 C 275.910156 230.886719 275.332031 229.992188 274.777344 229.125 C 273.246094 226.742188 271.804688 224.496094 271.671875 221.902344 C 271.539062 219.359375 272.746094 216.882812 273.914062 214.492188 C 274.035156 214.234375 274.160156 213.980469 274.28125 213.730469 C 274.285156 213.722656 274.285156 213.722656 274.289062 213.714844 C 274.363281 213.730469 274.4375 213.746094 274.515625 213.757812 C 283.015625 215.398438 292.503906 214.222656 299.988281 209.765625 C 300.558594 209.425781 299.925781 208.824219 299.433594 209.023438 C 295.355469 210.683594 291.230469 212.089844 286.863281 212.742188 C 282.828125 213.347656 278.722656 213.351562 274.675781 212.882812 C 274.761719 212.691406 274.84375 212.503906 274.921875 212.320312 C 274.976562 212.195312 275.023438 212.078125 275.070312 211.96875 C 275.097656 211.96875 275.121094 211.972656 275.144531 211.976562 C 275.410156 212.019531 275.679688 212.046875 275.945312 212.066406 C 276.015625 212.070312 276.085938 212.078125 276.15625 212.082031 L 276.164062 212.082031 C 276.320312 212.09375 276.472656 212.101562 276.625 212.105469 C 276.796875 212.109375 276.964844 212.113281 277.132812 212.113281 C 277.9375 212.113281 278.730469 212.058594 279.5 211.988281 C 287.570312 211.257812 295.871094 208.667969 304.164062 204.300781 C 308.941406 201.785156 313.738281 198.6875 318.785156 194.847656 C 319.121094 194.59375 319.457031 194.332031 319.800781 194.070312 L 319.828125 194.046875 C 319.917969 193.976562 320.003906 193.910156 320.09375 193.84375 C 320.472656 194.171875 320.859375 194.492188 321.253906 194.804688 C 316.71875 198.589844 312.332031 202.363281 307.207031 205.363281 C 306.703125 205.660156 307.3125 206.144531 307.726562 205.917969 C 312.851562 203.09375 318.042969 199.738281 322.023438 195.394531 C 323.191406 196.28125 324.390625 197.121094 325.570312 197.941406 C 328.867188 200.222656 331.976562 202.378906 334.199219 205.464844 C 336.363281 208.488281 337.46875 212.351562 337.234375 216.058594 Z M 321.777344 241.683594 C 321.261719 244.148438 320.769531 246.417969 320.195312 248.640625 C 318.578125 246.832031 317.113281 244.890625 315.828125 242.859375 C 314.871094 241.351562 313.875 239.554688 313.753906 237.667969 C 313.664062 236.265625 314.035156 234.878906 314.4375 233.40625 C 314.554688 232.960938 314.679688 232.492188 314.789062 232.035156 C 314.878906 231.65625 314.960938 231.273438 315.027344 230.890625 C 315.9375 230.957031 316.859375 230.914062 317.765625 230.769531 C 319.453125 234.257812 320.796875 237.917969 321.777344 241.683594 Z M 335.746094 235.042969 C 336.328125 237.097656 336.789062 238.945312 336.5625 240.792969 C 336.347656 242.441406 335.574219 244.011719 334.824219 245.527344 L 330.902344 253.449219 C 326.792969 255.292969 322.652344 256.816406 318.558594 257.988281 C 319.585938 255.765625 320.480469 253.261719 321.277344 250.382812 C 321.277344 250.375 321.28125 250.363281 321.28125 250.351562 C 321.28125 250.351562 321.289062 250.347656 321.289062 250.34375 C 321.683594 248.917969 322.035156 247.492188 322.371094 246.023438 L 322.371094 246.019531 C 322.394531 245.96875 322.414062 245.910156 322.414062 245.84375 L 322.414062 245.800781 C 322.707031 244.523438 322.984375 243.210938 323.273438 241.839844 C 323.273438 241.832031 323.277344 241.828125 323.277344 241.820312 C 323.285156 241.792969 323.285156 241.765625 323.285156 241.738281 C 323.292969 241.707031 323.292969 241.671875 323.292969 241.636719 L 323.292969 241.632812 C 323.921875 240.167969 324.859375 238.839844 326.007812 237.546875 C 326.359375 237.152344 325.742188 236.859375 325.410156 237.058594 C 324.316406 237.714844 323.433594 238.632812 322.78125 239.703125 C 321.863281 236.527344 320.683594 233.429688 319.265625 230.449219 C 319.652344 230.347656 320.039062 230.222656 320.417969 230.085938 C 324.261719 228.683594 328.023438 224.355469 332.398438 226.230469 C 332.613281 226.324219 332.84375 226.320312 333.050781 226.257812 C 333.074219 226.332031 333.097656 226.398438 333.121094 226.472656 C 334.042969 229.257812 334.929688 232.140625 335.746094 235.042969 Z M 273.292969 202.398438 C 273.253906 199.5 273.757812 197.46875 274.871094 196.003906 C 275.824219 194.753906 277.289062 193.882812 278.707031 193.042969 L 278.828125 192.976562 C 281.542969 191.359375 284.535156 189.453125 286.800781 186.828125 C 286.46875 190.355469 286.089844 193.871094 285.363281 197.382812 C 285.246094 197.933594 286.207031 197.933594 286.339844 197.457031 C 287.816406 192.167969 288.886719 186.375 288.300781 180.855469 C 288.121094 178.058594 287.472656 175.695312 286.367188 173.78125 C 288.894531 172.894531 291.300781 171.5625 293.402344 170.113281 C 294.003906 169.699219 293.234375 169.117188 292.730469 169.445312 C 289.039062 171.820312 285.132812 172.929688 280.976562 174.019531 C 280.484375 174.054688 279.988281 174.042969 279.488281 173.972656 C 277.300781 173.667969 275.1875 172.210938 273.691406 169.976562 C 272.230469 167.792969 271.503906 165.179688 270.984375 162.910156 L 270.921875 162.644531 C 270.539062 160.96875 270.109375 159.070312 268.839844 157.671875 C 268.523438 157.328125 268.164062 157.011719 267.824219 156.707031 C 267.023438 156.003906 266.328125 155.398438 266.347656 154.636719 C 266.371094 153.648438 267.65625 152.980469 268.203125 152.738281 C 268.386719 152.65625 268.570312 152.582031 268.757812 152.503906 C 269.433594 152.226562 270.128906 151.941406 270.730469 151.496094 C 271.066406 151.25 271.355469 150.964844 271.59375 150.640625 C 272.84375 148.902344 272.152344 146.671875 271.597656 144.882812 L 271.523438 144.660156 C 270.167969 140.273438 270.144531 135.550781 271.421875 131.140625 C 272.609375 134.226562 274.160156 137.292969 276.796875 139.273438 C 276.921875 139.371094 277.054688 139.457031 277.1875 139.546875 C 276.273438 139.785156 275.660156 140.226562 275.660156 140.730469 C 275.660156 141.488281 276.773438 141.082031 278.484375 141.082031 C 280.191406 141.082031 281.851562 141.488281 281.851562 140.730469 C 281.851562 140.472656 281.6875 140.230469 281.40625 140.019531 C 281.976562 139.6875 282.382812 139.179688 282.664062 138.582031 C 282.984375 137.886719 282.902344 136.386719 283.433594 135.988281 C 283.894531 135.644531 284.5625 137.125 284.84375 137.539062 C 285.167969 138.023438 285.492188 138.503906 285.820312 138.980469 C 286.574219 140.101562 287.332031 141.222656 288.09375 142.34375 C 289.308594 144.144531 290.441406 146.128906 292.074219 147.59375 C 293.777344 149.121094 296.371094 149.945312 298.449219 149.175781 C 298.445312 149.328125 298.445312 149.472656 298.4375 149.617188 C 298.433594 149.949219 299.105469 149.9375 299.132812 149.625 C 299.15625 149.355469 299.179688 149.085938 299.214844 148.804688 C 299.238281 148.597656 299.269531 148.386719 299.304688 148.175781 C 299.359375 147.828125 299.425781 147.472656 299.511719 147.128906 C 299.820312 145.867188 300.371094 144.679688 301.378906 143.871094 C 303.542969 142.148438 306.203125 143.753906 307.226562 145.914062 C 308.039062 147.625 308.175781 149.820312 307.445312 151.582031 C 306.917969 152.855469 305.890625 153.855469 304.667969 154.269531 C 304.066406 154.476562 303.414062 154.539062 302.75 154.417969 C 302.457031 154.367188 302.15625 154.277344 301.859375 154.144531 C 301.28125 153.894531 300.375 154.589844 301.097656 155.019531 C 301.382812 155.191406 301.679688 155.332031 301.980469 155.433594 C 301 156.769531 300.035156 158.265625 299.304688 159.894531 C 298.15625 162.472656 297.75 165.070312 298.128906 167.410156 C 298.414062 169.152344 299.410156 171.148438 301.355469 171.515625 C 301.546875 171.546875 301.734375 171.566406 301.933594 171.566406 L 301.976562 171.566406 C 301.960938 175.207031 302.105469 178.898438 302.398438 182.558594 C 302.46875 183.402344 302.601562 184.980469 303.71875 185.871094 C 304.730469 186.675781 306.261719 186.683594 307.808594 185.894531 C 308.175781 185.707031 308.527344 185.492188 308.867188 185.285156 C 309.5 184.902344 310.097656 184.539062 310.734375 184.378906 C 312.066406 184.050781 313.6875 184.667969 314.867188 185.957031 C 316.019531 187.222656 316.6875 188.878906 317.328125 190.480469 L 317.710938 191.433594 C 317.742188 191.515625 317.789062 191.589844 317.851562 191.652344 C 318.195312 192.039062 318.5625 192.425781 318.96875 192.816406 C 318.949219 192.832031 318.929688 192.847656 318.910156 192.863281 L 318.882812 192.886719 C 313.527344 197.035156 308.484375 200.335938 303.46875 202.976562 C 295.34375 207.253906 287.234375 209.785156 279.363281 210.5 C 278.160156 210.609375 276.894531 210.683594 275.660156 210.539062 C 276.195312 209.453125 276.519531 208.234375 276.667969 207.167969 C 276.984375 204.957031 276.621094 202.75 275.582031 200.777344 C 275.371094 200.378906 274.578125 200.601562 274.757812 201.070312 C 275.496094 203 275.710938 205.097656 275.320312 207.132812 C 275.144531 208.066406 274.851562 208.972656 274.441406 209.828125 C 274.417969 209.875 274.394531 209.921875 274.371094 209.964844 C 273.691406 207.5 273.324219 204.960938 273.292969 202.398438 Z M 281.53125 117.074219 C 283.03125 118.878906 284.542969 120.371094 286.722656 121.347656 C 289.042969 122.390625 291.582031 122.824219 294.0625 123.304688 C 301.648438 124.769531 308.308594 128.59375 312.289062 135.410156 C 316.351562 142.355469 316.585938 151.09375 313.097656 158.308594 C 312.769531 158.980469 311.339844 158.796875 311.710938 157.988281 C 316.078125 148.40625 313.808594 136.988281 305.804688 130.082031 C 301.8125 126.640625 297.226562 125.292969 292.179688 124.183594 C 288.296875 123.328125 282.320312 121.726562 281.132812 117.234375 C 281.074219 117.015625 281.398438 116.917969 281.53125 117.074219 Z M 335.410156 204.59375 C 333.039062 201.296875 329.675781 198.96875 326.421875 196.714844 C 324.441406 195.34375 322.394531 193.925781 320.617188 192.316406 C 320.023438 191.777344 319.511719 191.265625 319.050781 190.757812 L 318.710938 189.925781 C 318.050781 188.28125 317.304688 186.414062 315.96875 184.949219 C 314.742188 183.605469 312.628906 182.371094 310.367188 182.929688 C 309.507812 183.144531 308.789062 183.585938 308.089844 184.011719 C 307.757812 184.214844 307.445312 184.402344 307.128906 184.566406 C 306.34375 184.964844 305.289062 185.207031 304.648438 184.703125 C 304.078125 184.25 303.953125 183.296875 303.886719 182.4375 C 303.585938 178.703125 303.441406 174.925781 303.464844 171.207031 C 304.003906 170.957031 304.503906 170.574219 304.917969 170.105469 C 305.496094 169.460938 305.898438 168.707031 306.222656 167.96875 C 306.460938 168.074219 306.722656 168.144531 307.003906 168.175781 C 307.882812 168.273438 308.835938 167.960938 309.488281 167.363281 C 310.011719 166.882812 310.367188 166.304688 310.628906 165.683594 C 310.828125 165.800781 311.039062 165.882812 311.261719 165.925781 C 312.132812 166.082031 313.09375 165.660156 313.703125 164.851562 C 314.199219 164.195312 314.40625 163.425781 314.566406 162.75 C 314.695312 162.214844 314.808594 161.679688 314.894531 161.164062 C 320.382812 152.574219 321.332031 141.453125 317.363281 132.097656 C 313.28125 122.472656 303.96875 115.160156 293.648438 113.46875 C 287.695312 112.496094 282.082031 113.457031 277.84375 116.167969 C 276.78125 116.847656 275.792969 117.664062 274.90625 118.589844 C 273.363281 119.800781 271.792969 121.078125 270.289062 122.46875 C 268.769531 123.875 267.320312 125.390625 266.050781 127.070312 C 262.535156 131.699219 261 136.828125 261.722656 141.507812 C 262.355469 145.605469 265.050781 149.285156 268.515625 150.988281 C 268.40625 151.035156 268.296875 151.078125 268.183594 151.125 C 267.992188 151.207031 267.792969 151.285156 267.601562 151.371094 C 265.859375 152.136719 264.878906 153.285156 264.855469 154.597656 C 264.816406 156.058594 265.886719 157 266.835938 157.832031 C 267.164062 158.117188 267.472656 158.394531 267.730469 158.675781 C 268.738281 159.78125 269.105469 161.40625 269.464844 162.972656 L 269.523438 163.246094 C 270.074219 165.648438 270.851562 168.421875 272.449219 170.804688 C 274.183594 173.394531 276.667969 175.085938 279.277344 175.453125 C 281.351562 175.742188 283.289062 175.222656 285.089844 174.550781 C 286.476562 176.976562 287.054688 180.265625 286.804688 184.351562 C 284.664062 187.597656 281.171875 189.84375 278.0625 191.691406 L 277.945312 191.761719 C 276.40625 192.675781 274.8125 193.617188 273.679688 195.101562 C 271.933594 197.390625 271.769531 200.375 271.796875 202.417969 C 271.839844 205.382812 272.296875 208.320312 273.160156 211.144531 C 273.210938 211.316406 273.261719 211.476562 273.3125 211.636719 C 273.355469 211.761719 273.394531 211.882812 273.429688 212 C 273.28125 212.351562 273.113281 212.710938 272.933594 213.082031 C 272.929688 213.085938 272.925781 213.089844 272.921875 213.097656 C 272.808594 213.339844 272.6875 213.589844 272.566406 213.835938 C 271.316406 216.402344 270.027344 219.054688 270.179688 221.976562 C 270.332031 224.96875 271.949219 227.488281 273.515625 229.929688 C 274.058594 230.777344 274.621094 231.652344 275.097656 232.519531 C 279.449219 240.394531 278.363281 249.972656 277.003906 258.339844 C 276.949219 258.695312 277.15625 259.046875 277.5 259.164062 C 283.886719 261.371094 290.839844 262.484375 298.019531 262.484375 C 301.769531 262.484375 305.585938 262.179688 309.414062 261.566406 C 312.023438 261.148438 314.695312 260.578125 317.351562 259.871094 C 317.351562 259.871094 317.359375 259.867188 317.363281 259.867188 C 322.121094 258.605469 326.96875 256.867188 331.757812 254.703125 C 331.917969 254.632812 332.046875 254.507812 332.121094 254.351562 L 336.160156 246.1875 C 336.929688 244.636719 337.796875 242.878906 338.039062 240.976562 C 338.304688 238.855469 337.785156 236.769531 337.183594 234.636719 C 336.394531 231.851562 335.550781 229.082031 334.671875 226.398438 C 337.046875 223.507812 338.484375 219.882812 338.726562 216.152344 C 338.980469 212.042969 337.808594 207.941406 335.410156 204.59375 " fill-opacity="1" fill-rule="nonzero"/></g></svg>