<svg xmlns="http://www.w3.org/2000/svg" xmlns:xlink="http://www.w3.org/1999/xlink" width="800" zoomAndPan="magnify" viewBox="0 0 600 374.999991" height="500" preserveAspectRatio="xMidYMid meet" version="1.0"><defs><clipPath id="2e39c1bad0"><path d="M 253.707031 112.5 L 346.65625 112.5 L 346.65625 262.484375 L 253.707031 262.484375 Z M 253.707031 112.5 " clip-rule="nonzero"/></clipPath><clipPath id="4ef6e0c25b"><path d="M 253.707031 112.5 L 346.65625 112.5 L 346.65625 262.484375 L 253.707031 262.484375 Z M 253.707031 112.5 " clip-rule="nonzero"/></clipPath></defs><rect x="-60" width="720" fill="#ffffff" y="-37.499999" height="449.999989" fill-opacity="1"/><rect x="-60" width="720" fill="#cda6ff" y="-37.499999" height="449.999989" fill-opacity="1"/><g clip-path="url(#2e39c1bad0)"><path fill="#0f0e0c" d="M 344.113281 218.625 C 342.5 216.253906 340.246094 214.402344 338.066406 212.617188 C 335.371094 210.414062 332.832031 208.335938 331.46875 205.382812 C 330.976562 204.320312 330.644531 203.125 330.320312 201.96875 C 329.734375 199.894531 329.132812 197.75 327.605469 196.089844 C 325.382812 193.667969 322.085938 193.144531 318.902344 192.640625 C 317.367188 192.394531 315.878906 192.160156 314.53125 191.730469 C 314.050781 191.578125 313.589844 191.398438 313.15625 191.191406 C 312.417969 190.835938 311.75 190.390625 311.167969 189.808594 C 309.101562 187.742188 308.722656 184.460938 308.621094 181.222656 C 308.539062 178.613281 308.550781 175.964844 308.644531 173.335938 C 311.484375 171.070312 313.976562 168.140625 315.878906 164.84375 C 316.15625 164.359375 316.425781 163.863281 316.679688 163.359375 C 316.488281 170.574219 315.511719 177.730469 313.765625 184.6875 C 313.613281 185.292969 313.144531 187.140625 314.417969 188.0625 C 314.917969 188.425781 315.496094 188.53125 316.085938 188.363281 C 317.183594 188.050781 318.117188 186.820312 318.554688 185.742188 C 321.640625 178.117188 323.453125 170.035156 323.941406 161.707031 C 325.296875 161.265625 326.558594 160.5 327.535156 159.511719 C 329.746094 157.28125 330.992188 153.847656 331.039062 149.847656 C 331.070312 146.914062 330.472656 144.480469 329.257812 142.597656 C 329.195312 142.5 329.128906 142.402344 329.058594 142.308594 C 333.882812 141.183594 338.0625 137.375 339.460938 132.667969 C 341.078125 127.242188 338.941406 120.859375 334.378906 117.488281 C 331.832031 115.601562 328.894531 114.871094 326.320312 115.480469 C 324.082031 116.007812 322 117.589844 320.460938 119.929688 C 319.902344 120.78125 319.40625 121.71875 318.917969 122.867188 C 316.128906 118.785156 311.957031 115.566406 307.269531 113.917969 C 299.949219 111.347656 291.222656 112.3125 283.929688 116.496094 C 277.363281 120.265625 271.882812 126.605469 268.5 134.347656 C 267.5 136.640625 266.429688 139.652344 267.074219 142.648438 C 267.378906 144.046875 268.148438 145.375 269.207031 146.347656 C 268.308594 160.417969 271.292969 174.402344 277.851562 186.8125 C 278.398438 187.84375 279.449219 188.972656 280.578125 189.171875 C 280.695312 189.191406 280.816406 189.203125 280.9375 189.203125 C 281.40625 189.203125 281.835938 189.035156 282.207031 188.707031 C 283.371094 187.65625 282.722656 185.863281 282.507812 185.277344 C 280.945312 180.953125 279.679688 176.496094 278.730469 171.976562 C 279.824219 173.28125 281.050781 174.40625 282.390625 175.339844 C 285.027344 177.175781 288.222656 178.308594 291.671875 178.636719 C 291.507812 183.109375 289.507812 187.429688 286.351562 190.429688 C 286.113281 190.65625 285.867188 190.875 285.617188 191.085938 C 284.773438 191.800781 283.851562 192.421875 282.875 192.929688 C 281.128906 193.839844 279.15625 194.464844 277.253906 195.074219 C 277.222656 195.085938 277.191406 195.097656 277.15625 195.105469 C 276.726562 195.242188 276.289062 195.382812 275.855469 195.523438 C 273.230469 196.386719 270.617188 197.410156 268.523438 199.316406 C 265.246094 202.3125 264.09375 206.675781 262.980469 210.898438 C 261.921875 214.917969 260.917969 218.71875 258.246094 221.453125 C 257.875 221.832031 257.480469 222.1875 257.058594 222.5625 C 256.070312 223.433594 255.058594 224.335938 254.414062 225.574219 C 252.996094 228.324219 253.984375 231.554688 255.027344 234.367188 C 256.050781 237.136719 257.214844 240.28125 259.414062 242.691406 C 259.582031 242.878906 259.761719 243.058594 259.949219 243.238281 C 260.140625 243.421875 260.339844 243.597656 260.546875 243.761719 C 260.605469 243.8125 260.664062 243.859375 260.722656 243.902344 C 260.964844 244.09375 261.214844 244.277344 261.476562 244.445312 L 261.453125 244.691406 L 260.570312 254.996094 L 261.078125 255.207031 C 265.125 256.882812 269.289062 258.277344 273.53125 259.378906 C 274.15625 259.546875 274.78125 259.699219 275.410156 259.847656 C 282.710938 261.597656 290.21875 262.484375 297.714844 262.484375 C 300.109375 262.484375 302.503906 262.390625 304.894531 262.210938 C 311.371094 261.714844 317.859375 260.523438 324.167969 258.691406 C 324.824219 258.503906 325.480469 258.304688 326.128906 258.097656 C 331.394531 256.449219 336.519531 254.347656 341.394531 251.835938 L 342.011719 251.519531 L 341.746094 250.882812 C 340.339844 247.476562 339.125 243.957031 338.140625 240.410156 C 341.621094 238.734375 344.445312 235.675781 345.765625 232.109375 C 347.394531 227.691406 346.761719 222.523438 344.113281 218.625 " fill-opacity="1" fill-rule="nonzero"/></g><path fill="#ffffff" d="M 342.867188 219.464844 C 341.378906 217.273438 339.207031 215.496094 337.105469 213.777344 C 334.402344 211.5625 331.609375 209.273438 330.101562 206.011719 C 329.558594 204.839844 329.207031 203.585938 328.867188 202.375 C 328.308594 200.378906 327.78125 198.496094 326.492188 197.101562 C 324.625 195.066406 321.730469 194.605469 318.664062 194.121094 C 317.09375 193.871094 315.496094 193.621094 314.011719 193.140625 C 312 198.136719 308.105469 202.894531 302.847656 203.976562 C 297.902344 204.988281 293.011719 201.800781 291.546875 197.199219 C 290.679688 198.367188 289.699219 199.46875 288.734375 200.46875 C 287.339844 201.917969 285.746094 203.335938 283.632812 203.464844 C 279.652344 203.707031 277.378906 200.359375 276.265625 196.96875 C 273.75 197.800781 271.410156 198.71875 269.542969 200.421875 C 266.589844 203.117188 265.546875 207.082031 264.4375 211.277344 C 263.375 215.308594 262.277344 219.480469 259.324219 222.5 C 258.917969 222.917969 258.480469 223.304688 258.058594 223.683594 C 257.140625 224.5 256.269531 225.273438 255.757812 226.261719 C 254.613281 228.472656 255.46875 231.21875 256.441406 233.847656 C 257.414062 236.492188 258.523438 239.488281 260.527344 241.683594 C 260.785156 241.96875 261.066406 242.238281 261.363281 242.488281 C 263.179688 241.699219 265.277344 241.371094 267.304688 241.507812 C 266.183594 239.65625 265.25 237.730469 265.042969 235.570312 C 264.144531 226.207031 276.933594 219.203125 271.863281 209.703125 C 271.667969 209.335938 272.328125 209.160156 272.542969 209.390625 C 275.460938 212.492188 274.617188 217.253906 272.898438 220.714844 C 270.6875 225.175781 266.671875 229.289062 266.726562 234.554688 C 266.753906 237.214844 268.121094 239.511719 269.53125 241.675781 C 269.574219 241.746094 269.617188 241.816406 269.664062 241.882812 C 269.988281 242.386719 270.304688 242.882812 270.617188 243.382812 C 271.207031 244.316406 271.765625 245.257812 272.269531 246.238281 C 272.5 246.679688 272.714844 247.132812 272.917969 247.589844 C 273.097656 248 273.273438 248.421875 273.441406 248.847656 C 274.605469 251.808594 275.398438 255.097656 275.445312 258.316406 C 285.023438 260.640625 294.964844 261.464844 304.777344 260.714844 C 311.105469 260.230469 317.445312 259.070312 323.613281 257.289062 C 322.558594 254.578125 321.695312 251.800781 321.230469 248.929688 C 321.152344 248.425781 321.078125 247.921875 321.023438 247.414062 C 320.980469 247.035156 320.945312 246.65625 320.921875 246.277344 C 320.875 245.695312 320.855469 245.113281 320.855469 244.53125 C 320.855469 243.898438 320.882812 243.265625 320.933594 242.636719 C 320.960938 242.300781 320.996094 241.96875 321.042969 241.632812 C 321.386719 239.050781 322.269531 236.582031 322.738281 234.027344 C 323.207031 231.472656 323.085938 229.007812 322.0625 226.597656 C 321.113281 224.375 319.679688 222.398438 318.414062 220.351562 C 316.203125 216.777344 314.101562 211.800781 316.660156 207.871094 C 316.824219 207.617188 317.527344 207.640625 317.378906 208.027344 C 315.542969 212.917969 318.429688 217.296875 321.0625 221.242188 C 323.652344 225.125 325.476562 228.886719 324.679688 233.660156 C 324.265625 236.117188 323.4375 238.484375 323.058594 240.945312 C 325.023438 239.5 327.152344 238.261719 329.386719 237.265625 C 331.515625 236.3125 334.273438 235.066406 336.625 235.871094 C 337.613281 236.210938 338.71875 237.148438 338.980469 238.203125 C 338.988281 238.203125 338.992188 238.203125 339 238.207031 C 341.433594 236.621094 343.367188 234.265625 344.351562 231.589844 C 345.816406 227.617188 345.25 222.972656 342.867188 219.464844 Z M 267.589844 245.984375 C 266.425781 245.5625 265.214844 245.261719 264 245.023438 C 263.660156 244.953125 263.308594 244.910156 262.953125 244.871094 L 262.164062 254.03125 C 265.828125 255.523438 269.585938 256.78125 273.410156 257.796875 C 273.09375 254.257812 272.460938 250.835938 270.886719 247.480469 C 269.820312 246.921875 268.734375 246.398438 267.589844 245.984375 Z M 336.421875 239.847656 C 334.027344 240.355469 331.660156 240.851562 329.351562 241.902344 C 326.945312 242.992188 324.886719 244.414062 322.863281 245.96875 C 322.933594 246.960938 323.066406 247.945312 323.246094 248.921875 C 323.742188 251.59375 324.574219 254.175781 325.570312 256.699219 C 330.570312 255.140625 335.445312 253.171875 340.09375 250.816406 C 338.691406 247.351562 337.488281 243.78125 336.515625 240.1875 Z M 306.765625 174.714844 C 306.648438 174.792969 306.539062 174.867188 306.421875 174.9375 C 306.316406 175.007812 306.207031 175.078125 306.097656 175.144531 L 306.070312 175.160156 C 305.960938 175.230469 305.847656 175.300781 305.738281 175.363281 C 304.933594 175.847656 304.105469 176.28125 303.265625 176.664062 C 303.15625 176.714844 303.046875 176.765625 302.933594 176.8125 C 302.792969 176.878906 302.648438 176.9375 302.503906 176.996094 C 302.398438 177.042969 302.285156 177.085938 302.175781 177.128906 C 302.085938 177.164062 301.992188 177.199219 301.898438 177.238281 C 301.75 177.296875 301.59375 177.355469 301.441406 177.40625 C 298.820312 178.351562 295.980469 178.804688 293.175781 178.730469 C 292.992188 183.542969 290.835938 188.195312 287.445312 191.453125 C 288.46875 192.378906 289.507812 193.195312 290.902344 193.738281 C 291.347656 193.914062 291.800781 194.058594 292.261719 194.171875 C 292.609375 194.257812 292.953125 194.328125 293.308594 194.382812 C 294.5 194.558594 295.722656 194.546875 296.910156 194.332031 C 301.214844 193.542969 304.710938 190.332031 307.367188 187.046875 C 307.480469 186.902344 307.640625 186.808594 307.8125 186.753906 C 307.324219 185.027344 307.175781 183.136719 307.117188 181.265625 C 307.050781 179.023438 307.042969 176.75 307.101562 174.484375 C 306.988281 174.5625 306.878906 174.640625 306.765625 174.714844 Z M 279.605469 147.761719 C 279.605469 149.902344 280.242188 151.636719 281.023438 151.636719 C 281.808594 151.636719 282.445312 149.902344 282.445312 147.761719 C 282.445312 145.621094 281.808594 143.890625 281.023438 143.890625 C 280.242188 143.890625 279.605469 145.621094 279.605469 147.761719 Z M 283.378906 141.632812 C 284.636719 143.449219 285.496094 145.179688 285.765625 147.394531 C 286.078125 149.988281 285.621094 152.628906 285.296875 155.195312 C 285.054688 157.089844 284.628906 159.394531 285.859375 161.054688 C 286.679688 162.160156 288.277344 162.914062 289.5625 162.175781 C 290.148438 161.839844 290.078125 161.085938 289.328125 161.0625 C 286.457031 160.972656 286.535156 158.25 286.75 156.042969 C 286.960938 153.878906 287.332031 151.722656 287.285156 149.542969 C 287.226562 146.605469 286.472656 143.035156 283.824219 141.304688 C 283.605469 141.160156 283.191406 141.355469 283.378906 141.632812 Z M 290.253906 163.757812 C 289.125 164.289062 287.679688 165.226562 287.140625 166.453125 C 286.398438 166.285156 285.652344 166.015625 284.90625 165.632812 C 284.664062 165.507812 284.222656 165.757812 284.527344 165.988281 C 285.292969 166.570312 286.132812 167 287.007812 167.28125 C 287.023438 167.289062 287.042969 167.296875 287.0625 167.296875 C 291.390625 168.644531 296.578125 166.402344 297.78125 161.667969 C 297.9375 161.0625 296.878906 161.050781 296.664062 161.484375 C 296.320312 162.160156 295.925781 162.785156 295.476562 163.347656 C 293.785156 162.703125 291.863281 163.003906 290.253906 163.757812 Z M 294.695312 168.601562 C 293.984375 169 293.308594 169.460938 292.5625 169.789062 C 291.816406 170.117188 291.007812 170.203125 290.25 170.488281 C 290.027344 170.574219 289.996094 170.804688 290.214844 170.914062 C 291.902344 171.757812 294.609375 170.597656 295.515625 169.074219 C 295.820312 168.5625 295 168.429688 294.695312 168.601562 Z M 300.925781 147.761719 C 300.925781 149.902344 301.558594 151.636719 302.34375 151.636719 C 303.125 151.636719 303.761719 149.902344 303.761719 147.761719 C 303.761719 145.621094 303.125 143.890625 302.34375 143.890625 C 301.558594 143.890625 300.925781 145.621094 300.925781 147.761719 Z M 274.902344 159.957031 C 274.003906 155.199219 274.183594 150.300781 274.527344 145.496094 C 274.933594 145.234375 275.308594 144.914062 275.644531 144.578125 C 276.816406 143.417969 277.824219 142.054688 278.765625 140.667969 C 279.632812 140.863281 280.507812 141.195312 281.402344 141.597656 C 281.605469 141.6875 282.027344 141.492188 281.886719 141.230469 C 281.378906 140.285156 280.585938 139.671875 279.652344 139.332031 C 279.734375 139.199219 279.824219 139.066406 279.90625 138.9375 C 281.222656 136.914062 282.605469 134.710938 283.703125 132.417969 C 284.214844 134.53125 285.164062 136.769531 286.863281 138.023438 C 290.945312 141.035156 294.429688 136.574219 296.480469 132.933594 C 297.980469 135.316406 299.753906 137.542969 301.785156 139.609375 C 301.132812 139.554688 300.460938 139.59375 299.792969 139.714844 C 298.144531 140.019531 296.0625 140.945312 295.46875 142.636719 C 295.367188 142.933594 295.839844 143.019531 296.015625 142.90625 C 297.371094 142.035156 298.484375 141.132812 300.160156 140.949219 C 301.46875 140.808594 302.742188 141.085938 303.910156 141.632812 C 305.875 143.386719 308 144.964844 310.25 146.339844 C 312.019531 147.421875 314.019531 148.621094 316.078125 149.457031 C 316.464844 152.835938 316.675781 156.234375 316.707031 159.632812 C 316.101562 161.1875 315.378906 162.691406 314.570312 164.101562 C 312.707031 167.335938 310.238281 170.199219 307.441406 172.378906 C 305.410156 173.953125 303.222656 175.171875 300.929688 175.996094 C 298.257812 176.960938 295.335938 177.378906 292.480469 177.199219 C 289.035156 176.980469 285.847656 175.910156 283.25 174.109375 C 281.179688 172.667969 279.40625 170.722656 277.984375 168.328125 C 276.546875 165.910156 275.480469 163.015625 274.902344 159.957031 Z M 322.953125 144.109375 C 322.746094 142.941406 322.515625 141.777344 322.257812 140.617188 C 322.410156 140.585938 322.5625 140.558594 322.707031 140.546875 C 324.234375 140.394531 325.84375 141.042969 327.113281 142.328125 L 327.117188 142.335938 C 327.441406 142.65625 327.738281 143.023438 327.992188 143.414062 C 329.046875 145.039062 329.5625 147.199219 329.53125 149.828125 C 329.492188 153.441406 328.402344 156.507812 326.464844 158.457031 C 325.785156 159.144531 324.941406 159.703125 324.019531 160.078125 C 324.207031 155.132812 323.921875 150.210938 323.164062 145.375 C 323.414062 145.390625 323.667969 145.449219 323.914062 145.570312 C 325.070312 146.125 325.488281 147.367188 325.480469 148.550781 C 325.480469 148.921875 326.152344 148.90625 326.273438 148.628906 C 326.976562 147.007812 326.136719 145.097656 324.523438 144.398438 C 324.046875 144.1875 323.5 144.09375 322.953125 144.109375 " fill-opacity="1" fill-rule="nonzero"/><g clip-path="url(#4ef6e0c25b)"><path fill="#0f0e0c" d="M 282.445312 147.761719 C 282.445312 149.902344 281.808594 151.636719 281.023438 151.636719 C 280.242188 151.636719 279.605469 149.902344 279.605469 147.761719 C 279.605469 145.621094 280.242188 143.890625 281.023438 143.890625 C 281.808594 143.890625 282.445312 145.621094 282.445312 147.761719 Z M 285.765625 147.394531 C 285.496094 145.179688 284.636719 143.449219 283.378906 141.632812 C 283.191406 141.355469 283.605469 141.160156 283.824219 141.304688 C 286.472656 143.035156 287.226562 146.605469 287.285156 149.542969 C 287.332031 151.722656 286.960938 153.878906 286.75 156.042969 C 286.535156 158.25 286.457031 160.972656 289.328125 161.0625 C 290.078125 161.085938 290.148438 161.839844 289.5625 162.175781 C 288.277344 162.914062 286.679688 162.160156 285.859375 161.054688 C 284.628906 159.394531 285.054688 157.089844 285.296875 155.195312 C 285.621094 152.628906 286.078125 149.988281 285.765625 147.394531 Z M 287.0625 167.296875 C 287.042969 167.296875 287.023438 167.289062 287.007812 167.28125 C 286.132812 167 285.292969 166.570312 284.527344 165.988281 C 284.222656 165.757812 284.664062 165.507812 284.90625 165.632812 C 285.652344 166.015625 286.398438 166.285156 287.140625 166.453125 C 287.679688 165.226562 289.125 164.289062 290.253906 163.757812 C 291.863281 163.003906 293.785156 162.703125 295.476562 163.347656 C 295.925781 162.785156 296.320312 162.160156 296.664062 161.484375 C 296.878906 161.050781 297.9375 161.0625 297.78125 161.667969 C 296.578125 166.402344 291.390625 168.644531 287.0625 167.296875 Z M 290.214844 170.914062 C 289.996094 170.804688 290.027344 170.574219 290.25 170.488281 C 291.007812 170.203125 291.816406 170.117188 292.5625 169.789062 C 293.308594 169.460938 293.984375 169 294.695312 168.601562 C 295 168.429688 295.820312 168.5625 295.515625 169.074219 C 294.609375 170.597656 291.902344 171.757812 290.214844 170.914062 Z M 300.925781 147.761719 C 300.925781 145.621094 301.558594 143.890625 302.34375 143.890625 C 303.125 143.890625 303.761719 145.621094 303.761719 147.761719 C 303.761719 149.902344 303.125 151.636719 302.34375 151.636719 C 301.558594 151.636719 300.925781 149.902344 300.925781 147.761719 Z M 344.351562 231.589844 C 343.367188 234.265625 341.433594 236.621094 339 238.207031 C 338.992188 238.203125 338.988281 238.203125 338.980469 238.203125 C 338.71875 237.148438 337.613281 236.210938 336.625 235.871094 C 334.273438 235.066406 331.515625 236.3125 329.386719 237.265625 C 327.152344 238.261719 325.023438 239.5 323.058594 240.945312 C 323.4375 238.484375 324.265625 236.117188 324.675781 233.660156 C 325.476562 228.886719 323.652344 225.125 321.0625 221.242188 C 318.429688 217.296875 315.542969 212.917969 317.378906 208.027344 C 317.527344 207.640625 316.824219 207.617188 316.660156 207.871094 C 314.101562 211.800781 316.203125 216.777344 318.414062 220.351562 C 319.679688 222.398438 321.113281 224.375 322.058594 226.597656 C 323.085938 229.007812 323.207031 231.472656 322.738281 234.027344 C 322.269531 236.582031 321.386719 239.050781 321.042969 241.632812 C 320.996094 241.96875 320.960938 242.300781 320.933594 242.636719 C 320.882812 243.265625 320.855469 243.898438 320.855469 244.53125 C 320.855469 245.113281 320.875 245.695312 320.921875 246.277344 C 320.945312 246.65625 320.980469 247.035156 321.023438 247.414062 C 321.078125 247.921875 321.152344 248.425781 321.230469 248.929688 C 321.695312 251.800781 322.558594 254.578125 323.613281 257.289062 C 317.445312 259.070312 311.105469 260.230469 304.777344 260.714844 C 294.964844 261.464844 285.023438 260.640625 275.445312 258.316406 C 275.398438 255.097656 274.605469 251.808594 273.441406 248.847656 C 273.273438 248.421875 273.097656 248 272.917969 247.589844 C 272.714844 247.132812 272.5 246.679688 272.269531 246.238281 C 271.765625 245.257812 271.207031 244.316406 270.617188 243.382812 C 270.304688 242.882812 269.988281 242.386719 269.664062 241.882812 C 269.617188 241.816406 269.574219 241.746094 269.53125 241.675781 C 268.121094 239.511719 266.753906 237.214844 266.726562 234.554688 C 266.671875 229.289062 270.6875 225.175781 272.898438 220.714844 C 274.617188 217.253906 275.460938 212.492188 272.542969 209.390625 C 272.328125 209.160156 271.667969 209.335938 271.863281 209.703125 C 276.933594 219.203125 264.144531 226.207031 265.042969 235.570312 C 265.25 237.730469 266.183594 239.65625 267.304688 241.507812 C 265.277344 241.371094 263.179688 241.699219 261.363281 242.488281 C 261.066406 242.238281 260.785156 241.96875 260.527344 241.683594 C 258.523438 239.488281 257.414062 236.492188 256.441406 233.847656 C 255.46875 231.21875 254.613281 228.472656 255.757812 226.261719 C 256.269531 225.273438 257.140625 224.5 258.058594 223.683594 C 258.480469 223.304688 258.917969 222.917969 259.324219 222.5 C 262.277344 219.480469 263.375 215.308594 264.4375 211.277344 C 265.546875 207.082031 266.589844 203.117188 269.542969 200.421875 C 271.410156 198.71875 273.75 197.800781 276.265625 196.96875 C 277.378906 200.359375 279.652344 203.707031 283.632812 203.464844 C 285.746094 203.335938 287.339844 201.917969 288.734375 200.46875 C 289.699219 199.46875 290.679688 198.367188 291.546875 197.199219 C 293.011719 201.800781 297.902344 204.988281 302.847656 203.976562 C 308.105469 202.894531 312 198.136719 314.011719 193.140625 C 315.496094 193.621094 317.09375 193.871094 318.664062 194.121094 C 321.730469 194.605469 324.625 195.066406 326.492188 197.101562 C 327.78125 198.496094 328.308594 200.378906 328.867188 202.375 C 329.207031 203.585938 329.558594 204.839844 330.101562 206.011719 C 331.609375 209.273438 334.402344 211.5625 337.105469 213.777344 C 339.207031 215.496094 341.378906 217.273438 342.867188 219.464844 C 345.25 222.972656 345.816406 227.617188 344.351562 231.589844 Z M 340.09375 250.816406 C 335.445312 253.171875 330.570312 255.140625 325.570312 256.699219 C 324.574219 254.175781 323.742188 251.59375 323.246094 248.921875 C 323.066406 247.945312 322.933594 246.960938 322.863281 245.96875 C 324.886719 244.414062 326.945312 242.992188 329.351562 241.902344 C 331.660156 240.851562 334.027344 240.355469 336.421875 239.847656 L 336.515625 240.1875 C 337.488281 243.78125 338.691406 247.351562 340.09375 250.816406 Z M 262.164062 254.03125 L 262.953125 244.871094 C 263.308594 244.910156 263.660156 244.953125 264 245.023438 C 265.214844 245.261719 266.425781 245.5625 267.589844 245.984375 C 268.734375 246.398438 269.820312 246.921875 270.886719 247.480469 C 272.460938 250.835938 273.09375 254.257812 273.410156 257.796875 C 269.585938 256.78125 265.828125 255.523438 262.164062 254.03125 Z M 293.175781 178.730469 C 295.980469 178.804688 298.820312 178.351562 301.441406 177.40625 C 301.59375 177.355469 301.75 177.296875 301.898438 177.238281 C 301.992188 177.199219 302.085938 177.164062 302.175781 177.128906 C 302.285156 177.085938 302.398438 177.042969 302.503906 176.996094 C 302.648438 176.9375 302.792969 176.878906 302.933594 176.8125 C 303.046875 176.765625 303.15625 176.714844 303.265625 176.664062 C 304.105469 176.28125 304.933594 175.847656 305.738281 175.363281 C 305.847656 175.300781 305.960938 175.230469 306.070312 175.160156 L 306.097656 175.144531 C 306.207031 175.078125 306.316406 175.007812 306.421875 174.9375 C 306.539062 174.867188 306.648438 174.792969 306.765625 174.714844 C 306.878906 174.640625 306.988281 174.5625 307.101562 174.484375 C 307.042969 176.75 307.050781 179.023438 307.117188 181.265625 C 307.175781 183.136719 307.324219 185.027344 307.8125 186.753906 C 307.640625 186.808594 307.480469 186.902344 307.367188 187.046875 C 304.710938 190.332031 301.214844 193.542969 296.910156 194.332031 C 295.722656 194.546875 294.5 194.558594 293.308594 194.382812 C 292.953125 194.328125 292.609375 194.257812 292.261719 194.171875 C 291.800781 194.058594 291.347656 193.914062 290.902344 193.738281 C 289.507812 193.195312 288.46875 192.378906 287.445312 191.453125 C 290.835938 188.195312 292.992188 183.542969 293.175781 178.730469 Z M 283.25 174.109375 C 281.179688 172.667969 279.40625 170.722656 277.984375 168.328125 C 276.546875 165.910156 275.480469 163.015625 274.902344 159.957031 C 274.003906 155.199219 274.183594 150.300781 274.527344 145.496094 C 274.933594 145.234375 275.308594 144.914062 275.644531 144.578125 C 276.816406 143.417969 277.824219 142.054688 278.765625 140.667969 C 279.632812 140.863281 280.507812 141.195312 281.402344 141.597656 C 281.605469 141.6875 282.027344 141.492188 281.886719 141.230469 C 281.378906 140.285156 280.585938 139.671875 279.652344 139.332031 C 279.734375 139.199219 279.824219 139.066406 279.90625 138.9375 C 281.222656 136.914062 282.605469 134.710938 283.703125 132.417969 C 284.214844 134.53125 285.164062 136.769531 286.863281 138.023438 C 290.945312 141.035156 294.429688 136.574219 296.480469 132.933594 C 297.980469 135.316406 299.753906 137.542969 301.785156 139.609375 C 301.132812 139.554688 300.460938 139.59375 299.792969 139.714844 C 298.144531 140.019531 296.0625 140.945312 295.46875 142.636719 C 295.367188 142.933594 295.839844 143.019531 296.015625 142.90625 C 297.371094 142.035156 298.484375 141.132812 300.160156 140.949219 C 301.46875 140.808594 302.742188 141.085938 303.910156 141.632812 C 305.875 143.386719 308 144.964844 310.25 146.339844 C 312.019531 147.421875 314.019531 148.621094 316.078125 149.457031 C 316.464844 152.835938 316.675781 156.234375 316.707031 159.632812 C 316.101562 161.1875 315.378906 162.691406 314.570312 164.101562 C 312.707031 167.335938 310.238281 170.199219 307.441406 172.378906 C 305.410156 173.953125 303.222656 175.171875 300.929688 175.996094 C 298.257812 176.960938 295.335938 177.378906 292.480469 177.199219 C 289.035156 176.980469 285.847656 175.910156 283.25 174.109375 Z M 329.53125 149.828125 C 329.492188 153.441406 328.398438 156.507812 326.464844 158.457031 C 325.785156 159.144531 324.941406 159.703125 324.019531 160.078125 C 324.207031 155.132812 323.921875 150.210938 323.164062 145.375 C 323.414062 145.390625 323.664062 145.449219 323.914062 145.570312 C 325.070312 146.125 325.488281 147.367188 325.480469 148.550781 C 325.480469 148.921875 326.152344 148.90625 326.273438 148.628906 C 326.976562 147.007812 326.136719 145.097656 324.523438 144.398438 C 324.046875 144.1875 323.5 144.09375 322.953125 144.109375 C 322.746094 142.941406 322.515625 141.777344 322.257812 140.617188 C 322.410156 140.585938 322.558594 140.558594 322.707031 140.546875 C 324.234375 140.394531 325.84375 141.042969 327.113281 142.328125 L 327.117188 142.335938 C 327.441406 142.65625 327.738281 143.023438 327.992188 143.414062 C 329.042969 145.039062 329.5625 147.199219 329.53125 149.828125 Z M 344.113281 218.625 C 342.5 216.253906 340.246094 214.402344 338.066406 212.617188 C 335.371094 210.414062 332.832031 208.335938 331.46875 205.382812 C 330.976562 204.320312 330.644531 203.125 330.320312 201.96875 C 329.734375 199.894531 329.132812 197.75 327.605469 196.089844 C 325.382812 193.667969 322.085938 193.144531 318.902344 192.640625 C 317.367188 192.394531 315.878906 192.160156 314.53125 191.730469 C 314.050781 191.578125 313.589844 191.398438 313.15625 191.191406 C 312.417969 190.835938 311.75 190.390625 311.167969 189.808594 C 309.101562 187.742188 308.722656 184.460938 308.621094 181.222656 C 308.539062 178.613281 308.550781 175.964844 308.644531 173.335938 C 311.484375 171.070312 313.976562 168.140625 315.878906 164.84375 C 316.15625 164.359375 316.425781 163.863281 316.679688 163.359375 C 316.488281 170.574219 315.511719 177.730469 313.765625 184.6875 C 313.613281 185.292969 313.144531 187.140625 314.417969 188.0625 C 314.917969 188.425781 315.496094 188.53125 316.085938 188.363281 C 317.183594 188.050781 318.117188 186.820312 318.554688 185.742188 C 321.640625 178.117188 323.453125 170.035156 323.941406 161.707031 C 325.296875 161.265625 326.558594 160.5 327.535156 159.511719 C 329.746094 157.28125 330.992188 153.847656 331.039062 149.847656 C 331.070312 146.914062 330.472656 144.480469 329.257812 142.597656 C 329.195312 142.5 329.128906 142.402344 329.058594 142.308594 C 333.882812 141.183594 338.0625 137.375 339.460938 132.667969 C 341.078125 127.242188 338.941406 120.859375 334.378906 117.488281 C 331.832031 115.601562 328.894531 114.871094 326.320312 115.480469 C 324.082031 116.007812 322 117.589844 320.460938 119.929688 C 319.902344 120.78125 319.40625 121.71875 318.917969 122.867188 C 316.128906 118.785156 311.957031 115.566406 307.269531 113.917969 C 299.949219 111.347656 291.222656 112.3125 283.929688 116.496094 C 277.363281 120.265625 271.882812 126.605469 268.5 134.347656 C 267.5 136.640625 266.429688 139.652344 267.074219 142.648438 C 267.378906 144.046875 268.148438 145.375 269.207031 146.347656 C 268.308594 160.417969 271.292969 174.402344 277.851562 186.8125 C 278.398438 187.84375 279.449219 188.972656 280.578125 189.171875 C 280.695312 189.191406 280.816406 189.203125 280.9375 189.203125 C 281.40625 189.203125 281.835938 189.035156 282.207031 188.707031 C 283.371094 187.65625 282.722656 185.863281 282.507812 185.277344 C 280.945312 180.953125 279.679688 176.496094 278.730469 171.976562 C 279.824219 173.28125 281.050781 174.40625 282.390625 175.339844 C 285.027344 177.175781 288.222656 178.308594 291.671875 178.636719 C 291.507812 183.109375 289.507812 187.429688 286.351562 190.429688 C 286.113281 190.65625 285.867188 190.875 285.617188 191.085938 C 284.773438 191.800781 283.851562 192.421875 282.875 192.929688 C 281.128906 193.839844 279.15625 194.464844 277.253906 195.074219 C 277.222656 195.085938 277.191406 195.097656 277.15625 195.105469 C 276.726562 195.242188 276.289062 195.382812 275.855469 195.523438 C 273.230469 196.386719 270.617188 197.410156 268.523438 199.316406 C 265.246094 202.3125 264.09375 206.675781 262.980469 210.898438 C 261.921875 214.917969 260.917969 218.71875 258.246094 221.453125 C 257.875 221.832031 257.480469 222.1875 257.058594 222.5625 C 256.070312 223.433594 255.058594 224.335938 254.414062 225.574219 C 252.996094 228.324219 253.984375 231.554688 255.027344 234.367188 C 256.050781 237.136719 257.214844 240.28125 259.414062 242.691406 C 259.582031 242.878906 259.761719 243.058594 259.949219 243.238281 C 260.140625 243.421875 260.339844 243.597656 260.546875 243.761719 C 260.605469 243.8125 260.664062 243.859375 260.722656 243.902344 C 260.964844 244.09375 261.214844 244.277344 261.476562 244.445312 L 261.453125 244.691406 L 260.570312 254.996094 L 261.078125 255.207031 C 265.125 256.882812 269.289062 258.277344 273.53125 259.378906 C 274.15625 259.546875 274.78125 259.699219 275.410156 259.847656 C 282.710938 261.597656 290.21875 262.484375 297.714844 262.484375 C 300.109375 262.484375 302.503906 262.390625 304.894531 262.210938 C 311.371094 261.714844 317.859375 260.523438 324.167969 258.691406 C 324.824219 258.503906 325.480469 258.304688 326.128906 258.097656 C 331.394531 256.449219 336.519531 254.347656 341.394531 251.835938 L 342.011719 251.519531 L 341.746094 250.882812 C 340.339844 247.476562 339.125 243.957031 338.140625 240.410156 C 341.621094 238.734375 344.445312 235.675781 345.765625 232.109375 C 347.394531 227.691406 346.761719 222.523438 344.113281 218.625 " fill-opacity="1" fill-rule="nonzero"/></g></svg>