<svg xmlns="http://www.w3.org/2000/svg" xmlns:xlink="http://www.w3.org/1999/xlink" width="800" zoomAndPan="magnify" viewBox="0 0 600 374.999991" height="500" preserveAspectRatio="xMidYMid meet" version="1.0"><defs><clipPath id="4e0b8f8ae5"><path d="M 256.886719 112.5 L 343.09375 112.5 L 343.09375 262.5 L 256.886719 262.5 Z M 256.886719 112.5 " clip-rule="nonzero"/></clipPath></defs><rect x="-60" width="720" fill="#ffffff" y="-37.499999" height="449.999989" fill-opacity="1"/><rect x="-60" width="720" fill="#cda6ff" y="-37.499999" height="449.999989" fill-opacity="1"/><g clip-path="url(#4e0b8f8ae5)"><path fill="#0f0e0c" d="M 317.828125 236.59375 C 317.007812 235.765625 317.277344 234.53125 317.40625 233.507812 C 317.628906 231.640625 317.914062 229.777344 318.210938 227.917969 C 318.585938 225.558594 319.09375 223.230469 319.574219 220.898438 C 321.300781 224.816406 322.929688 228.78125 324.449219 232.785156 C 325.183594 234.710938 325.914062 236.644531 326.605469 238.589844 C 326.882812 239.367188 327.160156 240.132812 327.390625 240.902344 C 324.992188 239.648438 322.351562 238.902344 319.886719 237.769531 C 319.195312 237.453125 318.371094 237.144531 317.828125 236.59375 Z M 343.082031 243.351562 C 342.941406 238.878906 341.660156 234.5625 340.414062 230.390625 C 338.921875 225.402344 337.433594 220.417969 335.945312 215.433594 C 335.550781 214.109375 335.101562 212.605469 335.335938 211.222656 C 335.410156 210.804688 335.542969 210.386719 335.683594 209.941406 C 335.769531 209.671875 335.859375 209.394531 335.933594 209.113281 C 336.042969 208.722656 336.125 208.3125 336.148438 207.878906 C 336.164062 207.609375 336.152344 207.339844 336.121094 207.074219 C 335.96875 205.722656 335.285156 204.507812 334.71875 203.503906 L 325.753906 187.554688 L 325.199219 186.570312 L 324.964844 186.148438 C 325.132812 185.851562 325.296875 185.554688 325.457031 185.253906 C 325.507812 185.160156 325.5625 185.058594 325.609375 184.964844 C 329.570312 177.558594 332.210938 169.328125 333.269531 161.046875 C 334.792969 149.148438 332.460938 138.832031 326.703125 132.003906 C 324.9375 129.910156 322.839844 128.121094 320.8125 126.386719 C 319.214844 125.019531 317.558594 123.605469 316.097656 122.070312 C 315.484375 121.417969 314.878906 120.722656 314.292969 120.046875 C 312.976562 118.53125 311.617188 116.964844 309.953125 115.71875 C 306.234375 112.929688 301.085938 111.886719 295.835938 112.851562 C 291.601562 113.632812 287.324219 115.628906 282.769531 118.953125 C 273.277344 125.875 265.316406 136.484375 259.757812 149.632812 C 256.152344 158.167969 255.945312 164.589844 259.128906 169.261719 C 260.476562 171.242188 262.367188 172.71875 264.195312 174.144531 C 265.964844 175.523438 267.640625 176.828125 268.859375 178.554688 C 270.046875 180.238281 272.515625 185.007812 269.753906 192.90625 C 268.75 195.78125 267.273438 198.546875 265.847656 201.21875 C 264.863281 203.066406 263.84375 204.976562 262.972656 206.929688 C 260.835938 211.722656 260.695312 215.574219 262.554688 218.378906 C 264.941406 221.980469 269.675781 222.414062 273.390625 222.296875 C 273.484375 222.292969 273.582031 222.289062 273.675781 222.289062 C 274.105469 224.496094 274.851562 226.617188 275.882812 228.59375 C 276.59375 229.960938 277.445312 231.257812 278.425781 232.460938 C 278.757812 240.609375 279.441406 248.851562 280.453125 256.957031 L 280.503906 257.347656 L 280.851562 257.527344 C 282.167969 258.210938 283.535156 258.820312 284.949219 259.363281 C 285.515625 259.582031 286.089844 259.789062 286.671875 259.980469 C 291.652344 261.652344 297.160156 262.5 302.953125 262.5 C 306.84375 262.5 310.859375 262.117188 314.929688 261.339844 C 318.648438 260.636719 322.296875 259.640625 325.773438 258.507812 C 326.230469 258.355469 326.6875 258.207031 327.140625 258.050781 C 332.332031 256.285156 337.101562 254.238281 341.121094 252.429688 L 341.378906 252.3125 L 341.496094 252.050781 C 342.628906 249.515625 343.175781 246.507812 343.082031 243.351562 " fill-opacity="1" fill-rule="nonzero"/><path fill="#0f0e0c" d="M 284.089844 147.390625 C 284.089844 144.984375 284.71875 143.03125 285.492188 143.03125 C 286.269531 143.03125 286.898438 144.984375 286.898438 147.390625 C 286.898438 149.800781 286.269531 151.75 285.492188 151.75 C 284.71875 151.75 284.089844 149.800781 284.089844 147.390625 Z M 293.277344 157.582031 C 291.292969 161.257812 286.984375 166.078125 282.273438 163.933594 C 281.417969 163.542969 282.375 162.738281 282.964844 162.828125 C 287.179688 163.453125 289.28125 159.980469 291.554688 157.085938 C 292.027344 156.484375 293.804688 156.609375 293.277344 157.582031 Z M 340.242188 251.183594 C 336.566406 252.835938 332.273438 254.671875 327.625 256.300781 C 327.976562 254.800781 328.21875 253.261719 328.523438 251.769531 C 328.949219 249.695312 329.449219 247.609375 329.761719 245.519531 L 329.78125 245.382812 C 329.914062 244.390625 329.890625 243.398438 329.757812 242.40625 C 329.332031 239.183594 327.75 235.984375 326.59375 233.070312 C 324.628906 228.097656 322.453125 223.210938 320.070312 218.429688 C 319.859375 217.992188 319.640625 217.5625 319.421875 217.132812 C 319.230469 216.75 319.035156 216.371094 318.839844 215.992188 C 318.597656 215.515625 318.347656 215.039062 318.097656 214.566406 C 317.359375 213.164062 316.605469 211.773438 315.832031 210.390625 C 317.960938 208.859375 320.265625 207.609375 322.890625 206.878906 C 325.574219 206.132812 328.464844 206.074219 331.125 206.769531 C 331.550781 207.945312 332.121094 209.078125 332.59375 210.238281 C 332.980469 211.1875 333.289062 212.199219 333.84375 213.0625 C 333.972656 214.042969 334.253906 214.988281 334.511719 215.863281 C 336 220.847656 337.488281 225.832031 338.980469 230.820312 C 340.195312 234.902344 341.453125 239.121094 341.585938 243.398438 C 341.671875 246.222656 341.207031 248.90625 340.242188 251.183594 Z M 319.574219 220.898438 C 321.300781 224.816406 322.929688 228.78125 324.449219 232.785156 C 325.183594 234.710938 325.914062 236.644531 326.605469 238.589844 C 326.882812 239.367188 327.160156 240.132812 327.390625 240.902344 C 324.992188 239.648438 322.351562 238.902344 319.886719 237.769531 C 319.195312 237.453125 318.371094 237.144531 317.828125 236.59375 C 317.007812 235.765625 317.277344 234.53125 317.40625 233.507812 C 317.628906 231.640625 317.914062 229.777344 318.210938 227.917969 C 318.585938 225.558594 319.09375 223.230469 319.574219 220.898438 Z M 325.480469 257.027344 C 322.007812 258.167969 318.363281 259.167969 314.648438 259.871094 C 304.542969 261.792969 294.785156 261.25 286.589844 258.371094 C 286.527344 256.902344 286.511719 255.425781 286.507812 253.953125 C 286.5 250.9375 286.5625 247.921875 286.4375 244.910156 C 286.359375 242.917969 286.210938 240.90625 285.886719 238.929688 C 285.757812 238.140625 285.597656 237.355469 285.402344 236.582031 C 285.023438 236.300781 284.640625 236.023438 284.257812 235.75 C 284.039062 235.597656 283.816406 235.4375 283.59375 235.273438 C 283.367188 235.109375 283.136719 234.941406 282.914062 234.769531 C 281.832031 233.9375 280.816406 232.96875 279.902344 231.894531 C 279.84375 231.828125 279.789062 231.765625 279.738281 231.699219 C 277.722656 229.285156 276.269531 226.449219 275.46875 223.40625 C 275.316406 222.199219 275.242188 220.980469 275.394531 219.730469 C 275.753906 216.8125 277.347656 214.582031 279.210938 212.414062 C 279.316406 212.292969 279.417969 212.171875 279.519531 212.050781 C 280.085938 211.390625 280.636719 210.734375 281.152344 210.050781 C 281.535156 209.542969 281.902344 209.019531 282.234375 208.480469 C 284.042969 209.292969 286.320312 209.0625 288.453125 208.5 C 288.925781 208.378906 289.398438 208.238281 289.851562 208.089844 C 290.785156 207.78125 291.660156 207.441406 292.421875 207.132812 C 296.597656 205.441406 300.363281 202.859375 303.742188 199.910156 C 307.25 196.847656 309.964844 192.976562 313.496094 189.96875 C 316.367188 187.519531 319.894531 186.777344 323.503906 186.609375 L 333.417969 204.238281 C 333.734375 204.800781 334.09375 205.441406 334.34375 206.109375 C 331.136719 204.65625 327.3125 204.386719 323.882812 205.042969 C 320.714844 205.648438 317.730469 207.0625 315 208.917969 C 314.746094 209.085938 314.496094 209.261719 314.246094 209.441406 C 311.890625 211.136719 309.734375 213.144531 307.820312 215.21875 C 307.535156 213.058594 307.304688 210.886719 306.898438 208.738281 C 306.816406 208.328125 306.121094 208.414062 306.117188 208.828125 C 306.078125 211.566406 306.308594 214.296875 306.367188 217.039062 C 306.382812 217.722656 307.316406 217.921875 307.769531 217.492188 C 308.457031 216.847656 309.140625 216.191406 309.824219 215.542969 C 312.191406 215.960938 314.773438 215.867188 317.113281 215.941406 C 317.191406 215.945312 317.269531 215.949219 317.351562 215.949219 C 317.824219 216.972656 318.289062 218.003906 318.75 219.03125 C 317.972656 221.402344 317.394531 223.847656 316.847656 226.277344 C 316.382812 228.332031 315.988281 230.398438 315.660156 232.480469 C 315.421875 233.996094 314.894531 235.851562 315.808594 237.246094 C 316.613281 238.46875 318.265625 239.09375 319.546875 239.652344 C 321.261719 240.402344 323.042969 240.996094 324.757812 241.761719 C 325.863281 242.25 326.9375 242.828125 327.910156 243.546875 C 327.949219 244.0625 327.9375 244.589844 327.875 245.128906 C 327.402344 249.132812 325.976562 253.027344 325.480469 257.027344 Z M 281.890625 256.378906 C 280.980469 249.035156 280.347656 241.585938 280.003906 234.199219 C 280.636719 234.835938 281.308594 235.421875 282.003906 235.953125 C 282.457031 236.304688 282.929688 236.644531 283.386719 236.96875 C 283.617188 237.132812 283.84375 237.292969 284.066406 237.457031 C 284.179688 238.164062 284.257812 238.863281 284.347656 239.511719 C 284.753906 242.523438 284.832031 245.570312 284.847656 248.609375 C 284.855469 251.4375 284.796875 254.269531 284.863281 257.097656 C 284.871094 257.308594 284.875 257.519531 284.886719 257.726562 C 283.859375 257.316406 282.859375 256.867188 281.890625 256.378906 Z M 288.640625 189.710938 C 290.367188 188.597656 292.125 187.507812 293.535156 186.121094 C 293.878906 189.523438 293.953125 193.957031 290.097656 195.097656 C 289.5 195.273438 289.804688 196.03125 290.371094 195.929688 C 294.382812 195.210938 295.636719 191.019531 295.457031 187.441406 C 295.394531 186.320312 295.285156 185.199219 295.152344 184.078125 C 295.097656 183.585938 295.035156 183.097656 294.972656 182.605469 C 294.878906 181.867188 294.789062 181.125 294.703125 180.386719 C 294.457031 178.171875 294.273438 175.9375 293.960938 173.730469 C 296.960938 172.289062 299.839844 170.519531 302.910156 169.292969 C 303.785156 168.941406 303.238281 167.824219 302.386719 168.066406 C 299.273438 168.957031 296.496094 170.589844 293.628906 172.03125 C 293.097656 172.300781 292.570312 172.558594 292.03125 172.804688 C 291.34375 173.125 290.640625 173.421875 289.925781 173.6875 C 287.632812 174.535156 284.789062 175.246094 282.449219 174.207031 C 280.480469 173.335938 279.550781 171.183594 279.039062 169.226562 C 278.117188 165.722656 278.355469 161.6875 276.070312 158.660156 C 275.605469 158.042969 275.046875 157.503906 274.402344 157.074219 C 273.546875 156.511719 271.609375 156.171875 272.640625 154.761719 C 273.167969 154.042969 274.171875 153.453125 274.804688 152.800781 C 275.539062 152.046875 276.21875 151.238281 276.789062 150.351562 C 277.902344 148.609375 278.570312 146.609375 278.257812 144.523438 C 277.972656 142.644531 276.925781 141.070312 276.03125 139.433594 C 277.136719 137.992188 278.410156 136.667969 279.851562 135.496094 C 282.464844 133.382812 285.382812 131.988281 288.480469 131.136719 C 288.347656 133.003906 288.707031 134.867188 289.453125 136.566406 C 285.414062 135.222656 280.4375 136.605469 279.683594 141.457031 C 279.582031 142.113281 280.710938 142.089844 280.847656 141.515625 C 281.324219 139.46875 283.003906 137.863281 285.054688 137.40625 C 286.910156 136.996094 288.710938 137.484375 290.375 138.273438 C 291.703125 140.332031 293.648438 141.996094 295.996094 142.863281 C 297.578125 143.449219 299.132812 143.871094 300.429688 145.011719 C 301.871094 146.277344 302.859375 148.042969 303.617188 149.78125 C 305.222656 153.46875 306.195312 157.5 306.515625 161.507812 C 306.847656 165.710938 306.441406 169.925781 306.566406 174.132812 C 306.664062 177.3125 306.808594 181.296875 309.007812 183.835938 C 311.472656 186.691406 315.078125 185.625 318.375 185.578125 C 317.359375 185.828125 316.367188 186.171875 315.394531 186.632812 C 311.25 188.601562 308.535156 192.570312 305.375 195.738281 C 302.21875 198.902344 298.769531 201.800781 294.839844 203.96875 C 293.117188 204.917969 291.3125 205.71875 289.441406 206.320312 C 288.859375 203.730469 288.335938 201.121094 288.109375 198.46875 C 287.855469 195.46875 288.050781 192.578125 288.640625 189.710938 Z M 318.402344 180.839844 C 318.058594 181.355469 316.953125 181.078125 317.21875 180.394531 C 318.867188 176.179688 320.375 171.992188 320.980469 167.480469 C 321.578125 163.042969 321.5 158.503906 320.660156 154.101562 C 319.789062 149.523438 318.175781 145.171875 315.820312 141.148438 C 313.511719 137.199219 310.625 133.621094 307.796875 130.039062 C 307.4375 129.582031 308.242188 129.171875 308.574219 129.535156 C 311.90625 133.269531 315.222656 137.070312 317.816406 141.367188 C 320.207031 145.316406 321.875 149.730469 322.71875 154.269531 C 324.34375 163.042969 323.402344 173.242188 318.402344 180.839844 Z M 284.097656 198.121094 C 284.011719 197.625 283.121094 197.746094 283.160156 198.246094 C 283.382812 201.148438 282.832031 204.082031 281.507812 206.683594 C 281.464844 206.777344 281.417969 206.867188 281.371094 206.953125 C 281.242188 207.195312 281.105469 207.429688 280.964844 207.65625 C 280.933594 207.710938 280.898438 207.765625 280.859375 207.824219 C 280.847656 207.722656 280.835938 207.625 280.828125 207.527344 C 280.804688 207.320312 280.785156 207.113281 280.765625 206.90625 C 280.617188 205.375 280.554688 203.835938 280.691406 202.265625 C 280.972656 198.992188 282.019531 195.714844 284.222656 193.21875 C 284.917969 192.429688 285.730469 191.738281 286.605469 191.097656 C 285.675781 196.183594 286.605469 201.703125 287.960938 206.757812 C 286.324219 207.199219 284.605469 207.507812 282.960938 207.160156 C 283.089844 206.902344 283.207031 206.644531 283.3125 206.378906 C 284.375 203.753906 284.582031 200.890625 284.097656 198.121094 Z M 343.082031 243.351562 C 342.941406 238.878906 341.660156 234.5625 340.414062 230.390625 C 338.921875 225.402344 337.433594 220.417969 335.945312 215.433594 C 335.546875 214.109375 335.101562 212.605469 335.335938 211.222656 C 335.40625 210.804688 335.542969 210.386719 335.683594 209.941406 C 335.769531 209.671875 335.859375 209.394531 335.933594 209.113281 C 336.042969 208.722656 336.125 208.3125 336.148438 207.878906 C 336.164062 207.609375 336.152344 207.339844 336.121094 207.074219 C 335.96875 205.722656 335.285156 204.507812 334.71875 203.503906 L 325.753906 187.554688 L 325.199219 186.570312 L 324.964844 186.148438 C 325.132812 185.851562 325.296875 185.554688 325.457031 185.253906 C 325.507812 185.160156 325.5625 185.058594 325.609375 184.964844 C 329.570312 177.558594 332.210938 169.328125 333.269531 161.046875 C 334.792969 149.148438 332.460938 138.832031 326.703125 132.003906 C 324.9375 129.910156 322.835938 128.121094 320.8125 126.386719 C 319.210938 125.019531 317.558594 123.605469 316.097656 122.070312 C 315.484375 121.417969 314.878906 120.722656 314.292969 120.046875 C 312.976562 118.53125 311.617188 116.964844 309.953125 115.71875 C 306.230469 112.929688 301.085938 111.886719 295.835938 112.851562 C 291.597656 113.632812 287.324219 115.628906 282.769531 118.953125 C 273.277344 125.875 265.316406 136.484375 259.757812 149.632812 C 256.148438 158.167969 255.945312 164.589844 259.128906 169.261719 C 260.476562 171.242188 262.367188 172.71875 264.195312 174.144531 C 265.964844 175.523438 267.640625 176.828125 268.859375 178.554688 C 270.046875 180.238281 272.515625 185.007812 269.753906 192.90625 C 268.75 195.78125 267.273438 198.546875 265.847656 201.21875 C 264.859375 203.066406 263.84375 204.976562 262.972656 206.929688 C 260.835938 211.722656 260.695312 215.574219 262.550781 218.378906 C 264.941406 221.980469 269.675781 222.414062 273.390625 222.296875 C 273.484375 222.292969 273.582031 222.289062 273.675781 222.289062 C 274.105469 224.496094 274.851562 226.617188 275.882812 228.59375 C 276.59375 229.960938 277.445312 231.257812 278.425781 232.460938 C 278.757812 240.609375 279.441406 248.851562 280.453125 256.957031 L 280.503906 257.347656 L 280.851562 257.527344 C 282.167969 258.210938 283.535156 258.820312 284.949219 259.363281 C 285.515625 259.582031 286.089844 259.789062 286.667969 259.980469 C 291.652344 261.652344 297.160156 262.5 302.953125 262.5 C 306.84375 262.5 310.859375 262.117188 314.929688 261.339844 C 318.648438 260.636719 322.296875 259.640625 325.773438 258.507812 C 326.230469 258.355469 326.6875 258.207031 327.140625 258.050781 C 332.332031 256.285156 337.097656 254.238281 341.121094 252.429688 L 341.378906 252.3125 L 341.496094 252.050781 C 342.628906 249.515625 343.175781 246.507812 343.082031 243.351562 " fill-opacity="1" fill-rule="nonzero"/></g><path fill="#ffffff" d="M 284.847656 248.609375 C 284.832031 245.570312 284.753906 242.523438 284.347656 239.511719 C 284.261719 238.863281 284.179688 238.164062 284.066406 237.457031 C 283.84375 237.292969 283.621094 237.132812 283.390625 236.96875 C 282.929688 236.644531 282.457031 236.304688 282.003906 235.953125 C 281.308594 235.421875 280.636719 234.835938 280.003906 234.199219 C 280.347656 241.585938 280.980469 249.035156 281.890625 256.378906 C 282.863281 256.867188 283.859375 257.316406 284.886719 257.726562 C 284.875 257.519531 284.871094 257.308594 284.863281 257.097656 C 284.800781 254.269531 284.855469 251.4375 284.847656 248.609375 Z M 282.964844 207.160156 C 284.609375 207.507812 286.324219 207.199219 287.960938 206.757812 C 286.605469 201.703125 285.675781 196.183594 286.605469 191.097656 C 285.730469 191.738281 284.917969 192.429688 284.222656 193.21875 C 282.019531 195.714844 280.972656 198.992188 280.691406 202.265625 C 280.554688 203.835938 280.617188 205.375 280.765625 206.90625 C 280.785156 207.113281 280.804688 207.320312 280.828125 207.527344 C 280.839844 207.625 280.851562 207.722656 280.863281 207.824219 C 280.898438 207.765625 280.933594 207.710938 280.96875 207.65625 C 281.105469 207.429688 281.242188 207.195312 281.371094 206.953125 C 281.417969 206.867188 281.464844 206.777344 281.507812 206.683594 C 282.835938 204.082031 283.386719 201.148438 283.160156 198.246094 C 283.121094 197.746094 284.015625 197.625 284.097656 198.121094 C 284.582031 200.890625 284.375 203.753906 283.3125 206.378906 C 283.207031 206.644531 283.089844 206.902344 282.964844 207.160156 Z M 282.273438 163.933594 C 286.984375 166.078125 291.292969 161.257812 293.277344 157.582031 C 293.804688 156.609375 292.027344 156.484375 291.554688 157.085938 C 289.28125 159.980469 287.179688 163.453125 282.964844 162.828125 C 282.375 162.738281 281.417969 163.542969 282.273438 163.933594 Z M 284.089844 147.390625 C 284.089844 149.800781 284.71875 151.75 285.492188 151.75 C 286.269531 151.75 286.898438 149.800781 286.898438 147.390625 C 286.898438 144.984375 286.269531 143.03125 285.492188 143.03125 C 284.71875 143.03125 284.089844 144.984375 284.089844 147.390625 Z M 276.070312 158.660156 C 275.605469 158.042969 275.050781 157.503906 274.402344 157.074219 C 273.546875 156.511719 271.609375 156.171875 272.640625 154.761719 C 273.167969 154.042969 274.171875 153.453125 274.804688 152.800781 C 275.539062 152.046875 276.21875 151.238281 276.789062 150.351562 C 277.902344 148.609375 278.570312 146.609375 278.257812 144.523438 C 277.972656 142.644531 276.925781 141.070312 276.035156 139.433594 C 277.136719 137.992188 278.410156 136.667969 279.851562 135.496094 C 282.464844 133.382812 285.386719 131.988281 288.480469 131.136719 C 288.347656 133.003906 288.707031 134.867188 289.453125 136.566406 C 285.414062 135.222656 280.4375 136.605469 279.683594 141.457031 C 279.582031 142.113281 280.710938 142.089844 280.847656 141.515625 C 281.324219 139.46875 283.003906 137.863281 285.054688 137.40625 C 286.910156 136.996094 288.710938 137.484375 290.375 138.273438 C 291.703125 140.332031 293.652344 141.996094 295.996094 142.863281 C 297.578125 143.449219 299.136719 143.871094 300.429688 145.011719 C 301.871094 146.277344 302.859375 148.042969 303.617188 149.78125 C 305.222656 153.46875 306.195312 157.5 306.515625 161.507812 C 306.847656 165.710938 306.441406 169.925781 306.566406 174.132812 C 306.664062 177.3125 306.808594 181.296875 309.007812 183.835938 C 311.472656 186.691406 315.078125 185.625 318.375 185.578125 C 317.359375 185.828125 316.367188 186.171875 315.394531 186.632812 C 311.25 188.601562 308.535156 192.570312 305.375 195.738281 C 302.21875 198.902344 298.769531 201.800781 294.839844 203.96875 C 293.117188 204.917969 291.3125 205.71875 289.441406 206.320312 C 288.859375 203.730469 288.335938 201.121094 288.109375 198.46875 C 287.855469 195.46875 288.050781 192.578125 288.640625 189.710938 C 290.367188 188.597656 292.125 187.507812 293.535156 186.121094 C 293.882812 189.523438 293.953125 193.957031 290.097656 195.097656 C 289.5 195.273438 289.808594 196.03125 290.371094 195.929688 C 294.382812 195.210938 295.636719 191.019531 295.457031 187.441406 C 295.394531 186.320312 295.285156 185.199219 295.152344 184.078125 C 295.097656 183.585938 295.035156 183.097656 294.972656 182.605469 C 294.882812 181.867188 294.789062 181.125 294.703125 180.386719 C 294.457031 178.171875 294.273438 175.9375 293.960938 173.730469 C 296.960938 172.289062 299.839844 170.519531 302.910156 169.292969 C 303.785156 168.941406 303.238281 167.824219 302.390625 168.066406 C 299.273438 168.957031 296.496094 170.589844 293.628906 172.03125 C 293.101562 172.300781 292.570312 172.558594 292.03125 172.804688 C 291.34375 173.125 290.640625 173.421875 289.925781 173.6875 C 287.632812 174.535156 284.789062 175.246094 282.449219 174.207031 C 280.480469 173.335938 279.550781 171.183594 279.039062 169.226562 C 278.117188 165.722656 278.355469 161.6875 276.070312 158.660156 Z M 315.820312 141.148438 C 318.175781 145.171875 319.789062 149.523438 320.660156 154.101562 C 321.5 158.503906 321.578125 163.042969 320.980469 167.480469 C 320.375 171.992188 318.867188 176.179688 317.21875 180.394531 C 316.953125 181.078125 318.058594 181.355469 318.402344 180.839844 C 323.402344 173.242188 324.34375 163.042969 322.71875 154.269531 C 321.878906 149.730469 320.207031 145.316406 317.816406 141.367188 C 315.222656 137.070312 311.90625 133.269531 308.574219 129.535156 C 308.246094 129.171875 307.4375 129.582031 307.796875 130.039062 C 310.625 133.625 313.511719 137.199219 315.820312 141.148438 Z M 327.910156 243.546875 C 326.9375 242.828125 325.863281 242.25 324.757812 241.761719 C 323.042969 240.996094 321.261719 240.402344 319.546875 239.652344 C 318.265625 239.09375 316.613281 238.46875 315.808594 237.246094 C 314.894531 235.851562 315.421875 233.996094 315.660156 232.480469 C 315.988281 230.398438 316.382812 228.332031 316.847656 226.277344 C 317.394531 223.847656 317.972656 221.402344 318.75 219.03125 C 318.289062 218.003906 317.824219 216.972656 317.351562 215.949219 C 317.269531 215.949219 317.191406 215.945312 317.113281 215.941406 C 314.773438 215.867188 312.191406 215.960938 309.824219 215.542969 C 309.140625 216.191406 308.457031 216.847656 307.769531 217.492188 C 307.316406 217.921875 306.382812 217.722656 306.367188 217.039062 C 306.308594 214.296875 306.078125 211.566406 306.117188 208.828125 C 306.121094 208.414062 306.816406 208.328125 306.898438 208.738281 C 307.304688 210.886719 307.535156 213.058594 307.820312 215.21875 C 309.734375 213.144531 311.890625 211.136719 314.246094 209.441406 C 314.496094 209.261719 314.746094 209.085938 315 208.917969 C 317.730469 207.0625 320.714844 205.648438 323.882812 205.042969 C 327.3125 204.386719 331.136719 204.65625 334.34375 206.109375 C 334.09375 205.441406 333.734375 204.800781 333.417969 204.238281 L 323.503906 186.609375 C 319.894531 186.777344 316.367188 187.519531 313.496094 189.96875 C 309.964844 192.976562 307.25 196.847656 303.742188 199.910156 C 300.363281 202.859375 296.597656 205.441406 292.421875 207.132812 C 291.660156 207.441406 290.785156 207.78125 289.851562 208.089844 C 289.398438 208.238281 288.925781 208.378906 288.453125 208.5 C 286.320312 209.0625 284.042969 209.292969 282.234375 208.480469 C 281.902344 209.019531 281.535156 209.542969 281.152344 210.050781 C 280.636719 210.734375 280.085938 211.390625 279.519531 212.050781 C 279.417969 212.171875 279.316406 212.292969 279.210938 212.414062 C 277.347656 214.582031 275.753906 216.8125 275.394531 219.730469 C 275.242188 220.980469 275.316406 222.199219 275.46875 223.40625 C 276.269531 226.449219 277.722656 229.285156 279.738281 231.699219 C 279.789062 231.765625 279.84375 231.828125 279.902344 231.894531 C 280.816406 232.96875 281.832031 233.9375 282.914062 234.769531 C 283.136719 234.941406 283.367188 235.109375 283.59375 235.273438 C 283.816406 235.4375 284.039062 235.597656 284.257812 235.75 C 284.640625 236.023438 285.023438 236.300781 285.402344 236.582031 C 285.597656 237.355469 285.757812 238.140625 285.886719 238.929688 C 286.210938 240.90625 286.359375 242.917969 286.4375 244.910156 C 286.5625 247.921875 286.5 250.9375 286.507812 253.953125 C 286.511719 255.425781 286.527344 256.902344 286.589844 258.371094 C 294.785156 261.25 304.542969 261.792969 314.648438 259.871094 C 318.363281 259.167969 322.007812 258.167969 325.480469 257.027344 C 325.976562 253.027344 327.402344 249.132812 327.875 245.128906 C 327.9375 244.589844 327.949219 244.0625 327.910156 243.546875 Z M 340.242188 251.183594 C 336.566406 252.835938 332.273438 254.671875 327.625 256.300781 C 327.976562 254.800781 328.21875 253.261719 328.523438 251.769531 C 328.949219 249.695312 329.449219 247.609375 329.761719 245.519531 L 329.78125 245.382812 C 329.914062 244.390625 329.890625 243.398438 329.757812 242.40625 C 329.332031 239.183594 327.75 235.984375 326.59375 233.070312 C 324.628906 228.097656 322.453125 223.210938 320.070312 218.429688 C 319.859375 217.992188 319.640625 217.5625 319.421875 217.132812 C 319.230469 216.75 319.035156 216.371094 318.839844 215.992188 C 318.597656 215.515625 318.347656 215.039062 318.097656 214.566406 C 317.359375 213.164062 316.605469 211.773438 315.832031 210.390625 C 317.960938 208.859375 320.265625 207.609375 322.890625 206.878906 C 325.574219 206.132812 328.464844 206.074219 331.125 206.769531 C 331.550781 207.945312 332.121094 209.078125 332.59375 210.238281 C 332.980469 211.1875 333.289062 212.199219 333.84375 213.0625 C 333.972656 214.042969 334.253906 214.988281 334.511719 215.863281 C 336 220.847656 337.488281 225.832031 338.980469 230.820312 C 340.195312 234.902344 341.453125 239.121094 341.585938 243.398438 C 341.671875 246.222656 341.207031 248.90625 340.242188 251.183594 " fill-opacity="1" fill-rule="nonzero"/></svg>