<svg xmlns="http://www.w3.org/2000/svg" xmlns:xlink="http://www.w3.org/1999/xlink" width="800" zoomAndPan="magnify" viewBox="0 0 600 374.999991" height="500" preserveAspectRatio="xMidYMid meet" version="1.0"><defs><clipPath id="7dc00ca66b"><path d="M 253 113 L 346.742188 113 L 346.742188 262.5 L 253 262.5 Z M 253 113 " clip-rule="nonzero"/></clipPath><clipPath id="c418daa641"><path d="M 253 113 L 346.742188 113 L 346.742188 262.5 L 253 262.5 Z M 253 113 " clip-rule="nonzero"/></clipPath></defs><rect x="-60" width="720" fill="#ffffff" y="-37.499999" height="449.999989" fill-opacity="1"/><rect x="-60" width="720" fill="#9aedb6" y="-37.499999" height="449.999989" fill-opacity="1"/><g clip-path="url(#7dc00ca66b)"><path fill="#0f0e0c" d="M 320.183594 252.363281 C 318.503906 250.109375 317.902344 247.734375 317.996094 244.933594 C 318.140625 240.636719 318.570312 236.335938 318.953125 232.039062 C 319.28125 234.777344 319.664062 237.515625 320.007812 240.242188 C 320.359375 243.007812 320.746094 245.773438 321.113281 248.539062 C 321.296875 249.917969 321.496094 251.296875 321.691406 252.675781 C 321.769531 253.21875 321.824219 253.785156 321.890625 254.355469 C 321.28125 253.722656 320.703125 253.066406 320.183594 252.363281 Z M 344.800781 235.199219 C 343.589844 232.449219 341.714844 230.058594 339.898438 227.75 C 339.121094 226.757812 338.3125 225.730469 337.578125 224.695312 C 335.039062 221.128906 333.140625 217.203125 331.9375 213.03125 C 331.621094 211.941406 331.347656 210.8125 331.082031 209.722656 C 330.601562 207.738281 330.105469 205.6875 329.332031 203.726562 C 328.3125 201.164062 326.355469 197.761719 322.808594 196.121094 C 321.289062 195.417969 319.644531 195.128906 318.058594 194.847656 C 317.097656 194.675781 316.167969 194.511719 315.28125 194.265625 C 314.914062 194.164062 314.554688 194.050781 314.199219 193.910156 C 314.191406 193.910156 314.1875 193.90625 314.179688 193.90625 C 313.714844 193.722656 313.265625 193.507812 312.839844 193.261719 L 312.128906 183.054688 C 312.09375 182.5625 312.046875 181.949219 311.734375 181.394531 C 311.40625 180.8125 310.882812 180.449219 310.417969 180.132812 C 310.296875 180.050781 310.175781 179.964844 310.058594 179.878906 C 309.527344 179.476562 309.113281 178.9375 308.875 178.363281 C 310.308594 178.214844 311.785156 178.59375 312.9375 179.417969 C 313.238281 179.632812 313.527344 179.882812 313.832031 180.144531 C 314.546875 180.761719 315.289062 181.402344 316.285156 181.691406 C 318.550781 182.351562 320.382812 180.933594 322.152344 179.5625 C 323.625 178.421875 325.019531 177.34375 326.539062 177.492188 C 327.359375 177.570312 328.125 178.015625 328.9375 178.484375 C 329.355469 178.726562 329.792969 178.980469 330.253906 179.1875 C 333.457031 180.652344 337.691406 179.796875 340.550781 177.109375 C 343.535156 174.3125 344.535156 170.414062 344.851562 167.632812 C 345.128906 165.175781 345.125 160.609375 342.011719 157.65625 C 340.648438 156.363281 338.933594 155.628906 337.277344 154.910156 C 336.164062 154.429688 335.109375 153.976562 334.15625 153.371094 C 330.691406 151.164062 328.890625 147.097656 327.707031 143.800781 C 327.046875 141.957031 326.457031 140.046875 325.886719 138.199219 C 325.003906 135.347656 324.09375 132.398438 322.886719 129.582031 C 320.507812 124.023438 317.3125 119.996094 313.378906 117.613281 C 311.691406 116.589844 309.730469 115.777344 307.382812 115.128906 C 304.394531 114.300781 302.007812 114.117188 299.871094 114.550781 C 299.226562 114.683594 298.601562 114.875 297.988281 115.128906 C 297.902344 115.132812 297.820312 115.15625 297.761719 115.207031 C 297.742188 115.21875 297.722656 115.234375 297.703125 115.25 C 297.636719 115.277344 297.574219 115.308594 297.511719 115.335938 C 294.164062 113.238281 289.964844 112.628906 286.1875 113.714844 C 281.777344 114.980469 277.890625 118.40625 274.304688 124.191406 C 271.601562 128.554688 269.46875 133.246094 267.964844 138.144531 C 267.617188 139.273438 267.296875 140.4375 266.988281 141.5625 C 265.898438 145.515625 264.773438 149.605469 262.328125 152.875 C 261.398438 154.117188 260.246094 155.273438 259.136719 156.390625 C 257.324219 158.214844 255.449219 160.097656 254.34375 162.503906 C 253.34375 164.707031 252.992188 167.332031 253.316406 170.304688 C 253.6875 173.765625 255.402344 177.792969 259.101562 178.710938 C 260.398438 179.035156 261.761719 178.921875 263.078125 178.816406 C 264.824219 178.671875 266.46875 178.539062 267.59375 179.492188 C 267.867188 179.71875 268.101562 180.015625 268.355469 180.328125 C 268.648438 180.699219 268.957031 181.082031 269.359375 181.410156 C 271.050781 182.804688 273.527344 182.496094 275.277344 181.75 C 276.105469 181.394531 276.871094 180.945312 277.613281 180.507812 C 278.433594 180.027344 279.210938 179.570312 280.050781 179.246094 C 281.464844 178.695312 283.109375 178.492188 285.167969 178.617188 C 285.078125 178.980469 284.921875 179.328125 284.703125 179.609375 C 284.058594 180.464844 283.066406 181.039062 282.019531 181.648438 C 281.726562 181.816406 281.433594 181.988281 281.148438 182.164062 C 280.863281 182.335938 280.335938 182.660156 280.074219 183.207031 C 279.855469 183.648438 279.855469 184.105469 279.855469 184.441406 C 279.855469 187.6875 279.855469 190.929688 279.851562 194.175781 C 279.523438 194.328125 279.1875 194.472656 278.847656 194.613281 C 278.464844 194.769531 278.074219 194.921875 277.691406 195.074219 C 277.6875 195.074219 277.683594 195.074219 277.683594 195.074219 L 277.523438 195.140625 C 274.996094 196.128906 272.539062 197.351562 270.222656 198.777344 C 270.0625 198.875 269.90625 198.972656 269.746094 199.070312 C 269.597656 199.167969 269.445312 199.265625 269.285156 199.367188 C 267.617188 200.460938 265.660156 201.9375 264.382812 203.953125 C 262.542969 206.851562 262.378906 210.265625 262.214844 213.570312 C 262.148438 214.894531 262.078125 216.261719 261.902344 217.558594 C 261.363281 221.484375 259.710938 225.273438 258.117188 228.933594 C 256.421875 232.832031 254.664062 236.859375 254.167969 241.15625 C 253.789062 244.414062 254.183594 247.8125 255.292969 250.980469 C 255.347656 251.132812 255.445312 251.257812 255.570312 251.347656 C 260.542969 254.800781 266.238281 257.488281 272.398438 259.347656 C 273.011719 259.535156 273.628906 259.710938 274.25 259.878906 C 280.378906 261.542969 286.917969 262.402344 293.617188 262.402344 C 296.691406 262.402344 299.800781 262.222656 302.910156 261.851562 C 309.339844 261.09375 315.84375 259.617188 322.507812 257.386719 C 322.539062 257.375 322.566406 257.363281 322.601562 257.355469 C 323.039062 257.207031 323.484375 257.054688 323.925781 256.902344 C 324.074219 256.851562 324.222656 256.796875 324.371094 256.742188 C 331.335938 254.277344 338.476562 251.003906 345.894531 246.875 C 346.105469 246.757812 346.246094 246.546875 346.273438 246.304688 C 346.738281 242.207031 346.242188 238.46875 344.800781 235.199219 " fill-opacity="1" fill-rule="nonzero"/></g><path fill="#ffffff" d="M 281.132812 198.15625 C 284.449219 201.734375 290.128906 202.964844 294.824219 202.835938 C 299.703125 202.703125 305.109375 201.011719 308.625 197.492188 C 309.238281 196.875 308.089844 196.496094 307.613281 196.792969 C 303.738281 199.226562 299.835938 201.105469 295.179688 201.304688 C 290.222656 201.519531 285.988281 199.703125 281.566406 197.734375 C 281.332031 197.628906 280.898438 197.898438 281.132812 198.15625 Z M 316.257812 247.222656 C 315.992188 244.378906 316.421875 241.457031 316.636719 238.617188 C 316.871094 235.542969 317.105469 232.46875 317.339844 229.394531 C 317.554688 226.570312 317.78125 223.746094 318.015625 220.921875 C 315.460938 219.140625 312.769531 217.574219 309.96875 216.25 C 309.378906 215.972656 308.792969 215.707031 308.191406 215.453125 C 304.429688 213.828125 300.476562 212.648438 296.382812 211.996094 C 290.402344 211.035156 284.554688 211.320312 278.785156 212.367188 C 278.195312 212.472656 277.605469 212.589844 277.019531 212.714844 C 275.210938 213.085938 273.417969 213.535156 271.628906 214.035156 C 271.390625 215.574219 271.050781 217.097656 270.609375 218.585938 C 269.957031 220.777344 269.019531 222.878906 268.484375 225.105469 C 267.902344 227.5 268.058594 229.796875 269.050781 232.054688 C 269.929688 234.046875 271.214844 235.828125 272.175781 237.777344 C 275.320312 244.148438 275.242188 251.410156 274.4375 258.382812 C 283.246094 260.804688 292.949219 261.527344 302.738281 260.371094 C 308.835938 259.652344 315.007812 258.273438 321.324219 256.203125 C 318.753906 253.757812 316.597656 250.886719 316.257812 247.222656 Z M 271.820312 212.570312 C 273.503906 211.910156 275.246094 211.371094 277.023438 210.945312 C 277.042969 209.023438 277.078125 207.109375 277.140625 205.191406 C 277.226562 202.40625 277.269531 199.550781 277.515625 196.746094 C 275.175781 197.699219 272.910156 198.855469 270.769531 200.199219 C 272.058594 204.027344 272.246094 208.511719 271.847656 212.351562 C 271.839844 212.421875 271.832031 212.5 271.820312 212.570312 Z M 314.945312 195.71875 C 314.214844 198.855469 313.441406 201.980469 312.664062 205.101562 C 312.101562 207.339844 311.546875 209.582031 310.988281 211.820312 C 310.792969 212.605469 310.640625 213.5 310.449219 214.394531 C 313.160156 215.628906 315.757812 217.109375 318.191406 218.824219 C 318.40625 216.285156 318.628906 213.746094 318.851562 211.210938 C 319.097656 208.410156 319.257812 205.585938 319.660156 202.804688 C 319.945312 200.859375 320.453125 198.824219 321.683594 197.265625 C 320.476562 196.792969 319.171875 196.5625 317.800781 196.320312 C 316.855469 196.152344 315.894531 195.976562 314.945312 195.71875 Z M 305.746094 143.222656 C 304.289062 138.523438 296.3125 139.054688 294.585938 143.269531 C 294.300781 143.96875 295.324219 144.082031 295.695312 143.703125 C 297.019531 142.351562 298.488281 141.300781 300.480469 141.539062 C 302.144531 141.742188 303.25 142.78125 304.496094 143.773438 C 304.875 144.078125 305.949219 143.886719 305.746094 143.222656 Z M 304.699219 152.222656 C 303.113281 152.519531 301.648438 152.914062 300.019531 152.667969 C 299.246094 152.550781 298.585938 152.3125 297.957031 152.015625 C 299.371094 151.007812 300.425781 148.886719 299.84375 147.445312 C 299.710938 147.125 299.164062 147.195312 299.015625 147.464844 C 298.578125 148.289062 298.390625 149.199219 297.832031 149.976562 C 297.472656 150.476562 296.96875 150.835938 296.527344 151.25 C 296.207031 151.074219 295.882812 150.894531 295.542969 150.722656 C 295.265625 150.582031 294.765625 150.726562 294.902344 151.117188 C 296.15625 154.691406 302.6875 155.515625 305.261719 153.191406 C 305.78125 152.71875 305.339844 152.105469 304.699219 152.222656 Z M 297.277344 164.871094 C 296.109375 165.984375 294.8125 167.054688 293.222656 167.476562 C 291.226562 168.007812 289.539062 167.460938 287.65625 166.867188 C 287.246094 166.738281 286.589844 167.1875 286.984375 167.609375 C 290.121094 170.941406 296.671875 169.398438 298.554688 165.484375 C 298.910156 164.75 297.710938 164.457031 297.277344 164.871094 Z M 295.21875 171.941406 C 294.085938 172.796875 292.757812 172.953125 291.398438 172.675781 C 291.03125 172.601562 290.148438 173.078125 290.691406 173.480469 C 292.460938 174.789062 294.980469 174.285156 296.40625 172.710938 C 297.054688 171.992188 295.765625 171.53125 295.21875 171.941406 Z M 289.527344 161.679688 C 289.714844 161.5 289.652344 161.238281 289.476562 161.085938 C 289.214844 160.855469 289 161.070312 288.738281 161.085938 C 287.5 161.171875 286.210938 160.652344 285.785156 159.394531 C 285.363281 158.132812 286.066406 156.738281 286.769531 155.722656 C 286.976562 155.425781 286.472656 155.285156 286.277344 155.402344 C 284.402344 156.480469 283.273438 159.132812 284.714844 161.042969 C 285.835938 162.53125 288.125 163.035156 289.527344 161.679688 Z M 284.09375 153.195312 C 284.847656 152.699219 284.039062 151.773438 283.328125 152.015625 C 281.132812 152.777344 279.40625 152.464844 277.90625 151.242188 C 278.320312 150.898438 278.679688 150.480469 278.960938 150.039062 C 279.460938 149.242188 279.945312 147.972656 279.382812 147.097656 C 279.257812 146.90625 278.921875 146.867188 278.792969 147.089844 C 278.386719 147.804688 278.246094 148.628906 277.769531 149.316406 C 277.507812 149.691406 277.207031 149.976562 276.878906 150.230469 C 276.769531 150.105469 276.660156 149.972656 276.550781 149.835938 C 276.25 149.449219 275.351562 149.769531 275.453125 150.289062 C 275.507812 150.558594 275.582031 150.8125 275.671875 151.050781 C 275.8125 151.421875 275.992188 151.761719 276.214844 152.066406 C 277.894531 154.425781 281.671875 154.792969 284.09375 153.195312 Z M 324.226562 151.226562 C 323.585938 155.742188 320.640625 160.085938 315.917969 160.398438 C 315.785156 159.625 314.359375 159.453125 313.878906 160.277344 C 312.414062 162.804688 310.847656 165.476562 309.074219 167.96875 C 308.410156 168.90625 307.714844 169.816406 306.980469 170.683594 C 303.363281 175 298.875 178.300781 292.785156 178.5625 C 290.964844 178.640625 289.320312 178.351562 287.839844 177.769531 C 287.339844 177.578125 286.859375 177.351562 286.394531 177.089844 C 279.917969 173.496094 276.945312 164.074219 275.667969 157.179688 C 274.996094 153.539062 274.621094 149.835938 274.300781 146.132812 C 275.417969 145.695312 276.417969 144.960938 277.304688 144.066406 C 277.375 144.035156 277.433594 143.992188 277.480469 143.9375 C 278.625 142.632812 280.011719 141.570312 281.820312 141.53125 C 283.625 141.492188 285.148438 142.46875 286.433594 143.640625 C 286.886719 144.054688 287.957031 143.625 287.621094 142.953125 C 286.257812 140.257812 282.847656 139.4375 280.082031 140.324219 C 280.273438 139.992188 280.460938 139.65625 280.636719 139.328125 C 282.019531 136.730469 283.359375 134.148438 285.960938 132.570312 C 287.0625 131.902344 288.265625 131.421875 289.523438 131.144531 C 290.792969 130.863281 292.144531 131.078125 293.394531 130.769531 C 293.5625 130.957031 293.742188 131.140625 293.9375 131.3125 C 295.558594 132.765625 297.75 133.199219 299.753906 133.855469 C 305.03125 135.59375 306.621094 140.589844 307.425781 145.625 C 307.921875 148.71875 308.332031 155.195312 313.019531 154.550781 C 314.394531 154.359375 315.472656 153.472656 316.285156 152.375 C 317.269531 152.386719 318.417969 151.914062 318.820312 153.167969 C 319.253906 154.5 317.984375 155.488281 317.132812 156.285156 C 316.5625 156.8125 317.21875 157.546875 317.867188 157.1875 C 319.671875 156.1875 321.449219 153.84375 319.847656 151.863281 C 319.078125 150.902344 318.324219 151.136719 317.273438 151.011719 C 317.226562 151.003906 317.175781 151 317.132812 150.988281 C 317.238281 150.773438 317.339844 150.554688 317.433594 150.339844 C 317.828125 149.410156 318.078125 148.441406 318.1875 147.457031 C 319.070312 146.714844 320.132812 146.214844 320.664062 147.332031 C 320.78125 147.578125 321.308594 147.570312 321.347656 147.265625 C 321.523438 145.789062 320.050781 145.367188 318.855469 145.734375 C 318.644531 145.796875 318.441406 145.878906 318.242188 145.96875 C 318.21875 145.222656 318.117188 144.476562 317.941406 143.746094 C 319.28125 143.09375 320.90625 143.296875 322.265625 144.460938 C 324.210938 146.132812 324.566406 148.808594 324.226562 151.226562 Z M 305.832031 178.109375 C 305.820312 178.410156 305.816406 178.707031 305.8125 179.003906 C 305.796875 180.496094 305.863281 181.992188 305.964844 183.484375 C 305.964844 183.496094 305.96875 183.511719 305.96875 183.523438 C 302.964844 185.035156 299.847656 186.148438 296.40625 186.421875 C 294.34375 186.582031 292.265625 186.492188 290.230469 186.152344 C 289.542969 186.039062 288.875 185.878906 288.214844 185.699219 C 288.203125 184.257812 288.175781 182.8125 288.148438 181.371094 C 288.140625 180.820312 288.125 180.253906 288.085938 179.683594 C 289.050781 179.984375 290.066406 180.175781 291.121094 180.253906 C 295.988281 180.609375 300.871094 178.726562 304.667969 175.746094 C 305.171875 175.347656 305.660156 174.929688 306.132812 174.496094 C 305.988281 175.507812 305.898438 176.519531 305.855469 177.519531 C 305.847656 177.71875 305.835938 177.914062 305.832031 178.109375 " fill-opacity="1" fill-rule="nonzero"/><g clip-path="url(#c418daa641)"><path fill="#0f0e0c" d="M 284.09375 153.195312 C 281.671875 154.792969 277.894531 154.425781 276.214844 152.066406 C 275.992188 151.761719 275.8125 151.421875 275.671875 151.050781 C 275.582031 150.8125 275.507812 150.558594 275.453125 150.289062 C 275.347656 149.769531 276.25 149.449219 276.550781 149.835938 C 276.660156 149.972656 276.769531 150.105469 276.878906 150.230469 C 277.203125 149.976562 277.507812 149.691406 277.769531 149.316406 C 278.246094 148.628906 278.382812 147.804688 278.792969 147.089844 C 278.921875 146.867188 279.257812 146.90625 279.382812 147.097656 C 279.945312 147.972656 279.460938 149.242188 278.960938 150.039062 C 278.679688 150.480469 278.320312 150.898438 277.90625 151.242188 C 279.40625 152.464844 281.132812 152.777344 283.328125 152.015625 C 284.039062 151.773438 284.847656 152.699219 284.09375 153.195312 Z M 284.714844 161.042969 C 283.273438 159.132812 284.398438 156.480469 286.277344 155.402344 C 286.472656 155.285156 286.976562 155.425781 286.769531 155.722656 C 286.066406 156.738281 285.363281 158.132812 285.785156 159.394531 C 286.210938 160.652344 287.5 161.171875 288.738281 161.085938 C 289 161.070312 289.214844 160.855469 289.476562 161.085938 C 289.652344 161.238281 289.714844 161.5 289.527344 161.679688 C 288.125 163.035156 285.835938 162.53125 284.714844 161.042969 Z M 296.40625 172.710938 C 294.976562 174.285156 292.457031 174.789062 290.691406 173.480469 C 290.148438 173.078125 291.03125 172.601562 291.398438 172.675781 C 292.757812 172.953125 294.085938 172.796875 295.21875 171.941406 C 295.765625 171.53125 297.054688 171.992188 296.40625 172.710938 Z M 287.65625 166.867188 C 289.539062 167.460938 291.226562 168.007812 293.222656 167.476562 C 294.8125 167.054688 296.109375 165.984375 297.277344 164.871094 C 297.710938 164.457031 298.910156 164.75 298.554688 165.484375 C 296.671875 169.398438 290.121094 170.941406 286.984375 167.609375 C 286.589844 167.1875 287.246094 166.738281 287.65625 166.867188 Z M 305.261719 153.191406 C 302.6875 155.515625 296.15625 154.691406 294.902344 151.117188 C 294.765625 150.726562 295.265625 150.582031 295.542969 150.722656 C 295.882812 150.894531 296.207031 151.074219 296.527344 151.25 C 296.96875 150.835938 297.472656 150.476562 297.832031 149.976562 C 298.390625 149.199219 298.574219 148.289062 299.015625 147.464844 C 299.164062 147.195312 299.710938 147.125 299.839844 147.445312 C 300.425781 148.886719 299.371094 151.007812 297.957031 152.015625 C 298.585938 152.3125 299.246094 152.550781 300.019531 152.667969 C 301.648438 152.914062 303.113281 152.519531 304.699219 152.222656 C 305.339844 152.105469 305.78125 152.71875 305.261719 153.191406 Z M 294.585938 143.269531 C 296.3125 139.054688 304.289062 138.523438 305.746094 143.222656 C 305.949219 143.886719 304.875 144.078125 304.496094 143.773438 C 303.25 142.78125 302.144531 141.742188 300.480469 141.539062 C 298.488281 141.300781 297.019531 142.351562 295.695312 143.703125 C 295.324219 144.082031 294.300781 143.96875 294.585938 143.269531 Z M 320.183594 252.363281 C 318.503906 250.109375 317.902344 247.734375 317.996094 244.933594 C 318.140625 240.636719 318.570312 236.335938 318.953125 232.039062 C 319.28125 234.777344 319.664062 237.515625 320.007812 240.242188 C 320.359375 243.007812 320.746094 245.773438 321.113281 248.539062 C 321.296875 249.917969 321.496094 251.296875 321.691406 252.675781 C 321.769531 253.21875 321.824219 253.785156 321.890625 254.355469 C 321.28125 253.722656 320.703125 253.066406 320.183594 252.363281 Z M 302.738281 260.371094 C 292.949219 261.527344 283.246094 260.804688 274.433594 258.382812 C 275.242188 251.410156 275.320312 244.148438 272.175781 237.777344 C 271.210938 235.828125 269.929688 234.046875 269.050781 232.054688 C 268.058594 229.796875 267.902344 227.5 268.480469 225.105469 C 269.019531 222.878906 269.957031 220.777344 270.609375 218.585938 C 271.050781 217.097656 271.390625 215.574219 271.628906 214.035156 C 273.417969 213.535156 275.210938 213.085938 277.019531 212.714844 C 277.605469 212.589844 278.195312 212.472656 278.785156 212.367188 C 284.554688 211.320312 290.402344 211.035156 296.382812 211.996094 C 300.476562 212.648438 304.429688 213.828125 308.191406 215.453125 C 308.789062 215.707031 309.378906 215.972656 309.96875 216.25 C 312.769531 217.574219 315.460938 219.140625 318.015625 220.921875 C 317.78125 223.746094 317.554688 226.570312 317.335938 229.394531 C 317.105469 232.46875 316.871094 235.542969 316.636719 238.617188 C 316.421875 241.457031 315.992188 244.378906 316.257812 247.222656 C 316.597656 250.886719 318.753906 253.757812 321.324219 256.203125 C 315.007812 258.273438 308.835938 259.652344 302.738281 260.371094 Z M 277.515625 196.746094 C 277.269531 199.550781 277.226562 202.40625 277.140625 205.191406 C 277.078125 207.109375 277.042969 209.023438 277.023438 210.945312 C 275.246094 211.371094 273.503906 211.910156 271.820312 212.570312 C 271.832031 212.5 271.839844 212.421875 271.847656 212.351562 C 272.246094 208.511719 272.058594 204.027344 270.769531 200.199219 C 272.910156 198.855469 275.175781 197.699219 277.515625 196.746094 Z M 275.667969 157.179688 C 274.996094 153.539062 274.621094 149.835938 274.300781 146.132812 C 275.417969 145.695312 276.417969 144.960938 277.304688 144.066406 C 277.375 144.035156 277.433594 143.992188 277.480469 143.9375 C 278.625 142.632812 280.011719 141.570312 281.820312 141.53125 C 283.625 141.492188 285.148438 142.46875 286.433594 143.640625 C 286.886719 144.054688 287.957031 143.625 287.621094 142.953125 C 286.257812 140.257812 282.847656 139.4375 280.082031 140.324219 C 280.273438 139.992188 280.460938 139.65625 280.636719 139.328125 C 282.019531 136.730469 283.359375 134.148438 285.960938 132.570312 C 287.0625 131.902344 288.265625 131.421875 289.523438 131.144531 C 290.792969 130.863281 292.144531 131.078125 293.394531 130.769531 C 293.5625 130.957031 293.742188 131.140625 293.9375 131.3125 C 295.558594 132.765625 297.75 133.199219 299.753906 133.855469 C 305.03125 135.59375 306.621094 140.589844 307.425781 145.625 C 307.921875 148.71875 308.332031 155.195312 313.019531 154.550781 C 314.390625 154.359375 315.472656 153.472656 316.285156 152.375 C 317.269531 152.386719 318.417969 151.914062 318.820312 153.167969 C 319.253906 154.5 317.984375 155.488281 317.132812 156.285156 C 316.5625 156.8125 317.21875 157.546875 317.863281 157.1875 C 319.671875 156.1875 321.449219 153.84375 319.847656 151.863281 C 319.078125 150.902344 318.324219 151.136719 317.273438 151.011719 C 317.226562 151.003906 317.175781 151 317.132812 150.988281 C 317.238281 150.773438 317.339844 150.554688 317.433594 150.339844 C 317.828125 149.410156 318.078125 148.441406 318.1875 147.457031 C 319.066406 146.714844 320.132812 146.214844 320.664062 147.332031 C 320.78125 147.578125 321.308594 147.570312 321.347656 147.265625 C 321.523438 145.789062 320.050781 145.367188 318.855469 145.734375 C 318.644531 145.796875 318.441406 145.878906 318.242188 145.96875 C 318.21875 145.222656 318.117188 144.476562 317.941406 143.746094 C 319.28125 143.09375 320.90625 143.296875 322.261719 144.460938 C 324.210938 146.132812 324.566406 148.808594 324.226562 151.226562 C 323.585938 155.742188 320.640625 160.085938 315.917969 160.398438 C 315.785156 159.625 314.359375 159.453125 313.878906 160.277344 C 312.410156 162.804688 310.84375 165.476562 309.074219 167.96875 C 308.410156 168.90625 307.714844 169.816406 306.980469 170.683594 C 303.363281 175 298.875 178.300781 292.785156 178.5625 C 290.964844 178.640625 289.320312 178.351562 287.839844 177.769531 C 287.339844 177.578125 286.859375 177.351562 286.394531 177.089844 C 279.917969 173.496094 276.941406 164.074219 275.667969 157.179688 Z M 295.179688 201.304688 C 299.835938 201.105469 303.738281 199.226562 307.613281 196.792969 C 308.089844 196.496094 309.238281 196.875 308.625 197.492188 C 305.109375 201.011719 299.703125 202.703125 294.824219 202.835938 C 290.128906 202.964844 284.449219 201.734375 281.132812 198.15625 C 280.898438 197.898438 281.332031 197.628906 281.566406 197.734375 C 285.988281 199.703125 290.222656 201.519531 295.179688 201.304688 Z M 305.855469 177.519531 C 305.84375 177.71875 305.835938 177.914062 305.832031 178.109375 C 305.820312 178.410156 305.816406 178.707031 305.8125 179.003906 C 305.796875 180.496094 305.863281 181.992188 305.964844 183.484375 C 305.964844 183.496094 305.96875 183.511719 305.96875 183.523438 C 302.960938 185.035156 299.847656 186.148438 296.40625 186.421875 C 294.34375 186.582031 292.265625 186.492188 290.226562 186.152344 C 289.542969 186.039062 288.875 185.878906 288.214844 185.699219 C 288.203125 184.257812 288.175781 182.8125 288.148438 181.371094 C 288.140625 180.820312 288.125 180.253906 288.085938 179.683594 C 289.050781 179.984375 290.066406 180.175781 291.121094 180.253906 C 295.988281 180.609375 300.867188 178.726562 304.667969 175.746094 C 305.171875 175.347656 305.660156 174.929688 306.132812 174.496094 C 305.988281 175.507812 305.898438 176.519531 305.855469 177.519531 Z M 314.945312 195.71875 C 315.894531 195.976562 316.855469 196.152344 317.800781 196.320312 C 319.171875 196.5625 320.476562 196.792969 321.683594 197.265625 C 320.453125 198.824219 319.945312 200.859375 319.660156 202.804688 C 319.257812 205.585938 319.097656 208.410156 318.851562 211.210938 C 318.628906 213.746094 318.40625 216.285156 318.191406 218.824219 C 315.757812 217.109375 313.160156 215.628906 310.449219 214.394531 C 310.640625 213.5 310.792969 212.605469 310.988281 211.820312 C 311.546875 209.582031 312.101562 207.339844 312.664062 205.101562 C 313.441406 201.980469 314.214844 198.855469 314.945312 195.71875 Z M 344.800781 235.199219 C 343.589844 232.449219 341.714844 230.058594 339.898438 227.75 C 339.121094 226.757812 338.3125 225.730469 337.578125 224.695312 C 335.039062 221.128906 333.140625 217.203125 331.9375 213.03125 C 331.621094 211.941406 331.347656 210.8125 331.082031 209.722656 C 330.601562 207.738281 330.105469 205.6875 329.332031 203.726562 C 328.3125 201.164062 326.355469 197.761719 322.808594 196.121094 C 321.289062 195.417969 319.644531 195.128906 318.058594 194.847656 C 317.097656 194.675781 316.167969 194.511719 315.28125 194.265625 C 314.914062 194.164062 314.554688 194.050781 314.199219 193.910156 C 314.191406 193.910156 314.1875 193.90625 314.179688 193.90625 C 313.714844 193.722656 313.265625 193.507812 312.839844 193.261719 L 312.128906 183.054688 C 312.09375 182.5625 312.046875 181.949219 311.734375 181.394531 C 311.40625 180.8125 310.882812 180.449219 310.417969 180.132812 C 310.296875 180.050781 310.175781 179.964844 310.058594 179.878906 C 309.527344 179.476562 309.113281 178.9375 308.875 178.363281 C 310.308594 178.214844 311.785156 178.59375 312.9375 179.417969 C 313.238281 179.632812 313.527344 179.882812 313.832031 180.144531 C 314.546875 180.761719 315.289062 181.402344 316.285156 181.691406 C 318.550781 182.351562 320.382812 180.933594 322.152344 179.5625 C 323.625 178.421875 325.019531 177.34375 326.539062 177.492188 C 327.359375 177.570312 328.125 178.015625 328.9375 178.484375 C 329.355469 178.726562 329.792969 178.980469 330.253906 179.1875 C 333.457031 180.652344 337.691406 179.796875 340.550781 177.109375 C 343.535156 174.3125 344.535156 170.414062 344.851562 167.632812 C 345.128906 165.175781 345.125 160.609375 342.011719 157.65625 C 340.648438 156.363281 338.933594 155.628906 337.277344 154.910156 C 336.164062 154.429688 335.109375 153.976562 334.15625 153.371094 C 330.691406 151.164062 328.890625 147.097656 327.707031 143.800781 C 327.046875 141.957031 326.457031 140.046875 325.886719 138.199219 C 325.003906 135.347656 324.09375 132.398438 322.886719 129.582031 C 320.507812 124.023438 317.3125 119.996094 313.378906 117.613281 C 311.691406 116.589844 309.730469 115.777344 307.382812 115.128906 C 304.394531 114.300781 302.007812 114.117188 299.871094 114.550781 C 299.226562 114.683594 298.601562 114.875 297.988281 115.128906 C 297.902344 115.132812 297.820312 115.15625 297.761719 115.207031 C 297.742188 115.21875 297.722656 115.234375 297.703125 115.25 C 297.636719 115.277344 297.574219 115.308594 297.511719 115.335938 C 294.164062 113.238281 289.964844 112.628906 286.1875 113.714844 C 281.777344 114.980469 277.890625 118.40625 274.304688 124.191406 C 271.601562 128.554688 269.46875 133.246094 267.964844 138.144531 C 267.617188 139.273438 267.296875 140.4375 266.988281 141.5625 C 265.898438 145.515625 264.773438 149.605469 262.328125 152.875 C 261.398438 154.117188 260.246094 155.273438 259.136719 156.390625 C 257.324219 158.214844 255.449219 160.097656 254.34375 162.503906 C 253.34375 164.707031 252.992188 167.332031 253.316406 170.304688 C 253.6875 173.765625 255.402344 177.792969 259.101562 178.710938 C 260.398438 179.035156 261.761719 178.921875 263.078125 178.816406 C 264.824219 178.671875 266.46875 178.539062 267.59375 179.492188 C 267.867188 179.71875 268.101562 180.015625 268.355469 180.328125 C 268.648438 180.699219 268.957031 181.082031 269.359375 181.410156 C 271.050781 182.804688 273.527344 182.496094 275.277344 181.75 C 276.105469 181.394531 276.871094 180.945312 277.613281 180.507812 C 278.433594 180.027344 279.210938 179.570312 280.050781 179.246094 C 281.464844 178.695312 283.109375 178.492188 285.167969 178.617188 C 285.078125 178.980469 284.921875 179.328125 284.703125 179.609375 C 284.058594 180.464844 283.066406 181.039062 282.019531 181.648438 C 281.726562 181.816406 281.433594 181.988281 281.148438 182.164062 C 280.863281 182.335938 280.335938 182.660156 280.074219 183.207031 C 279.855469 183.648438 279.855469 184.109375 279.855469 184.441406 C 279.855469 187.6875 279.855469 190.929688 279.851562 194.175781 C 279.523438 194.328125 279.1875 194.472656 278.847656 194.613281 C 278.464844 194.769531 278.074219 194.921875 277.691406 195.074219 C 277.6875 195.074219 277.683594 195.074219 277.683594 195.074219 L 277.523438 195.140625 C 274.996094 196.128906 272.539062 197.351562 270.222656 198.777344 C 270.0625 198.875 269.90625 198.972656 269.746094 199.070312 C 269.597656 199.167969 269.445312 199.265625 269.285156 199.367188 C 267.617188 200.460938 265.660156 201.9375 264.382812 203.953125 C 262.542969 206.851562 262.378906 210.265625 262.214844 213.570312 C 262.148438 214.894531 262.078125 216.261719 261.902344 217.558594 C 261.363281 221.484375 259.710938 225.273438 258.117188 228.933594 C 256.421875 232.832031 254.664062 236.859375 254.167969 241.15625 C 253.789062 244.414062 254.183594 247.8125 255.292969 250.980469 C 255.347656 251.132812 255.445312 251.257812 255.570312 251.347656 C 260.542969 254.800781 266.238281 257.488281 272.398438 259.347656 C 273.011719 259.535156 273.628906 259.710938 274.25 259.878906 C 280.378906 261.542969 286.917969 262.402344 293.617188 262.402344 C 296.691406 262.402344 299.800781 262.222656 302.910156 261.851562 C 309.339844 261.09375 315.84375 259.617188 322.507812 257.386719 C 322.539062 257.375 322.566406 257.363281 322.601562 257.355469 C 323.039062 257.207031 323.484375 257.054688 323.925781 256.902344 C 324.074219 256.851562 324.222656 256.796875 324.371094 256.742188 C 331.335938 254.277344 338.476562 251.003906 345.894531 246.875 C 346.105469 246.757812 346.246094 246.546875 346.273438 246.304688 C 346.738281 242.207031 346.242188 238.46875 344.800781 235.199219 " fill-opacity="1" fill-rule="nonzero"/></g></svg>