<svg xmlns="http://www.w3.org/2000/svg" xmlns:xlink="http://www.w3.org/1999/xlink" width="800" zoomAndPan="magnify" viewBox="0 0 600 374.999991" height="500" preserveAspectRatio="xMidYMid meet" version="1.0"><defs><clipPath id="c3d4eb0057"><path d="M 253.441406 112.5 L 346 112.5 L 346 262.5 L 253.441406 262.5 Z M 253.441406 112.5 " clip-rule="nonzero"/></clipPath><clipPath id="ca454ed35c"><path d="M 253.441406 112.5 L 346 112.5 L 346 262.5 L 253.441406 262.5 Z M 253.441406 112.5 " clip-rule="nonzero"/></clipPath></defs><rect x="-60" width="720" fill="#ffffff" y="-37.499999" height="449.999989" fill-opacity="1"/><rect x="-60" width="720" fill="#9aedb6" y="-37.499999" height="449.999989" fill-opacity="1"/><g clip-path="url(#c3d4eb0057)"><path fill="#0f0e0c" d="M 345.042969 231.640625 C 344.21875 229.539062 342.839844 227.757812 341.503906 226.03125 L 341.222656 225.667969 C 335.996094 218.886719 331.355469 211.585938 327.410156 203.949219 C 327.203125 203.550781 327 203.152344 326.796875 202.75 C 327.070312 201.949219 327.4375 201.171875 327.824219 200.355469 C 328.546875 198.835938 329.296875 197.265625 329.382812 195.492188 C 329.5 192.957031 328.195312 190.285156 325.703125 187.96875 C 324.699219 187.035156 323.601562 186.214844 322.535156 185.421875 C 321.496094 184.644531 320.421875 183.84375 319.476562 182.964844 C 318.328125 181.894531 317.304688 180.644531 316.308594 179.4375 C 315.742188 178.738281 315.148438 178.019531 314.535156 177.332031 C 312.332031 174.878906 310.285156 173.441406 308.089844 172.8125 C 306.546875 172.363281 304.914062 172.394531 303.480469 172.863281 C 303.296875 172.917969 303.113281 172.988281 302.933594 173.0625 C 302.839844 172.625 302.75 172.183594 302.667969 171.742188 C 302.589844 171.359375 302.519531 170.972656 302.457031 170.589844 C 303.09375 170.964844 303.75 171.289062 304.429688 171.5625 C 305.335938 171.917969 306.769531 172.15625 307.839844 171.640625 C 308.414062 171.359375 308.8125 170.902344 308.988281 170.3125 C 309.230469 169.515625 308.976562 168.792969 308.753906 168.152344 C 308.601562 167.71875 308.457031 167.308594 308.507812 166.984375 C 308.617188 166.28125 309.605469 165.84375 310.472656 165.453125 L 310.601562 165.398438 C 313.929688 163.917969 316.574219 161.011719 317.921875 157.378906 C 320.347656 157.082031 322.722656 155.546875 323.949219 153.433594 C 325.625 150.570312 325.902344 146.941406 324.828125 142.015625 C 323.058594 133.855469 319.09375 126.089844 313.351562 119.5625 C 309.632812 115.34375 306.070312 113.285156 302.464844 113.273438 C 302.453125 113.273438 302.4375 113.273438 302.425781 113.273438 C 299.980469 113.273438 297.730469 114.230469 295.554688 115.152344 C 294.980469 115.402344 294.382812 115.652344 293.796875 115.882812 C 291.5 116.777344 288.285156 117.519531 286 115.984375 C 285.546875 115.683594 285.136719 115.292969 284.707031 114.882812 C 284.175781 114.382812 283.632812 113.859375 282.960938 113.460938 C 281.832031 112.785156 280.390625 112.492188 278.800781 112.617188 C 273.71875 113.019531 269.882812 117.082031 266.6875 120.867188 C 263.378906 124.773438 260.050781 128.328125 255.714844 128.859375 L 255.640625 128.863281 C 255.253906 128.910156 254.769531 128.96875 254.347656 129.296875 C 253.5625 129.894531 253.441406 131.027344 254.035156 132.339844 C 256.449219 137.664062 261.757812 141.539062 267.683594 142.355469 C 267.742188 142.4375 267.828125 142.492188 267.921875 142.523438 C 268.292969 143.480469 268.675781 144.441406 269.046875 145.394531 C 269.777344 147.242188 270.351562 149.667969 268.980469 150.710938 C 268.519531 151.066406 267.875 151.207031 267.195312 151.355469 C 266.894531 151.425781 266.582031 151.492188 266.273438 151.585938 C 264.945312 151.976562 263.648438 153.015625 263.734375 154.460938 C 263.785156 155.25 264.234375 155.867188 264.660156 156.363281 C 265.175781 156.957031 265.734375 157.503906 266.277344 158.035156 C 267.25 158.976562 268.160156 159.867188 268.769531 160.964844 C 269.617188 162.523438 269.765625 164.339844 269.921875 166.265625 C 269.980469 166.976562 270.039062 167.707031 270.136719 168.429688 C 270.523438 171.242188 271.988281 174.492188 274.945312 175.167969 C 276.742188 175.578125 278.398438 174.914062 280.003906 174.265625 C 281.054688 173.84375 282.050781 173.4375 283.066406 173.335938 C 283.433594 173.296875 283.6875 173.328125 283.832031 173.429688 C 284.023438 173.5625 284.140625 173.910156 284.238281 174.265625 C 284.402344 174.859375 284.542969 175.484375 284.671875 176.171875 C 282.71875 177.332031 280.734375 178.667969 279.164062 180.460938 C 276.828125 183.128906 275.902344 186.398438 276.6875 189.214844 C 276.847656 189.792969 277.089844 190.382812 277.429688 191.050781 C 276.660156 191.898438 275.753906 192.679688 274.796875 193.503906 C 273.222656 194.859375 271.59375 196.261719 270.523438 198.082031 C 269.722656 199.449219 269.273438 201.003906 268.882812 202.375 C 266.839844 209.472656 264.523438 217.511719 265.8125 225.4375 C 265.910156 226.03125 266.027344 226.636719 266.144531 227.222656 C 266.546875 229.269531 266.925781 231.203125 266.519531 233.074219 C 266.289062 234.121094 265.824219 235.101562 265.332031 236.140625 C 265.019531 236.800781 264.695312 237.480469 264.433594 238.1875 C 262.9375 242.21875 263.648438 246.382812 264.507812 249.164062 C 264.808594 250.144531 265.1875 251.148438 265.660156 252.238281 C 265.71875 252.382812 265.824219 252.5 265.957031 252.582031 C 267.667969 253.617188 269.417969 254.574219 271.203125 255.453125 C 271.691406 255.695312 272.183594 255.929688 272.675781 256.152344 C 281.695312 260.324219 291.578125 262.5 301.484375 262.5 C 303.875 262.5 306.265625 262.375 308.648438 262.121094 C 309.539062 262.023438 310.421875 261.910156 311.300781 261.777344 C 311.863281 261.695312 312.421875 261.605469 312.980469 261.507812 C 323.75 259.640625 333.988281 255.15625 342.820312 248.421875 C 342.925781 248.34375 343.007812 248.234375 343.058594 248.105469 C 343.507812 247.003906 343.980469 245.816406 344.410156 244.589844 C 346.226562 239.414062 346.429688 235.175781 345.042969 231.640625 " fill-opacity="1" fill-rule="nonzero"/></g><path fill="#ffffff" d="M 272.855469 202.292969 C 272.484375 201.972656 271.371094 202.339844 271.792969 202.882812 C 273.097656 204.582031 274.585938 206.125 275.589844 208.039062 C 276.871094 210.476562 276.722656 213.0625 276.390625 215.714844 C 275.746094 220.84375 275.003906 225.957031 274.359375 231.085938 C 273.710938 236.21875 273.058594 241.351562 272.390625 246.476562 C 272.066406 248.949219 271.742188 251.414062 271.425781 253.882812 C 271.410156 253.980469 271.398438 254.082031 271.386719 254.175781 C 271.335938 254.601562 271.269531 255.023438 271.203125 255.453125 C 271.691406 255.695312 272.183594 255.929688 272.675781 256.152344 C 272.734375 255.628906 272.792969 255.101562 272.863281 254.582031 C 272.878906 254.445312 272.898438 254.3125 272.917969 254.179688 C 273.292969 251.410156 273.671875 248.640625 274.050781 245.871094 C 274.796875 240.429688 275.578125 234.992188 276.320312 229.546875 C 276.683594 226.882812 277.035156 224.214844 277.390625 221.542969 C 277.757812 218.847656 278.277344 216.113281 278.402344 213.390625 C 278.613281 208.792969 276.246094 205.203125 272.855469 202.292969 Z M 279.839844 191.878906 C 279.402344 191.335938 279.042969 190.746094 278.671875 190.164062 C 278.460938 189.839844 278.25 189.519531 278.023438 189.207031 C 277.769531 188.859375 276.957031 188.917969 277.027344 189.464844 C 277.089844 189.996094 277.25 190.523438 277.488281 191.023438 C 277.699219 191.480469 277.972656 191.917969 278.292969 192.324219 C 279.183594 193.457031 280.421875 194.359375 281.671875 194.804688 C 281.949219 194.898438 282.503906 194.585938 282.1875 194.28125 C 281.382812 193.503906 280.539062 192.757812 279.839844 191.878906 Z M 283.511719 159.738281 C 282.09375 160.703125 280.746094 161.683594 279.058594 162.125 C 277.566406 162.519531 276.132812 162.300781 274.632812 162.425781 C 274.285156 162.457031 274.074219 162.863281 274.394531 163.085938 C 275.847656 164.121094 278.230469 163.855469 279.847656 163.425781 C 281.707031 162.933594 283.507812 161.953125 284.539062 160.285156 C 284.914062 159.671875 283.867188 159.496094 283.511719 159.738281 Z M 282.609375 164.773438 C 282.015625 165.257812 281.421875 165.761719 280.710938 166.058594 C 279.976562 166.363281 279.203125 166.269531 278.472656 166.511719 C 278.28125 166.578125 278.097656 166.835938 278.285156 167.015625 C 278.949219 167.648438 280.203125 167.441406 280.996094 167.199219 C 282.003906 166.886719 282.992188 166.25 283.40625 165.238281 C 283.597656 164.773438 282.941406 164.496094 282.609375 164.773438 Z M 279.300781 146.710938 C 279.300781 148.457031 279.980469 149.878906 280.8125 149.878906 C 281.648438 149.878906 282.324219 148.457031 282.324219 146.710938 C 282.324219 144.957031 281.648438 143.539062 280.8125 143.539062 C 279.980469 143.539062 279.300781 144.957031 279.300781 146.710938 Z M 300.574219 153.648438 C 300.898438 153.613281 301.148438 153.503906 301.429688 153.355469 C 301.609375 153.25 301.777344 153.132812 301.945312 153.015625 C 302.40625 153.164062 302.871094 153.3125 303.332031 153.457031 C 303.871094 154.207031 302.703125 155.3125 302.179688 155.675781 C 301.738281 155.984375 301.234375 156.203125 300.761719 156.464844 C 299.867188 156.96875 300.582031 157.832031 301.414062 157.539062 C 302.933594 157.003906 304.628906 155.882812 304.871094 154.144531 C 305.058594 152.851562 304.191406 151.597656 302.875 151.429688 C 302.011719 151.320312 301.601562 151.953125 300.851562 152.074219 C 300.652344 152.253906 300.609375 152.207031 300.726562 151.933594 C 300.796875 151.585938 300.890625 151.25 301.011719 150.925781 C 301.160156 150.5 301.34375 150.078125 301.554688 149.679688 C 302.113281 148.605469 302.910156 147.601562 303.816406 146.800781 C 304.398438 146.285156 305.105469 145.898438 305.527344 145.234375 C 305.675781 145.003906 305.394531 144.855469 305.203125 144.859375 C 304.191406 144.878906 303.203125 145.398438 302.328125 146.171875 C 301.980469 146.480469 301.648438 146.828125 301.339844 147.195312 C 300.179688 148.59375 299.332031 150.34375 299.054688 151.652344 C 298.824219 152.757812 299.3125 153.769531 300.574219 153.648438 Z M 296.402344 185.984375 C 293.179688 186.949219 289.800781 188.648438 287.613281 191.191406 C 287.246094 191.609375 286.914062 192.058594 286.621094 192.523438 C 285.609375 194.148438 285.058594 196.058594 285.226562 198.269531 C 285.289062 199.035156 283.957031 199.355469 283.785156 198.574219 C 283.101562 195.5 284.15625 192.660156 286.035156 190.375 C 286.460938 189.859375 286.925781 189.367188 287.421875 188.914062 L 286.828125 181.707031 C 286.691406 180.070312 286.535156 178.21875 286.242188 176.433594 L 286.242188 176.425781 C 286.082031 175.492188 285.902344 174.65625 285.691406 173.871094 C 285.515625 173.242188 285.273438 172.605469 284.691406 172.195312 C 284.238281 171.878906 283.65625 171.761719 282.910156 171.84375 C 281.6875 171.964844 280.542969 172.425781 279.4375 172.871094 C 277.988281 173.457031 276.617188 174.007812 275.28125 173.707031 C 273.070312 173.199219 271.945312 170.546875 271.625 168.226562 C 271.53125 167.546875 271.472656 166.832031 271.417969 166.140625 C 271.253906 164.144531 271.089844 162.078125 270.082031 160.246094 C 269.367188 158.949219 268.332031 157.933594 267.324219 156.953125 C 266.78125 156.421875 266.265625 155.925781 265.796875 155.382812 C 265.53125 155.070312 265.253906 154.710938 265.234375 154.371094 C 265.199219 153.78125 265.941406 153.25 266.691406 153.023438 C 266.953125 152.949219 267.230469 152.890625 267.519531 152.824219 C 268.289062 152.65625 269.164062 152.464844 269.890625 151.90625 C 272.011719 150.296875 271.363281 147.175781 270.445312 144.84375 C 269.996094 143.699219 269.546875 142.554688 269.097656 141.410156 C 269.089844 141.394531 269.085938 141.382812 269.074219 141.371094 L 269.074219 141.367188 C 269.21875 140.847656 269.355469 140.324219 269.492188 139.796875 C 274.742188 138.984375 279.949219 138.730469 285.222656 139.808594 C 286.332031 140.03125 287.410156 140.3125 288.460938 140.640625 C 288.34375 141.792969 288.121094 142.929688 287.777344 144.027344 C 287.292969 145.601562 286.039062 147.976562 287.984375 149.101562 C 289.59375 150.035156 291.363281 148.3125 292.480469 147.3125 C 293.675781 146.246094 294.738281 145.03125 295.644531 143.707031 C 296.65625 144.257812 297.660156 144.839844 298.652344 145.457031 C 298.53125 145.667969 298.425781 145.886719 298.324219 146.101562 C 298.167969 146.4375 298.679688 146.609375 298.882812 146.382812 C 299.027344 146.222656 299.175781 146.054688 299.335938 145.882812 C 299.699219 145.476562 300.09375 145.046875 300.519531 144.632812 C 302.257812 142.941406 304.445312 141.5 306.742188 142.933594 C 308.878906 144.261719 309.5625 147.691406 309.675781 150.230469 C 309.691406 150.550781 309.695312 150.859375 309.691406 151.144531 C 309.691406 151.199219 309.691406 151.253906 309.691406 151.3125 C 309.636719 154.09375 308.609375 156.863281 306.402344 158.65625 C 304.042969 160.574219 300.609375 160.863281 298 159.28125 C 297.496094 158.976562 296.457031 159.707031 297.070312 160.140625 C 297.546875 160.476562 298.046875 160.753906 298.570312 160.972656 C 297.460938 162.109375 297.492188 164.03125 298.203125 165.390625 C 298.710938 166.359375 299.53125 167.0625 300.507812 167.429688 C 300.570312 167.992188 300.636719 168.550781 300.714844 169.105469 L 300.714844 169.113281 C 300.953125 170.84375 301.277344 172.609375 301.683594 174.347656 C 301.6875 174.359375 301.6875 174.367188 301.691406 174.378906 C 301.371094 175.558594 301.085938 176.75 300.710938 177.910156 C 300.023438 180.011719 299.160156 182.050781 298.152344 184.015625 C 298.652344 183.894531 299.15625 183.777344 299.660156 183.667969 C 299.875 183.621094 300.09375 183.574219 300.308594 183.523438 C 301.917969 183.167969 303.617188 182.765625 304.96875 181.765625 C 305.992188 181.007812 306.554688 179.964844 307.34375 179 C 307.472656 178.84375 307.769531 178.839844 307.816406 179.070312 C 308.226562 181.050781 305.972656 182.742188 304.457031 183.546875 C 301.980469 184.855469 299.0625 185.191406 296.402344 185.984375 Z M 263.570312 135.425781 C 262.9375 132.304688 263.722656 129.21875 265.59375 126.6875 C 265.9375 126.226562 267.113281 126.492188 266.746094 127.132812 C 265.386719 129.503906 264.734375 132.316406 265.203125 135.035156 C 265.425781 136.339844 265.894531 137.570312 266.542969 138.722656 C 266.871094 139.316406 267.3125 139.847656 267.722656 140.390625 C 267.734375 140.285156 267.746094 140.179688 267.757812 140.078125 C 267.796875 139.808594 267.839844 139.535156 267.886719 139.257812 C 268.414062 136.277344 269.53125 133.285156 270.660156 130.585938 C 271.167969 129.378906 271.722656 128.070312 272.351562 126.773438 C 272.546875 126.367188 272.75 125.964844 272.96875 125.566406 C 273.933594 123.746094 275.082031 122.023438 276.480469 120.734375 C 276.664062 120.566406 277.339844 120.578125 277.1875 120.96875 C 276.609375 122.476562 275.65625 123.855469 274.839844 125.261719 C 277.476562 124.953125 280.238281 125.097656 282.929688 125.5625 C 281.96875 124.65625 280.933594 123.835938 279.847656 122.957031 C 279.59375 122.761719 279.917969 122.507812 280.148438 122.59375 C 281.96875 123.292969 283.671875 124.527344 285.125 126.011719 C 285.734375 126.632812 286.296875 127.304688 286.808594 127.996094 C 287.476562 128.90625 288.054688 129.859375 288.515625 130.804688 C 289.835938 133.515625 290.429688 136.503906 290.3125 139.484375 C 290.292969 140.0625 290.246094 140.640625 290.167969 141.214844 C 290.085938 141.863281 289.964844 142.507812 289.816406 143.152344 C 289.542969 144.300781 288.859375 145.5 288.746094 146.660156 C 288.753906 146.882812 288.761719 147.109375 288.773438 147.332031 C 289.136719 147.882812 289.5 147.914062 289.863281 147.4375 C 290.242188 147.265625 290.597656 146.878906 290.914062 146.609375 C 292.164062 145.542969 293.253906 144.300781 294.175781 142.945312 C 294.378906 142.640625 294.582031 142.328125 294.773438 142.015625 C 294.902344 141.800781 295.023438 141.582031 295.140625 141.367188 C 296.503906 138.871094 297.285156 136.082031 297.484375 133.246094 C 297.527344 132.609375 297.542969 131.972656 297.527344 131.339844 C 297.519531 130.785156 297.484375 130.234375 297.429688 129.6875 C 297.34375 128.828125 298.894531 128.4375 299.035156 129.308594 C 299.214844 130.398438 299.296875 131.488281 299.277344 132.574219 C 302.542969 135.035156 305.386719 138.050781 307.597656 141.523438 C 307.664062 141.628906 307.695312 141.726562 307.695312 141.824219 C 310.175781 143.304688 311.027344 146.828125 311.25 149.613281 C 313.164062 148.785156 314.835938 147.640625 316.0625 145.660156 C 317.925781 142.660156 317.519531 139.53125 317.261719 136.203125 C 317.214844 135.578125 318.113281 135.421875 318.433594 135.863281 C 320.691406 138.980469 319.503906 143.832031 317.386719 146.71875 C 315.996094 148.617188 313.738281 150.359375 311.3125 151.035156 C 311.273438 154.589844 309.785156 158.074219 306.746094 160.09375 C 304.503906 161.582031 301.71875 162.015625 299.238281 161.222656 C 299.054688 162.421875 298.742188 163.535156 299.371094 164.699219 C 299.621094 165.164062 299.957031 165.542969 300.355469 165.839844 C 300.816406 166.1875 301.351562 166.425781 301.925781 166.578125 C 302.050781 166.613281 302.179688 166.640625 302.304688 166.667969 C 303.066406 166.828125 302.644531 167.695312 302.050781 167.734375 C 302.085938 168.023438 302.121094 168.304688 302.160156 168.589844 C 303.042969 169.242188 303.992188 169.765625 304.988281 170.160156 C 305.78125 170.480469 306.683594 170.527344 307.1875 170.289062 C 307.386719 170.1875 307.5 170.0625 307.554688 169.875 C 307.65625 169.550781 307.507812 169.132812 307.335938 168.648438 C 307.136719 168.089844 306.914062 167.449219 307.027344 166.742188 C 307.265625 165.238281 308.769531 164.574219 309.867188 164.082031 L 309.996094 164.023438 C 313.035156 162.671875 315.527344 159.832031 316.664062 156.433594 C 316.691406 156.355469 316.726562 156.285156 316.777344 156.222656 C 317.289062 154.3125 317.480469 152.375 317.289062 150.273438 C 317.261719 149.960938 317.855469 149.847656 317.9375 150.140625 C 318.460938 151.976562 318.566406 153.9375 318.214844 155.8125 C 320.019531 155.449219 321.730469 154.261719 322.652344 152.675781 C 324.125 150.15625 324.347656 146.871094 323.363281 142.332031 C 321.648438 134.417969 317.796875 126.894531 312.226562 120.558594 C 308.808594 116.675781 305.613281 114.785156 302.460938 114.773438 C 300.308594 114.761719 298.289062 115.625 296.148438 116.539062 C 295.558594 116.789062 294.949219 117.046875 294.34375 117.28125 C 290.570312 118.75 287.398438 118.734375 285.167969 117.234375 C 284.609375 116.859375 284.132812 116.410156 283.675781 115.972656 C 283.183594 115.507812 282.71875 115.066406 282.195312 114.75 C 281.105469 114.101562 279.8125 114.042969 278.914062 114.113281 C 274.417969 114.472656 270.835938 118.285156 267.835938 121.835938 C 265.027344 125.160156 261.175781 129.703125 255.898438 130.351562 L 255.824219 130.359375 C 255.605469 130.386719 255.355469 130.414062 255.261719 130.488281 C 255.082031 130.625 255.148438 131.152344 255.402344 131.722656 C 257.355469 136.03125 261.394531 139.296875 266.066406 140.507812 C 264.757812 139.113281 263.914062 137.09375 263.570312 135.425781 Z M 322.761719 221.066406 C 319.042969 227.539062 316.332031 234.621094 314.4375 241.855469 C 313.617188 239.652344 312.773438 237.464844 311.964844 235.269531 C 310.285156 230.714844 308.609375 226.160156 306.929688 221.609375 C 306.074219 219.285156 305.199219 216.96875 304.324219 214.652344 C 303.546875 212.578125 302.636719 210.476562 302.515625 208.238281 C 302.289062 203.984375 304.640625 200.058594 304.15625 195.78125 C 304.109375 195.347656 303.375 195.457031 303.363281 195.871094 C 303.246094 200.164062 301.046875 204.164062 301.234375 208.472656 C 301.332031 210.816406 302.253906 213.03125 303.035156 215.210938 C 303.867188 217.546875 304.6875 219.882812 305.535156 222.214844 C 307.226562 226.871094 308.921875 231.527344 310.613281 236.183594 C 311.652344 239.039062 312.644531 241.921875 313.710938 244.773438 C 312.800781 248.691406 312.125 252.664062 311.691406 256.664062 C 311.5625 257.855469 311.460938 259.050781 311.382812 260.246094 C 311.351562 260.753906 311.320312 261.269531 311.300781 261.777344 C 311.863281 261.695312 312.421875 261.605469 312.980469 261.507812 C 313.007812 260.996094 313.042969 260.480469 313.082031 259.964844 C 313.160156 258.945312 313.25 257.917969 313.355469 256.894531 C 313.675781 253.734375 314.140625 250.589844 314.753906 247.46875 C 314.914062 246.621094 315.089844 245.777344 315.285156 244.9375 C 315.320312 244.78125 315.351562 244.621094 315.390625 244.464844 C 317.222656 236.441406 320.101562 228.800781 323.496094 221.3125 C 323.695312 220.871094 322.964844 220.714844 322.761719 221.066406 Z M 327.007812 205.929688 C 326.78125 205.710938 326.574219 205.472656 326.378906 205.21875 C 325.59375 204.195312 325.03125 202.929688 324.398438 201.828125 C 323.5625 200.367188 322.730469 198.898438 321.910156 197.429688 C 320.691406 195.25 319.484375 193.0625 318.296875 190.863281 C 318.175781 190.648438 318.058594 190.433594 317.941406 190.214844 C 316.984375 190.007812 316.015625 189.839844 315.019531 189.753906 C 312.011719 189.484375 308.96875 189.75 306.042969 190.496094 C 300.789062 191.835938 296.53125 194.777344 292.503906 198.304688 C 292.285156 198.496094 291.625 198.359375 291.878906 198.003906 C 295.097656 193.523438 300.429688 190.507812 305.675781 189.082031 C 308.683594 188.265625 311.847656 187.996094 314.949219 188.195312 C 315.605469 188.238281 316.273438 188.296875 316.953125 188.382812 C 317.230469 188.410156 317.503906 188.449219 317.785156 188.488281 C 319.980469 188.820312 322.195312 189.417969 324.027344 190.535156 C 324.75 190.976562 323.976562 191.738281 323.355469 191.589844 C 321.890625 191.242188 320.464844 190.820312 319.023438 190.46875 C 320.371094 192.625 321.703125 194.796875 323.023438 196.976562 C 323.917969 198.457031 324.808594 199.941406 325.6875 201.4375 C 325.714844 201.476562 325.742188 201.523438 325.765625 201.566406 C 326.238281 202.363281 326.808594 203.175781 327.257812 204.027344 C 327.53125 204.539062 327.753906 205.058594 327.886719 205.605469 C 327.996094 206.066406 327.25 206.167969 327.007812 205.929688 " fill-opacity="1" fill-rule="nonzero"/><g clip-path="url(#ca454ed35c)"><path fill="#0f0e0c" d="M 279.300781 146.710938 C 279.300781 144.957031 279.980469 143.539062 280.8125 143.539062 C 281.648438 143.539062 282.324219 144.957031 282.324219 146.710938 C 282.324219 148.457031 281.648438 149.878906 280.8125 149.878906 C 279.980469 149.878906 279.300781 148.457031 279.300781 146.710938 Z M 283.40625 165.238281 C 282.992188 166.25 282.003906 166.886719 280.996094 167.199219 C 280.203125 167.441406 278.949219 167.648438 278.285156 167.015625 C 278.097656 166.835938 278.28125 166.578125 278.472656 166.511719 C 279.203125 166.269531 279.976562 166.363281 280.710938 166.058594 C 281.421875 165.761719 282.015625 165.257812 282.609375 164.773438 C 282.941406 164.496094 283.597656 164.773438 283.40625 165.238281 Z M 284.539062 160.285156 C 283.507812 161.953125 281.707031 162.933594 279.847656 163.425781 C 278.230469 163.855469 275.847656 164.121094 274.394531 163.085938 C 274.074219 162.863281 274.285156 162.457031 274.632812 162.425781 C 276.132812 162.300781 277.566406 162.519531 279.058594 162.125 C 280.746094 161.683594 282.09375 160.703125 283.511719 159.738281 C 283.867188 159.496094 284.914062 159.671875 284.539062 160.285156 Z M 299.054688 151.652344 C 299.332031 150.34375 300.179688 148.59375 301.339844 147.195312 C 301.648438 146.828125 301.980469 146.480469 302.328125 146.171875 C 303.203125 145.398438 304.191406 144.878906 305.203125 144.859375 C 305.394531 144.855469 305.675781 145.003906 305.527344 145.234375 C 305.105469 145.898438 304.398438 146.285156 303.816406 146.800781 C 302.910156 147.601562 302.113281 148.605469 301.554688 149.679688 C 301.34375 150.078125 301.160156 150.5 301.011719 150.925781 C 300.890625 151.25 300.796875 151.585938 300.726562 151.933594 C 300.609375 152.207031 300.652344 152.253906 300.851562 152.074219 C 301.601562 151.953125 302.011719 151.320312 302.875 151.429688 C 304.191406 151.597656 305.058594 152.851562 304.871094 154.144531 C 304.628906 155.882812 302.933594 157.003906 301.414062 157.539062 C 300.582031 157.832031 299.867188 156.96875 300.761719 156.464844 C 301.234375 156.203125 301.738281 155.984375 302.179688 155.675781 C 302.703125 155.3125 303.871094 154.207031 303.332031 153.457031 C 302.871094 153.3125 302.40625 153.164062 301.945312 153.015625 C 301.777344 153.132812 301.609375 153.25 301.429688 153.355469 C 301.148438 153.503906 300.898438 153.613281 300.574219 153.648438 C 299.3125 153.769531 298.824219 152.757812 299.054688 151.652344 Z M 321.910156 197.429688 C 320.691406 195.25 319.484375 193.0625 318.296875 190.863281 C 318.175781 190.648438 318.058594 190.433594 317.941406 190.214844 C 316.984375 190.007812 316.015625 189.839844 315.019531 189.753906 C 312.011719 189.484375 308.96875 189.75 306.042969 190.496094 C 300.789062 191.835938 296.53125 194.777344 292.503906 198.304688 C 292.285156 198.496094 291.625 198.359375 291.878906 198.003906 C 295.097656 193.523438 300.429688 190.507812 305.675781 189.082031 C 308.683594 188.265625 311.847656 187.996094 314.949219 188.195312 C 315.605469 188.238281 316.273438 188.296875 316.953125 188.382812 C 317.230469 188.410156 317.503906 188.449219 317.785156 188.488281 C 319.980469 188.820312 322.195312 189.417969 324.027344 190.535156 C 324.75 190.976562 323.976562 191.738281 323.355469 191.589844 C 321.890625 191.242188 320.464844 190.820312 319.023438 190.46875 C 320.371094 192.625 321.703125 194.796875 323.023438 196.976562 C 323.917969 198.457031 324.808594 199.941406 325.6875 201.4375 C 325.714844 201.476562 325.742188 201.523438 325.765625 201.566406 C 326.238281 202.363281 326.808594 203.175781 327.257812 204.027344 C 327.53125 204.539062 327.753906 205.058594 327.886719 205.605469 C 327.996094 206.066406 327.25 206.167969 327.007812 205.929688 C 326.78125 205.710938 326.574219 205.472656 326.378906 205.21875 C 325.59375 204.195312 325.03125 202.929688 324.398438 201.828125 C 323.5625 200.367188 322.730469 198.898438 321.910156 197.429688 Z M 278.292969 192.324219 C 277.972656 191.917969 277.699219 191.480469 277.488281 191.023438 C 277.25 190.523438 277.09375 189.996094 277.027344 189.464844 C 276.957031 188.917969 277.769531 188.859375 278.023438 189.207031 C 278.25 189.519531 278.460938 189.839844 278.671875 190.164062 C 279.042969 190.746094 279.40625 191.335938 279.839844 191.878906 C 280.539062 192.757812 281.382812 193.503906 282.191406 194.28125 C 282.503906 194.585938 281.949219 194.898438 281.671875 194.804688 C 280.421875 194.359375 279.183594 193.457031 278.292969 192.324219 Z M 282.910156 171.84375 C 281.6875 171.964844 280.542969 172.425781 279.441406 172.871094 C 277.988281 173.457031 276.621094 174.007812 275.28125 173.707031 C 273.070312 173.199219 271.945312 170.546875 271.625 168.226562 C 271.53125 167.546875 271.476562 166.832031 271.417969 166.140625 C 271.257812 164.144531 271.089844 162.078125 270.082031 160.246094 C 269.371094 158.949219 268.332031 157.933594 267.324219 156.953125 C 266.78125 156.421875 266.269531 155.925781 265.796875 155.382812 C 265.53125 155.070312 265.253906 154.710938 265.234375 154.371094 C 265.199219 153.78125 265.941406 153.25 266.695312 153.023438 C 266.953125 152.949219 267.230469 152.890625 267.519531 152.824219 C 268.289062 152.65625 269.164062 152.464844 269.890625 151.90625 C 272.011719 150.296875 271.363281 147.175781 270.445312 144.84375 C 269.996094 143.699219 269.546875 142.554688 269.097656 141.410156 C 269.089844 141.394531 269.085938 141.382812 269.074219 141.371094 L 269.074219 141.367188 C 269.21875 140.847656 269.355469 140.324219 269.492188 139.796875 C 274.742188 138.984375 279.949219 138.730469 285.222656 139.808594 C 286.332031 140.03125 287.410156 140.3125 288.460938 140.640625 C 288.347656 141.792969 288.121094 142.929688 287.777344 144.027344 C 287.296875 145.601562 286.039062 147.976562 287.984375 149.101562 C 289.59375 150.035156 291.363281 148.3125 292.480469 147.3125 C 293.675781 146.246094 294.738281 145.03125 295.644531 143.707031 C 296.660156 144.257812 297.660156 144.839844 298.652344 145.457031 C 298.53125 145.667969 298.425781 145.886719 298.324219 146.101562 C 298.167969 146.4375 298.679688 146.609375 298.882812 146.382812 C 299.027344 146.222656 299.175781 146.054688 299.335938 145.882812 C 299.699219 145.476562 300.097656 145.046875 300.523438 144.632812 C 302.257812 142.941406 304.445312 141.5 306.742188 142.933594 C 308.878906 144.261719 309.5625 147.691406 309.675781 150.230469 C 309.691406 150.550781 309.695312 150.859375 309.695312 151.144531 C 309.695312 151.199219 309.695312 151.253906 309.691406 151.3125 C 309.636719 154.09375 308.609375 156.863281 306.402344 158.652344 C 304.042969 160.574219 300.609375 160.863281 298 159.28125 C 297.496094 158.976562 296.457031 159.707031 297.070312 160.140625 C 297.546875 160.476562 298.046875 160.753906 298.570312 160.972656 C 297.460938 162.109375 297.492188 164.03125 298.203125 165.390625 C 298.710938 166.359375 299.535156 167.0625 300.507812 167.429688 C 300.570312 167.992188 300.636719 168.550781 300.714844 169.105469 L 300.714844 169.113281 C 300.953125 170.84375 301.277344 172.609375 301.683594 174.347656 C 301.6875 174.359375 301.6875 174.367188 301.691406 174.378906 C 301.371094 175.558594 301.085938 176.75 300.710938 177.910156 C 300.023438 180.011719 299.160156 182.050781 298.152344 184.015625 C 298.652344 183.894531 299.15625 183.777344 299.660156 183.667969 C 299.875 183.621094 300.09375 183.574219 300.308594 183.523438 C 301.917969 183.167969 303.617188 182.765625 304.972656 181.765625 C 305.992188 181.007812 306.554688 179.964844 307.34375 179 C 307.472656 178.84375 307.769531 178.839844 307.816406 179.070312 C 308.226562 181.050781 305.972656 182.742188 304.457031 183.546875 C 301.980469 184.855469 299.0625 185.191406 296.402344 185.984375 C 293.179688 186.949219 289.800781 188.648438 287.613281 191.191406 C 287.246094 191.609375 286.914062 192.058594 286.621094 192.523438 C 285.609375 194.148438 285.058594 196.058594 285.230469 198.269531 C 285.289062 199.035156 283.957031 199.355469 283.785156 198.574219 C 283.101562 195.5 284.15625 192.660156 286.039062 190.375 C 286.460938 189.859375 286.925781 189.367188 287.425781 188.914062 L 286.828125 181.707031 C 286.691406 180.070312 286.539062 178.21875 286.242188 176.433594 L 286.242188 176.425781 C 286.082031 175.492188 285.902344 174.65625 285.691406 173.871094 C 285.515625 173.242188 285.273438 172.605469 284.691406 172.195312 C 284.238281 171.878906 283.65625 171.761719 282.910156 171.84375 Z M 267.886719 139.257812 C 267.839844 139.535156 267.796875 139.808594 267.757812 140.082031 C 267.742188 140.183594 267.730469 140.289062 267.71875 140.390625 C 267.3125 139.847656 266.871094 139.316406 266.542969 138.722656 C 265.894531 137.570312 265.425781 136.339844 265.203125 135.035156 C 264.734375 132.316406 265.382812 129.503906 266.746094 127.132812 C 267.113281 126.492188 265.933594 126.226562 265.59375 126.6875 C 263.722656 129.222656 262.933594 132.304688 263.570312 135.425781 C 263.914062 137.09375 264.757812 139.113281 266.0625 140.511719 C 261.390625 139.296875 257.355469 136.03125 255.402344 131.722656 C 255.144531 131.152344 255.082031 130.625 255.257812 130.488281 C 255.355469 130.414062 255.605469 130.386719 255.824219 130.359375 L 255.898438 130.351562 C 261.175781 129.703125 265.023438 125.160156 267.832031 121.835938 C 270.835938 118.285156 274.414062 114.472656 278.914062 114.113281 C 279.8125 114.042969 281.105469 114.101562 282.195312 114.753906 C 282.71875 115.066406 283.183594 115.507812 283.675781 115.972656 C 284.132812 116.410156 284.609375 116.859375 285.164062 117.234375 C 287.398438 118.738281 290.570312 118.75 294.34375 117.28125 C 294.949219 117.050781 295.558594 116.789062 296.148438 116.539062 C 298.289062 115.628906 300.308594 114.761719 302.457031 114.777344 C 305.613281 114.785156 308.808594 116.675781 312.226562 120.558594 C 317.796875 126.894531 321.648438 134.417969 323.363281 142.332031 C 324.347656 146.871094 324.125 150.15625 322.652344 152.675781 C 321.730469 154.261719 320.019531 155.449219 318.210938 155.8125 C 318.566406 153.9375 318.460938 151.976562 317.9375 150.144531 C 317.851562 149.847656 317.261719 149.960938 317.289062 150.273438 C 317.480469 152.375 317.289062 154.3125 316.773438 156.222656 C 316.726562 156.285156 316.691406 156.355469 316.664062 156.433594 C 315.527344 159.832031 313.035156 162.671875 309.996094 164.023438 L 309.867188 164.082031 C 308.769531 164.574219 307.265625 165.238281 307.023438 166.742188 C 306.914062 167.449219 307.136719 168.089844 307.335938 168.652344 C 307.507812 169.132812 307.652344 169.550781 307.554688 169.875 C 307.5 170.0625 307.382812 170.1875 307.1875 170.289062 C 306.683594 170.527344 305.78125 170.480469 304.984375 170.160156 C 303.992188 169.765625 303.042969 169.242188 302.160156 168.589844 C 302.121094 168.304688 302.085938 168.023438 302.050781 167.734375 C 302.644531 167.695312 303.066406 166.828125 302.304688 166.667969 C 302.175781 166.640625 302.050781 166.613281 301.925781 166.578125 C 301.351562 166.425781 300.816406 166.1875 300.355469 165.839844 C 299.957031 165.542969 299.621094 165.164062 299.367188 164.699219 C 298.738281 163.535156 299.054688 162.421875 299.238281 161.222656 C 301.71875 162.015625 304.503906 161.582031 306.742188 160.09375 C 309.78125 158.074219 311.273438 154.59375 311.308594 151.035156 C 313.734375 150.363281 315.996094 148.617188 317.386719 146.71875 C 319.503906 143.832031 320.691406 138.984375 318.429688 135.863281 C 318.109375 135.421875 317.210938 135.578125 317.261719 136.203125 C 317.519531 139.53125 317.925781 142.664062 316.0625 145.660156 C 314.835938 147.640625 313.164062 148.785156 311.25 149.613281 C 311.027344 146.828125 310.175781 143.308594 307.695312 141.824219 C 307.691406 141.726562 307.664062 141.628906 307.597656 141.523438 C 305.382812 138.050781 302.542969 135.035156 299.277344 132.574219 C 299.296875 131.488281 299.214844 130.398438 299.035156 129.308594 C 298.894531 128.4375 297.339844 128.828125 297.429688 129.6875 C 297.484375 130.234375 297.519531 130.785156 297.527344 131.339844 C 297.542969 131.972656 297.527344 132.613281 297.480469 133.246094 C 297.285156 136.082031 296.503906 138.871094 295.140625 141.367188 C 295.023438 141.582031 294.902344 141.800781 294.773438 142.015625 C 294.582031 142.328125 294.378906 142.640625 294.171875 142.945312 C 293.253906 144.300781 292.164062 145.542969 290.914062 146.609375 C 290.597656 146.878906 290.242188 147.265625 289.863281 147.4375 C 289.5 147.914062 289.136719 147.882812 288.773438 147.332031 C 288.761719 147.109375 288.753906 146.882812 288.746094 146.660156 C 288.859375 145.5 289.542969 144.300781 289.816406 143.152344 C 289.964844 142.507812 290.085938 141.863281 290.167969 141.214844 C 290.246094 140.640625 290.292969 140.0625 290.3125 139.484375 C 290.425781 136.503906 289.835938 133.515625 288.515625 130.808594 C 288.050781 129.859375 287.476562 128.90625 286.808594 128 C 286.292969 127.304688 285.730469 126.632812 285.125 126.011719 C 283.671875 124.527344 281.96875 123.292969 280.148438 122.59375 C 279.917969 122.507812 279.59375 122.761719 279.847656 122.957031 C 280.933594 123.835938 281.96875 124.65625 282.929688 125.5625 C 280.234375 125.097656 277.476562 124.953125 274.839844 125.261719 C 275.65625 123.855469 276.609375 122.476562 277.1875 120.96875 C 277.335938 120.578125 276.664062 120.566406 276.480469 120.734375 C 275.078125 122.023438 273.933594 123.746094 272.96875 125.566406 C 272.75 125.964844 272.546875 126.367188 272.351562 126.773438 C 271.722656 128.070312 271.167969 129.378906 270.660156 130.585938 C 269.53125 133.285156 268.410156 136.277344 267.886719 139.257812 Z M 345.042969 231.640625 C 344.21875 229.539062 342.839844 227.757812 341.503906 226.03125 L 341.222656 225.667969 C 335.996094 218.886719 331.355469 211.585938 327.410156 203.949219 C 327.203125 203.550781 327 203.152344 326.796875 202.75 C 327.070312 201.949219 327.4375 201.171875 327.824219 200.355469 C 328.546875 198.835938 329.296875 197.265625 329.382812 195.492188 C 329.5 192.957031 328.195312 190.285156 325.703125 187.96875 C 324.699219 187.035156 323.601562 186.214844 322.535156 185.421875 C 321.496094 184.644531 320.421875 183.84375 319.476562 182.964844 C 318.328125 181.894531 317.304688 180.644531 316.308594 179.4375 C 315.742188 178.738281 315.148438 178.019531 314.535156 177.332031 C 312.332031 174.878906 310.285156 173.441406 308.089844 172.8125 C 306.546875 172.363281 304.914062 172.394531 303.480469 172.863281 C 303.296875 172.917969 303.113281 172.988281 302.933594 173.0625 C 302.839844 172.625 302.75 172.183594 302.667969 171.742188 C 302.589844 171.359375 302.519531 170.972656 302.457031 170.589844 C 303.09375 170.964844 303.75 171.289062 304.429688 171.5625 C 305.335938 171.917969 306.769531 172.15625 307.839844 171.640625 C 308.414062 171.359375 308.8125 170.902344 308.988281 170.3125 C 309.230469 169.515625 308.976562 168.792969 308.753906 168.152344 C 308.601562 167.71875 308.457031 167.308594 308.507812 166.984375 C 308.617188 166.28125 309.605469 165.84375 310.472656 165.453125 L 310.601562 165.398438 C 313.929688 163.917969 316.574219 161.011719 317.921875 157.378906 C 320.347656 157.082031 322.722656 155.546875 323.949219 153.433594 C 325.625 150.570312 325.902344 146.941406 324.828125 142.015625 C 323.058594 133.855469 319.09375 126.089844 313.351562 119.5625 C 309.632812 115.34375 306.070312 113.285156 302.464844 113.273438 C 302.453125 113.273438 302.4375 113.273438 302.425781 113.273438 C 299.980469 113.273438 297.730469 114.230469 295.554688 115.152344 C 294.980469 115.402344 294.382812 115.652344 293.796875 115.882812 C 291.5 116.777344 288.285156 117.519531 286 115.984375 C 285.546875 115.683594 285.136719 115.292969 284.707031 114.882812 C 284.175781 114.382812 283.632812 113.859375 282.960938 113.460938 C 281.832031 112.785156 280.390625 112.492188 278.800781 112.617188 C 273.71875 113.019531 269.882812 117.082031 266.6875 120.867188 C 263.378906 124.773438 260.050781 128.328125 255.714844 128.859375 L 255.640625 128.863281 C 255.253906 128.910156 254.769531 128.96875 254.347656 129.296875 C 253.5625 129.894531 253.441406 131.027344 254.035156 132.339844 C 256.449219 137.664062 261.757812 141.539062 267.683594 142.355469 C 267.742188 142.4375 267.828125 142.492188 267.921875 142.523438 C 268.292969 143.480469 268.675781 144.441406 269.046875 145.394531 C 269.777344 147.242188 270.351562 149.667969 268.980469 150.710938 C 268.519531 151.066406 267.875 151.207031 267.195312 151.355469 C 266.894531 151.425781 266.582031 151.492188 266.273438 151.585938 C 264.945312 151.976562 263.648438 153.015625 263.734375 154.460938 C 263.785156 155.25 264.234375 155.867188 264.660156 156.363281 C 265.175781 156.957031 265.734375 157.503906 266.277344 158.035156 C 267.25 158.976562 268.160156 159.867188 268.769531 160.964844 C 269.617188 162.523438 269.765625 164.339844 269.921875 166.265625 C 269.980469 166.976562 270.039062 167.707031 270.136719 168.429688 C 270.523438 171.242188 271.988281 174.492188 274.945312 175.167969 C 276.742188 175.578125 278.398438 174.914062 280.003906 174.265625 C 281.054688 173.84375 282.050781 173.4375 283.066406 173.335938 C 283.433594 173.296875 283.6875 173.328125 283.832031 173.429688 C 284.023438 173.5625 284.140625 173.910156 284.238281 174.265625 C 284.402344 174.859375 284.542969 175.484375 284.671875 176.171875 C 282.71875 177.332031 280.734375 178.667969 279.164062 180.460938 C 276.828125 183.128906 275.902344 186.398438 276.6875 189.214844 C 276.847656 189.792969 277.089844 190.382812 277.429688 191.050781 C 276.660156 191.898438 275.753906 192.679688 274.796875 193.503906 C 273.222656 194.859375 271.59375 196.261719 270.523438 198.082031 C 269.722656 199.449219 269.273438 201.003906 268.882812 202.375 C 266.839844 209.472656 264.523438 217.511719 265.8125 225.4375 C 265.910156 226.03125 266.027344 226.636719 266.144531 227.222656 C 266.546875 229.269531 266.925781 231.203125 266.519531 233.074219 C 266.289062 234.121094 265.824219 235.101562 265.332031 236.140625 C 265.019531 236.800781 264.695312 237.480469 264.433594 238.1875 C 262.9375 242.21875 263.648438 246.382812 264.507812 249.164062 C 264.808594 250.144531 265.1875 251.148438 265.660156 252.238281 C 265.71875 252.382812 265.824219 252.5 265.957031 252.582031 C 267.667969 253.617188 269.417969 254.574219 271.203125 255.453125 C 271.269531 255.023438 271.335938 254.601562 271.386719 254.175781 C 271.398438 254.082031 271.410156 253.980469 271.425781 253.882812 C 271.742188 251.414062 272.066406 248.949219 272.390625 246.476562 C 273.058594 241.351562 273.710938 236.21875 274.359375 231.085938 C 275.003906 225.957031 275.746094 220.84375 276.390625 215.714844 C 276.722656 213.0625 276.871094 210.476562 275.589844 208.039062 C 274.585938 206.125 273.097656 204.582031 271.792969 202.882812 C 271.371094 202.339844 272.484375 201.972656 272.855469 202.292969 C 276.246094 205.203125 278.613281 208.792969 278.402344 213.390625 C 278.277344 216.113281 277.757812 218.847656 277.390625 221.542969 C 277.035156 224.210938 276.683594 226.882812 276.320312 229.546875 C 275.578125 234.992188 274.796875 240.429688 274.050781 245.871094 C 273.671875 248.640625 273.292969 251.410156 272.917969 254.179688 C 272.898438 254.3125 272.878906 254.445312 272.863281 254.582031 C 272.792969 255.101562 272.734375 255.628906 272.675781 256.152344 C 281.695312 260.324219 291.578125 262.5 301.484375 262.5 C 303.875 262.5 306.265625 262.375 308.648438 262.117188 C 309.539062 262.023438 310.421875 261.910156 311.300781 261.777344 C 311.320312 261.269531 311.351562 260.753906 311.382812 260.246094 C 311.460938 259.050781 311.5625 257.855469 311.691406 256.664062 C 312.125 252.664062 312.800781 248.691406 313.710938 244.773438 C 312.644531 241.921875 311.652344 239.039062 310.613281 236.183594 C 308.921875 231.527344 307.226562 226.871094 305.535156 222.214844 C 304.6875 219.882812 303.867188 217.546875 303.035156 215.210938 C 302.253906 213.03125 301.332031 210.816406 301.234375 208.472656 C 301.046875 204.164062 303.246094 200.164062 303.363281 195.871094 C 303.375 195.457031 304.109375 195.347656 304.15625 195.78125 C 304.640625 200.058594 302.289062 203.984375 302.515625 208.238281 C 302.636719 210.476562 303.546875 212.578125 304.324219 214.652344 C 305.199219 216.96875 306.074219 219.285156 306.929688 221.609375 C 308.609375 226.160156 310.285156 230.714844 311.964844 235.269531 C 312.773438 237.464844 313.617188 239.652344 314.4375 241.855469 C 316.332031 234.621094 319.042969 227.539062 322.761719 221.066406 C 322.964844 220.714844 323.695312 220.871094 323.496094 221.3125 C 320.101562 228.800781 317.222656 236.441406 315.390625 244.464844 C 315.351562 244.621094 315.320312 244.78125 315.285156 244.9375 C 315.089844 245.777344 314.914062 246.621094 314.753906 247.46875 C 314.140625 250.589844 313.675781 253.734375 313.355469 256.894531 C 313.25 257.917969 313.160156 258.945312 313.082031 259.964844 C 313.042969 260.480469 313.007812 260.996094 312.980469 261.507812 C 323.75 259.640625 333.988281 255.15625 342.820312 248.421875 C 342.925781 248.34375 343.007812 248.234375 343.058594 248.105469 C 343.507812 247.003906 343.980469 245.816406 344.410156 244.589844 C 346.226562 239.414062 346.429688 235.175781 345.042969 231.640625 " fill-opacity="1" fill-rule="nonzero"/></g></svg>