<svg xmlns="http://www.w3.org/2000/svg" xmlns:xlink="http://www.w3.org/1999/xlink" width="800" zoomAndPan="magnify" viewBox="0 0 600 374.999991" height="500" preserveAspectRatio="xMidYMid meet" version="1.0"><defs><clipPath id="0e6d1f2573"><path d="M 259.503906 112.5 L 340.503906 112.5 L 340.503906 262.5 L 259.503906 262.5 Z M 259.503906 112.5 " clip-rule="nonzero"/></clipPath><clipPath id="dcd7fd152e"><path d="M 259.503906 112.5 L 340.503906 112.5 L 340.503906 262.5 L 259.503906 262.5 Z M 259.503906 112.5 " clip-rule="nonzero"/></clipPath></defs><rect x="-60" width="720" fill="#ffffff" y="-37.499999" height="449.999989" fill-opacity="1"/><rect x="-60" width="720" fill="#00eded" y="-37.499999" height="449.999989" fill-opacity="1"/><g clip-path="url(#0e6d1f2573)"><path fill="#0f0e0c" d="M 339.804688 237.761719 C 339.066406 235.015625 337.738281 232.472656 336.449219 230.019531 C 336.261719 229.660156 336.070312 229.296875 335.882812 228.933594 C 332.570312 222.546875 329.773438 215.757812 327.066406 209.199219 C 324.203125 202.253906 321.242188 195.074219 317.65625 188.316406 C 316.789062 186.679688 315.890625 185.113281 314.441406 183.984375 C 313.246094 183.042969 311.789062 182.527344 310.507812 182.070312 L 309.570312 181.738281 L 308.019531 181.183594 L 304.664062 179.988281 C 304.605469 179.429688 304.539062 178.871094 304.464844 178.308594 C 304.277344 176.917969 304.246094 175.277344 303.683594 173.976562 C 303.050781 172.507812 301.449219 171.988281 299.9375 171.949219 C 299.808594 170.898438 299.679688 169.851562 299.546875 168.796875 C 299.875 168.898438 300.203125 168.980469 300.535156 169.042969 C 300.667969 169.070312 300.917969 169.113281 301.210938 169.113281 C 301.605469 169.113281 302.082031 169.027344 302.476562 168.703125 C 302.820312 168.417969 303.042969 168.003906 303.160156 167.425781 C 303.367188 166.378906 303.167969 165.386719 302.976562 164.417969 C 302.863281 163.847656 302.753906 163.300781 302.734375 162.765625 C 302.6875 161.429688 303.1875 160.101562 303.757812 158.75 C 304.882812 156.0625 306.148438 153.410156 307.519531 150.839844 C 308.476562 152.003906 309.800781 152.703125 311.132812 152.703125 C 311.164062 152.703125 311.195312 152.703125 311.226562 152.703125 C 311.457031 152.699219 311.671875 152.589844 311.808594 152.402344 C 311.949219 152.222656 311.992188 151.984375 311.9375 151.761719 C 311.476562 150.023438 311.609375 148.15625 312.300781 146.496094 C 312.585938 145.820312 312.957031 145.179688 313.351562 144.503906 C 313.761719 143.796875 314.1875 143.0625 314.511719 142.269531 C 315.507812 139.832031 315.5 136.796875 314.484375 133.730469 C 310.410156 121.425781 300.445312 113.640625 287.824219 112.914062 C 283.953125 112.6875 279.390625 113.574219 275.304688 115.34375 C 270.738281 117.316406 267.257812 120.214844 265.5 123.503906 C 263.386719 127.445312 264.054688 132.019531 265.015625 136 L 264.742188 137.03125 C 264.488281 137.996094 264.171875 139.195312 264.480469 140.382812 C 264.789062 141.5625 265.605469 142.445312 266.398438 143.304688 C 267.261719 144.234375 268.003906 145.035156 267.890625 145.988281 C 267.800781 146.703125 267.21875 147.328125 266.523438 148.015625 L 259.820312 154.648438 C 259.550781 154.90625 259.519531 155.324219 259.742188 155.621094 C 260.402344 156.527344 261.339844 157.042969 262.25 157.539062 C 263.027344 157.96875 263.765625 158.375 264.234375 158.980469 C 264.730469 159.621094 264.9375 160.503906 265.136719 161.359375 L 266.925781 169.046875 C 267.367188 170.957031 268.140625 173.230469 270.210938 173.820312 C 270.5625 173.921875 270.914062 173.957031 271.257812 173.957031 C 271.746094 173.957031 272.21875 173.882812 272.652344 173.800781 C 275.925781 173.199219 279.050781 172.066406 281.953125 170.4375 C 282.242188 173.171875 282.492188 175.921875 282.691406 178.65625 C 281.808594 179.007812 280.941406 179.441406 280.113281 179.863281 C 279.523438 180.160156 279.007812 180.496094 278.871094 181.199219 C 278.683594 182.128906 279.097656 183.382812 279.230469 184.300781 C 279.277344 184.617188 279.316406 184.9375 279.351562 185.261719 C 277.386719 187.53125 275.425781 189.796875 273.460938 192.070312 C 273.28125 192.277344 273.101562 192.484375 272.925781 192.691406 C 272.730469 192.914062 272.535156 193.140625 272.34375 193.359375 C 270.089844 195.964844 267.527344 198.917969 266.566406 202.589844 C 265.945312 204.933594 266.035156 207.335938 266.121094 209.660156 L 267.238281 239.453125 C 266.597656 241.132812 265.570312 242.757812 264.574219 244.320312 C 264.425781 244.558594 264.273438 244.796875 264.125 245.035156 C 263.699219 245.710938 263.304688 246.378906 263.09375 247.175781 C 262.558594 249.238281 263.484375 251.289062 264.355469 252.648438 C 266.777344 256.421875 270.363281 258.574219 273.953125 259.855469 C 274.519531 260.058594 275.089844 260.238281 275.648438 260.402344 C 277.460938 260.925781 279.21875 261.257812 280.78125 261.5 C 284.28125 262.039062 287.820312 262.300781 291.359375 262.300781 C 298.542969 262.300781 305.75 261.210938 312.730469 259.089844 C 313.390625 258.886719 314.050781 258.675781 314.707031 258.457031 C 323.667969 255.472656 332.226562 250.789062 339.902344 244.542969 L 339.90625 244.535156 C 339.941406 244.507812 339.972656 244.480469 339.996094 244.445312 C 340.027344 244.414062 340.054688 244.378906 340.070312 244.339844 C 340.09375 244.304688 340.113281 244.261719 340.128906 244.226562 C 340.144531 244.183594 340.15625 244.140625 340.164062 244.097656 C 340.167969 244.074219 340.171875 244.054688 340.171875 244.035156 C 340.515625 242.109375 340.386719 239.941406 339.804688 237.761719 " fill-opacity="1" fill-rule="nonzero"/></g><path fill="#ffffff" d="M 272.183594 139.058594 C 274.675781 138.648438 277.230469 138.746094 279.707031 139.246094 C 281.910156 139.691406 284.453125 140.390625 286.066406 142.039062 C 286.496094 142.480469 285.785156 142.871094 285.390625 142.785156 C 283.257812 142.308594 281.265625 141.3125 279.121094 140.820312 C 276.847656 140.296875 274.550781 140.191406 272.226562 140.226562 C 271.390625 140.238281 271.425781 139.179688 272.183594 139.058594 Z M 277.035156 148.347656 L 277.035156 143.425781 C 277.035156 142.832031 277.523438 142.351562 278.113281 142.351562 L 278.148438 142.351562 C 278.746094 142.351562 279.226562 142.832031 279.226562 143.425781 L 279.226562 148.347656 C 279.226562 148.9375 278.746094 149.425781 278.148438 149.425781 L 278.113281 149.425781 C 277.523438 149.425781 277.035156 148.9375 277.035156 148.347656 Z M 280.445312 159.730469 C 278.585938 162.070312 275.203125 163.308594 272.257812 163.097656 C 272.074219 163.082031 271.824219 163.007812 271.746094 162.824219 C 271.722656 162.765625 271.699219 162.703125 271.671875 162.640625 C 271.40625 161.988281 273.660156 161.75 273.871094 161.691406 C 275.910156 161.152344 277.644531 160.09375 279.433594 159.027344 C 279.929688 158.734375 280.988281 159.046875 280.445312 159.730469 Z M 296.710938 143.378906 C 297.023438 143.25 297.429688 143.570312 297.160156 143.875 C 296.09375 145.074219 294.945312 146.160156 294.46875 147.757812 C 294.183594 148.710938 294.566406 148.308594 295.21875 148.210938 C 295.558594 148.160156 295.878906 148.199219 296.195312 148.328125 C 298.386719 149.214844 297.070312 151.882812 295.660156 152.769531 C 295.125 153.109375 294.183594 152.777344 294.644531 152.066406 C 294.894531 151.683594 296.582031 149.703125 295.273438 149.585938 C 294.9375 149.550781 294.441406 149.964844 294.042969 149.957031 C 293.3125 149.949219 292.804688 149.457031 292.757812 148.734375 C 292.628906 146.648438 294.917969 144.121094 296.710938 143.378906 Z M 265.421875 158.0625 C 266.117188 158.960938 266.375 160.054688 266.601562 161.019531 L 268.386719 168.707031 C 268.738281 170.21875 269.308594 172 270.625 172.375 C 271.160156 172.53125 271.785156 172.433594 272.378906 172.328125 C 275.84375 171.691406 279.132812 170.429688 282.15625 168.582031 C 282.164062 168.578125 282.175781 168.574219 282.183594 168.566406 C 282.207031 168.554688 282.230469 168.542969 282.257812 168.53125 C 282.285156 168.523438 282.308594 168.515625 282.332031 168.507812 C 282.34375 168.503906 282.355469 168.5 282.367188 168.496094 C 282.375 168.492188 282.386719 168.492188 282.394531 168.492188 C 282.425781 168.484375 282.460938 168.480469 282.492188 168.476562 C 282.507812 168.476562 282.523438 168.476562 282.539062 168.476562 C 282.574219 168.476562 282.605469 168.476562 282.636719 168.484375 C 282.652344 168.484375 282.667969 168.488281 282.683594 168.488281 C 282.714844 168.496094 282.75 168.503906 282.78125 168.515625 C 282.792969 168.519531 282.808594 168.523438 282.820312 168.527344 C 282.855469 168.539062 282.882812 168.554688 282.910156 168.570312 C 282.921875 168.578125 282.9375 168.585938 282.953125 168.59375 C 282.976562 168.613281 283 168.628906 283.023438 168.648438 C 283.039062 168.664062 283.054688 168.675781 283.070312 168.691406 C 283.085938 168.707031 283.105469 168.726562 283.121094 168.746094 C 283.136719 168.765625 283.148438 168.785156 283.164062 168.804688 C 283.171875 168.816406 283.179688 168.820312 283.1875 168.832031 C 283.195312 168.847656 283.199219 168.859375 283.203125 168.871094 C 283.214844 168.890625 283.226562 168.910156 283.234375 168.933594 C 283.246094 168.960938 283.253906 168.988281 283.261719 169.019531 C 283.265625 169.027344 283.273438 169.035156 283.277344 169.050781 C 283.277344 169.0625 283.277344 169.078125 283.285156 169.09375 C 283.285156 169.101562 283.289062 169.113281 283.289062 169.121094 C 283.339844 169.347656 283.371094 169.570312 283.394531 169.789062 C 283.699219 172.578125 283.949219 175.394531 284.15625 178.183594 C 284.171875 178.355469 284.183594 178.527344 284.195312 178.695312 C 284.261719 179.609375 284.320312 180.519531 284.375 181.425781 C 284.484375 183.203125 284.574219 185.03125 284.644531 186.882812 C 285.84375 186.8125 287.023438 186.722656 288.226562 186.300781 C 289.917969 185.703125 291.488281 184.796875 292.953125 183.769531 C 295.257812 182.164062 297.429688 180.34375 299.195312 178.167969 C 299.164062 178.011719 299.144531 177.851562 299.125 177.691406 C 298.71875 174.382812 298.320312 171.066406 297.90625 167.753906 C 297.90625 167.746094 297.90625 167.738281 297.902344 167.730469 L 297.902344 167.71875 C 297.804688 166.917969 297.710938 166.121094 297.609375 165.316406 C 295.050781 164.085938 295.179688 159.007812 295.578125 155.800781 C 295.265625 155.765625 294.945312 155.699219 294.617188 155.59375 C 293.664062 155.300781 294.351562 154.28125 295.140625 154.425781 C 295.355469 154.464844 295.566406 154.488281 295.769531 154.492188 C 296.152344 154.503906 296.511719 154.457031 296.855469 154.359375 C 299.851562 153.511719 301.273438 148.875 300.90625 146.152344 C 300.667969 144.410156 299.792969 142.097656 297.886719 141.621094 C 296.488281 141.273438 295.242188 142 294.21875 142.847656 C 294.214844 142.851562 294.210938 142.855469 294.207031 142.859375 C 294.253906 142.925781 294.304688 142.992188 294.355469 143.0625 C 294.339844 143.070312 294.324219 143.074219 294.3125 143.085938 C 294.351562 143.117188 294.390625 143.15625 294.429688 143.203125 C 294.445312 143.21875 294.460938 143.242188 294.476562 143.261719 C 294.667969 143.492188 294.503906 143.914062 294.277344 144.054688 C 291.652344 145.671875 290.460938 138.832031 290.15625 137.421875 C 289.441406 134.136719 288.976562 130.792969 288.851562 127.429688 C 285.613281 129.171875 281.871094 130.242188 278.421875 130.890625 C 276.171875 131.3125 273.8125 131.550781 271.582031 130.894531 C 270.464844 130.566406 269.523438 129.988281 268.550781 129.371094 C 268.488281 129.328125 268.417969 129.289062 268.347656 129.25 L 266.511719 136.207031 L 266.195312 137.414062 C 265.972656 138.25 265.722656 139.195312 265.933594 140.007812 C 266.144531 140.816406 266.804688 141.53125 267.503906 142.285156 C 268.476562 143.335938 269.582031 144.527344 269.378906 146.167969 C 269.234375 147.363281 268.445312 148.226562 267.582031 149.082031 L 261.382812 155.207031 C 261.824219 155.597656 262.386719 155.90625 262.972656 156.226562 C 263.851562 156.710938 264.761719 157.207031 265.421875 158.0625 Z M 300.058594 172.949219 C 300.640625 173.0625 301.21875 173.21875 301.65625 173.59375 C 302.496094 174.308594 302.492188 175.71875 302.632812 176.730469 C 302.753906 177.609375 302.863281 178.496094 302.964844 179.382812 C 303.03125 179.9375 303.09375 180.488281 303.144531 181.042969 C 303.230469 181.828125 303.304688 182.609375 303.375 183.398438 C 303.449219 184.238281 305.015625 183.882812 304.953125 183.03125 C 304.945312 182.835938 304.925781 182.636719 304.902344 182.441406 C 304.882812 182.171875 304.859375 181.90625 304.832031 181.640625 L 307.136719 182.464844 C 303.375 187.785156 298.519531 193.074219 292.816406 196.144531 C 291.632812 196.78125 290.410156 197.136719 289.167969 197.292969 C 289.140625 197.273438 289.105469 197.257812 289.070312 197.25 C 288.683594 196.414062 288.230469 195.597656 287.890625 194.757812 C 287.402344 193.550781 287.085938 192.222656 286.453125 191.082031 C 285.707031 189.730469 283.671875 188.746094 282.496094 190.167969 C 282.195312 190.535156 282.722656 190.773438 283.03125 190.613281 C 285.007812 189.578125 285.769531 193.738281 286.203125 194.859375 C 286.519531 195.679688 286.832031 196.558594 287.222656 197.390625 C 285.515625 197.351562 283.789062 197.023438 282.070312 196.628906 C 281.179688 196.421875 280.273438 196.175781 279.390625 195.867188 C 279.40625 195.125 279.335938 194.363281 279.375 193.632812 C 279.421875 192.644531 279.539062 191.660156 279.671875 190.679688 C 279.980469 190.613281 280.261719 190.511719 280.554688 190.3125 C 280.648438 190.246094 280.691406 190.132812 280.582031 190.050781 C 280.117188 189.707031 279.648438 189.667969 279.082031 189.605469 C 278.71875 189.558594 278.355469 189.851562 278.285156 190.191406 C 277.980469 191.570312 277.597656 193.476562 277.667969 195.175781 C 276.519531 194.640625 275.449219 193.980469 274.511719 193.148438 C 276.226562 191.167969 277.941406 189.183594 279.660156 187.203125 C 279.742188 187.570312 279.855469 187.925781 280.007812 188.265625 C 280.203125 188.699219 281.0625 188.550781 281.113281 188.085938 C 281.203125 187.304688 281.132812 186.476562 280.996094 185.648438 C 280.929688 185.214844 280.84375 184.777344 280.757812 184.34375 C 280.640625 183.753906 280.515625 183.179688 280.429688 182.621094 C 280.183594 181.09375 281.238281 180.488281 282.417969 179.824219 C 282.535156 179.761719 282.648438 179.695312 282.757812 179.632812 C 282.800781 180.246094 282.839844 180.855469 282.875 181.464844 C 282.875 181.480469 282.878906 181.496094 282.878906 181.515625 C 282.984375 183.292969 283.074219 185.128906 283.144531 186.976562 C 283.011719 186.984375 282.878906 186.996094 282.738281 187.011719 C 282.359375 187.050781 282.085938 187.542969 282.476562 187.78125 C 282.777344 187.957031 283.085938 188.097656 283.402344 188.207031 C 283.632812 188.28125 283.871094 188.347656 284.113281 188.394531 C 287.308594 189 291.289062 186.847656 293.671875 185.246094 C 295.988281 183.683594 298.28125 181.949219 300.027344 179.773438 C 300.34375 179.382812 300.644531 178.980469 300.917969 178.554688 C 301.226562 178.09375 301.503906 177.613281 301.757812 177.109375 C 302.113281 176.394531 301.007812 176.109375 300.492188 176.476562 C 300.34375 175.296875 300.203125 174.125 300.058594 172.949219 Z M 321.066406 243.640625 C 320.632812 244.675781 320.171875 245.851562 319.40625 246.6875 C 318.953125 247.183594 317.800781 247.0625 318.046875 246.210938 C 318.28125 245.40625 318.816406 244.667969 319.195312 243.910156 C 319.453125 243.390625 320.339844 242.074219 320.265625 241.5 C 320.117188 240.339844 318.996094 241.109375 318.34375 241.132812 C 317.84375 241.144531 317.539062 241.035156 317.160156 240.726562 C 316.785156 240.417969 317.429688 240.074219 317.710938 240.15625 C 318.863281 240.507812 321.351562 238.617188 321.878906 240.742188 C 322.097656 241.628906 321.398438 242.855469 321.066406 243.640625 Z M 338.355469 238.148438 C 337.664062 235.5625 336.367188 233.101562 335.117188 230.714844 C 334.929688 230.351562 334.738281 229.992188 334.554688 229.625 C 331.210938 223.175781 328.398438 216.363281 325.683594 209.769531 C 322.832031 202.859375 319.882812 195.710938 316.332031 189.019531 C 315.542969 187.527344 314.734375 186.109375 313.519531 185.164062 C 312.511719 184.375 311.238281 183.921875 310.003906 183.484375 L 308.726562 183.027344 C 306.683594 186.0625 304.328125 188.871094 301.667969 191.402344 C 298.855469 194.078125 295.636719 196.90625 291.945312 198.265625 C 291.214844 198.53125 290.464844 198.714844 289.703125 198.828125 C 289.699219 198.832031 289.691406 198.832031 289.691406 198.832031 C 289.695312 198.84375 289.699219 198.859375 289.703125 198.871094 C 289.234375 198.917969 288.765625 198.957031 288.292969 199 C 288.296875 198.988281 288.300781 198.976562 288.300781 198.964844 C 288.234375 198.96875 288.171875 198.96875 288.109375 198.96875 C 285.359375 199.050781 282.535156 198.355469 279.988281 197.507812 C 279.722656 197.421875 279.460938 197.328125 279.207031 197.226562 C 278.75 197.058594 278.308594 196.871094 277.878906 196.664062 C 276.382812 195.953125 275.035156 195.035156 273.902344 193.855469 C 273.761719 194.015625 273.621094 194.179688 273.476562 194.34375 C 271.328125 196.824219 268.894531 199.640625 268.015625 202.96875 C 267.453125 205.097656 267.539062 207.386719 267.617188 209.601562 L 268.746094 239.554688 L 268.746094 239.582031 C 268.746094 239.671875 268.730469 239.757812 268.699219 239.84375 C 268.695312 239.851562 268.691406 239.863281 268.691406 239.871094 C 267.992188 241.738281 266.894531 243.460938 265.84375 245.125 C 265.691406 245.363281 265.542969 245.597656 265.390625 245.832031 C 265.023438 246.425781 264.703125 246.960938 264.546875 247.554688 C 264.148438 249.089844 264.910156 250.730469 265.621094 251.839844 C 267.453125 254.699219 270.164062 256.796875 273.949219 258.238281 C 273.945312 255.804688 273.96875 253.375 273.957031 250.957031 C 273.925781 245.574219 273.925781 240.191406 273.910156 234.8125 C 273.898438 229.429688 273.882812 224.050781 273.886719 218.664062 C 273.886719 216.074219 273.871094 213.480469 273.886719 210.886719 C 273.894531 209.429688 274.785156 202.492188 271.929688 203.203125 C 271.546875 203.296875 270.972656 202.847656 271.488281 202.578125 C 272.890625 201.84375 274.457031 202.550781 275.109375 203.953125 C 275.585938 204.984375 275.523438 206.164062 275.539062 207.269531 C 275.5625 208.660156 275.582031 210.054688 275.585938 211.445312 C 275.617188 217.625 275.621094 223.804688 275.617188 229.988281 C 275.613281 236.171875 275.613281 242.351562 275.609375 248.535156 C 275.605469 251.949219 275.671875 255.390625 275.660156 258.824219 C 277.269531 259.320312 279.050781 259.714844 281.007812 260.015625 C 291.699219 261.65625 302.691406 260.703125 313.164062 257.382812 C 314.089844 253.59375 314.578125 249.730469 311.417969 246.6875 C 310.082031 245.40625 309.09375 244.074219 309.59375 242.152344 C 310.058594 240.359375 311.394531 238.941406 312.324219 237.382812 C 312.855469 236.492188 313.34375 235.484375 313.328125 234.417969 C 313.308594 232.863281 312.351562 231.347656 311.710938 229.976562 C 310.375 227.105469 309.039062 224.226562 307.699219 221.351562 C 306.414062 218.585938 305.203125 215.765625 303.8125 213.054688 C 302.800781 211.078125 301.113281 208.40625 298.585938 208.429688 C 298.257812 208.429688 298.058594 208.011719 298.449219 207.914062 C 303.011719 206.726562 305.234375 212.261719 306.785156 215.515625 C 309.136719 220.433594 311.457031 225.359375 313.734375 230.308594 C 314.511719 232.011719 315.308594 233.6875 314.8125 235.589844 C 314.410156 237.128906 313.410156 238.441406 312.542969 239.742188 C 311.5 241.304688 310.433594 243.054688 311.777344 244.777344 C 313.015625 246.367188 314.441406 247.308594 315.113281 249.316406 C 315.871094 251.589844 315.742188 254.226562 315.175781 256.714844 C 323.539062 253.804688 331.53125 249.378906 338.730469 243.5625 C 338.988281 241.902344 338.859375 240.039062 338.355469 238.148438 " fill-opacity="1" fill-rule="nonzero"/><g clip-path="url(#dcd7fd152e)"><path fill="#0f0e0c" d="M 278.113281 149.425781 C 277.523438 149.425781 277.035156 148.9375 277.035156 148.347656 L 277.035156 143.425781 C 277.035156 142.832031 277.523438 142.351562 278.113281 142.351562 L 278.148438 142.351562 C 278.746094 142.351562 279.226562 142.832031 279.226562 143.425781 L 279.226562 148.347656 C 279.226562 148.9375 278.746094 149.425781 278.148438 149.425781 Z M 280.445312 159.730469 C 278.585938 162.070312 275.203125 163.308594 272.257812 163.097656 C 272.074219 163.082031 271.824219 163.007812 271.746094 162.824219 C 271.722656 162.765625 271.699219 162.703125 271.671875 162.640625 C 271.40625 161.988281 273.660156 161.75 273.871094 161.691406 C 275.910156 161.152344 277.644531 160.09375 279.433594 159.027344 C 279.929688 158.734375 280.988281 159.046875 280.445312 159.730469 Z M 285.390625 142.785156 C 283.257812 142.308594 281.265625 141.3125 279.121094 140.820312 C 276.847656 140.296875 274.550781 140.191406 272.226562 140.226562 C 271.390625 140.238281 271.425781 139.179688 272.183594 139.058594 C 274.675781 138.648438 277.230469 138.746094 279.707031 139.246094 C 281.910156 139.691406 284.453125 140.390625 286.066406 142.039062 C 286.496094 142.480469 285.785156 142.871094 285.390625 142.785156 Z M 292.757812 148.734375 C 292.628906 146.648438 294.917969 144.121094 296.710938 143.378906 C 297.023438 143.25 297.429688 143.570312 297.160156 143.875 C 296.09375 145.074219 294.945312 146.160156 294.46875 147.757812 C 294.183594 148.710938 294.566406 148.308594 295.21875 148.210938 C 295.558594 148.160156 295.878906 148.199219 296.195312 148.328125 C 298.386719 149.214844 297.070312 151.882812 295.660156 152.769531 C 295.125 153.109375 294.183594 152.777344 294.644531 152.066406 C 294.894531 151.683594 296.582031 149.703125 295.273438 149.585938 C 294.9375 149.550781 294.441406 149.964844 294.042969 149.957031 C 293.3125 149.949219 292.804688 149.457031 292.757812 148.734375 Z M 321.878906 240.742188 C 322.097656 241.628906 321.398438 242.855469 321.066406 243.640625 C 320.632812 244.675781 320.171875 245.851562 319.40625 246.6875 C 318.953125 247.183594 317.800781 247.0625 318.046875 246.210938 C 318.28125 245.40625 318.816406 244.667969 319.195312 243.910156 C 319.453125 243.390625 320.339844 242.074219 320.265625 241.5 C 320.117188 240.339844 318.996094 241.109375 318.34375 241.132812 C 317.84375 241.144531 317.539062 241.035156 317.160156 240.726562 C 316.785156 240.417969 317.429688 240.074219 317.710938 240.15625 C 318.863281 240.507812 321.351562 238.617188 321.878906 240.742188 Z M 338.730469 243.5625 C 331.527344 249.378906 323.539062 253.804688 315.175781 256.714844 C 315.742188 254.226562 315.871094 251.589844 315.113281 249.316406 C 314.441406 247.308594 313.015625 246.367188 311.773438 244.777344 C 310.433594 243.054688 311.5 241.304688 312.542969 239.742188 C 313.410156 238.441406 314.410156 237.128906 314.8125 235.589844 C 315.308594 233.6875 314.511719 232.011719 313.734375 230.308594 C 311.457031 225.359375 309.136719 220.433594 306.785156 215.515625 C 305.230469 212.261719 303.011719 206.726562 298.449219 207.914062 C 298.058594 208.011719 298.257812 208.429688 298.585938 208.429688 C 301.113281 208.40625 302.800781 211.078125 303.8125 213.054688 C 305.203125 215.765625 306.414062 218.585938 307.699219 221.351562 C 309.039062 224.226562 310.375 227.105469 311.710938 229.976562 C 312.351562 231.347656 313.308594 232.863281 313.328125 234.417969 C 313.34375 235.484375 312.855469 236.492188 312.320312 237.382812 C 311.394531 238.941406 310.054688 240.359375 309.59375 242.152344 C 309.09375 244.074219 310.082031 245.40625 311.417969 246.6875 C 314.578125 249.730469 314.089844 253.59375 313.164062 257.382812 C 302.691406 260.703125 291.699219 261.65625 281.007812 260.015625 C 279.050781 259.714844 277.269531 259.320312 275.660156 258.824219 C 275.671875 255.390625 275.605469 251.949219 275.609375 248.535156 C 275.613281 242.351562 275.613281 236.171875 275.617188 229.988281 C 275.621094 223.804688 275.617188 217.625 275.585938 211.445312 C 275.582031 210.054688 275.5625 208.660156 275.539062 207.269531 C 275.523438 206.164062 275.585938 204.984375 275.109375 203.953125 C 274.457031 202.550781 272.890625 201.84375 271.488281 202.578125 C 270.972656 202.847656 271.546875 203.296875 271.929688 203.203125 C 274.785156 202.492188 273.894531 209.429688 273.886719 210.886719 C 273.871094 213.480469 273.886719 216.074219 273.886719 218.664062 C 273.882812 224.050781 273.898438 229.429688 273.910156 234.8125 C 273.925781 240.191406 273.925781 245.574219 273.957031 250.957031 C 273.96875 253.375 273.945312 255.804688 273.949219 258.238281 C 270.164062 256.796875 267.453125 254.699219 265.621094 251.839844 C 264.910156 250.730469 264.148438 249.089844 264.546875 247.554688 C 264.703125 246.960938 265.023438 246.425781 265.390625 245.832031 C 265.542969 245.597656 265.691406 245.363281 265.84375 245.125 C 266.894531 243.460938 267.992188 241.738281 268.691406 239.871094 C 268.691406 239.863281 268.695312 239.851562 268.699219 239.84375 C 268.730469 239.757812 268.746094 239.671875 268.746094 239.582031 L 268.746094 239.554688 L 267.617188 209.601562 C 267.539062 207.386719 267.453125 205.097656 268.015625 202.96875 C 268.894531 199.640625 271.328125 196.824219 273.476562 194.34375 C 273.621094 194.179688 273.761719 194.015625 273.902344 193.855469 C 275.035156 195.035156 276.382812 195.953125 277.878906 196.664062 C 278.308594 196.871094 278.75 197.058594 279.207031 197.226562 C 279.460938 197.328125 279.722656 197.421875 279.988281 197.507812 C 282.535156 198.355469 285.359375 199.050781 288.109375 198.96875 C 288.171875 198.96875 288.234375 198.96875 288.300781 198.964844 C 288.300781 198.976562 288.296875 198.988281 288.292969 199 C 288.765625 198.957031 289.234375 198.917969 289.703125 198.871094 C 289.699219 198.859375 289.695312 198.84375 289.691406 198.832031 C 289.691406 198.832031 289.699219 198.832031 289.703125 198.828125 C 290.464844 198.714844 291.214844 198.53125 291.945312 198.265625 C 295.636719 196.90625 298.855469 194.078125 301.667969 191.402344 C 304.328125 188.871094 306.683594 186.0625 308.726562 183.027344 L 310.003906 183.484375 C 311.238281 183.921875 312.511719 184.375 313.519531 185.164062 C 314.734375 186.109375 315.542969 187.527344 316.332031 189.019531 C 319.882812 195.710938 322.832031 202.859375 325.683594 209.769531 C 328.398438 216.363281 331.210938 223.175781 334.554688 229.625 C 334.738281 229.992188 334.929688 230.351562 335.117188 230.714844 C 336.367188 233.101562 337.664062 235.5625 338.355469 238.148438 C 338.859375 240.039062 338.988281 241.902344 338.730469 243.5625 Z M 279.660156 187.203125 C 279.742188 187.570312 279.855469 187.925781 280.007812 188.265625 C 280.203125 188.699219 281.0625 188.550781 281.113281 188.085938 C 281.203125 187.304688 281.132812 186.476562 281 185.648438 C 280.929688 185.214844 280.84375 184.777344 280.757812 184.34375 C 280.640625 183.753906 280.515625 183.179688 280.429688 182.621094 C 280.183594 181.09375 281.238281 180.488281 282.417969 179.824219 C 282.535156 179.761719 282.648438 179.695312 282.757812 179.632812 C 282.800781 180.246094 282.839844 180.855469 282.875 181.464844 C 282.875 181.480469 282.878906 181.496094 282.878906 181.515625 C 282.984375 183.292969 283.074219 185.128906 283.148438 186.976562 C 283.011719 186.984375 282.878906 186.996094 282.742188 187.011719 C 282.359375 187.050781 282.085938 187.542969 282.476562 187.78125 C 282.777344 187.957031 283.085938 188.097656 283.40625 188.207031 C 283.632812 188.28125 283.871094 188.347656 284.113281 188.394531 C 287.308594 189 291.289062 186.847656 293.671875 185.246094 C 295.988281 183.683594 298.28125 181.949219 300.027344 179.773438 C 300.347656 179.382812 300.644531 178.980469 300.917969 178.554688 C 301.226562 178.09375 301.503906 177.613281 301.757812 177.109375 C 302.117188 176.394531 301.007812 176.109375 300.492188 176.476562 C 300.34375 175.296875 300.203125 174.125 300.058594 172.949219 C 300.640625 173.0625 301.21875 173.21875 301.65625 173.59375 C 302.496094 174.308594 302.492188 175.71875 302.632812 176.730469 C 302.753906 177.609375 302.867188 178.496094 302.96875 179.382812 C 303.03125 179.9375 303.09375 180.488281 303.144531 181.042969 C 303.230469 181.828125 303.304688 182.609375 303.375 183.398438 C 303.453125 184.238281 305.015625 183.882812 304.953125 183.03125 C 304.945312 182.835938 304.929688 182.636719 304.902344 182.441406 C 304.882812 182.171875 304.859375 181.90625 304.832031 181.640625 L 307.136719 182.464844 C 303.375 187.785156 298.519531 193.074219 292.816406 196.144531 C 291.632812 196.78125 290.410156 197.136719 289.167969 197.292969 C 289.140625 197.273438 289.105469 197.257812 289.070312 197.25 C 288.683594 196.414062 288.230469 195.597656 287.890625 194.757812 C 287.402344 193.550781 287.085938 192.222656 286.453125 191.082031 C 285.707031 189.730469 283.671875 188.746094 282.496094 190.167969 C 282.195312 190.535156 282.722656 190.773438 283.035156 190.613281 C 285.007812 189.578125 285.769531 193.738281 286.203125 194.859375 C 286.519531 195.679688 286.832031 196.558594 287.222656 197.390625 C 285.519531 197.351562 283.789062 197.023438 282.070312 196.628906 C 281.179688 196.421875 280.273438 196.175781 279.394531 195.867188 C 279.40625 195.125 279.335938 194.363281 279.375 193.632812 C 279.421875 192.644531 279.539062 191.660156 279.671875 190.679688 C 279.984375 190.613281 280.261719 190.511719 280.554688 190.3125 C 280.648438 190.246094 280.691406 190.132812 280.582031 190.050781 C 280.117188 189.707031 279.648438 189.667969 279.082031 189.605469 C 278.71875 189.558594 278.355469 189.851562 278.285156 190.191406 C 277.980469 191.570312 277.597656 193.476562 277.667969 195.175781 C 276.519531 194.640625 275.449219 193.980469 274.511719 193.148438 C 276.226562 191.167969 277.941406 189.183594 279.660156 187.203125 Z M 282.683594 168.488281 C 282.667969 168.488281 282.652344 168.484375 282.640625 168.484375 C 282.605469 168.476562 282.574219 168.476562 282.539062 168.476562 C 282.523438 168.476562 282.507812 168.476562 282.492188 168.476562 C 282.460938 168.480469 282.425781 168.484375 282.394531 168.492188 C 282.386719 168.492188 282.375 168.492188 282.367188 168.496094 C 282.355469 168.5 282.34375 168.503906 282.332031 168.507812 C 282.3125 168.515625 282.285156 168.523438 282.257812 168.53125 C 282.230469 168.542969 282.207031 168.554688 282.183594 168.566406 C 282.175781 168.574219 282.164062 168.578125 282.15625 168.582031 C 279.132812 170.429688 275.84375 171.691406 272.378906 172.328125 C 271.785156 172.433594 271.160156 172.53125 270.625 172.375 C 269.308594 172 268.738281 170.21875 268.386719 168.707031 L 266.601562 161.019531 C 266.375 160.054688 266.117188 158.960938 265.421875 158.0625 C 264.761719 157.207031 263.851562 156.710938 262.972656 156.226562 C 262.386719 155.90625 261.824219 155.597656 261.382812 155.207031 L 267.582031 149.082031 C 268.445312 148.226562 269.234375 147.363281 269.378906 146.167969 C 269.582031 144.527344 268.476562 143.335938 267.503906 142.285156 C 266.804688 141.53125 266.144531 140.816406 265.933594 140.007812 C 265.722656 139.195312 265.972656 138.25 266.195312 137.414062 L 266.511719 136.207031 L 268.347656 129.25 C 268.417969 129.289062 268.488281 129.328125 268.550781 129.371094 C 269.523438 129.988281 270.464844 130.566406 271.582031 130.894531 C 273.8125 131.550781 276.171875 131.3125 278.421875 130.890625 C 281.871094 130.242188 285.613281 129.171875 288.851562 127.429688 C 288.976562 130.792969 289.441406 134.136719 290.15625 137.421875 C 290.460938 138.832031 291.652344 145.671875 294.277344 144.054688 C 294.503906 143.914062 294.667969 143.492188 294.480469 143.261719 C 294.460938 143.242188 294.445312 143.21875 294.429688 143.203125 C 294.390625 143.15625 294.351562 143.117188 294.3125 143.085938 C 294.328125 143.074219 294.339844 143.070312 294.355469 143.0625 C 294.304688 142.992188 294.253906 142.925781 294.207031 142.859375 C 294.210938 142.855469 294.214844 142.851562 294.21875 142.847656 C 295.242188 142 296.488281 141.273438 297.886719 141.621094 C 299.792969 142.097656 300.667969 144.410156 300.90625 146.152344 C 301.277344 148.875 299.851562 153.511719 296.855469 154.359375 C 296.511719 154.457031 296.152344 154.503906 295.769531 154.492188 C 295.566406 154.488281 295.355469 154.464844 295.140625 154.425781 C 294.351562 154.28125 293.664062 155.300781 294.617188 155.59375 C 294.945312 155.699219 295.269531 155.765625 295.578125 155.800781 C 295.179688 159.007812 295.050781 164.085938 297.609375 165.316406 C 297.710938 166.121094 297.804688 166.917969 297.902344 167.71875 L 297.902344 167.730469 C 297.90625 167.738281 297.90625 167.746094 297.90625 167.753906 C 298.320312 171.066406 298.71875 174.382812 299.125 177.691406 C 299.144531 177.851562 299.164062 178.011719 299.195312 178.167969 C 297.433594 180.34375 295.257812 182.164062 292.953125 183.769531 C 291.488281 184.796875 289.917969 185.703125 288.226562 186.300781 C 287.023438 186.722656 285.847656 186.8125 284.644531 186.882812 C 284.574219 185.03125 284.484375 183.203125 284.375 181.425781 C 284.320312 180.519531 284.261719 179.609375 284.195312 178.695312 C 284.183594 178.527344 284.171875 178.355469 284.15625 178.183594 C 283.949219 175.394531 283.699219 172.578125 283.394531 169.789062 C 283.371094 169.570312 283.339844 169.347656 283.289062 169.121094 C 283.289062 169.113281 283.285156 169.101562 283.285156 169.09375 C 283.277344 169.078125 283.277344 169.0625 283.277344 169.050781 C 283.273438 169.035156 283.265625 169.027344 283.261719 169.019531 C 283.253906 168.988281 283.246094 168.960938 283.234375 168.933594 C 283.226562 168.910156 283.214844 168.890625 283.203125 168.871094 C 283.199219 168.859375 283.195312 168.847656 283.1875 168.832031 C 283.179688 168.820312 283.171875 168.816406 283.164062 168.804688 C 283.148438 168.785156 283.136719 168.765625 283.125 168.746094 C 283.105469 168.726562 283.085938 168.707031 283.070312 168.691406 C 283.054688 168.675781 283.039062 168.664062 283.023438 168.648438 C 283 168.628906 282.976562 168.613281 282.953125 168.59375 C 282.9375 168.585938 282.921875 168.578125 282.910156 168.570312 C 282.882812 168.554688 282.855469 168.539062 282.820312 168.527344 C 282.808594 168.523438 282.792969 168.519531 282.78125 168.515625 C 282.75 168.503906 282.71875 168.496094 282.683594 168.488281 Z M 339.804688 237.761719 C 339.066406 235.015625 337.738281 232.472656 336.449219 230.019531 C 336.261719 229.660156 336.074219 229.296875 335.882812 228.933594 C 332.574219 222.546875 329.773438 215.757812 327.066406 209.199219 C 324.203125 202.253906 321.246094 195.074219 317.65625 188.316406 C 316.789062 186.679688 315.890625 185.113281 314.441406 183.984375 C 313.246094 183.042969 311.789062 182.527344 310.507812 182.070312 L 309.570312 181.738281 L 308.019531 181.183594 L 304.664062 179.988281 C 304.605469 179.429688 304.539062 178.871094 304.464844 178.308594 C 304.277344 176.917969 304.246094 175.277344 303.683594 173.976562 C 303.050781 172.507812 301.449219 171.988281 299.9375 171.949219 C 299.808594 170.898438 299.679688 169.851562 299.546875 168.796875 C 299.875 168.898438 300.203125 168.980469 300.535156 169.042969 C 300.667969 169.070312 300.917969 169.113281 301.210938 169.113281 C 301.605469 169.113281 302.082031 169.027344 302.476562 168.703125 C 302.820312 168.417969 303.042969 168.003906 303.160156 167.425781 C 303.367188 166.378906 303.167969 165.386719 302.976562 164.417969 C 302.863281 163.847656 302.753906 163.300781 302.734375 162.765625 C 302.6875 161.429688 303.1875 160.101562 303.757812 158.75 C 304.882812 156.0625 306.148438 153.410156 307.519531 150.839844 C 308.480469 152.003906 309.800781 152.703125 311.132812 152.703125 C 311.164062 152.703125 311.195312 152.703125 311.226562 152.703125 C 311.457031 152.699219 311.671875 152.589844 311.808594 152.402344 C 311.949219 152.222656 311.992188 151.984375 311.9375 151.761719 C 311.476562 150.023438 311.609375 148.15625 312.300781 146.496094 C 312.585938 145.820312 312.957031 145.179688 313.351562 144.503906 C 313.761719 143.796875 314.1875 143.0625 314.511719 142.269531 C 315.507812 139.832031 315.5 136.796875 314.484375 133.730469 C 310.410156 121.425781 300.445312 113.640625 287.824219 112.914062 C 283.953125 112.6875 279.390625 113.574219 275.304688 115.34375 C 270.738281 117.316406 267.257812 120.214844 265.5 123.503906 C 263.386719 127.445312 264.054688 132.019531 265.015625 136 L 264.742188 137.03125 C 264.492188 137.996094 264.171875 139.195312 264.480469 140.382812 C 264.789062 141.5625 265.609375 142.445312 266.402344 143.304688 C 267.261719 144.234375 268.007812 145.035156 267.890625 145.988281 C 267.800781 146.703125 267.21875 147.328125 266.527344 148.015625 L 259.820312 154.648438 C 259.550781 154.90625 259.519531 155.324219 259.742188 155.621094 C 260.402344 156.527344 261.339844 157.042969 262.25 157.539062 C 263.027344 157.96875 263.769531 158.375 264.234375 158.980469 C 264.730469 159.621094 264.9375 160.503906 265.136719 161.359375 L 266.925781 169.046875 C 267.367188 170.957031 268.140625 173.230469 270.210938 173.820312 C 270.5625 173.921875 270.914062 173.957031 271.257812 173.957031 C 271.746094 173.957031 272.21875 173.882812 272.652344 173.800781 C 275.925781 173.199219 279.050781 172.066406 281.953125 170.4375 C 282.242188 173.171875 282.492188 175.921875 282.691406 178.65625 C 281.808594 179.007812 280.941406 179.441406 280.113281 179.863281 C 279.523438 180.160156 279.007812 180.496094 278.871094 181.199219 C 278.683594 182.128906 279.097656 183.382812 279.230469 184.300781 C 279.277344 184.617188 279.316406 184.9375 279.351562 185.261719 C 277.386719 187.53125 275.425781 189.796875 273.460938 192.070312 C 273.28125 192.277344 273.101562 192.484375 272.925781 192.691406 C 272.730469 192.914062 272.535156 193.140625 272.34375 193.359375 C 270.089844 195.964844 267.53125 198.917969 266.566406 202.589844 C 265.945312 204.933594 266.035156 207.335938 266.121094 209.660156 L 267.238281 239.453125 C 266.597656 241.132812 265.570312 242.757812 264.574219 244.320312 C 264.425781 244.558594 264.273438 244.796875 264.125 245.035156 C 263.699219 245.710938 263.304688 246.378906 263.09375 247.175781 C 262.558594 249.238281 263.484375 251.289062 264.355469 252.648438 C 266.777344 256.421875 270.363281 258.574219 273.953125 259.855469 C 274.519531 260.058594 275.089844 260.238281 275.648438 260.402344 C 277.460938 260.925781 279.21875 261.257812 280.78125 261.5 C 284.28125 262.039062 287.820312 262.300781 291.359375 262.300781 C 298.542969 262.300781 305.75 261.210938 312.730469 259.089844 C 313.390625 258.886719 314.054688 258.675781 314.707031 258.457031 C 323.667969 255.472656 332.230469 250.789062 339.902344 244.542969 L 339.90625 244.535156 C 339.941406 244.507812 339.972656 244.480469 339.996094 244.445312 C 340.027344 244.414062 340.054688 244.378906 340.070312 244.339844 C 340.09375 244.304688 340.113281 244.261719 340.128906 244.226562 C 340.144531 244.183594 340.15625 244.140625 340.164062 244.097656 C 340.167969 244.074219 340.171875 244.054688 340.171875 244.035156 C 340.515625 242.109375 340.386719 239.941406 339.804688 237.761719 " fill-opacity="1" fill-rule="nonzero"/></g></svg>