<svg xmlns="http://www.w3.org/2000/svg" xmlns:xlink="http://www.w3.org/1999/xlink" width="800" zoomAndPan="magnify" viewBox="0 0 600 374.999991" height="500" preserveAspectRatio="xMidYMid meet" version="1.0"><defs><clipPath id="8d586e7a15"><path d="M 256.558594 112.523438 L 343.558594 112.523438 L 343.558594 262.472656 L 256.558594 262.472656 Z M 256.558594 112.523438 " clip-rule="nonzero"/></clipPath><clipPath id="1be123f772"><path d="M 256.558594 112.523438 L 343.558594 112.523438 L 343.558594 262.472656 L 256.558594 262.472656 Z M 256.558594 112.523438 " clip-rule="nonzero"/></clipPath></defs><rect x="-60" width="720" fill="#ffffff" y="-37.499999" height="449.999989" fill-opacity="1"/><rect x="-60" width="720" fill="#9aedb6" y="-37.499999" height="449.999989" fill-opacity="1"/><g clip-path="url(#8d586e7a15)"><path fill="#0f0e0c" d="M 343.558594 249.703125 C 341.28125 237.382812 339.035156 225.339844 336.574219 213.460938 C 335.683594 209.164062 334.550781 204.757812 331.507812 201.875 C 331.253906 201.636719 330.992188 201.410156 330.714844 201.195312 C 330.707031 201.191406 330.707031 201.183594 330.699219 201.179688 C 328.089844 199.164062 324.839844 198.597656 321.691406 198.042969 C 319.332031 197.628906 316.890625 197.199219 314.796875 196.15625 C 314.667969 196.089844 314.539062 196.023438 314.410156 195.957031 C 313.988281 195.722656 313.5625 195.457031 313.140625 195.160156 C 312.265625 194.550781 311.390625 193.789062 310.464844 192.855469 C 310.15625 188.460938 309.957031 184.003906 309.867188 179.597656 C 309.835938 177.785156 309.835938 175.730469 310.269531 173.855469 L 310.339844 173.855469 C 312.285156 173.84375 314.171875 172.582031 314.914062 170.792969 C 314.980469 170.636719 315.042969 170.464844 315.113281 170.292969 C 315.394531 169.554688 315.617188 169.027344 315.953125 168.988281 C 316.144531 168.964844 316.417969 169.113281 316.707031 169.269531 C 316.964844 169.410156 317.25 169.5625 317.578125 169.65625 C 319.207031 170.132812 320.734375 168.894531 321.347656 167.488281 C 321.703125 166.667969 321.824219 165.816406 321.949219 164.992188 C 322.007812 164.5625 322.070312 164.164062 322.160156 163.769531 C 322.300781 163.128906 322.511719 162.714844 322.800781 162.503906 C 323.34375 162.101562 324.242188 162.351562 324.851562 162.683594 C 325.15625 162.855469 325.449219 163.058594 325.761719 163.273438 C 326.308594 163.644531 326.867188 164.035156 327.539062 164.28125 C 329.195312 164.898438 331.25 164.484375 332.761719 163.222656 C 333.992188 162.199219 334.898438 160.65625 335.390625 158.761719 C 336.429688 154.761719 335.355469 150.367188 332.59375 147.289062 C 332.460938 147.144531 332.332031 147.003906 332.203125 146.867188 C 331.8125 146.457031 331.449219 146.066406 331.199219 145.632812 C 330.5 144.445312 330.644531 142.945312 330.789062 141.359375 C 330.824219 140.984375 330.859375 140.613281 330.878906 140.246094 C 331.019531 138.058594 330.355469 135.246094 328.042969 134.511719 C 327.46875 134.332031 326.90625 134.316406 326.359375 134.300781 C 325.8125 134.285156 325.292969 134.273438 324.894531 134.074219 C 324.1875 133.71875 323.894531 132.777344 323.863281 132.015625 C 323.835938 131.453125 323.90625 130.871094 323.980469 130.257812 C 324.035156 129.816406 324.09375 129.355469 324.117188 128.886719 C 324.234375 125.878906 322.683594 122.867188 320.164062 121.21875 C 318.632812 120.214844 316.730469 119.71875 314.847656 119.820312 C 314.484375 118.289062 312.902344 117.117188 311.359375 116.828125 C 310.269531 116.628906 309.191406 116.71875 308.152344 116.804688 C 307.484375 116.863281 306.859375 116.914062 306.230469 116.898438 C 304 116.816406 301.84375 115.773438 299.765625 114.765625 C 299.355469 114.570312 298.953125 114.371094 298.542969 114.179688 C 296.261719 113.109375 292.875 111.820312 289.753906 112.976562 C 287.851562 113.679688 286.441406 115.136719 285.085938 116.542969 C 283.714844 117.960938 282.421875 119.300781 280.722656 119.8125 C 279.472656 120.1875 278.128906 120.074219 276.703125 119.953125 C 275.296875 119.835938 273.84375 119.714844 272.40625 120.074219 C 268.761719 120.984375 266.765625 124.601562 265.902344 126.671875 C 264.824219 129.261719 264.226562 132.105469 264.167969 134.902344 C 264.148438 135.714844 264.171875 136.558594 264.1875 137.371094 C 264.261719 140.515625 264.335938 143.765625 262.347656 145.847656 C 262.15625 146.050781 261.941406 146.253906 261.726562 146.464844 C 260.609375 147.539062 259.082031 149.015625 259.882812 150.761719 C 260.667969 152.484375 262.929688 152.496094 264.699219 151.777344 L 264.953125 151.671875 C 266.113281 151.191406 267.316406 150.695312 268.128906 151.210938 C 268.746094 151.597656 268.949219 152.421875 269.183594 153.378906 C 269.300781 153.859375 269.421875 154.355469 269.613281 154.828125 C 270.160156 156.210938 271.417969 157.285156 272.980469 157.75 C 272.886719 159.480469 272.917969 160.921875 273.082031 162.25 C 273.824219 168.285156 277.542969 173.597656 281.078125 177.996094 C 282.257812 179.464844 283.65625 181.089844 285.453125 182.066406 C 285.53125 182.847656 285.515625 183.652344 285.496094 184.5 L 285.492188 184.738281 C 285.453125 186.71875 285.464844 188.703125 285.535156 190.648438 C 283.414062 194.878906 279.472656 198.058594 274.945312 199.171875 C 274.675781 199.238281 274.398438 199.296875 274.117188 199.355469 C 273.683594 199.441406 273.246094 199.519531 272.816406 199.59375 C 272.8125 199.597656 272.808594 199.597656 272.804688 199.597656 C 271.601562 199.8125 270.363281 200.03125 269.164062 200.464844 C 265.125 201.945312 261.878906 205.917969 260.484375 211.09375 C 259.457031 214.910156 259.433594 218.90625 259.410156 222.769531 C 259.402344 223.425781 259.398438 224.082031 259.390625 224.734375 C 259.257812 234.503906 257.980469 244.324219 256.566406 254.367188 C 256.519531 254.707031 256.710938 255.039062 257.03125 255.167969 C 260.894531 256.707031 264.855469 258.007812 268.878906 259.066406 C 269.296875 259.175781 269.714844 259.28125 270.132812 259.386719 C 278.324219 261.433594 286.757812 262.472656 295.191406 262.472656 C 298.011719 262.472656 300.839844 262.355469 303.648438 262.121094 C 309.707031 261.613281 315.761719 260.539062 321.6875 258.941406 C 322.261719 258.785156 322.835938 258.625 323.410156 258.460938 C 330.25 256.488281 336.90625 253.816406 343.167969 250.5 C 343.460938 250.347656 343.617188 250.023438 343.558594 249.703125 " fill-opacity="1" fill-rule="nonzero"/></g><path fill="#ffffff" d="M 276.742188 145.964844 C 276.726562 146.535156 277.640625 146.558594 277.757812 146.039062 C 278.136719 144.339844 279.457031 142.644531 281.375 142.761719 C 283.144531 142.875 284.09375 144.246094 285.054688 145.539062 C 285.289062 145.855469 286.085938 145.898438 286.117188 145.375 C 286.265625 142.796875 283.398438 141.222656 281.089844 141.472656 C 278.820312 141.71875 276.804688 143.644531 276.742188 145.964844 Z M 288 163.523438 C 286.425781 162.84375 284.636719 162.339844 282.929688 162.167969 C 282.429688 162.117188 281.875 162.820312 282.46875 163.117188 C 283.9375 163.851562 285.71875 164.3125 287.335938 164.554688 C 287.878906 164.636719 288.8125 163.871094 288 163.523438 Z M 284.207031 167.742188 C 283.996094 167.511719 283.410156 167.679688 283.558594 168.039062 C 285.710938 173.351562 294.855469 172.835938 296.039062 167.066406 C 296.152344 166.492188 295.277344 166.558594 295.054688 166.886719 C 293.726562 168.839844 291.945312 170.484375 289.429688 170.472656 C 287.289062 170.460938 285.585938 169.265625 284.207031 167.742188 Z M 295.328125 145.34375 C 296.3125 143.5 298.070312 141.917969 300.332031 142.429688 C 302.320312 142.875 303.089844 144.5 304.113281 146.035156 C 304.386719 146.445312 305.265625 146.378906 305.324219 145.816406 C 305.617188 142.984375 302.386719 140.960938 299.847656 140.984375 C 297.378906 141.003906 294.808594 142.6875 294.269531 145.164062 C 294.140625 145.75 295.113281 145.75 295.328125 145.34375 Z M 301.289062 153 C 301.289062 151.011719 300.605469 149.398438 299.757812 149.398438 C 298.910156 149.398438 298.222656 151.011719 298.222656 153 C 298.222656 154.988281 298.910156 156.601562 299.757812 156.601562 C 300.605469 156.601562 301.289062 154.988281 301.289062 153 Z M 293.292969 173.898438 C 292.082031 174.039062 290.984375 174.453125 289.746094 174.425781 C 289.027344 174.414062 288.785156 175.320312 289.589844 175.421875 C 290.925781 175.582031 292.582031 175.539062 293.675781 174.65625 C 294.101562 174.3125 293.773438 173.84375 293.292969 173.898438 Z M 282.152344 153 C 282.152344 151.011719 281.464844 149.398438 280.617188 149.398438 C 279.773438 149.398438 279.085938 151.011719 279.085938 153 C 279.085938 154.988281 279.773438 156.601562 280.617188 156.601562 C 281.464844 156.601562 282.152344 154.988281 282.152344 153 Z M 274.570312 162.070312 C 274.402344 160.679688 274.386719 159.136719 274.515625 157.214844 C 274.515625 157.195312 274.519531 157.179688 274.519531 157.160156 C 274.589844 156.148438 274.699219 155.105469 274.800781 154.101562 C 275.144531 150.707031 275.496094 147.214844 274.621094 143.871094 C 275.226562 143.726562 275.808594 143.507812 276.347656 143.234375 C 280.21875 141.242188 281.515625 136.695312 284.425781 133.742188 C 286.136719 132.003906 288.375 130.824219 290.796875 131.835938 C 292.667969 132.617188 294.179688 134.097656 296.25 134.410156 C 298.679688 134.785156 300.625 133.75 302.1875 132.183594 C 303.074219 134.707031 305.554688 136.921875 307.152344 138.9375 C 310.714844 143.445312 308.617188 148.730469 307.871094 153.789062 C 307.652344 155.277344 306.964844 158.550781 308.851562 159.308594 C 310.386719 159.929688 311.746094 158.414062 312.464844 157.273438 C 313.351562 155.851562 314.066406 154.359375 314.621094 152.8125 C 315.140625 153.695312 316.410156 153.902344 316.375 155.203125 C 316.328125 157.039062 314.308594 157.464844 313.234375 158.558594 C 312.925781 158.875 313.328125 159.199219 313.660156 159.164062 C 315.707031 158.941406 317.980469 157.042969 317.824219 154.84375 C 317.761719 153.960938 317.378906 153.414062 316.722656 152.863281 C 315.898438 152.179688 315.25 151.339844 316.429688 150.480469 C 317.003906 150.058594 317.898438 149.929688 318.574219 149.695312 C 318.792969 149.621094 318.800781 149.324219 318.542969 149.300781 C 317.578125 149.203125 316.304688 149.414062 315.421875 150.011719 C 315.644531 149 315.800781 147.972656 315.890625 146.9375 C 317.652344 146.0625 319.675781 146.457031 321.0625 148.28125 C 322.726562 150.464844 322.464844 153.46875 321.40625 155.851562 C 319.492188 160.195312 315.421875 161.992188 310.988281 162.660156 C 310.4375 162.742188 310.152344 163.597656 310.84375 163.710938 C 310.96875 163.730469 311.089844 163.746094 311.214844 163.761719 C 309.609375 165.507812 308.53125 168.070312 308.394531 170.25 C 308.339844 171.039062 308.613281 171.902344 309.074219 172.566406 C 309.042969 172.65625 309.015625 172.75 308.988281 172.84375 C 308.980469 172.847656 308.980469 172.855469 308.980469 172.863281 C 308.332031 175.089844 308.328125 177.523438 308.367188 179.625 C 308.453125 184.152344 308.667969 188.730469 308.980469 193.230469 C 308.996094 193.410156 309.070312 193.574219 309.191406 193.703125 C 310.191406 194.730469 311.140625 195.570312 312.082031 196.253906 C 310.347656 198.046875 308.59375 199.832031 306.765625 201.535156 C 303.492188 204.59375 299.851562 207.792969 295.5 209.160156 C 287.550781 211.660156 280.910156 206.027344 275.382812 200.605469 C 279.53125 199.566406 283.222656 196.941406 285.660156 193.386719 C 285.742188 194.816406 285.855469 196.257812 286 197.699219 C 285.625 199.234375 284.691406 200.453125 282.800781 200.59375 C 282.214844 200.636719 282.152344 201.492188 282.792969 201.488281 C 284.742188 201.480469 286.933594 200.0625 287.414062 198.195312 C 287.460938 198.027344 287.488281 197.859375 287.503906 197.691406 C 287.535156 197.34375 287.503906 196.988281 287.402344 196.625 C 287.230469 194.667969 287.105469 192.714844 287.039062 190.800781 L 287.039062 190.78125 C 286.96875 188.804688 286.957031 186.78125 286.992188 184.769531 L 286.996094 184.53125 C 287.011719 183.90625 287.023438 183.265625 286.996094 182.628906 C 290.691406 182.777344 294.34375 181.867188 297.675781 180.253906 C 301.09375 178.597656 304.722656 176.082031 307.035156 173.03125 C 307.277344 172.714844 306.691406 172.546875 306.484375 172.675781 C 303.464844 174.511719 300.835938 176.84375 297.664062 178.445312 C 294.242188 180.167969 290.59375 181.1875 286.738281 180.964844 C 286.683594 180.964844 286.632812 180.964844 286.585938 180.964844 C 286.550781 180.941406 286.511719 180.917969 286.472656 180.902344 C 284.777344 180.097656 283.457031 178.5625 282.25 177.0625 C 278.847656 172.824219 275.269531 167.730469 274.570312 162.070312 Z M 341.980469 249.429688 C 336.042969 252.535156 329.746094 255.054688 323.285156 256.9375 C 323.191406 256.28125 323.074219 255.632812 323.007812 255.027344 C 322.773438 252.976562 322.542969 250.921875 322.316406 248.867188 C 321.863281 244.859375 321.429688 240.847656 320.953125 236.84375 C 320.496094 232.945312 320.039062 229.046875 319.550781 225.152344 C 319.285156 223.027344 318.78125 218.929688 315.597656 219.976562 C 315.203125 220.105469 315.359375 220.621094 315.757812 220.546875 C 316.296875 220.8125 316.828125 221.078125 317.367188 221.34375 C 317.457031 221.617188 317.558594 221.898438 317.652344 222.171875 C 317.726562 222.511719 317.742188 222.863281 317.78125 223.207031 C 317.878906 224.066406 317.960938 224.925781 318.042969 225.789062 C 318.210938 227.457031 318.382812 229.125 318.558594 230.796875 C 318.917969 234.128906 319.261719 237.460938 319.640625 240.792969 C 320.003906 244.019531 320.363281 247.246094 320.726562 250.476562 C 320.914062 252.136719 321.101562 253.800781 321.285156 255.460938 C 321.355469 256.078125 321.375 256.769531 321.441406 257.453125 C 315.554688 259.050781 309.542969 260.121094 303.527344 260.625 C 292.519531 261.546875 281.335938 260.625 270.597656 257.957031 C 270.929688 256.386719 270.941406 254.671875 271.101562 253.117188 C 271.328125 250.945312 271.527344 248.769531 271.714844 246.589844 C 272.097656 242.140625 272.429688 237.691406 272.714844 233.234375 C 272.851562 231.054688 272.976562 228.878906 273.089844 226.695312 C 273.183594 224.945312 273.375 223.128906 273.082031 221.386719 C 272.835938 219.914062 272.101562 218.757812 271.015625 217.757812 C 269.855469 216.691406 268.621094 215.632812 267.402344 214.632812 C 267.269531 214.519531 266.992188 214.609375 266.996094 214.800781 C 267.011719 216.144531 268.152344 217.113281 269.0625 217.972656 C 270.304688 219.140625 271.199219 220.292969 271.394531 222.050781 C 271.621094 224.078125 271.304688 226.230469 271.191406 228.257812 C 271.074219 230.339844 270.941406 232.421875 270.804688 234.5 C 270.527344 238.660156 270.207031 242.8125 269.84375 246.96875 C 269.660156 249.042969 269.46875 251.117188 269.277344 253.191406 C 269.15625 254.554688 268.855469 256.050781 268.804688 257.492188 C 265.1875 256.527344 261.625 255.355469 258.140625 253.992188 C 259.523438 244.101562 260.757812 234.421875 260.894531 224.753906 C 260.902344 224.097656 260.90625 223.4375 260.910156 222.78125 C 260.9375 219.011719 260.960938 215.113281 261.9375 211.484375 C 263.203125 206.777344 266.101562 203.183594 269.683594 201.875 C 270.753906 201.484375 271.878906 201.285156 273.066406 201.078125 C 273.347656 201.027344 273.636719 200.972656 273.921875 200.921875 C 279.261719 207.164062 286.382812 213.058594 294.980469 210.914062 C 299.605469 209.761719 303.535156 206.636719 306.996094 203.496094 C 309.222656 201.476562 311.351562 199.332031 313.386719 197.097656 C 313.632812 197.242188 313.875 197.375 314.125 197.496094 C 316.410156 198.640625 318.964844 199.085938 321.433594 199.519531 C 324.1875 200.003906 326.796875 200.460938 328.964844 201.808594 C 323.285156 204.230469 319.003906 209.683594 317.898438 215.761719 C 317.808594 216.25 318.628906 216.257812 318.753906 215.84375 C 320.535156 209.941406 324.679688 205.355469 330.039062 202.578125 C 333.097656 205.121094 334.183594 209.324219 335.105469 213.769531 C 337.523438 225.453125 339.738281 237.308594 341.980469 249.429688 " fill-opacity="1" fill-rule="nonzero"/><g clip-path="url(#1be123f772)"><path fill="#0f0e0c" d="M 282.152344 153 C 282.152344 154.988281 281.464844 156.601562 280.617188 156.601562 C 279.773438 156.601562 279.085938 154.988281 279.085938 153 C 279.085938 151.011719 279.773438 149.398438 280.617188 149.398438 C 281.464844 149.398438 282.152344 151.011719 282.152344 153 Z M 277.757812 146.039062 C 277.640625 146.558594 276.726562 146.535156 276.742188 145.964844 C 276.804688 143.644531 278.820312 141.71875 281.089844 141.472656 C 283.398438 141.222656 286.265625 142.796875 286.117188 145.375 C 286.085938 145.898438 285.289062 145.855469 285.054688 145.539062 C 284.09375 144.246094 283.144531 142.875 281.375 142.761719 C 279.457031 142.644531 278.136719 144.339844 277.757812 146.039062 Z M 287.335938 164.554688 C 285.71875 164.3125 283.9375 163.851562 282.46875 163.117188 C 281.875 162.820312 282.429688 162.117188 282.929688 162.167969 C 284.636719 162.339844 286.425781 162.84375 288 163.523438 C 288.8125 163.871094 287.878906 164.636719 287.335938 164.554688 Z M 293.675781 174.65625 C 292.582031 175.539062 290.925781 175.582031 289.589844 175.421875 C 288.785156 175.320312 289.027344 174.414062 289.746094 174.425781 C 290.984375 174.453125 292.082031 174.039062 293.292969 173.898438 C 293.773438 173.84375 294.101562 174.3125 293.675781 174.65625 Z M 296.039062 167.066406 C 294.855469 172.835938 285.710938 173.351562 283.558594 168.039062 C 283.410156 167.679688 283.996094 167.511719 284.207031 167.742188 C 285.585938 169.265625 287.289062 170.460938 289.429688 170.472656 C 291.945312 170.484375 293.726562 168.839844 295.054688 166.886719 C 295.277344 166.558594 296.152344 166.492188 296.039062 167.066406 Z M 301.289062 153 C 301.289062 154.988281 300.605469 156.601562 299.757812 156.601562 C 298.910156 156.601562 298.222656 154.988281 298.222656 153 C 298.222656 151.011719 298.910156 149.398438 299.757812 149.398438 C 300.605469 149.398438 301.289062 151.011719 301.289062 153 Z M 305.324219 145.816406 C 305.265625 146.378906 304.386719 146.445312 304.113281 146.035156 C 303.089844 144.5 302.320312 142.875 300.332031 142.429688 C 298.070312 141.917969 296.3125 143.5 295.328125 145.34375 C 295.113281 145.75 294.140625 145.75 294.269531 145.164062 C 294.808594 142.6875 297.378906 141.003906 299.847656 140.984375 C 302.386719 140.960938 305.617188 142.984375 305.324219 145.816406 Z M 323.285156 256.9375 C 323.191406 256.28125 323.074219 255.632812 323.003906 255.027344 C 322.773438 252.976562 322.542969 250.921875 322.316406 248.867188 C 321.863281 244.859375 321.429688 240.847656 320.949219 236.84375 C 320.496094 232.945312 320.039062 229.046875 319.550781 225.152344 C 319.285156 223.027344 318.777344 218.929688 315.597656 219.976562 C 315.199219 220.105469 315.355469 220.621094 315.757812 220.546875 C 316.292969 220.8125 316.824219 221.078125 317.367188 221.34375 C 317.457031 221.617188 317.554688 221.898438 317.652344 222.171875 C 317.726562 222.511719 317.742188 222.863281 317.78125 223.207031 C 317.878906 224.066406 317.957031 224.925781 318.042969 225.789062 C 318.210938 227.457031 318.382812 229.125 318.558594 230.796875 C 318.917969 234.128906 319.261719 237.460938 319.636719 240.792969 C 320 244.019531 320.363281 247.246094 320.726562 250.476562 C 320.910156 252.136719 321.101562 253.800781 321.285156 255.460938 C 321.351562 256.078125 321.375 256.769531 321.441406 257.453125 C 315.554688 259.050781 309.542969 260.121094 303.527344 260.625 C 292.519531 261.546875 281.335938 260.625 270.59375 257.957031 C 270.929688 256.386719 270.941406 254.671875 271.101562 253.117188 C 271.328125 250.945312 271.527344 248.769531 271.714844 246.589844 C 272.097656 242.140625 272.429688 237.691406 272.710938 233.234375 C 272.847656 231.054688 272.976562 228.878906 273.089844 226.695312 C 273.183594 224.945312 273.371094 223.128906 273.082031 221.386719 C 272.835938 219.914062 272.101562 218.757812 271.015625 217.757812 C 269.855469 216.691406 268.621094 215.632812 267.402344 214.632812 C 267.269531 214.519531 266.992188 214.609375 266.996094 214.800781 C 267.011719 216.144531 268.152344 217.113281 269.0625 217.972656 C 270.300781 219.140625 271.195312 220.292969 271.394531 222.050781 C 271.621094 224.078125 271.300781 226.230469 271.1875 228.257812 C 271.070312 230.339844 270.941406 232.421875 270.804688 234.5 C 270.527344 238.660156 270.207031 242.8125 269.84375 246.96875 C 269.660156 249.042969 269.46875 251.117188 269.277344 253.191406 C 269.15625 254.554688 268.855469 256.050781 268.804688 257.492188 C 265.1875 256.527344 261.625 255.355469 258.136719 253.992188 C 259.523438 244.101562 260.757812 234.421875 260.894531 224.753906 C 260.902344 224.097656 260.90625 223.4375 260.910156 222.78125 C 260.9375 219.011719 260.960938 215.113281 261.9375 211.484375 C 263.203125 206.777344 266.097656 203.183594 269.679688 201.875 C 270.753906 201.484375 271.875 201.285156 273.066406 201.078125 C 273.347656 201.027344 273.632812 200.972656 273.921875 200.921875 C 279.261719 207.164062 286.382812 213.058594 294.980469 210.914062 C 299.605469 209.761719 303.53125 206.636719 306.992188 203.496094 C 309.222656 201.476562 311.351562 199.332031 313.386719 197.097656 C 313.632812 197.242188 313.875 197.375 314.125 197.496094 C 316.410156 198.640625 318.960938 199.085938 321.433594 199.519531 C 324.1875 200.003906 326.796875 200.460938 328.964844 201.808594 C 323.285156 204.230469 319.003906 209.683594 317.898438 215.761719 C 317.808594 216.25 318.628906 216.257812 318.75 215.84375 C 320.535156 209.941406 324.679688 205.355469 330.039062 202.578125 C 333.097656 205.121094 334.179688 209.324219 335.101562 213.769531 C 337.523438 225.453125 339.738281 237.308594 341.980469 249.429688 C 336.039062 252.535156 329.746094 255.054688 323.285156 256.9375 Z M 285.65625 193.386719 C 285.742188 194.816406 285.855469 196.257812 286 197.699219 C 285.625 199.234375 284.691406 200.453125 282.800781 200.59375 C 282.214844 200.636719 282.148438 201.492188 282.792969 201.488281 C 284.738281 201.480469 286.933594 200.0625 287.414062 198.195312 C 287.460938 198.027344 287.488281 197.859375 287.5 197.691406 C 287.535156 197.34375 287.5 196.988281 287.398438 196.625 C 287.226562 194.667969 287.105469 192.714844 287.039062 190.800781 L 287.039062 190.78125 C 286.96875 188.804688 286.953125 186.78125 286.992188 184.769531 L 286.992188 184.53125 C 287.007812 183.90625 287.023438 183.265625 286.996094 182.628906 C 290.691406 182.777344 294.34375 181.867188 297.671875 180.253906 C 301.09375 178.597656 304.722656 176.082031 307.035156 173.03125 C 307.273438 172.714844 306.691406 172.546875 306.480469 172.675781 C 303.464844 174.511719 300.835938 176.84375 297.660156 178.445312 C 294.238281 180.167969 290.59375 181.1875 286.734375 180.964844 C 286.679688 180.964844 286.632812 180.964844 286.585938 180.964844 C 286.550781 180.941406 286.511719 180.917969 286.472656 180.902344 C 284.777344 180.097656 283.457031 178.5625 282.25 177.0625 C 278.84375 172.824219 275.269531 167.730469 274.570312 162.070312 C 274.402344 160.679688 274.382812 159.136719 274.515625 157.214844 C 274.515625 157.195312 274.519531 157.179688 274.519531 157.160156 C 274.589844 156.148438 274.699219 155.105469 274.796875 154.101562 C 275.144531 150.707031 275.496094 147.214844 274.621094 143.871094 C 275.226562 143.726562 275.808594 143.507812 276.34375 143.234375 C 280.21875 141.242188 281.515625 136.695312 284.421875 133.742188 C 286.136719 132.003906 288.375 130.824219 290.792969 131.835938 C 292.667969 132.617188 294.179688 134.097656 296.25 134.410156 C 298.679688 134.785156 300.625 133.75 302.1875 132.183594 C 303.074219 134.707031 305.554688 136.921875 307.152344 138.9375 C 310.714844 143.445312 308.617188 148.730469 307.871094 153.789062 C 307.652344 155.277344 306.964844 158.550781 308.851562 159.308594 C 310.386719 159.929688 311.746094 158.414062 312.464844 157.273438 C 313.347656 155.851562 314.066406 154.359375 314.621094 152.8125 C 315.140625 153.695312 316.410156 153.902344 316.375 155.203125 C 316.328125 157.039062 314.308594 157.464844 313.234375 158.558594 C 312.925781 158.875 313.328125 159.199219 313.660156 159.164062 C 315.703125 158.941406 317.980469 157.042969 317.824219 154.84375 C 317.757812 153.960938 317.378906 153.414062 316.722656 152.863281 C 315.898438 152.179688 315.246094 151.339844 316.429688 150.480469 C 317.003906 150.058594 317.898438 149.929688 318.574219 149.695312 C 318.792969 149.621094 318.800781 149.324219 318.539062 149.300781 C 317.578125 149.203125 316.304688 149.414062 315.417969 150.011719 C 315.644531 149 315.800781 147.972656 315.890625 146.9375 C 317.652344 146.0625 319.671875 146.457031 321.0625 148.28125 C 322.726562 150.464844 322.464844 153.46875 321.40625 155.851562 C 319.488281 160.195312 315.417969 161.992188 310.988281 162.660156 C 310.433594 162.742188 310.148438 163.597656 310.84375 163.710938 C 310.96875 163.730469 311.089844 163.746094 311.214844 163.761719 C 309.609375 165.507812 308.53125 168.070312 308.390625 170.25 C 308.339844 171.039062 308.613281 171.902344 309.070312 172.566406 C 309.042969 172.65625 309.015625 172.75 308.988281 172.84375 C 308.980469 172.847656 308.980469 172.855469 308.980469 172.863281 C 308.332031 175.089844 308.328125 177.523438 308.367188 179.625 C 308.453125 184.152344 308.664062 188.730469 308.980469 193.230469 C 308.996094 193.410156 309.070312 193.574219 309.191406 193.703125 C 310.1875 194.730469 311.136719 195.570312 312.082031 196.253906 C 310.34375 198.046875 308.59375 199.832031 306.765625 201.535156 C 303.492188 204.59375 299.851562 207.792969 295.5 209.160156 C 287.550781 211.660156 280.910156 206.027344 275.382812 200.605469 C 279.53125 199.566406 283.222656 196.941406 285.65625 193.386719 Z M 343.558594 249.703125 C 341.28125 237.382812 339.035156 225.339844 336.574219 213.460938 C 335.683594 209.164062 334.550781 204.757812 331.507812 201.875 C 331.253906 201.636719 330.992188 201.410156 330.714844 201.195312 C 330.707031 201.191406 330.707031 201.183594 330.699219 201.179688 C 328.089844 199.164062 324.839844 198.597656 321.691406 198.042969 C 319.332031 197.628906 316.890625 197.199219 314.796875 196.15625 C 314.667969 196.089844 314.539062 196.023438 314.410156 195.957031 C 313.988281 195.722656 313.5625 195.457031 313.140625 195.160156 C 312.265625 194.550781 311.390625 193.789062 310.464844 192.855469 C 310.15625 188.460938 309.957031 184.003906 309.867188 179.597656 C 309.835938 177.785156 309.835938 175.730469 310.269531 173.855469 L 310.339844 173.855469 C 312.285156 173.84375 314.171875 172.582031 314.914062 170.792969 C 314.980469 170.636719 315.042969 170.464844 315.113281 170.292969 C 315.394531 169.554688 315.617188 169.027344 315.953125 168.988281 C 316.144531 168.964844 316.417969 169.113281 316.707031 169.269531 C 316.964844 169.410156 317.25 169.5625 317.578125 169.65625 C 319.207031 170.132812 320.734375 168.894531 321.347656 167.488281 C 321.703125 166.667969 321.824219 165.816406 321.949219 164.992188 C 322.007812 164.5625 322.070312 164.164062 322.160156 163.769531 C 322.300781 163.128906 322.511719 162.714844 322.800781 162.503906 C 323.34375 162.101562 324.242188 162.351562 324.851562 162.683594 C 325.15625 162.855469 325.449219 163.058594 325.761719 163.273438 C 326.308594 163.644531 326.867188 164.035156 327.539062 164.28125 C 329.195312 164.898438 331.25 164.484375 332.761719 163.222656 C 333.992188 162.199219 334.898438 160.65625 335.390625 158.761719 C 336.429688 154.761719 335.355469 150.367188 332.59375 147.289062 C 332.460938 147.144531 332.332031 147.003906 332.203125 146.867188 C 331.8125 146.457031 331.449219 146.066406 331.199219 145.632812 C 330.5 144.445312 330.644531 142.945312 330.789062 141.359375 C 330.824219 140.984375 330.859375 140.613281 330.878906 140.246094 C 331.019531 138.058594 330.355469 135.246094 328.042969 134.511719 C 327.46875 134.332031 326.90625 134.316406 326.359375 134.300781 C 325.8125 134.285156 325.292969 134.273438 324.894531 134.074219 C 324.1875 133.71875 323.894531 132.777344 323.863281 132.015625 C 323.835938 131.453125 323.90625 130.871094 323.980469 130.257812 C 324.035156 129.816406 324.09375 129.355469 324.117188 128.886719 C 324.234375 125.878906 322.683594 122.867188 320.164062 121.21875 C 318.632812 120.214844 316.730469 119.71875 314.847656 119.820312 C 314.484375 118.289062 312.902344 117.117188 311.359375 116.828125 C 310.269531 116.628906 309.191406 116.71875 308.152344 116.804688 C 307.484375 116.863281 306.859375 116.914062 306.230469 116.898438 C 304 116.816406 301.84375 115.773438 299.765625 114.765625 C 299.355469 114.570312 298.953125 114.371094 298.542969 114.179688 C 296.261719 113.109375 292.875 111.820312 289.753906 112.976562 C 287.851562 113.679688 286.441406 115.136719 285.085938 116.542969 C 283.714844 117.960938 282.421875 119.300781 280.722656 119.8125 C 279.472656 120.1875 278.128906 120.074219 276.703125 119.953125 C 275.296875 119.835938 273.84375 119.714844 272.40625 120.074219 C 268.761719 120.984375 266.765625 124.601562 265.902344 126.671875 C 264.824219 129.261719 264.226562 132.105469 264.167969 134.902344 C 264.148438 135.714844 264.171875 136.558594 264.1875 137.371094 C 264.261719 140.515625 264.335938 143.765625 262.347656 145.847656 C 262.15625 146.050781 261.941406 146.253906 261.726562 146.464844 C 260.609375 147.539062 259.082031 149.015625 259.882812 150.761719 C 260.667969 152.484375 262.929688 152.496094 264.699219 151.777344 L 264.953125 151.671875 C 266.113281 151.191406 267.316406 150.695312 268.128906 151.210938 C 268.746094 151.597656 268.949219 152.421875 269.183594 153.378906 C 269.300781 153.859375 269.421875 154.355469 269.613281 154.828125 C 270.160156 156.210938 271.417969 157.285156 272.980469 157.75 C 272.886719 159.480469 272.917969 160.921875 273.082031 162.25 C 273.824219 168.285156 277.542969 173.597656 281.078125 177.996094 C 282.257812 179.464844 283.65625 181.089844 285.453125 182.066406 C 285.53125 182.847656 285.515625 183.652344 285.496094 184.5 L 285.492188 184.738281 C 285.453125 186.71875 285.464844 188.703125 285.535156 190.648438 C 283.414062 194.878906 279.472656 198.058594 274.945312 199.171875 C 274.675781 199.238281 274.398438 199.296875 274.117188 199.355469 C 273.683594 199.441406 273.246094 199.519531 272.816406 199.59375 C 272.8125 199.597656 272.808594 199.597656 272.804688 199.597656 C 271.601562 199.8125 270.363281 200.03125 269.164062 200.464844 C 265.125 201.945312 261.878906 205.917969 260.484375 211.09375 C 259.457031 214.910156 259.433594 218.90625 259.410156 222.769531 C 259.402344 223.425781 259.398438 224.082031 259.390625 224.734375 C 259.257812 234.503906 257.980469 244.324219 256.566406 254.367188 C 256.519531 254.707031 256.710938 255.039062 257.03125 255.167969 C 260.894531 256.707031 264.855469 258.007812 268.878906 259.066406 C 269.296875 259.175781 269.714844 259.28125 270.132812 259.386719 C 278.324219 261.433594 286.757812 262.472656 295.191406 262.472656 C 298.011719 262.472656 300.839844 262.355469 303.648438 262.121094 C 309.707031 261.613281 315.761719 260.539062 321.6875 258.941406 C 322.261719 258.785156 322.835938 258.625 323.410156 258.460938 C 330.25 256.488281 336.90625 253.816406 343.167969 250.5 C 343.460938 250.347656 343.617188 250.023438 343.558594 249.703125 " fill-opacity="1" fill-rule="nonzero"/></g></svg>