<svg xmlns="http://www.w3.org/2000/svg" xmlns:xlink="http://www.w3.org/1999/xlink" width="800" zoomAndPan="magnify" viewBox="0 0 600 374.999991" height="500" preserveAspectRatio="xMidYMid meet" version="1.0"><defs><clipPath id="57f1d43825"><path d="M 254.476562 114 L 345 114 L 345 262.5 L 254.476562 262.5 Z M 254.476562 114 " clip-rule="nonzero"/></clipPath></defs><rect x="-60" width="720" fill="#ffffff" y="-37.499999" height="449.999989" fill-opacity="1"/><rect x="-60" width="720" fill="#00eded" y="-37.499999" height="449.999989" fill-opacity="1"/><g clip-path="url(#57f1d43825)"><path fill="#0f0e0c" d="M 342.742188 235.082031 C 341.007812 230.265625 338.300781 225.847656 335.683594 221.578125 C 335.074219 220.578125 334.457031 219.578125 333.859375 218.574219 C 331.871094 215.25 329.949219 211.730469 328.65625 208 C 328.699219 207.953125 328.738281 207.902344 328.765625 207.847656 C 329.597656 206.320312 330.539062 204.582031 330.917969 202.679688 C 331.34375 200.488281 330.878906 198.347656 329.671875 196.949219 C 329.054688 196.238281 328.289062 195.734375 327.542969 195.253906 C 326.699219 194.695312 325.898438 194.171875 325.4375 193.40625 C 325.042969 192.738281 324.925781 191.910156 324.804688 191.03125 C 324.738281 190.566406 324.671875 190.085938 324.558594 189.609375 C 323.867188 186.691406 321.4375 184.144531 318.0625 182.796875 C 315.898438 181.9375 313.597656 181.605469 311.554688 181.433594 C 311.550781 180.71875 311.554688 180.019531 311.5625 179.34375 C 315.703125 179.667969 320.113281 178.550781 324.066406 176.160156 C 328.167969 173.675781 331.523438 170.011719 333.511719 165.832031 C 337.609375 157.234375 337.203125 146.195312 332.40625 135.542969 C 327.710938 125.113281 319.921875 117.65625 311.042969 115.082031 C 302.679688 112.65625 292.953125 115.386719 287.703125 121.578125 C 284.65625 120.882812 280.980469 121.925781 278.378906 124.253906 C 275.179688 127.128906 273.589844 131.28125 272.453125 134.96875 C 269.890625 143.289062 269.355469 150.292969 270.816406 156.386719 C 272.234375 162.300781 275.859375 167.476562 280.546875 170.28125 C 281.558594 172.875 282.84375 174.886719 284.464844 176.433594 C 286.003906 177.914062 287.976562 179.007812 290.179688 179.621094 C 290.253906 180.527344 290.3125 181.457031 290.359375 182.390625 C 286.953125 184.917969 283.539062 187.445312 280.132812 189.972656 L 278.226562 191.386719 C 276.863281 192.398438 275.210938 193.621094 274.222656 195.332031 C 274.070312 195.597656 273.933594 195.871094 273.816406 196.160156 C 273.675781 196.5 273.570312 196.855469 273.503906 197.21875 C 273.421875 197.28125 273.34375 197.34375 273.265625 197.40625 C 271.191406 199.117188 269.519531 201.757812 268.527344 204.921875 C 267.890625 206.949219 267.515625 209.054688 267.148438 211.089844 C 266.777344 213.144531 266.398438 215.269531 265.753906 217.261719 C 264.628906 220.757812 262.652344 223.996094 260.742188 227.125 C 260.324219 227.816406 259.902344 228.503906 259.492188 229.195312 C 257.148438 233.132812 254.9375 237.4375 254.625 242.210938 C 254.46875 244.648438 254.925781 247.164062 255.921875 249.300781 C 255.921875 249.308594 255.925781 249.3125 255.929688 249.320312 C 255.929688 249.328125 255.933594 249.332031 255.9375 249.34375 C 255.941406 249.347656 255.945312 249.351562 255.945312 249.359375 C 255.957031 249.386719 255.976562 249.417969 255.996094 249.445312 C 256.003906 249.457031 256.015625 249.46875 256.023438 249.480469 C 256.035156 249.503906 256.050781 249.519531 256.066406 249.539062 C 259.5625 253.386719 264.261719 256.527344 269.644531 258.625 C 269.945312 258.742188 270.242188 258.851562 270.546875 258.960938 C 271.554688 259.328125 272.589844 259.667969 273.65625 259.96875 C 278.628906 261.390625 284.285156 262.15625 290.820312 262.296875 C 291.570312 262.308594 292.316406 262.320312 293.066406 262.320312 C 299.96875 262.320312 306.859375 261.640625 313.636719 260.3125 C 324.054688 258.273438 334.207031 254.695312 343.707031 249.667969 C 343.746094 249.648438 343.78125 249.628906 343.808594 249.605469 C 343.820312 249.59375 343.832031 249.582031 343.847656 249.570312 C 343.867188 249.554688 343.890625 249.53125 343.914062 249.507812 C 343.914062 249.503906 343.914062 249.503906 343.921875 249.5 C 343.949219 249.46875 343.96875 249.4375 343.988281 249.402344 C 344.011719 249.367188 344.035156 249.332031 344.050781 249.289062 C 344.0625 249.25 344.074219 249.210938 344.085938 249.164062 C 344.089844 249.144531 344.097656 249.125 344.097656 249.101562 C 345.203125 243.714844 343.96875 238.507812 342.742188 235.082031 " fill-opacity="1" fill-rule="nonzero"/><path fill="#0f0e0c" d="M 285.355469 152.046875 C 285.355469 154.195312 284.609375 155.933594 283.695312 155.933594 C 282.777344 155.933594 282.03125 154.195312 282.03125 152.046875 C 282.03125 149.902344 282.777344 148.167969 283.695312 148.167969 C 284.609375 148.167969 285.355469 149.902344 285.355469 152.046875 Z M 285.238281 134.796875 C 285.289062 134.796875 285.292969 134.859375 285.238281 134.859375 C 285.1875 134.859375 285.1875 134.796875 285.238281 134.796875 Z M 286.234375 145.820312 C 285.976562 146.070312 285.515625 146.222656 285.171875 146.078125 C 284.65625 145.863281 284.253906 145.339844 283.679688 145.289062 C 283.164062 145.246094 282.566406 145.503906 282.054688 145.601562 C 280.945312 145.808594 279.933594 144.609375 281.023438 143.800781 C 282.148438 142.964844 283.796875 142.445312 285.152344 143.019531 C 286.171875 143.449219 287.273438 144.824219 286.234375 145.820312 Z M 288.171875 162.191406 C 287.074219 160.910156 287.609375 159.359375 288.367188 158.050781 C 289.457031 156.15625 290.25 154.441406 290.359375 152.21875 C 290.492188 149.871094 289.648438 148.078125 288.882812 145.941406 C 288.738281 145.523438 289.328125 145.398438 289.582031 145.613281 C 292.066406 147.769531 292.449219 152.058594 291.644531 155.039062 C 291.429688 155.839844 291.125 156.589844 290.730469 157.3125 C 290.179688 158.308594 289.09375 159.46875 289.441406 160.664062 C 289.9375 162.351562 292.535156 162.0625 293.601562 163.308594 C 294.035156 163.8125 293.371094 164.460938 292.8125 164.261719 C 291.335938 163.730469 289.257812 163.457031 288.171875 162.191406 Z M 298.464844 170.8125 C 297.542969 172.351562 295.175781 172.761719 293.582031 172.210938 C 293.152344 172.058594 293.289062 171.488281 293.722656 171.476562 C 294.574219 171.453125 295.382812 171.378906 296.160156 171.023438 C 296.6875 170.78125 297.183594 170.476562 297.71875 170.25 C 298.042969 170.113281 298.730469 170.359375 298.464844 170.8125 Z M 288.320312 168.210938 C 287.917969 168.003906 288.335938 167.507812 288.671875 167.574219 C 290.890625 168.007812 293.101562 167.96875 295.214844 167.074219 C 297.101562 166.28125 298.269531 164.828125 299.804688 163.570312 C 300.09375 163.332031 300.875 163.457031 300.757812 163.953125 C 300.207031 166.234375 297.664062 167.722656 295.617188 168.460938 C 293.28125 169.316406 290.5625 169.359375 288.320312 168.210938 Z M 303.792969 152.046875 C 303.792969 154.195312 303.046875 155.933594 302.128906 155.933594 C 301.214844 155.933594 300.46875 154.195312 300.46875 152.046875 C 300.46875 149.902344 301.214844 148.167969 302.128906 148.167969 C 303.046875 148.167969 303.792969 149.902344 303.792969 152.046875 Z M 296.507812 145.488281 C 297.382812 143.84375 298.832031 142.703125 300.660156 142.296875 C 302.496094 141.882812 305.128906 142.34375 305.84375 144.34375 C 306.175781 145.265625 305.179688 145.84375 304.355469 145.65625 C 302.195312 145.167969 300.34375 144.339844 298.648438 146.320312 C 297.984375 147.101562 295.839844 146.746094 296.507812 145.488281 Z M 317.804688 125.34375 C 317.519531 124.960938 318.171875 124.671875 318.441406 124.949219 C 322.734375 129.390625 325.898438 134.898438 328.066406 140.664062 C 330.140625 146.1875 331.878906 153.507812 328.457031 158.867188 C 328.140625 159.363281 327.089844 159.28125 327.332031 158.5625 C 331.316406 146.878906 324.660156 134.535156 317.804688 125.34375 Z M 313.972656 259.027344 C 313.941406 259.292969 313.726562 259.453125 313.476562 259.503906 C 313.113281 259.578125 312.6875 259.414062 312.710938 258.984375 C 312.992188 253.792969 313.617188 248.605469 314.085938 243.429688 C 314.328125 240.75 314.570312 238.066406 314.8125 235.386719 C 314.871094 234.765625 314.925781 234.144531 314.980469 233.523438 C 315.140625 231.734375 315.304688 229.949219 315.464844 228.164062 C 315.933594 222.976562 316.410156 217.789062 316.894531 212.601562 C 317.191406 209.46875 317.570312 205.65625 320.570312 203.914062 C 320.871094 203.742188 321.503906 204.054688 321.125 204.371094 C 318.09375 206.890625 318.246094 211.402344 317.933594 214.996094 C 317.507812 219.886719 317.074219 224.78125 316.636719 229.671875 C 316.578125 230.316406 316.523438 230.960938 316.46875 231.605469 C 316.523438 231.542969 316.570312 231.484375 316.617188 231.421875 C 317.519531 230.300781 318.457031 229.210938 319.4375 228.167969 C 321.039062 226.460938 322.832031 224.746094 325.09375 223.984375 C 325.679688 223.785156 326.257812 223.675781 326.8125 223.648438 C 326.65625 222.339844 326.53125 221.027344 326.320312 219.742188 C 325.925781 217.347656 325.457031 214.960938 324.921875 212.589844 C 324.375 210.222656 323.789062 207.867188 323.113281 205.527344 C 322.785156 204.390625 322.390625 203.246094 322.039062 202.089844 C 321.015625 202.066406 319.992188 202.066406 318.96875 202.105469 C 315.921875 202.222656 312.886719 202.535156 309.882812 203.054688 C 303.851562 204.089844 298 205.925781 292.320312 208.195312 C 291.992188 208.324219 291.605469 207.882812 291.984375 207.683594 C 297.511719 204.800781 303.476562 202.902344 309.609375 201.828125 C 313.476562 201.148438 317.582031 200.644531 321.632812 200.628906 C 321.980469 200.625 322.324219 200.625 322.664062 200.632812 C 324.597656 200.664062 326.503906 200.8125 328.363281 201.113281 C 329.230469 201.253906 328.707031 202.285156 328.035156 202.273438 C 327.78125 202.269531 327.523438 202.261719 327.273438 202.253906 C 326.773438 202.242188 326.277344 202.226562 325.777344 202.210938 C 324.9375 202.179688 324.09375 202.144531 323.253906 202.121094 C 323.671875 203.277344 324.015625 204.460938 324.367188 205.597656 C 325.09375 207.910156 325.75 210.246094 326.308594 212.605469 C 326.886719 215.058594 327.382812 217.53125 327.800781 220.011719 C 328.007812 221.25 328.25 222.515625 328.417969 223.789062 C 331.230469 224.433594 333.402344 227.101562 334.414062 229.949219 C 334.53125 230.277344 334.015625 230.449219 333.824219 230.214844 C 332.234375 228.253906 330.671875 225.847656 328.558594 225.039062 C 328.058594 224.839844 327.527344 224.734375 326.953125 224.753906 C 326.167969 224.769531 325.308594 225.011719 324.355469 225.546875 C 322.371094 226.667969 320.792969 228.449219 319.304688 230.144531 C 318.230469 231.375 317.308594 232.808594 316.257812 234.078125 C 315.582031 242.296875 315.023438 250.558594 314.011719 258.730469 C 314 258.828125 313.984375 258.925781 313.972656 259.027344 Z M 294.441406 220.5625 C 294.226562 217.164062 293.5625 213.695312 293.535156 210.300781 C 293.535156 209.921875 294.21875 209.714844 294.355469 210.109375 C 295.476562 213.328125 295.746094 217.09375 296.039062 220.476562 C 296.328125 223.824219 296.476562 227.179688 296.441406 230.542969 C 296.398438 234.128906 296.1875 237.71875 295.777344 241.28125 C 295.574219 243.066406 295.320312 244.847656 295.027344 246.617188 C 294.785156 248.085938 294.769531 249.925781 293.820312 251.113281 C 293.601562 251.386719 292.925781 251.476562 292.765625 251.078125 C 292.214844 249.691406 293.035156 247.605469 293.265625 246.148438 C 293.535156 244.46875 293.757812 242.785156 293.945312 241.09375 C 294.328125 237.707031 294.570312 234.308594 294.644531 230.898438 C 294.714844 227.453125 294.664062 223.996094 294.441406 220.5625 Z M 283.160156 221.917969 C 283.386719 218.109375 283.417969 214.296875 283.625 210.492188 C 283.644531 210.167969 284.1875 210.105469 284.246094 210.4375 C 284.878906 214.007812 284.71875 217.753906 284.597656 221.363281 C 284.480469 224.78125 284.320312 228.195312 284.308594 231.617188 C 284.289062 235 284.441406 238.394531 284.984375 241.742188 C 285.261719 243.386719 285.625 245.019531 286.097656 246.613281 C 286.546875 248.125 287.316406 249.578125 287.675781 251.097656 C 287.871094 251.90625 286.570312 252.207031 286.152344 251.640625 C 285.222656 250.367188 284.757812 248.589844 284.320312 247.089844 C 283.855469 245.484375 283.515625 243.839844 283.261719 242.1875 C 282.789062 239.054688 282.632812 235.878906 282.652344 232.710938 C 282.667969 229.109375 282.945312 225.511719 283.160156 221.917969 Z M 304.699219 131.054688 C 303.503906 131.628906 302.316406 132.316406 300.945312 132.160156 C 299.941406 132.050781 299.011719 131.542969 298.058594 131.246094 C 296.429688 130.746094 294.933594 130.832031 293.570312 131.929688 C 291.917969 133.257812 290.769531 134.609375 288.746094 134.378906 C 290.007812 131.113281 291.449219 127.445312 294.703125 126.058594 C 298.925781 124.261719 302.535156 127.496094 304.699219 131.054688 Z M 285.480469 175.363281 C 283.972656 173.921875 282.777344 172.007812 281.832031 169.511719 C 281.289062 168.082031 280.832031 166.5 280.34375 164.375 C 278.964844 158.304688 278.171875 152.121094 277.972656 145.917969 C 278.820312 144.921875 279.472656 143.683594 279.921875 142.667969 C 280.5625 141.210938 281.003906 139.675781 281.5625 138.1875 C 281.867188 137.378906 282.191406 136.578125 282.605469 135.820312 C 282.996094 135.089844 284.804688 131.953125 285.957031 134.136719 C 286.105469 134.421875 286.605469 134.328125 286.617188 134 C 286.65625 132.660156 285.214844 132.179688 284.101562 132.535156 C 282.550781 133.03125 281.585938 134.710938 280.886719 136.074219 C 280.011719 137.765625 279.441406 139.59375 278.726562 141.355469 C 278.539062 141.8125 278.269531 142.476562 277.925781 143.171875 C 277.535156 143.960938 277.050781 144.789062 276.480469 145.402344 C 275.878906 146.0625 275.175781 146.476562 274.394531 146.347656 C 273.554688 146.210938 272.824219 147.339844 273.855469 147.613281 C 274.859375 147.878906 275.757812 147.671875 276.542969 147.1875 C 276.804688 153.074219 277.59375 158.941406 278.90625 164.703125 C 279.191406 165.933594 279.460938 166.996094 279.75 167.953125 C 276.152344 165.210938 273.414062 160.894531 272.253906 156.039062 C 270.855469 150.210938 271.382812 143.464844 273.863281 135.40625 C 274.9375 131.914062 276.433594 127.992188 279.363281 125.363281 C 281.164062 123.746094 283.535156 122.839844 285.734375 122.839844 C 286.179688 122.839844 286.617188 122.875 287.039062 122.953125 C 285.617188 125.015625 285.117188 127.765625 285.785156 130.132812 C 285.855469 130.40625 286.328125 130.277344 286.339844 130.023438 C 286.507812 126.445312 287.871094 123.859375 290.117188 121.179688 C 295.199219 116.382812 303.449219 114.421875 310.632812 116.503906 C 319.09375 118.960938 326.546875 126.121094 331.0625 136.15625 C 335.679688 146.40625 336.085938 156.988281 332.183594 165.191406 C 328.382812 173.183594 319.625 178.523438 311.597656 177.863281 C 311.660156 175.1875 311.8125 172.476562 312.058594 169.796875 C 312.683594 168.914062 313.289062 167.984375 313.859375 167.007812 C 315.167969 165.300781 315.820312 162.65625 315.589844 160.386719 C 315.609375 160.40625 315.628906 160.425781 315.65625 160.445312 C 318.671875 163 322.933594 163.898438 326.425781 162.074219 C 326.765625 161.898438 327.105469 161.6875 327.4375 161.453125 C 327.613281 161.328125 327.710938 161.199219 327.746094 161.074219 C 327.84375 160.726562 327.492188 160.414062 327.054688 160.335938 C 321.550781 154.199219 320.785156 145.953125 319.140625 138.035156 C 318.289062 133.9375 317.066406 129.875 314.675781 126.398438 C 312.757812 123.597656 309.824219 120.878906 306.308594 120.527344 C 306.03125 120.5 305.605469 120.898438 305.984375 121.082031 C 309.625 122.828125 312.253906 125.308594 314.179688 128.886719 C 316.316406 132.859375 317.160156 137.394531 317.953125 141.789062 C 319.09375 148.183594 320.28125 156.324219 325.25 161.078125 C 321.066406 162.992188 316.375 159.613281 314.179688 156.042969 C 311.527344 151.722656 310.804688 146.5625 309.898438 141.667969 C 309.261719 138.269531 308.515625 134.683594 306.953125 131.539062 C 306.765625 131.148438 306.554688 130.761719 306.335938 130.386719 C 305.800781 129.46875 305.183594 128.605469 304.46875 127.800781 C 301.792969 124.8125 297.402344 123.105469 293.625 125.070312 C 290.339844 126.773438 288.46875 130.554688 287.535156 134.160156 C 287.476562 134.386719 287.417969 134.617188 287.367188 134.84375 C 287.261719 135.320312 287.167969 135.789062 287.089844 136.242188 C 287.011719 136.691406 287.769531 136.78125 287.929688 136.414062 C 288.066406 136.09375 288.203125 135.761719 288.335938 135.417969 C 289.21875 135.722656 290.253906 135.597656 291.144531 135.285156 C 293.160156 134.582031 294.570312 131.859375 296.804688 132.3125 C 298.832031 132.722656 300.34375 133.828125 302.496094 133.351562 C 303.464844 133.136719 304.398438 132.648438 305.34375 132.203125 C 305.644531 132.785156 305.90625 133.367188 306.121094 133.921875 C 309.1875 141.816406 308.226562 152.328125 314.121094 158.949219 C 314.105469 159.027344 314.128906 159.113281 314.160156 159.289062 C 313.964844 160.6875 313.9375 162.074219 313.550781 163.457031 C 313.273438 164.445312 312.847656 165.378906 312.53125 166.347656 L 312.53125 166.351562 C 311.960938 167.3125 311.363281 168.234375 310.738281 169.097656 C 308.058594 172.839844 304.972656 175.546875 301.578125 177.152344 C 299.382812 178.1875 296.945312 178.726562 294.5625 178.726562 C 293.375 178.726562 292.207031 178.59375 291.082031 178.324219 C 291.066406 178.320312 291.058594 178.320312 291.046875 178.316406 C 288.851562 177.789062 286.980469 176.796875 285.480469 175.363281 Z M 282.542969 199.230469 C 282.136719 198.128906 282.460938 196.863281 283.003906 195.871094 C 284.269531 193.542969 286.980469 192.433594 288.910156 190.769531 C 289.449219 190.308594 289.992188 189.785156 290.492188 189.207031 C 290.46875 191.054688 290.394531 192.894531 290.28125 194.71875 C 290.273438 194.769531 290.28125 194.820312 290.285156 194.867188 C 290.25 194.972656 290.207031 195.074219 290.164062 195.175781 C 289.777344 196.09375 289 196.773438 288.617188 197.671875 C 288.550781 197.8125 288.757812 197.921875 288.867188 197.90625 C 290.992188 197.550781 292.429688 194.597656 291.871094 192.570312 C 291.957031 190.707031 291.988281 188.832031 291.972656 186.953125 C 291.96875 186.453125 291.964844 185.949219 291.953125 185.449219 C 291.933594 184.535156 291.898438 183.625 291.859375 182.714844 C 291.8125 181.789062 291.757812 180.863281 291.691406 179.960938 C 292.621094 180.125 293.589844 180.203125 294.558594 180.203125 C 297.160156 180.203125 299.820312 179.621094 302.207031 178.492188 C 305.195312 177.082031 307.941406 174.886719 310.402344 171.949219 C 310.246094 174.140625 310.148438 176.335938 310.101562 178.511719 L 310.101562 178.527344 C 310.078125 179.671875 310.066406 180.875 310.082031 182.117188 L 310.082031 182.136719 C 310.097656 184.703125 310.199219 187.316406 310.378906 189.914062 C 310.246094 189.949219 310.125 189.984375 310 190.019531 C 306.851562 190.945312 303.832031 192.328125 301.066406 194.105469 C 296.6875 196.925781 292.925781 200.65625 290.164062 205.058594 C 289.253906 204.628906 288.53125 203.855469 287.765625 203.199219 C 287.058594 202.597656 286.316406 202.140625 285.496094 201.710938 C 284.355469 201.109375 283.027344 200.546875 282.542969 199.230469 Z M 342.738281 235.082031 C 341.007812 230.265625 338.300781 225.847656 335.683594 221.582031 C 335.074219 220.578125 334.457031 219.578125 333.859375 218.574219 C 331.871094 215.25 329.945312 211.730469 328.65625 208 C 328.699219 207.953125 328.738281 207.90625 328.765625 207.847656 C 329.597656 206.320312 330.539062 204.582031 330.917969 202.679688 C 331.34375 200.488281 330.878906 198.347656 329.671875 196.953125 C 329.054688 196.242188 328.285156 195.738281 327.542969 195.253906 C 326.699219 194.695312 325.898438 194.171875 325.4375 193.40625 C 325.042969 192.738281 324.925781 191.910156 324.804688 191.03125 C 324.738281 190.566406 324.667969 190.085938 324.558594 189.609375 C 323.867188 186.691406 321.4375 184.144531 318.058594 182.796875 C 315.898438 181.9375 313.59375 181.609375 311.554688 181.433594 C 311.546875 180.71875 311.554688 180.019531 311.5625 179.34375 C 315.703125 179.667969 320.113281 178.550781 324.066406 176.160156 C 328.167969 173.675781 331.523438 170.011719 333.511719 165.832031 C 337.609375 157.234375 337.203125 146.195312 332.402344 135.542969 C 327.710938 125.113281 319.921875 117.65625 311.039062 115.082031 C 302.675781 112.65625 292.953125 115.386719 287.703125 121.578125 C 284.65625 120.882812 280.980469 121.925781 278.378906 124.257812 C 275.179688 127.128906 273.585938 131.285156 272.449219 134.96875 C 269.890625 143.289062 269.355469 150.292969 270.816406 156.386719 C 272.234375 162.304688 275.859375 167.476562 280.546875 170.28125 C 281.558594 172.875 282.84375 174.886719 284.460938 176.433594 C 286.003906 177.914062 287.976562 179.007812 290.179688 179.621094 C 290.253906 180.527344 290.3125 181.457031 290.359375 182.394531 C 286.953125 184.917969 283.539062 187.445312 280.132812 189.972656 L 278.222656 191.386719 C 276.863281 192.398438 275.210938 193.621094 274.222656 195.332031 C 274.265625 195.375 274.300781 195.433594 274.316406 195.496094 C 274.472656 196.070312 274.617188 196.632812 274.761719 197.191406 L 274.902344 197.734375 L 274.90625 197.738281 C 275.535156 200.089844 276.269531 202.273438 278.167969 204.128906 C 280.648438 206.554688 283.875 207.488281 287.257812 207.648438 C 287.46875 207.660156 287.46875 207.929688 287.28125 207.980469 C 283.742188 208.871094 279.824219 207.648438 277.144531 205.226562 C 275.5 203.738281 274.03125 201.523438 273.488281 199.199219 C 273.347656 198.605469 273.273438 198.007812 273.265625 197.40625 C 271.1875 199.117188 269.519531 201.761719 268.527344 204.925781 C 267.890625 206.949219 267.511719 209.058594 267.144531 211.09375 C 266.777344 213.144531 266.394531 215.269531 265.753906 217.261719 C 264.628906 220.757812 262.652344 223.996094 260.742188 227.125 C 260.320312 227.816406 259.902344 228.503906 259.492188 229.195312 C 257.148438 233.132812 254.9375 237.4375 254.625 242.210938 C 254.464844 244.652344 254.925781 247.164062 255.921875 249.300781 C 255.921875 249.308594 255.925781 249.3125 255.929688 249.320312 C 255.929688 249.328125 255.933594 249.335938 255.9375 249.34375 C 255.9375 249.347656 255.941406 249.351562 255.945312 249.359375 C 255.957031 249.386719 255.976562 249.417969 255.996094 249.445312 C 256.003906 249.457031 256.011719 249.472656 256.023438 249.484375 C 256.035156 249.503906 256.050781 249.519531 256.066406 249.539062 C 259.5625 253.386719 264.257812 256.527344 269.644531 258.625 C 269.945312 258.742188 270.242188 258.855469 270.546875 258.964844 C 269.671875 258.253906 268.957031 257.417969 268.378906 256.488281 C 265.308594 251.570312 266.085938 244.070312 267.679688 238.964844 C 269.222656 234.027344 271.589844 229.34375 272.667969 224.257812 C 273.144531 222 273.414062 219.671875 273.234375 217.363281 C 273.042969 214.871094 272.234375 212.742188 271.191406 210.492188 C 270.96875 210.015625 271.78125 209.695312 272.070312 210.042969 C 274.710938 213.246094 274.984375 217.972656 274.503906 221.925781 C 273.925781 226.65625 272.023438 231.054688 270.375 235.476562 C 268.707031 239.9375 267.183594 244.675781 267.765625 249.503906 C 268.148438 252.675781 269.371094 255.445312 271.40625 257.699219 C 272.035156 258.398438 272.734375 259.042969 273.511719 259.636719 C 273.660156 259.75 273.695312 259.867188 273.65625 259.96875 C 278.628906 261.394531 284.285156 262.15625 290.816406 262.296875 C 291.566406 262.3125 292.316406 262.320312 293.066406 262.320312 C 299.964844 262.320312 306.859375 261.640625 313.636719 260.3125 C 324.054688 258.277344 334.207031 254.695312 343.707031 249.667969 C 343.742188 249.648438 343.777344 249.628906 343.804688 249.605469 C 343.820312 249.59375 343.832031 249.582031 343.847656 249.570312 C 343.867188 249.554688 343.890625 249.53125 343.910156 249.507812 C 343.910156 249.507812 343.914062 249.503906 343.921875 249.5 C 343.949219 249.472656 343.96875 249.4375 343.988281 249.402344 C 344.011719 249.367188 344.03125 249.332031 344.046875 249.289062 C 344.0625 249.25 344.074219 249.210938 344.085938 249.164062 C 344.089844 249.144531 344.09375 249.125 344.09375 249.101562 C 345.203125 243.714844 343.96875 238.507812 342.738281 235.082031 " fill-opacity="1" fill-rule="nonzero"/></g><path fill="#ffffff" d="M 286.097656 246.613281 C 285.625 245.015625 285.261719 243.386719 284.984375 241.742188 C 284.441406 238.394531 284.289062 235 284.308594 231.617188 C 284.320312 228.195312 284.480469 224.78125 284.597656 221.363281 C 284.71875 217.75 284.878906 214.007812 284.246094 210.4375 C 284.1875 210.105469 283.644531 210.167969 283.625 210.492188 C 283.417969 214.296875 283.386719 218.109375 283.160156 221.917969 C 282.945312 225.511719 282.667969 229.109375 282.652344 232.710938 C 282.632812 235.878906 282.789062 239.054688 283.261719 242.1875 C 283.515625 243.839844 283.855469 245.484375 284.320312 247.089844 C 284.757812 248.589844 285.222656 250.363281 286.152344 251.640625 C 286.570312 252.207031 287.871094 251.90625 287.675781 251.097656 C 287.316406 249.578125 286.546875 248.125 286.097656 246.613281 Z M 287.28125 207.976562 C 287.46875 207.929688 287.46875 207.65625 287.261719 207.648438 C 283.878906 207.484375 280.648438 206.554688 278.167969 204.128906 C 276.269531 202.273438 275.535156 200.089844 274.910156 197.734375 L 274.90625 197.734375 L 274.761719 197.191406 C 274.617188 196.632812 274.472656 196.066406 274.316406 195.496094 C 274.300781 195.429688 274.265625 195.375 274.222656 195.332031 C 274.070312 195.597656 273.933594 195.871094 273.816406 196.160156 C 273.675781 196.5 273.570312 196.855469 273.503906 197.21875 C 273.421875 197.28125 273.34375 197.34375 273.265625 197.40625 C 273.273438 198.003906 273.347656 198.605469 273.488281 199.199219 C 274.03125 201.523438 275.5 203.738281 277.144531 205.226562 C 279.824219 207.648438 283.742188 208.871094 287.28125 207.976562 Z M 271.191406 210.492188 C 272.234375 212.742188 273.046875 214.871094 273.238281 217.363281 C 273.417969 219.671875 273.144531 222 272.667969 224.257812 C 271.59375 229.34375 269.222656 234.027344 267.683594 238.964844 C 266.085938 244.070312 265.3125 251.570312 268.382812 256.488281 C 268.957031 257.417969 269.671875 258.25 270.546875 258.960938 C 271.554688 259.328125 272.589844 259.667969 273.65625 259.96875 C 273.695312 259.867188 273.660156 259.746094 273.511719 259.636719 C 272.734375 259.042969 272.035156 258.398438 271.410156 257.699219 C 269.375 255.445312 268.148438 252.675781 267.769531 249.503906 C 267.183594 244.675781 268.707031 239.9375 270.375 235.472656 C 272.027344 231.054688 273.929688 226.65625 274.503906 221.925781 C 274.984375 217.972656 274.714844 213.246094 272.074219 210.042969 C 271.785156 209.691406 270.96875 210.015625 271.191406 210.492188 Z M 294.703125 126.058594 C 291.449219 127.445312 290.007812 131.113281 288.746094 134.375 C 290.769531 134.609375 291.917969 133.253906 293.570312 131.929688 C 294.933594 130.828125 296.429688 130.742188 298.058594 131.246094 C 299.011719 131.542969 299.941406 132.050781 300.945312 132.160156 C 302.316406 132.3125 303.503906 131.625 304.699219 131.054688 C 302.535156 127.492188 298.925781 124.261719 294.703125 126.058594 Z M 285.152344 143.019531 C 283.796875 142.445312 282.148438 142.964844 281.023438 143.800781 C 279.933594 144.609375 280.945312 145.808594 282.054688 145.601562 C 282.566406 145.503906 283.164062 145.246094 283.679688 145.289062 C 284.253906 145.335938 284.65625 145.863281 285.171875 146.078125 C 285.515625 146.222656 285.976562 146.070312 286.234375 145.820312 C 287.273438 144.820312 286.171875 143.449219 285.152344 143.019531 Z M 285.355469 152.046875 C 285.355469 149.902344 284.609375 148.167969 283.695312 148.167969 C 282.777344 148.167969 282.03125 149.902344 282.03125 152.046875 C 282.03125 154.191406 282.777344 155.933594 283.695312 155.933594 C 284.609375 155.933594 285.355469 154.191406 285.355469 152.046875 Z M 285.238281 134.859375 C 285.292969 134.859375 285.289062 134.796875 285.238281 134.796875 C 285.1875 134.796875 285.1875 134.859375 285.238281 134.859375 Z M 317.804688 125.34375 C 324.660156 134.535156 331.316406 146.878906 327.332031 158.5625 C 327.089844 159.28125 328.140625 159.363281 328.457031 158.867188 C 331.878906 153.507812 330.140625 146.1875 328.066406 140.664062 C 325.898438 134.898438 322.734375 129.390625 318.441406 124.949219 C 318.171875 124.671875 317.519531 124.960938 317.804688 125.34375 Z M 288.171875 162.191406 C 289.257812 163.457031 291.335938 163.730469 292.8125 164.261719 C 293.371094 164.460938 294.035156 163.8125 293.601562 163.308594 C 292.535156 162.0625 289.9375 162.351562 289.441406 160.664062 C 289.09375 159.46875 290.179688 158.308594 290.730469 157.3125 C 291.125 156.589844 291.429688 155.835938 291.644531 155.039062 C 292.449219 152.058594 292.066406 147.769531 289.582031 145.613281 C 289.328125 145.398438 288.738281 145.523438 288.882812 145.941406 C 289.648438 148.078125 290.492188 149.871094 290.359375 152.21875 C 290.25 154.441406 289.457031 156.15625 288.367188 158.050781 C 287.609375 159.359375 287.074219 160.910156 288.171875 162.191406 Z M 295.214844 167.074219 C 293.101562 167.96875 290.890625 168.007812 288.671875 167.574219 C 288.335938 167.507812 287.917969 168.003906 288.320312 168.210938 C 290.5625 169.359375 293.28125 169.316406 295.617188 168.460938 C 297.664062 167.722656 300.207031 166.234375 300.757812 163.953125 C 300.875 163.457031 300.09375 163.332031 299.804688 163.570312 C 298.269531 164.828125 297.101562 166.28125 295.214844 167.074219 Z M 298.648438 146.320312 C 300.34375 144.339844 302.195312 145.167969 304.355469 145.65625 C 305.179688 145.84375 306.175781 145.265625 305.84375 144.34375 C 305.128906 142.34375 302.496094 141.882812 300.660156 142.296875 C 298.832031 142.703125 297.382812 143.84375 296.507812 145.488281 C 295.839844 146.746094 297.984375 147.101562 298.648438 146.320312 Z M 303.792969 152.046875 C 303.792969 149.902344 303.046875 148.167969 302.128906 148.167969 C 301.214844 148.167969 300.46875 149.902344 300.46875 152.046875 C 300.46875 154.195312 301.214844 155.933594 302.128906 155.933594 C 303.046875 155.933594 303.792969 154.195312 303.792969 152.046875 Z M 297.71875 170.25 C 297.183594 170.476562 296.6875 170.78125 296.160156 171.023438 C 295.382812 171.378906 294.574219 171.453125 293.722656 171.476562 C 293.289062 171.488281 293.152344 172.058594 293.582031 172.210938 C 295.175781 172.761719 297.542969 172.351562 298.464844 170.8125 C 298.730469 170.359375 298.042969 170.113281 297.71875 170.25 Z M 272.253906 156.039062 C 270.855469 150.210938 271.382812 143.464844 273.863281 135.40625 C 274.9375 131.914062 276.433594 127.992188 279.363281 125.359375 C 281.164062 123.746094 283.535156 122.839844 285.734375 122.839844 C 286.179688 122.839844 286.617188 122.875 287.039062 122.953125 C 285.617188 125.011719 285.117188 127.765625 285.785156 130.132812 C 285.855469 130.40625 286.328125 130.277344 286.339844 130.023438 C 286.507812 126.445312 287.871094 123.859375 290.117188 121.179688 C 295.199219 116.382812 303.449219 114.417969 310.632812 116.503906 C 319.09375 118.957031 326.546875 126.117188 331.0625 136.152344 C 335.679688 146.40625 336.085938 156.988281 332.183594 165.191406 C 328.382812 173.179688 319.625 178.523438 311.597656 177.863281 C 311.660156 175.1875 311.8125 172.476562 312.058594 169.796875 C 312.683594 168.914062 313.289062 167.980469 313.859375 167.007812 C 315.167969 165.300781 315.820312 162.65625 315.589844 160.386719 C 315.609375 160.40625 315.628906 160.425781 315.65625 160.445312 C 318.671875 163 322.933594 163.894531 326.425781 162.074219 C 326.765625 161.898438 327.105469 161.6875 327.4375 161.453125 C 327.613281 161.328125 327.710938 161.199219 327.746094 161.074219 C 327.84375 160.726562 327.492188 160.414062 327.054688 160.335938 C 321.550781 154.199219 320.785156 145.953125 319.140625 138.035156 C 318.289062 133.9375 317.066406 129.875 314.675781 126.398438 C 312.757812 123.597656 309.824219 120.878906 306.308594 120.527344 C 306.03125 120.5 305.605469 120.898438 305.984375 121.082031 C 309.625 122.828125 312.253906 125.308594 314.179688 128.886719 C 316.316406 132.859375 317.160156 137.390625 317.953125 141.789062 C 319.09375 148.183594 320.28125 156.324219 325.25 161.074219 C 321.066406 162.992188 316.375 159.613281 314.179688 156.042969 C 311.527344 151.722656 310.804688 146.5625 309.898438 141.667969 C 309.265625 138.269531 308.515625 134.683594 306.953125 131.539062 C 306.765625 131.148438 306.554688 130.761719 306.335938 130.386719 C 305.800781 129.46875 305.183594 128.605469 304.46875 127.800781 C 301.792969 124.8125 297.402344 123.105469 293.625 125.066406 C 290.339844 126.773438 288.46875 130.554688 287.535156 134.15625 C 287.476562 134.386719 287.417969 134.617188 287.367188 134.84375 C 287.261719 135.320312 287.167969 135.785156 287.089844 136.242188 C 287.011719 136.691406 287.769531 136.777344 287.929688 136.414062 C 288.066406 136.09375 288.203125 135.761719 288.335938 135.417969 C 289.222656 135.722656 290.253906 135.597656 291.144531 135.285156 C 293.160156 134.582031 294.570312 131.859375 296.804688 132.3125 C 298.832031 132.71875 300.34375 133.828125 302.496094 133.351562 C 303.464844 133.132812 304.398438 132.644531 305.34375 132.203125 C 305.644531 132.785156 305.90625 133.367188 306.121094 133.921875 C 309.1875 141.816406 308.226562 152.328125 314.121094 158.949219 C 314.105469 159.027344 314.128906 159.113281 314.160156 159.289062 C 313.964844 160.6875 313.9375 162.074219 313.550781 163.457031 C 313.273438 164.445312 312.847656 165.378906 312.53125 166.347656 C 311.960938 167.3125 311.363281 168.234375 310.742188 169.097656 C 308.058594 172.835938 304.972656 175.546875 301.578125 177.152344 C 299.382812 178.1875 296.945312 178.722656 294.5625 178.722656 C 293.375 178.722656 292.207031 178.589844 291.082031 178.324219 C 291.066406 178.320312 291.058594 178.320312 291.046875 178.316406 C 288.851562 177.789062 286.980469 176.796875 285.480469 175.363281 C 283.972656 173.921875 282.777344 172.007812 281.832031 169.511719 C 281.289062 168.082031 280.832031 166.496094 280.34375 164.375 C 278.964844 158.304688 278.171875 152.121094 277.972656 145.914062 C 278.820312 144.921875 279.472656 143.683594 279.921875 142.667969 C 280.5625 141.210938 281.003906 139.671875 281.5625 138.1875 C 281.867188 137.378906 282.191406 136.578125 282.605469 135.820312 C 282.996094 135.089844 284.804688 131.953125 285.957031 134.136719 C 286.105469 134.421875 286.605469 134.328125 286.617188 134 C 286.65625 132.660156 285.214844 132.179688 284.101562 132.535156 C 282.550781 133.03125 281.585938 134.707031 280.886719 136.074219 C 280.011719 137.765625 279.441406 139.59375 278.726562 141.355469 C 278.539062 141.8125 278.269531 142.476562 277.925781 143.171875 C 277.535156 143.960938 277.050781 144.785156 276.480469 145.402344 C 275.878906 146.0625 275.175781 146.476562 274.394531 146.347656 C 273.554688 146.210938 272.824219 147.339844 273.855469 147.613281 C 274.859375 147.878906 275.757812 147.667969 276.542969 147.1875 C 276.804688 153.074219 277.59375 158.941406 278.90625 164.703125 C 279.191406 165.933594 279.460938 166.996094 279.75 167.953125 C 276.152344 165.207031 273.414062 160.894531 272.253906 156.039062 Z M 328.417969 223.785156 C 328.25 222.515625 328.007812 221.246094 327.800781 220.011719 C 327.386719 217.53125 326.886719 215.058594 326.308594 212.605469 C 325.75 210.246094 325.097656 207.910156 324.371094 205.597656 C 324.015625 204.460938 323.671875 203.277344 323.257812 202.121094 C 324.09375 202.144531 324.941406 202.179688 325.777344 202.210938 C 326.277344 202.226562 326.773438 202.242188 327.277344 202.253906 C 327.523438 202.261719 327.78125 202.269531 328.035156 202.273438 C 328.707031 202.285156 329.230469 201.253906 328.363281 201.113281 C 326.503906 200.8125 324.597656 200.664062 322.664062 200.628906 C 322.324219 200.625 321.980469 200.625 321.632812 200.628906 C 317.582031 200.640625 313.476562 201.148438 309.609375 201.828125 C 303.476562 202.902344 297.511719 204.800781 291.984375 207.683594 C 291.605469 207.882812 291.996094 208.324219 292.324219 208.195312 C 298 205.925781 303.851562 204.089844 309.882812 203.054688 C 312.886719 202.535156 315.921875 202.222656 318.96875 202.105469 C 319.992188 202.066406 321.015625 202.066406 322.039062 202.089844 C 322.390625 203.242188 322.785156 204.390625 323.113281 205.527344 C 323.789062 207.867188 324.375 210.21875 324.921875 212.589844 C 325.460938 214.960938 325.925781 217.347656 326.320312 219.742188 C 326.53125 221.027344 326.660156 222.339844 326.8125 223.648438 C 326.257812 223.675781 325.679688 223.785156 325.097656 223.980469 C 322.835938 224.746094 321.042969 226.460938 319.4375 228.164062 C 318.457031 229.210938 317.519531 230.296875 316.617188 231.421875 C 316.570312 231.484375 316.523438 231.542969 316.46875 231.605469 C 316.523438 230.960938 316.578125 230.316406 316.636719 229.671875 C 317.074219 224.777344 317.507812 219.886719 317.933594 214.996094 C 318.246094 211.398438 318.09375 206.890625 321.128906 204.371094 C 321.503906 204.054688 320.875 203.742188 320.570312 203.914062 C 317.570312 205.65625 317.191406 209.46875 316.894531 212.601562 C 316.410156 217.789062 315.933594 222.976562 315.464844 228.164062 C 315.304688 229.949219 315.140625 231.734375 314.980469 233.523438 C 314.925781 234.144531 314.871094 234.761719 314.8125 235.386719 C 314.570312 238.066406 314.328125 240.75 314.085938 243.429688 C 313.617188 248.605469 312.996094 253.792969 312.710938 258.984375 C 312.6875 259.414062 313.117188 259.574219 313.480469 259.5 C 313.726562 259.453125 313.941406 259.292969 313.976562 259.027344 C 313.988281 258.925781 314 258.828125 314.011719 258.730469 C 315.023438 250.558594 315.585938 242.296875 316.257812 234.078125 C 317.308594 232.808594 318.230469 231.375 319.304688 230.144531 C 320.792969 228.445312 322.371094 226.667969 324.359375 225.546875 C 325.308594 225.011719 326.167969 224.769531 326.953125 224.753906 C 327.527344 224.734375 328.0625 224.839844 328.558594 225.035156 C 330.671875 225.847656 332.238281 228.253906 333.824219 230.210938 C 334.015625 230.445312 334.53125 230.273438 334.417969 229.949219 C 333.402344 227.101562 331.230469 224.433594 328.417969 223.785156 Z M 294.355469 210.109375 C 294.222656 209.714844 293.535156 209.921875 293.535156 210.300781 C 293.5625 213.695312 294.226562 217.164062 294.441406 220.558594 C 294.664062 223.996094 294.71875 227.453125 294.644531 230.898438 C 294.570312 234.308594 294.328125 237.707031 293.945312 241.09375 C 293.757812 242.785156 293.535156 244.46875 293.265625 246.148438 C 293.035156 247.605469 292.214844 249.691406 292.765625 251.078125 C 292.925781 251.476562 293.605469 251.386719 293.820312 251.113281 C 294.769531 249.925781 294.785156 248.085938 295.027344 246.617188 C 295.324219 244.84375 295.578125 243.066406 295.777344 241.28125 C 296.1875 237.71875 296.398438 234.125 296.441406 230.542969 C 296.476562 227.179688 296.328125 223.824219 296.039062 220.472656 C 295.746094 217.09375 295.476562 213.328125 294.355469 210.109375 Z M 290.167969 205.058594 C 289.253906 204.628906 288.53125 203.855469 287.765625 203.199219 C 287.058594 202.597656 286.316406 202.136719 285.496094 201.710938 C 284.355469 201.109375 283.027344 200.546875 282.542969 199.230469 C 282.140625 198.128906 282.460938 196.863281 283.003906 195.871094 C 284.269531 193.539062 286.980469 192.433594 288.910156 190.769531 C 289.449219 190.308594 289.992188 189.785156 290.492188 189.207031 C 290.472656 191.050781 290.398438 192.890625 290.28125 194.71875 C 290.277344 194.765625 290.28125 194.816406 290.289062 194.867188 C 290.25 194.972656 290.207031 195.074219 290.167969 195.171875 C 289.78125 196.089844 289 196.773438 288.617188 197.671875 C 288.550781 197.8125 288.757812 197.921875 288.867188 197.90625 C 290.992188 197.550781 292.429688 194.597656 291.875 192.570312 C 291.960938 190.707031 291.988281 188.832031 291.972656 186.953125 C 291.96875 186.453125 291.964844 185.949219 291.953125 185.445312 C 291.933594 184.535156 291.898438 183.625 291.859375 182.714844 C 291.8125 181.789062 291.757812 180.863281 291.691406 179.960938 C 292.625 180.121094 293.589844 180.203125 294.558594 180.203125 C 297.164062 180.203125 299.820312 179.621094 302.210938 178.492188 C 305.195312 177.082031 307.941406 174.886719 310.40625 171.949219 C 310.246094 174.140625 310.148438 176.335938 310.101562 178.511719 L 310.101562 178.527344 C 310.078125 179.667969 310.066406 180.875 310.082031 182.117188 L 310.082031 182.132812 C 310.101562 184.703125 310.199219 187.316406 310.378906 189.910156 C 310.246094 189.945312 310.125 189.984375 310 190.019531 C 306.851562 190.945312 303.832031 192.328125 301.066406 194.105469 C 296.691406 196.925781 292.929688 200.652344 290.167969 205.058594 " fill-opacity="1" fill-rule="nonzero"/></svg>